<svg width="1920" height="500" viewBox="0 0 1920 500" fill="none" xmlns="http://www.w3.org/2000/svg">
<g clip-path="url(#clip0)">
<path d="M1463.63 237.771C1452.44 218.519 1456.67 177.967 1456.67 177.967L1454.21 180.288C1465.4 150.933 1455.98 139.054 1455.98 139.054C1428.27 97.8191 1386.78 125.127 1386.78 125.127C1386.78 125.127 1356.34 130.042 1367.53 166.361C1368.21 168.546 1368.49 171.277 1368.62 174.008C1368.49 174.281 1363.84 191.621 1362.21 194.898C1360.98 197.219 1367.12 200.496 1370.67 202.134C1378.59 236.542 1380.36 235.313 1380.36 235.313C1394.28 235.996 1405.34 233.675 1414.35 229.715C1415.58 236.133 1416.81 243.233 1416.81 243.233C1419.81 266.99 1386.37 282.283 1386.37 282.283L1449.84 306.313L1513.04 266.034C1513.04 265.761 1477.28 261.256 1463.63 237.771Z" fill="white" stroke="#405391" stroke-miterlimit="10"/>
<path d="M1145.85 449.406L1358.25 430.017L1481.65 464.561L1482.19 473.3L1269.79 492.688L1146.39 458.144L1145.85 449.406Z" fill="white" stroke="#405391" stroke-miterlimit="10" stroke-linejoin="round"/>
<path d="M1151.58 450.225L1359.75 437.937L1327.94 307.406L1124.42 316.963L1151.58 450.225Z" fill="white" stroke="#405391" stroke-miterlimit="10" stroke-linejoin="round"/>
<path d="M1235.26 316.554C1235.53 317.919 1234.85 319.421 1233.62 319.694C1232.39 319.967 1231.16 319.011 1230.75 317.646C1230.48 316.281 1231.16 314.779 1232.39 314.506C1233.62 314.233 1234.99 315.188 1235.26 316.554Z" fill="#405391"/>
<path d="M1124.42 316.963L1327.94 307.406L1124.42 316.963L1151.58 450.225L1145.85 449.542L1120.6 320.923L1124.42 316.963Z" fill="white"/>
<path d="M1124.42 316.963L1327.94 307.406L1124.42 316.963ZM1124.42 316.963L1151.58 450.225L1145.85 449.542L1120.6 320.923L1124.42 316.963Z" stroke="#405391" stroke-miterlimit="10" stroke-linejoin="round"/>
<path d="M1140.25 327.477L1318.12 319.148L1341.73 422.371L1163.18 438.346L1140.25 327.477Z" fill="#8FB6FF" stroke="#405391" stroke-miterlimit="10"/>
<path d="M1145.85 449.406L1269.25 483.813L1481.65 464.561L1358.25 430.017L1145.85 449.406Z" fill="white" stroke="#405391" stroke-miterlimit="10" stroke-linejoin="round"/>
<path d="M1237.44 469.34L1176.02 452.137L1357.7 435.615L1417.49 452.273L1237.44 469.34Z" fill="white" stroke="#405391" stroke-miterlimit="10" stroke-linejoin="round"/>
<path d="M1189.12 455.823L1371.49 439.438" stroke="#405391" stroke-miterlimit="10" stroke-linejoin="round"/>
<path d="M1204.41 460.056L1386.78 443.808" stroke="#405391" stroke-miterlimit="10" stroke-linejoin="round"/>
<path d="M1219.7 464.425L1402.07 448.04" stroke="#405391" stroke-miterlimit="10" stroke-linejoin="round"/>
<path d="M1197.99 450.361L1258.19 467.156" stroke="#405391" stroke-miterlimit="10" stroke-linejoin="round"/>
<path d="M1218.33 448.587L1278.67 465.381" stroke="#405391" stroke-miterlimit="10" stroke-linecap="round" stroke-linejoin="round"/>
<path d="M1235.8 446.812L1296.14 463.606" stroke="#405391" stroke-miterlimit="10" stroke-linecap="round" stroke-linejoin="round"/>
<path d="M1253.41 445.173L1313.61 461.967" stroke="#405391" stroke-miterlimit="10" stroke-linecap="round" stroke-linejoin="round"/>
<path d="M1270.89 443.398L1331.08 460.192" stroke="#405391" stroke-miterlimit="10" stroke-linecap="round" stroke-linejoin="round"/>
<path d="M1289.18 442.033L1348.69 458.554" stroke="#405391" stroke-miterlimit="10" stroke-linecap="round" stroke-linejoin="round"/>
<path d="M1306.65 440.258L1366.71 456.915" stroke="#405391" stroke-miterlimit="10" stroke-linecap="round" stroke-linejoin="round"/>
<path d="M1324.4 438.619L1384.18 455.277" stroke="#405391" stroke-miterlimit="10" stroke-linecap="round" stroke-linejoin="round"/>
<path d="M1342.55 437.117L1401.66 453.502" stroke="#405391" stroke-miterlimit="10" stroke-linecap="round" stroke-linejoin="round"/>
<path d="M1237.85 341.404L1304.6 337.444C1305.15 337.444 1305.56 337.717 1305.69 338.263L1312.38 364.888C1312.52 365.571 1312.11 366.254 1311.43 366.254L1256.42 370.35C1256.14 370.35 1256.01 370.486 1255.73 370.623L1247.27 380.317C1246.59 380.863 1245.63 380.59 1245.36 379.635L1236.62 342.633C1236.62 342.087 1237.17 341.404 1237.85 341.404Z" fill="white" stroke="#405391" stroke-miterlimit="10" stroke-linejoin="round"/>
<path d="M1247.95 391.787L1316.61 386.462L1321.26 402.3L1317.98 402.573L1314.84 402.983L1252.05 408.581L1247.95 391.787Z" fill="white" stroke="#405391" stroke-miterlimit="10" stroke-linejoin="round"/>
<path d="M1235.67 408.444L1220.38 341.95L1172.47 343.862L1165.64 348.367L1180.11 418.138L1228.71 412.95L1235.67 408.444Z" fill="white" stroke="#405391" stroke-miterlimit="10" stroke-linejoin="round"/>
<path d="M1172.47 343.862L1220.38 341.95L1235.67 408.444L1186.94 413.633L1172.47 343.862Z" fill="white" stroke="#405391" stroke-miterlimit="10" stroke-linejoin="round"/>
<path d="M1180.11 418.138L1186.94 413.633" stroke="#405391" stroke-miterlimit="10"/>
<path d="M1204 342.633L1206.59 356.287C1206.59 356.696 1207.14 356.696 1207.28 356.423L1209.46 353.283C1209.6 353.01 1210.01 353.01 1210.14 353.146L1213.14 355.604C1213.42 355.877 1213.83 355.604 1213.83 355.194L1210.96 342.36L1204 342.633Z" fill="#405391"/>
<path d="M1188.57 372.534L1218.6 370.213" stroke="#405391" stroke-miterlimit="10" stroke-linecap="round" stroke-linejoin="round"/>
<path d="M1189.67 378.952L1219.7 376.631" stroke="#405391" stroke-miterlimit="10" stroke-linecap="round" stroke-linejoin="round"/>
<path d="M1262.56 349.733L1272.66 349.05" stroke="#405391" stroke-miterlimit="10" stroke-linecap="round" stroke-linejoin="round"/>
<path d="M1262.83 354.238L1300.37 352.19" stroke="#405391" stroke-miterlimit="10" stroke-linecap="round" stroke-linejoin="round"/>
<path d="M1263.51 358.881L1301.05 356.969" stroke="#405391" stroke-miterlimit="10" stroke-linecap="round" stroke-linejoin="round"/>
<path d="M1256.83 354.238C1257.51 357.379 1256.01 360.383 1253.28 361.065C1250.55 361.612 1247.82 359.7 1247.13 356.56C1246.45 353.419 1247.95 350.415 1250.68 349.733C1253.41 349.05 1256.14 351.098 1256.83 354.238Z" fill="white" stroke="#405391" stroke-miterlimit="10" stroke-linejoin="round"/>
<path d="M1256.55 397.385C1256.69 398.204 1256.28 398.886 1255.6 399.159C1254.91 399.296 1254.23 398.75 1254.1 398.067C1253.96 397.248 1254.37 396.565 1255.05 396.292C1255.73 396.019 1256.42 396.565 1256.55 397.385Z" fill="#405391"/>
<path d="M1261.47 396.838C1261.6 397.658 1261.19 398.34 1260.51 398.613C1259.83 398.75 1259.15 398.204 1259.01 397.521C1258.87 396.702 1259.28 396.019 1259.97 395.746C1260.65 395.473 1261.33 396.019 1261.47 396.838Z" fill="#405391"/>
<path d="M1266.52 396.292C1266.65 397.112 1266.24 397.794 1265.56 398.067C1264.88 398.204 1264.2 397.658 1264.06 396.975C1263.92 396.156 1264.33 395.473 1265.02 395.2C1265.56 394.927 1266.24 395.473 1266.52 396.292Z" fill="#405391"/>
<path d="M1510.86 277.367C1510.86 277.367 1508.13 262.348 1506.63 314.779C1505.26 363.933 1504.72 415.544 1504.72 415.544C1504.72 415.544 1478.1 416.363 1449.57 428.788L1431.14 436.435C1431.14 436.435 1479.05 462.923 1513.04 473.573C1544.44 483.267 1547.31 459.373 1543.62 401.071C1543.62 401.071 1525.87 281.463 1510.86 277.367Z" fill="white" stroke="#405391" stroke-miterlimit="10" stroke-linejoin="round"/>
<path d="M1385 112.292C1385 112.292 1345.01 133.592 1367.94 155.029L1395.1 127.858L1385 112.292Z" fill="#405391"/>
<path d="M1444.79 214.559C1444.79 214.559 1453.8 214.286 1459.12 226.438C1459.12 226.438 1453.25 212.648 1463.49 201.179L1444.79 214.559Z" fill="#405391"/>
<path d="M1385 112.292C1385 112.292 1336.13 160.217 1365.35 146.837C1426.64 118.846 1423.5 189.437 1423.5 189.437C1423.5 189.437 1431.96 181.79 1428.82 189.846L1444.79 214.56C1444.79 214.56 1478.92 201.725 1480.69 158.715C1481.37 144.106 1467.04 77.6115 1385 112.292Z" fill="#405391"/>
<path d="M1406.02 140.692C1406.98 148.065 1406.02 177.285 1418.99 179.469C1431.96 181.654 1416.81 142.74 1416.81 142.74L1406.02 140.692Z" fill="#405391"/>
<path d="M1364.94 298.121C1349.51 367.756 1342.28 439.711 1342.28 439.711C1342.28 439.711 1311.7 430.973 1282.62 426.331L1250.96 417.865C1249.86 417.456 1238.94 412.267 1235.39 408.854C1231.71 405.167 1229.53 415.408 1235.53 420.05C1237.31 421.415 1238.67 422.644 1239.76 423.736L1232.12 424.965C1230.75 425.102 1229.53 425.785 1228.57 426.604C1223.25 431.383 1205.91 447.494 1209.19 448.45C1210.01 448.723 1210.96 448.723 1211.92 448.586C1206.05 453.502 1205.5 458.554 1207.14 458.827C1209.6 459.1 1212.74 457.325 1215.87 454.731C1213.14 457.871 1209.73 464.971 1213.55 464.698C1218.6 464.425 1222.97 460.465 1227.07 453.775C1227.07 453.775 1226.11 455.55 1226.52 455.14L1223.52 460.056C1223.52 460.056 1229.66 465.517 1234.17 467.975C1238.4 470.433 1240.99 461.558 1234.85 457.871C1234.85 457.871 1237.03 455.686 1238.81 451.044C1238.81 451.044 1255.87 459.236 1264.47 452.819L1270.2 453.365C1285.08 462.65 1360.57 496.648 1370.94 495.829C1394.42 494.054 1398.93 447.904 1410.26 346.865C1410.12 346.729 1371.9 266.854 1364.94 298.121Z" fill="white" stroke="#405391" stroke-miterlimit="10" stroke-linejoin="round"/>
<path d="M1342.28 439.711C1342.28 439.711 1334.91 443.671 1333.54 454.458" stroke="#405391" stroke-miterlimit="10"/>
<path d="M1527.65 400.661C1539.8 398.613 1559.32 391.923 1559.32 391.923C1559.32 391.923 1551.81 297.438 1528.06 269.448C1526.83 266.854 1522.87 261.392 1510.04 259.617C1506.22 259.071 1502.53 258.388 1498.98 257.569C1486.42 254.838 1476.32 251.152 1473.46 249.24C1473.46 249.24 1473.46 249.377 1473.46 249.513C1473.46 249.513 1473.32 249.377 1473.18 249.377C1473.18 249.377 1473.73 251.971 1472.91 254.838C1472.77 255.111 1472.77 255.384 1472.64 255.658C1472.64 255.794 1472.5 255.931 1472.5 256.067C1472.36 256.477 1472.09 256.886 1471.82 257.296C1467.86 263.713 1442.06 266.308 1416.13 252.654C1416.13 252.654 1371.63 277.913 1359.89 286.652C1341.73 325.429 1333.95 412.95 1333.95 408.854C1333.95 407.761 1370.94 427.15 1395.1 428.242C1395.24 435.069 1389.23 521.908 1389.23 521.908C1389.23 521.908 1493.93 527.233 1540.34 502.519C1540.34 502.519 1522.05 441.623 1524.24 424.556C1524.24 422.644 1527.1 405.713 1527.65 400.661Z" fill="#8FB6FF" stroke="#405391" stroke-miterlimit="10"/>
<path d="M1389.23 111.746C1389.23 111.746 1337.91 99.7307 1341.18 112.975C1344.46 126.219 1357.7 137.688 1357.7 137.688C1357.7 137.688 1342.55 137.279 1350.47 144.925C1358.38 152.571 1365.07 152.025 1365.07 152.025L1389.23 111.746Z" fill="#405391"/>
<path d="M1414.35 229.715C1414.35 229.715 1419.67 228.35 1429.37 220.021" stroke="#405391" stroke-miterlimit="10"/>
<path d="M1423.77 167.59C1423.77 167.59 1420.22 101.506 1385.55 109.562" stroke="white" stroke-width="2" stroke-miterlimit="10"/>
<path d="M1444.47 186.537C1445.26 174.271 1436.21 163.703 1424.24 162.932C1412.28 162.161 1401.95 171.479 1401.15 183.745C1400.36 196.01 1409.42 206.579 1421.38 207.35C1433.34 208.121 1443.68 198.802 1444.47 186.537Z" fill="#8FB6FF" stroke="#405391" stroke-miterlimit="10"/>
<path d="M1437.42 185.75C1436.87 194.625 1429.78 201.315 1421.72 200.769C1413.53 200.223 1407.39 192.713 1408.07 183.838C1408.62 174.963 1415.72 168.273 1423.77 168.819C1431.82 169.365 1437.97 177.011 1437.42 185.75Z" fill="white" stroke="#405391" stroke-miterlimit="10"/>
<path d="M1375.17 178.787C1375.17 180.562 1376.27 181.927 1377.63 181.927C1379 181.927 1380.09 180.425 1380.09 178.65C1380.09 176.875 1379 175.51 1377.63 175.51C1376.27 175.51 1375.17 177.012 1375.17 178.787Z" fill="#405391"/>
<path d="M1387.19 169.502C1385.14 166.771 1382.41 165.815 1380.09 165.133C1377.63 164.313 1375.17 163.494 1374.08 164.723C1373.4 165.406 1373.4 166.771 1373.95 167.59C1374.76 168.683 1376.4 168.683 1377.9 168.819C1384.05 169.502 1387.6 173.188 1388.28 172.233C1388.69 171.55 1387.73 170.185 1387.19 169.502Z" fill="#405391"/>
<path d="M1375.58 210.736C1375.58 210.736 1382.27 210.463 1386.64 205.958" stroke="#405391" stroke-miterlimit="10"/>
<path d="M1350.06 102.188C1350.47 102.188 1370.67 96.5903 1385.96 113.931" stroke="#405391" stroke-miterlimit="10"/>
<path d="M1471.27 114.613L1469.77 130.315C1469.77 130.315 1473.87 122.533 1481.92 127.721" stroke="#405391" stroke-miterlimit="10"/>
<path d="M1370.26 131.681C1370.26 131.681 1353.2 155.848 1361.93 155.848C1375.17 155.711 1388.14 138.644 1385.82 137.688C1383.23 136.869 1370.26 131.681 1370.26 131.681Z" fill="#405391"/>
<path d="M1215.87 454.594L1222.56 440.394L1229.8 434.66" fill="white"/>
<path d="M1215.87 454.594L1222.56 440.394L1229.8 434.66" stroke="#405391" stroke-miterlimit="10"/>
<path d="M1211.78 448.45L1219.56 439.711" stroke="#405391" stroke-miterlimit="10"/>
<path d="M1239.63 436.298L1230.89 442.579L1226.39 455.004" fill="white"/>
<path d="M1239.63 436.298L1230.89 442.579L1226.39 455.004" stroke="#405391" stroke-miterlimit="10" stroke-linejoin="round"/>
<path d="M1359.75 286.652C1359.75 286.652 1415.03 272.998 1413.8 343.042L1411.21 427.013C1411.21 427.013 1400.84 429.198 1390.19 427.833" stroke="#405391" stroke-miterlimit="10"/>
<path d="M1525.6 304.265C1525.6 304.265 1537.2 332.256 1537.34 356.969C1537.48 370.213 1527.65 400.934 1527.65 400.934" stroke="#405391" stroke-miterlimit="10"/>
<path d="M1239.63 423.6L1249.18 422.235" stroke="#405391" stroke-miterlimit="10" stroke-linejoin="round"/>
<path d="M1044.97 452H1146.39" stroke="#405391" stroke-miterlimit="10" stroke-linejoin="round"/>
<path d="M1342.28 235.313C1342.28 237.225 1340.78 238.727 1338.86 238.727C1336.95 238.727 1335.45 237.225 1335.45 235.313C1335.45 233.402 1336.95 231.9 1338.86 231.9C1340.78 231.9 1342.28 233.402 1342.28 235.313Z" fill="white" stroke="#405391" stroke-miterlimit="10" stroke-linejoin="round"/>
<path d="M1500.76 210.737C1500.76 212.648 1499.26 214.15 1497.34 214.15C1495.43 214.15 1493.93 212.648 1493.93 210.737C1493.93 208.825 1495.43 207.323 1497.34 207.323C1499.26 207.46 1500.76 208.962 1500.76 210.737Z" fill="white" stroke="#405391" stroke-miterlimit="10" stroke-linejoin="round"/>
<path d="M1303.65 131.271C1303.65 133.183 1302.15 134.685 1300.23 134.685C1298.32 134.685 1296.82 133.183 1296.82 131.271C1296.82 129.36 1298.32 127.858 1300.23 127.858C1302.15 127.994 1303.65 129.496 1303.65 131.271Z" fill="white" stroke="#405391" stroke-miterlimit="10" stroke-linejoin="round"/>
<path d="M1182.16 228.487C1182.16 230.398 1180.66 231.9 1178.75 231.9C1176.83 231.9 1175.33 230.398 1175.33 228.487C1175.33 226.575 1176.83 225.073 1178.75 225.073C1180.66 225.21 1182.16 226.712 1182.16 228.487Z" fill="white" stroke="#405391" stroke-miterlimit="10" stroke-linejoin="round"/>
<path d="M1270.89 195.308C1275.12 195.035 1278.53 191.485 1278.53 187.252C1278.53 182.746 1274.84 179.06 1270.34 179.06C1269.52 179.06 1268.7 179.196 1268.02 179.469C1266.65 173.735 1261.47 169.502 1255.46 169.502C1249.45 169.502 1244.27 173.598 1242.9 179.333C1242.36 179.196 1241.67 179.196 1241.13 179.196C1236.62 179.196 1232.94 182.883 1232.94 187.388C1232.94 191.621 1236.21 195.171 1240.45 195.444L1270.89 195.308Z" fill="white" stroke="#405391" stroke-miterlimit="10" stroke-linejoin="round"/>
<path d="M1312.66 54.6731C1317.16 54.4 1320.71 50.7135 1320.71 46.2077C1320.71 41.5654 1316.89 37.7423 1312.25 37.7423C1311.43 37.7423 1310.61 37.8789 1309.79 38.1519C1308.29 32.2808 1302.96 27.775 1296.68 27.775C1290.41 27.775 1285.08 32.1443 1283.58 38.0154C1283.03 37.8789 1282.35 37.7423 1281.67 37.7423C1277.03 37.7423 1273.21 41.5654 1273.21 46.2077C1273.21 50.7135 1276.62 54.2635 1280.99 54.6731H1312.66Z" fill="white" stroke="#405391" stroke-miterlimit="10" stroke-linejoin="round"/>
<path d="M1448.89 26V29.8231" stroke="#405391" stroke-miterlimit="10" stroke-linejoin="round"/>
<path d="M1436.6 32.8269L1439.88 34.7384" stroke="#405391" stroke-miterlimit="10" stroke-linejoin="round"/>
<path d="M1436.33 46.7538L1439.6 44.8423" stroke="#405391" stroke-miterlimit="10" stroke-linejoin="round"/>
<path d="M1448.34 54.1269V50.1672" stroke="#405391" stroke-miterlimit="10" stroke-linejoin="round"/>
<path d="M1460.63 47.3L1457.21 45.3884" stroke="#405391" stroke-miterlimit="10" stroke-linejoin="round"/>
<path d="M1460.9 33.2366L1457.49 35.1481" stroke="#405391" stroke-miterlimit="10" stroke-linejoin="round"/>
<path d="M1219.7 85.3943V89.2174" stroke="#405391" stroke-miterlimit="10" stroke-linejoin="round"/>
<path d="M1207.41 92.2212L1210.69 94.1327" stroke="#405391" stroke-miterlimit="10" stroke-linejoin="round"/>
<path d="M1207.14 106.285L1210.41 104.237" stroke="#405391" stroke-miterlimit="10" stroke-linejoin="round"/>
<path d="M1219.15 113.521V109.562" stroke="#405391" stroke-miterlimit="10" stroke-linejoin="round"/>
<path d="M1231.44 106.694L1228.02 104.783" stroke="#405391" stroke-miterlimit="10" stroke-linejoin="round"/>
<path d="M1231.71 92.6309L1228.3 94.5424" stroke="#405391" stroke-miterlimit="10" stroke-linejoin="round"/>
<path d="M1247.41 247.602V251.425" stroke="#405391" stroke-miterlimit="10" stroke-linejoin="round"/>
<path d="M1235.12 254.292L1238.4 256.34" stroke="#405391" stroke-miterlimit="10" stroke-linejoin="round"/>
<path d="M1234.85 268.356L1238.12 266.444" stroke="#405391" stroke-miterlimit="10" stroke-linejoin="round"/>
<path d="M1246.86 275.592V271.769" stroke="#405391" stroke-miterlimit="10" stroke-linejoin="round"/>
<path d="M1259.15 268.902L1255.73 266.99" stroke="#405391" stroke-miterlimit="10" stroke-linejoin="round"/>
<path d="M1259.42 254.839L1256.01 256.75" stroke="#405391" stroke-miterlimit="10" stroke-linejoin="round"/>
<path d="M1041.15 413.769C1056.15 413.769 1068.31 411.874 1068.31 409.537C1068.31 407.199 1056.15 405.304 1041.15 405.304C1026.15 405.304 1013.99 407.199 1013.99 409.537C1013.99 411.874 1026.15 413.769 1041.15 413.769Z" fill="#405391"/>
<path d="M1034.33 460.056H1047.84C1052.89 459.783 1057.12 459.237 1059.71 458.417L1067.22 409.673H1067.09C1067.09 411.858 1055.35 413.769 1041.01 413.769C1026.54 413.769 1014.94 411.994 1014.94 409.673H1014.81L1022.31 458.417C1025.18 459.237 1029.27 459.783 1034.33 460.056Z" fill="white" stroke="#405391" stroke-miterlimit="10" stroke-linejoin="round"/>
<path d="M1003.2 351.371C992.419 351.371 983.683 360.11 983.683 370.896C983.683 372.671 983.956 374.31 984.365 375.948C984.911 375.675 985.594 375.538 986.413 375.538C988.87 375.538 990.917 377.586 990.917 380.044C990.917 381.683 990.098 383.185 988.733 383.867C992.282 387.827 997.469 390.285 1003.2 390.285C1013.99 390.285 1022.72 381.546 1022.72 370.76C1022.59 360.11 1013.85 351.371 1003.2 351.371Z" fill="#8FB6FF" stroke="#405391" stroke-miterlimit="10"/>
<path d="M1017.67 365.435C1017.67 366.937 1016.44 368.165 1014.94 368.165C1013.44 368.165 1012.21 366.937 1012.21 365.435C1012.21 363.933 1013.44 362.704 1014.94 362.704C1016.44 362.704 1017.67 363.933 1017.67 365.435Z" fill="white" stroke="#405391" stroke-miterlimit="10" stroke-linejoin="round"/>
<path d="M1086.56 369.104C1092.67 360.218 1090.42 348.062 1081.53 341.952C1072.65 335.843 1060.5 338.093 1054.39 346.978C1048.28 355.864 1050.53 368.02 1059.41 374.13C1068.3 380.239 1080.45 377.989 1086.56 369.104Z" fill="#8FB6FF" stroke="#405391" stroke-miterlimit="10"/>
<path d="M1069.27 358.335C1069.27 358.335 1041.29 374.583 1043.61 407.079" stroke="#405391" stroke-miterlimit="10" stroke-linejoin="round"/>
<path d="M1032.14 351.917C1039.79 359.427 1052.07 359.427 1059.71 351.781C1067.22 344.135 1067.22 331.846 1059.58 324.2C1051.93 316.69 1039.65 316.69 1032 324.337C1024.36 332.119 1024.5 344.408 1032.14 351.917Z" fill="#8FB6FF" stroke="#405391" stroke-miterlimit="10"/>
<path d="M1044.97 338.946C1044.97 338.946 1025.45 387.144 1043.47 411.312" stroke="#405391" stroke-miterlimit="10" stroke-linejoin="round"/>
<path d="M1003.89 370.76C1003.89 370.76 1034.46 381.273 1038.56 413.633" stroke="#405391" stroke-miterlimit="10" stroke-linejoin="round"/>
<path d="M1063.4 366.39C1074.18 366.39 1082.92 375.129 1082.92 385.915C1082.92 387.69 1082.65 389.329 1082.24 390.967C1081.69 390.694 1081.01 390.558 1080.19 390.558C1077.73 390.558 1075.69 392.606 1075.69 395.063C1075.69 396.702 1076.5 398.204 1077.87 398.887C1074.32 402.846 1069.13 405.304 1063.4 405.304C1052.62 405.304 1043.88 396.565 1043.88 385.779C1043.88 375.129 1052.62 366.39 1063.4 366.39Z" fill="#8FB6FF" stroke="#405391" stroke-miterlimit="10"/>
<path d="M1048.93 380.454C1048.93 381.956 1050.16 383.185 1051.66 383.185C1053.16 383.185 1054.39 381.956 1054.39 380.454C1054.39 378.952 1053.16 377.723 1051.66 377.723C1050.16 377.723 1048.93 378.952 1048.93 380.454Z" fill="white" stroke="#405391" stroke-miterlimit="10" stroke-linejoin="round"/>
<path d="M1067.36 381.546C1067.36 381.546 1045.79 390.148 1040.47 412.677" stroke="#405391" stroke-miterlimit="10" stroke-linejoin="round"/>
<path d="M1154.18 448.04C1155.13 451.454 1153.77 454.731 1151.04 455.55C1148.31 456.369 1145.3 454.321 1144.21 450.908C1143.25 447.494 1144.62 444.217 1147.35 443.398C1150.08 442.579 1153.22 444.763 1154.18 448.04Z" fill="#405391"/>
<path d="M1083.19 79.5231C1064.22 81.025 1048.66 96.0442 1046.75 114.887C1045.93 122.26 1047.29 129.36 1050.02 135.64C1050.57 136.869 1050.57 138.098 1050.16 139.327L1046.2 151.615C1045.52 153.937 1047.57 156.121 1049.89 155.575L1061.35 152.708C1062.72 152.435 1064.22 152.571 1065.31 153.254C1072.27 157.623 1080.6 159.808 1089.61 159.125C1108.86 157.623 1124.55 141.921 1126.06 122.669C1127.97 98.0923 1107.63 77.7481 1083.19 79.5231Z" fill="white" stroke="#405391" stroke-miterlimit="10" stroke-linejoin="round"/>
<path d="M1104.62 114.75V129.769C1104.62 129.769 1100.53 135.64 1087.02 135.64C1073.5 135.64 1069.41 129.769 1069.41 129.769V114.75" fill="#8FB6FF"/>
<path d="M1104.62 114.75V129.769C1104.62 129.769 1100.53 135.64 1087.02 135.64C1073.5 135.64 1069.41 129.769 1069.41 129.769V114.75" stroke="#405391" stroke-miterlimit="10"/>
<path d="M1099.71 117.208V140.419" stroke="#405391" stroke-miterlimit="10"/>
<path d="M1086.47 123.215L1059.85 111.883C1058.9 111.473 1058.9 110.108 1059.85 109.835L1086.47 100.004C1086.74 99.8672 1087.02 99.8672 1087.29 100.004L1114.04 109.698C1115 110.108 1115 111.336 1114.04 111.746L1087.43 123.079C1087.15 123.215 1086.74 123.215 1086.47 123.215Z" fill="#8FB6FF" stroke="#405391" stroke-miterlimit="10"/>
<path d="M1099.71 144.515C1098.62 144.515 1097.66 143.56 1097.66 142.467C1097.66 141.375 1098.62 140.419 1099.71 140.419C1100.8 140.419 1101.76 141.375 1101.76 142.467C1101.76 143.56 1100.94 144.515 1099.71 144.515Z" fill="#405391"/>
</g>
<defs>
<clipPath id="clip0">
<rect width="1920" height="500" fill="white"/>
</clipPath>
</defs>
</svg>
