<svg width="159" height="36" viewBox="0 0 159 36" fill="none" xmlns="http://www.w3.org/2000/svg">
<rect y="5" width="5" height="26" fill="#5775D9"/>
<path d="M18.984 12.472H25.056V10.864H17.04V24.472H18.456C21.672 24.472 23.856 24.376 26.424 23.824L26.256 22.192C23.904 22.696 21.864 22.816 18.984 22.84V12.472ZM32.664 8.248V16.888H29.616V8.728H27.768V28.696H29.616V18.496H32.664V29.776H34.56V8.248H32.664ZM49.6541 17.44C50.2061 14.608 50.2061 12.472 50.2061 11.056V9.928H39.5021V11.536H48.2861C48.2861 12.904 48.2141 14.752 47.7101 17.224L49.6541 17.44ZM51.6941 18.736C49.5101 19.048 47.0621 19.216 44.7101 19.312V14.728H42.7661V19.384C41.1341 19.408 39.5741 19.432 38.2061 19.432L38.3981 21.04C42.2141 21.04 47.3741 20.92 51.8381 20.176L51.6941 18.736ZM43.4621 22.984H41.4941V29.296H55.7981V27.688H43.4621V22.984ZM55.1021 15.256V8.248H53.1341V24.472H55.1021V16.888H58.1981V15.256H55.1021ZM83.4594 8.248H81.4914V19.288H83.4594V8.248ZM68.1954 13.816C68.1954 11.944 69.7554 10.624 71.8434 10.624C73.9554 10.624 75.4914 11.944 75.4914 13.816C75.4914 15.664 73.9554 16.984 71.8434 16.984C69.7554 16.984 68.1954 15.664 68.1954 13.816ZM77.4114 13.816C77.4114 10.96 75.0594 9.016 71.8434 9.016C68.6274 9.016 66.2994 10.96 66.2994 13.816C66.2994 16.648 68.6274 18.568 71.8434 18.568C75.0594 18.568 77.4114 16.648 77.4114 13.816ZM71.5074 27.928V25.552H83.4594V20.344H69.5154V21.904H81.5154V24.088H69.5634V29.488H84.1794V27.928H71.5074ZM99.3696 13.84V15.448H103.618V21.088H105.61V8.272H103.618V13.84H99.3696ZM100.57 18.736C97.4496 17.632 95.3376 14.92 95.3376 12.16V11.416H100.066V9.832H88.5696V11.416H93.3696V12.16C93.3696 15.256 91.1616 18.16 87.9456 19.336L88.9776 20.896C91.4976 19.936 93.4896 17.92 94.4016 15.424C95.3376 17.632 97.1856 19.408 99.5856 20.272L100.57 18.736ZM98.5056 28.24C95.2656 28.24 93.2976 27.328 93.2976 25.768C93.2976 24.208 95.2656 23.272 98.5056 23.272C101.746 23.272 103.714 24.208 103.714 25.768C103.714 27.328 101.746 28.24 98.5056 28.24ZM98.5056 21.76C94.0896 21.76 91.3296 23.224 91.3296 25.768C91.3296 28.312 94.0896 29.776 98.5056 29.776C102.922 29.776 105.658 28.312 105.658 25.768C105.658 23.224 102.922 21.76 98.5056 21.76ZM128.111 10.216H122.927V8.104H120.959V10.216H115.751V11.704H128.111V10.216ZM118.775 15.688C118.775 14.56 119.999 13.864 121.943 13.864C123.839 13.864 125.087 14.56 125.087 15.688C125.087 16.816 123.839 17.536 121.943 17.536C119.999 17.536 118.775 16.816 118.775 15.688ZM128.759 19.816C126.887 20.104 124.895 20.248 122.927 20.344V18.856C125.399 18.592 126.959 17.44 126.959 15.688C126.959 13.72 124.943 12.496 121.943 12.496C118.895 12.496 116.903 13.72 116.903 15.688C116.903 17.464 118.463 18.616 120.959 18.856V20.416C118.895 20.488 116.927 20.488 115.223 20.488L115.439 22.072C119.207 22.048 124.295 22.048 128.903 21.232L128.759 19.816ZM117.839 25.336H130.031V29.776H131.999V23.776H117.839V25.336ZM135.167 14.776H131.999V8.272H130.031V22.696H131.999V16.408H135.167V14.776ZM155.061 8.272H153.093V23.992H155.061V8.272ZM139.821 15.04C139.821 12.952 141.405 11.464 143.493 11.464C145.629 11.464 147.213 12.952 147.213 15.04C147.213 17.176 145.629 18.664 143.493 18.664C141.405 18.664 139.821 17.176 139.821 15.04ZM149.133 15.04C149.133 11.944 146.709 9.76 143.493 9.76C140.301 9.76 137.901 11.944 137.901 15.04C137.901 18.16 140.301 20.368 143.493 20.368C146.709 20.368 149.133 18.16 149.133 15.04ZM143.181 27.688V22.384H141.213V29.296H155.709V27.688H143.181Z" fill="black"/>
</svg>
