<svg width="166" height="141" viewBox="0 0 166 141" fill="none" xmlns="http://www.w3.org/2000/svg">
<g clip-path="url(#clip0)">
<path d="M147.766 113.119H17.9352V33.856C17.9352 32.4619 19.0312 31.267 20.5258 31.267H145.275C146.67 31.267 147.866 32.3623 147.866 33.856V113.119H147.766Z" fill="white" stroke="#405391" stroke-width="0.625" stroke-miterlimit="10" stroke-linecap="round" stroke-linejoin="round"/>
<path d="M165.402 139.008H0.29895L17.9352 113.119H147.766L165.402 139.008Z" fill="white" stroke="#405391" stroke-width="0.625" stroke-miterlimit="10" stroke-linecap="round" stroke-linejoin="round"/>
<path d="M0.29895 139.008C0.29895 139.008 0.49823 140.701 2.09247 140.701H163.908C165.502 140.701 165.701 139.008 165.701 139.008H0.29895Z" fill="white" stroke="#405391" stroke-width="0.625" stroke-miterlimit="10" stroke-linecap="round" stroke-linejoin="round"/>
<path d="M82.0037 33.7563C82.0037 34.3538 82.5019 34.7521 83.0001 34.7521C83.5979 34.7521 83.9965 34.2542 83.9965 33.7563C83.9965 33.1589 83.4983 32.7606 83.0001 32.7606C82.4022 32.661 82.0037 33.1589 82.0037 33.7563Z" fill="#222221" stroke="#405391" stroke-width="0.625" stroke-miterlimit="10" stroke-linecap="round" stroke-linejoin="round"/>
<path d="M140.492 115.608H25.2089L19.928 126.661H25.2089H140.492H145.773L140.492 115.608Z" stroke="#405391" stroke-width="0.625" stroke-miterlimit="10" stroke-linecap="round" stroke-linejoin="round"/>
<path d="M102.231 128.852H63.4706L61.6771 137.216H63.4706H102.231H104.024L102.231 128.852Z" stroke="#405391" stroke-width="0.625" stroke-miterlimit="10" stroke-linecap="round" stroke-linejoin="round"/>
<path d="M138.998 104.655H27.0025C25.9064 104.655 24.91 103.758 24.91 102.564V41.0254C24.91 39.9301 25.8068 38.9343 27.0025 38.9343H138.998C140.094 38.9343 141.09 39.8305 141.09 41.0254V102.564C140.99 103.758 140.094 104.655 138.998 104.655Z" fill="#F2F2F2"/>
<path d="M140.99 39.0339H24.91V104.655H140.99V39.0339Z" stroke="#405391" stroke-width="0.625" stroke-miterlimit="10" stroke-linecap="round" stroke-linejoin="round"/>
<path d="M118.173 14.339C118.272 14.5381 118.372 14.7373 118.372 14.9364V46.4025C118.372 46.9004 117.974 47.2987 117.475 47.2987C116.977 47.2987 116.579 46.9004 116.579 46.4025V15.2352" fill="#8FB6FF"/>
<path d="M118.173 14.339C118.272 14.5381 118.372 14.7373 118.372 14.9364V46.4025C118.372 46.9004 117.974 47.2987 117.475 47.2987C116.977 47.2987 116.579 46.9004 116.579 46.4025V15.2352" stroke="#405391" stroke-width="0.625" stroke-miterlimit="10" stroke-linecap="round" stroke-linejoin="round"/>
<path d="M115.682 46.1038C115.682 47 116.379 47.6971 117.276 47.6971C118.173 47.6971 118.87 47 118.87 46.1038C118.87 45.2077 118.173 44.5106 117.276 44.5106C116.379 44.5106 115.682 45.2077 115.682 46.1038Z" fill="#8FB6FF" stroke="#405391" stroke-width="0.625" stroke-miterlimit="10" stroke-linecap="round" stroke-linejoin="round"/>
<path d="M115.682 52.2775H118.87C118.87 52.2775 118.97 46.1038 117.276 46.1038C115.582 46.1038 115.682 52.2775 115.682 52.2775Z" fill="#8FB6FF" stroke="#405391" stroke-width="0.625" stroke-miterlimit="10" stroke-linecap="round" stroke-linejoin="round"/>
<path d="M83 10.6546C68.1536 10.5551 56.0972 13.144 56.0972 16.4301L55.9976 31.2669L109.803 31.4661L109.903 16.6292C109.903 13.3432 97.8463 10.6546 83 10.6546Z" fill="#8FB6FF" stroke="#405391" stroke-width="0.625" stroke-miterlimit="10" stroke-linecap="round" stroke-linejoin="round"/>
<path d="M39.856 14.1398L82.9004 28.2796L126.144 14.4385L83 0.298706L39.856 14.1398Z" fill="#8FB6FF" stroke="#405391" stroke-width="0.625" stroke-miterlimit="10" stroke-linecap="round" stroke-linejoin="round"/>
<path d="M33.8776 79.5619V63.3309H41.3506C42.1477 63.3309 42.8452 63.4305 43.5426 63.6297C44.1405 63.8288 44.7383 64.028 45.1369 64.4263C45.5354 64.725 45.934 65.2229 46.1333 65.7208C46.4322 66.2186 46.5318 66.8161 46.5318 67.4136C46.5318 68.5089 46.0336 69.6042 45.1369 70.2017C45.8343 70.6 46.3325 71.1975 46.7311 71.8945C47.1297 72.5915 47.3289 73.3881 47.3289 74.1847C47.3289 74.9814 47.2293 75.6784 46.9304 76.2758C46.6315 76.9729 46.2329 77.5703 45.7347 78.0682C45.1369 78.5661 44.4394 79.064 43.7419 79.2631C42.8452 79.5619 41.9484 79.761 40.952 79.761H33.8776V79.5619ZM41.1513 69.3055C41.4502 69.2059 41.8488 69.0068 42.048 68.8076C42.2473 68.5089 42.347 68.2102 42.347 67.9114C42.347 67.6127 42.2473 67.2144 41.9484 67.0153C41.5498 66.7165 41.1513 66.617 40.6531 66.7165H37.9628V69.7038L41.1513 69.3055ZM41.0516 75.9771C41.6495 75.9771 42.1477 75.6784 42.5462 75.2801C42.8452 74.8818 43.0444 74.4835 43.0444 73.9856C43.0444 73.4877 42.8452 73.0894 42.5462 72.6911C42.1477 72.3924 41.5498 72.1932 41.0516 72.2928L37.9628 72.6911V76.2758L41.0516 75.9771Z" fill="#2D3039"/>
<path d="M57.3925 79.7606V78.964C56.994 79.3623 56.4958 79.661 55.8979 79.7606C55.3001 79.9598 54.7023 80.0594 54.1044 80.0594C53.407 80.0594 52.7095 79.9598 52.1116 79.7606C51.5138 79.4619 50.916 79.1632 50.5174 78.6653C50.0192 78.1674 49.7203 77.5699 49.521 76.8729C49.2221 76.0763 49.1224 75.2797 49.1224 74.4831V68.0106H53.2077V74.1844C53.2077 74.5827 53.2077 74.8814 53.4069 75.1801C53.5066 75.4788 53.7059 75.678 53.9051 75.9767C54.1044 76.1759 54.3037 76.2755 54.6026 76.375C54.9015 76.4746 55.1008 76.4746 55.3997 76.4746C55.9976 76.4746 56.5954 76.1759 56.8943 75.7776C57.2929 75.2797 57.4922 74.6822 57.4922 73.9852V68.0106H61.5774V79.0636L57.3925 79.7606Z" fill="#2D3039"/>
<path d="M70.8439 71.7945C70.8439 71.5954 70.7443 71.4958 70.6447 71.3962C70.545 71.2966 70.3457 71.1971 70.2461 71.0975C70.0468 70.9979 69.9472 70.9979 69.7479 70.9979C69.5486 70.9979 69.3493 70.9979 69.2497 70.9979C68.9508 70.9979 68.6519 70.9979 68.2533 71.0975C67.9544 71.1971 67.7551 71.2966 67.7551 71.3962C67.7551 71.4958 67.8547 71.6949 68.1537 71.7945C68.4526 71.8941 68.7515 71.9937 69.0504 72.0933L71.2425 72.7903C71.7407 72.9894 72.3385 73.1886 72.7371 73.3877C73.2353 73.5869 73.6339 73.786 74.0324 74.0848C74.3313 74.3835 74.6302 74.5827 74.8295 74.981C75.0288 75.3793 75.1285 75.7776 75.1285 76.1759C75.1285 76.7733 75.0288 77.2712 74.7299 77.7691C74.431 78.267 74.0324 78.7649 73.5342 79.0636C72.9364 79.4619 72.2389 79.661 71.5414 79.8602C70.6447 80.0593 69.7479 80.1589 68.9508 80.1589C68.2533 80.1589 67.5558 80.0593 66.8583 79.8602C66.1609 79.661 65.563 79.4619 65.0648 79.0636C64.5666 78.7649 64.0684 78.267 63.6699 77.7691C63.2713 77.2712 63.072 76.6738 63.072 76.0763L67.0576 75.4788C67.0576 75.678 67.1573 75.8772 67.3565 75.9767C67.5558 76.0763 67.6555 76.2755 67.8547 76.2755C68.054 76.375 68.3529 76.375 68.5522 76.4746C68.7515 76.5742 69.0504 76.4746 69.2497 76.4746C69.449 76.4746 69.7479 76.4746 69.9472 76.4746C70.1465 76.4746 70.3457 76.375 70.545 76.375C70.7443 76.375 70.8439 76.2755 71.0432 76.1759C71.1429 76.1759 71.2425 76.0763 71.2425 75.9767C71.2425 75.8772 71.1429 75.7776 71.0432 75.7776C70.8439 75.678 70.7443 75.5784 70.545 75.5784C70.3457 75.4788 70.0468 75.3793 69.7479 75.3793C69.449 75.3793 69.2497 75.1801 68.9508 75.0805L67.2569 74.5827C66.7587 74.3835 66.2605 74.1844 65.7623 73.9852C65.3637 73.786 64.9652 73.4873 64.6663 73.1886C64.3673 72.8899 64.1681 72.5911 63.9688 72.1928C63.7695 71.7945 63.6699 71.3962 63.7695 70.8983C63.7695 70.3009 63.9688 69.803 64.2677 69.3051C64.5666 68.8072 65.0648 68.5085 65.4634 68.2098C65.9616 67.911 66.5594 67.7119 67.1573 67.5127C68.5522 67.214 70.0468 67.214 71.4418 67.6123C72.0396 67.8115 72.7371 68.0106 73.2353 68.4089C73.7335 68.7077 74.132 69.2055 74.431 69.6038C74.7299 70.1017 74.9292 70.5996 74.9292 71.1971L70.8439 71.7945Z" fill="#2D3039"/>
<path d="M84.9928 79.9597V78.4661C84.6938 78.964 84.2953 79.4618 83.6974 79.7606C83.0996 80.0593 82.5018 80.1589 81.8043 80.1589C81.0072 80.1589 80.3097 80.0593 79.5126 79.7606C78.8151 79.4618 78.2173 79.0635 77.7191 78.4661C77.2209 77.8686 76.7227 77.1716 76.4237 76.4746C76.1248 75.5784 75.9255 74.6822 75.9255 73.786C75.9255 72.8898 76.0252 71.9936 76.4237 71.0974C76.7227 70.3008 77.1212 69.7034 77.7191 69.1059C78.2173 68.608 78.8151 68.1101 79.5126 67.911C80.2101 67.6123 81.0072 67.5127 81.8043 67.5127C83 67.5127 84.096 68.0106 84.8931 68.8072V67.911H88.9784V79.1631L84.9928 79.9597ZM82.6014 76.5741C82.9003 76.5741 83.1993 76.4746 83.4982 76.375C83.7971 76.2754 83.9964 76.0763 84.2953 75.7775C84.4946 75.4788 84.6938 75.1801 84.7935 74.8813C84.8931 74.483 84.9928 74.0847 84.9928 73.6864C84.9928 73.2881 84.9928 72.8898 84.7935 72.4915C84.6938 72.1928 84.4946 71.8941 84.2953 71.5953C84.096 71.2966 83.7971 71.197 83.4982 70.9979C82.9003 70.6991 82.2029 70.6991 81.7047 70.9979C81.4057 71.0974 81.2064 71.2966 80.9075 71.5953C80.6086 71.8941 80.509 72.0932 80.4093 72.4915C80.3097 72.8898 80.2101 73.2881 80.2101 73.6864C80.2101 74.0847 80.2101 74.483 80.4093 74.8813C80.509 75.1801 80.7082 75.4788 80.9075 75.7775C81.1068 76.0763 81.4057 76.2754 81.7047 76.375C81.9039 76.5741 82.3025 76.5741 82.6014 76.5741Z" fill="#2D3039"/>
<path d="M99.6399 79.7606V73.4873C99.6399 73.089 99.6399 72.6907 99.4406 72.392C99.341 72.0932 99.1417 71.8941 98.9424 71.5954C98.7432 71.3962 98.5439 71.2966 98.245 71.197C97.946 71.0975 97.7468 71.0975 97.4478 71.0975C96.85 71.0975 96.2522 71.3962 95.8536 71.8941C95.455 72.392 95.2558 72.9894 95.2558 73.6865V79.1631L91.1705 79.9598V68.0106H95.2558V69.0064C95.455 68.8072 95.6543 68.6081 95.9532 68.4089C96.2522 68.2098 96.5511 68.1102 96.85 68.0106C97.1489 67.911 97.5475 67.8115 97.8464 67.7119C98.1453 67.6123 98.4442 67.6123 98.8428 67.6123C99.5403 67.6123 100.238 67.7119 100.836 67.911C101.433 68.2098 101.932 68.5085 102.33 69.0064C102.828 69.5043 103.127 70.1017 103.327 70.7987C103.626 71.5954 103.725 72.392 103.725 73.1886V78.964L99.6399 79.7606Z" fill="#2D3039"/>
<path d="M107.81 80.358L105.02 77.5699L107.81 74.7817L110.7 77.5699L107.81 80.358Z" fill="#42352D"/>
<path d="M112.593 79.9602V63.3309H116.878V79.1636L112.593 79.9602Z" fill="#6174D4"/>
<path d="M123.255 79.9598V66.9153H118.671V63.231H132.123V66.9153H127.539V79.0636L123.255 79.9598Z" fill="#6174D4"/>
</g>
<defs>
<clipPath id="clip0">
<rect width="166" height="141" fill="white"/>
</clipPath>
</defs>
</svg>
