<svg width="49" height="49" viewBox="0 0 49 49" fill="none" xmlns="http://www.w3.org/2000/svg">
<path d="M42.7311 25.3667H28.3974C27.8929 25.3667 27.4067 25.4456 26.9496 25.5899V21.3767C26.9496 21.1788 26.9339 20.9851 26.9106 20.7933H28.5636V24.5311C28.5636 24.6792 28.6493 24.8143 28.7833 24.8775C28.8354 24.902 28.8909 24.9139 28.9464 24.9139C29.034 24.9139 29.1206 24.884 29.1906 24.8258L34.0611 20.7933H41.1623C43.8171 20.7933 45.9769 18.6334 45.9769 15.9786V7.57782C45.9769 4.92301 43.8171 2.76318 41.1623 2.76318H26.8283C24.1731 2.76318 22.0133 4.92301 22.0133 7.57782V15.9786C22.0133 16.1766 22.029 16.3703 22.0523 16.562H7.80096C5.14616 16.562 2.98633 18.7219 2.98633 21.3767V29.7775C2.98633 32.4327 5.14616 34.5921 7.80096 34.5921H15.2612L19.8316 39.2869C19.9047 39.3624 20.0043 39.4029 20.1057 39.4029C20.1505 39.4029 20.1957 39.3949 20.2389 39.3792C20.3809 39.3264 20.4786 39.1951 20.4877 39.0435L20.7588 34.5925H22.1338C22.6384 34.5925 23.1246 34.5137 23.5816 34.3693V38.5826C23.5816 41.2378 25.7415 43.3972 28.3963 43.3972H29.7487V47.3857C29.7487 47.5362 29.8368 47.6725 29.9738 47.7345C30.0244 47.7574 30.078 47.7685 30.1316 47.7685C30.2227 47.7685 30.313 47.736 30.3842 47.6732L35.2521 43.3972H42.7295C45.3843 43.3972 47.5442 41.2374 47.5442 38.5826V30.1814C47.5457 27.5262 45.3859 25.3667 42.7311 25.3667V25.3667Z" fill="#E6E7E8"/>
<path d="M41.1987 24.2183H26.8654C26.212 24.2183 25.5933 24.3633 25.0348 24.6175V28.2462C25.0348 30.0405 23.9668 31.5817 22.4336 32.2791V37.0509C22.4336 39.4986 24.4177 41.4827 26.8654 41.4827H28.6007V45.8541L33.5773 41.4827H41.1991C43.6468 41.4827 45.6309 39.4986 45.6309 37.0509V28.6501C45.6309 26.2024 43.6468 24.2183 41.1987 24.2183V24.2183Z" fill="#D4FBFF"/>
<path d="M39.6581 33.0025C40.5792 30.8833 40.5122 28.8264 39.2742 27.588C38.035 26.3497 35.9762 26.2834 33.8555 27.206C31.7347 26.283 29.6759 26.3497 28.4367 27.588C27.1991 28.8264 27.1321 30.8837 28.0528 33.0025C27.8591 33.4458 27.704 33.8899 27.5984 34.3294C27.1934 36.013 27.4946 37.4642 28.4463 38.4159C29.1093 39.0789 30.0331 39.4296 31.1176 39.4296C31.5999 39.4296 32.1137 39.3599 32.645 39.2233C33.0466 39.1195 33.452 38.9783 33.8555 38.8033C34.2589 38.9783 34.664 39.1195 35.0659 39.2233C35.5972 39.3599 36.111 39.4296 36.5933 39.4296C37.6778 39.4296 38.6016 39.0789 39.2646 38.4159C40.2163 37.4646 40.5175 36.0134 40.1125 34.3294C40.0072 33.8899 39.8518 33.4458 39.6581 33.0025ZM36.5734 27.322C37.4347 27.322 38.1866 27.5831 38.7329 28.129C39.6394 29.0358 39.7596 30.5074 39.2072 32.1075C38.7087 31.2278 38.0568 30.3692 37.2705 29.5825C36.4743 28.7866 35.6202 28.1431 34.7585 27.6558C35.3928 27.4372 36.0072 27.322 36.5734 27.322V27.322ZM38.8217 33.0175C38.347 33.9856 37.6484 34.9698 36.738 35.8801C35.8507 36.7679 34.86 37.4742 33.8555 37.9569C32.851 37.4742 31.8602 36.7675 30.9729 35.8801C30.0629 34.9702 29.3643 33.986 28.8892 33.0175C29.3723 32.0157 30.0832 31.0226 30.9817 30.1238C31.8951 29.2108 32.8835 28.5056 33.8555 28.031C34.827 28.5056 35.8155 29.2108 36.7292 30.1238C37.6281 31.0226 38.339 32.0157 38.8217 33.0175ZM28.9784 28.1293C29.5247 27.5831 30.2765 27.3224 31.1379 27.3224C31.7044 27.3224 32.3185 27.4376 32.9528 27.6562C32.0911 28.1439 31.237 28.787 30.4408 29.5829C29.6545 30.3696 29.0025 31.2282 28.5041 32.1079C27.9517 30.5078 28.0723 29.0358 28.9784 28.1293V28.1293ZM32.454 38.4821C31.002 38.8569 29.7506 38.6372 28.9876 37.8746C28.2316 37.1185 28.0026 35.923 28.3426 34.5085C28.3893 34.3148 28.4467 34.12 28.5125 33.9247C28.9991 34.7811 29.6399 35.6302 30.4312 36.4214C31.2052 37.1955 32.057 37.8405 32.9333 38.3367C32.7736 38.3906 32.6132 38.4408 32.454 38.4821V38.4821ZM38.7237 37.8746C37.9611 38.6372 36.7097 38.8565 35.2573 38.4821C35.0981 38.4412 34.938 38.3906 34.7776 38.3367C35.6539 37.8401 36.5057 37.1951 37.2797 36.4214C38.071 35.6302 38.7118 34.7811 39.1984 33.9247C39.2642 34.1204 39.322 34.3152 39.3683 34.5085C39.7087 35.923 39.4797 37.1185 38.7237 37.8746V37.8746Z" fill="#3A2C60"/>
<path d="M20.9789 15.4327C20.8549 15.4224 20.7305 15.4139 20.6037 15.4139H6.2701C3.82239 15.4136 1.83789 17.3977 1.83789 19.8454V28.2462C1.83789 30.6939 3.82201 32.678 6.26971 32.678H13.8915L18.5748 37.4888L18.8681 32.678H20.6034C23.0511 32.678 25.0352 30.6939 25.0352 28.2462V19.8454C25.0352 19.5062 24.9935 19.1774 24.9215 18.8604C22.9822 18.6973 21.4004 17.2867 20.9789 15.4327V15.4327Z" fill="#0089EF"/>
<path d="M17.0153 23.8569C17.0153 21.8996 15.4442 20.3094 13.4945 20.2784C11.5261 20.247 9.86126 21.8816 9.85743 23.85C9.85551 24.964 10.3627 25.959 11.159 26.6162C11.6214 26.9983 11.9506 27.517 12.1248 28.0912L12.2087 28.368H14.6644L14.7613 28.0487C14.9289 27.4956 15.2482 26.996 15.6965 26.6308C16.5011 25.975 17.0153 24.9763 17.0153 23.8569V23.8569Z" fill="#D4FBFF"/>
<path d="M12.001 28.3683V29.4363C12.001 29.9543 12.3696 30.3857 12.8589 30.4833V30.592C12.8589 30.8079 13.0338 30.9829 13.2497 30.9829H13.6237C13.8396 30.9829 14.0146 30.8079 14.0146 30.592V30.4833C14.5038 30.3857 14.8725 29.9543 14.8725 29.4363V28.3683H12.001Z" fill="#6DC9F7"/>
<path d="M35.6323 34.7816C36.6153 33.7987 36.6153 32.205 35.6323 31.222C34.6494 30.2391 33.0557 30.2391 32.0728 31.222C31.0898 32.205 31.0898 33.7987 32.0728 34.7816C33.0557 35.7646 34.6494 35.7646 35.6323 34.7816Z" fill="#6DC9F7"/>
<path d="M28.8855 29.0215C29.5251 29.0215 30.0436 28.503 30.0436 27.8635C30.0436 27.2239 29.5251 26.7054 28.8855 26.7054C28.246 26.7054 27.7275 27.2239 27.7275 27.8635C27.7275 28.503 28.246 29.0215 28.8855 29.0215Z" fill="#FA759E"/>
<path d="M39.2241 26.8033C38.6387 26.8033 38.1641 27.278 38.1641 27.8634C38.1641 28.4487 38.6387 28.9234 39.2241 28.9234C39.8094 28.9234 40.2841 28.4487 40.2841 27.8634C40.2841 27.2777 39.8094 26.8033 39.2241 26.8033Z" fill="#0089EF"/>
<path d="M29.1102 36.938C28.4705 36.938 27.9521 37.4563 27.9521 38.096C27.9521 38.7353 28.4705 39.254 29.1102 39.254C29.7495 39.254 30.2682 38.7357 30.2682 38.096C30.2678 37.4563 29.7495 36.938 29.1102 36.938Z" fill="#0089EF"/>
<path d="M38.7211 37.1814C38.1358 37.1814 37.6611 37.6561 37.6611 38.2414C37.6611 38.8267 38.1358 39.3014 38.7211 39.3014C39.3065 39.3014 39.7812 38.8267 39.7812 38.2414C39.7812 37.6557 39.3068 37.1814 38.7211 37.1814Z" fill="#FA759E"/>
<path d="M39.6307 1.61475H25.2971C22.8494 1.61475 20.8652 3.59886 20.8652 6.04657V14.4474C20.8652 16.8951 22.8494 18.8792 25.2971 18.8792H27.4152V22.9998L32.3917 18.8792H39.6307C42.0784 18.8792 44.0625 16.8951 44.0625 14.4474V6.04657C44.0625 3.59886 42.0784 1.61475 39.6307 1.61475V1.61475Z" fill="#FA759E"/>
<path d="M22.0137 14.4474V6.04657C22.0137 3.59886 23.9978 1.61475 26.4455 1.61475H25.2971C22.8494 1.61475 20.8652 3.59886 20.8652 6.04657V14.4474C20.8652 16.8951 22.8494 18.8792 25.2971 18.8792H26.4455C23.9978 18.8792 22.0137 16.8951 22.0137 14.4474V14.4474Z" fill="white"/>
<path d="M38.1573 13.3555L29.7684 5.03662L26.2852 4.26257L27.1132 7.73315L35.5025 16.0521C36.2471 16.7851 37.4453 16.7759 38.1784 16.0314C38.9115 15.2868 38.9023 14.0886 38.1573 13.3555V13.3555Z" fill="#6DC9F7"/>
<path d="M41.1998 23.8355H26.8662C26.3612 23.8355 25.8758 23.9166 25.4184 24.0621V19.8454C25.4184 19.6475 25.4027 19.4534 25.3793 19.262H27.0327V23.0002C27.0327 23.1483 27.1184 23.2835 27.2524 23.3466C27.3045 23.3711 27.36 23.383 27.4155 23.383C27.5032 23.383 27.5897 23.3531 27.6597 23.295L32.5299 19.262H39.6311C42.2859 19.262 44.4457 17.1022 44.4457 14.4474V6.04657C44.4457 3.39176 42.2859 1.23193 39.6311 1.23193H38.1545C37.9432 1.23193 37.7717 1.40343 37.7717 1.61475C37.7717 1.82606 37.9432 1.99756 38.1545 1.99756H39.6311C41.8636 1.99756 43.6801 3.814 43.6801 6.04657V14.4474C43.6801 16.68 41.8636 18.4964 39.6311 18.4964H32.3921C32.3029 18.4964 32.2167 18.5274 32.1478 18.5844L27.7983 22.1859V18.8792C27.7983 18.6679 27.6268 18.4964 27.4155 18.4964H25.2974C23.0645 18.4964 21.248 16.68 21.248 14.4474V6.04657C21.248 3.814 23.0645 1.99756 25.2974 1.99756H31.3275C31.5388 1.99756 31.7103 1.82606 31.7103 1.61475C31.7103 1.40343 31.5388 1.23193 31.3275 1.23193H25.297C22.6418 1.23193 20.482 3.39176 20.482 6.04657V14.4474C20.482 14.6453 20.4977 14.839 20.5211 15.0308H6.26971C3.61491 15.0308 1.45508 17.1906 1.45508 19.8454V28.2462C1.45508 30.9014 3.61491 33.0609 6.26971 33.0609H13.73L18.3004 37.7557C18.3735 37.8311 18.473 37.8717 18.5745 37.8717C18.6192 37.8717 18.6644 37.8636 18.7077 37.8479C18.8497 37.7951 18.9473 37.6638 18.9565 37.5122L19.2275 33.0613H20.6026C21.1071 33.0613 21.5933 32.9824 22.0504 32.8381V37.0513C22.0504 39.7065 24.2102 41.866 26.865 41.866H28.2175V45.8541C28.2175 46.0045 28.3055 46.1408 28.4426 46.2028C28.4931 46.2258 28.5467 46.2369 28.6003 46.2369C28.6914 46.2369 28.7818 46.2044 28.853 46.1416L33.7208 41.866H41.1983C43.8531 41.866 46.0129 39.7061 46.0129 37.0513V28.6501C46.0144 25.9949 43.8546 23.8355 41.1998 23.8355V23.8355ZM18.8681 32.2953C18.6656 32.2953 18.4983 32.4526 18.486 32.6547L18.2456 36.6015L14.166 32.4112C14.094 32.3374 13.9952 32.2953 13.8919 32.2953H6.27009C4.03753 32.2953 2.22109 30.4788 2.22109 28.2462V19.8454C2.22109 17.6125 4.03753 15.796 6.27009 15.796H20.6034C20.629 15.796 20.6535 15.8002 20.6792 15.801C21.2017 17.5792 22.7234 18.9286 24.593 19.2042C24.6279 19.4136 24.6524 19.6261 24.6524 19.845V28.2459C24.6524 30.4784 22.8359 32.2949 20.6034 32.2949H18.8681V32.2953ZM45.2488 37.0509C45.2488 39.2835 43.4324 41.0999 41.1998 41.0999H33.578C33.485 41.0999 33.395 41.134 33.3254 41.1953L28.9847 45.0081V41.4828C28.9847 41.2711 28.8132 41.0999 28.6018 41.0999H26.8662C24.6336 41.0999 22.8172 39.2835 22.8172 37.0509V32.5177C24.3603 31.7145 25.4184 30.1033 25.4184 28.2466V24.8748C25.8686 24.7003 26.3555 24.6011 26.8662 24.6011H41.1998C43.4324 24.6011 45.2488 26.4176 45.2488 28.6501V37.0509Z" fill="#3A2C60"/>
<path d="M13.5007 19.896C12.4368 19.8707 11.44 20.2861 10.6701 21.0421C9.90107 21.7978 9.47653 22.7946 9.47462 23.8497C9.47232 25.0379 9.99754 26.1542 10.9151 26.9122C11.2849 27.2169 11.5594 27.6311 11.7225 28.1088C11.6586 28.1774 11.6176 28.2677 11.6176 28.3688V29.4368C11.6176 30.0237 11.9732 30.5451 12.4962 30.7698C12.5765 31.1112 12.8836 31.3662 13.2491 31.3662H13.6235C13.9891 31.3662 14.2961 31.1112 14.3765 30.7698C14.8995 30.5447 15.2551 30.0237 15.2551 29.4368V28.3688C15.2551 28.2662 15.2137 28.1743 15.1479 28.1054C15.3018 27.6334 15.5724 27.2261 15.938 26.9279C16.8656 26.1718 17.3977 25.0525 17.3977 23.8573C17.3981 21.7071 15.6494 19.9301 13.5007 19.896V19.896ZM14.4895 29.4368C14.4895 29.7622 14.2579 30.0447 13.939 30.1087C13.7602 30.1446 13.6312 30.3016 13.6312 30.4838L13.6232 30.6006L13.2407 30.5925V30.4842C13.2407 30.3016 13.1121 30.1446 12.9329 30.109C12.6141 30.0451 12.3825 29.7626 12.3825 29.4372V28.752H14.4887V29.4368H14.4895ZM15.4545 26.3341C14.9557 26.7407 14.5894 27.2958 14.3945 27.9377L14.38 27.9856H13.8192V24.706H14.4948C14.7061 24.706 14.8776 24.5345 14.8776 24.3232C14.8776 24.1119 14.7061 23.9404 14.4948 23.9404H12.4935C12.2822 23.9404 12.1107 24.1119 12.1107 24.3232C12.1107 24.5345 12.2822 24.706 12.4935 24.706H13.0531V27.9856H12.4919L12.4904 27.9802C12.2894 27.3168 11.9131 26.743 11.4021 26.3211C10.6613 25.7098 10.2379 24.8094 10.2395 23.8508C10.241 23.0025 10.584 22.1986 11.2061 21.588C11.8281 20.977 12.6447 20.6482 13.4873 20.6612C15.221 20.6888 16.6313 22.1224 16.6313 23.8569C16.6324 24.8213 16.2029 25.7239 15.4545 26.3341V26.3341Z" fill="#3A2C60"/>
<path d="M19.3669 23.9362H18.2441C18.0328 23.9362 17.8613 24.1077 17.8613 24.319C17.8613 24.5303 18.0328 24.7018 18.2441 24.7018H19.3669C19.5782 24.7018 19.7497 24.5303 19.7497 24.319C19.7497 24.1077 19.5786 23.9362 19.3669 23.9362Z" fill="#3A2C60"/>
<path d="M8.62865 23.9362H7.50586C7.29455 23.9362 7.12305 24.1077 7.12305 24.319C7.12305 24.5303 7.29455 24.7018 7.50586 24.7018H8.62865C8.83996 24.7018 9.01146 24.5303 9.01146 24.319C9.01146 24.1077 8.83996 23.9362 8.62865 23.9362Z" fill="#3A2C60"/>
<path d="M18.9485 20.8427C19.1464 20.7684 19.2467 20.5475 19.172 20.3496C19.0978 20.1513 18.8761 20.0518 18.679 20.126L17.6281 20.5207C17.4302 20.595 17.3299 20.8159 17.4046 21.0138C17.462 21.1673 17.6082 21.2622 17.7629 21.2622C17.8077 21.2622 17.8532 21.2542 17.8976 21.2377L18.9485 20.8427Z" fill="#3A2C60"/>
<path d="M9.24421 20.5212L8.19339 20.1265C7.99624 20.0522 7.77497 20.1521 7.70033 20.35C7.62606 20.548 7.72597 20.7685 7.92389 20.8431L8.97471 21.2378C9.01911 21.2542 9.06429 21.2623 9.10946 21.2623C9.26411 21.2623 9.41035 21.1673 9.46777 21.0138C9.54242 20.8159 9.44212 20.5954 9.24421 20.5212Z" fill="#3A2C60"/>
<path d="M13.4365 19.3642C13.6478 19.3642 13.8193 19.1927 13.8193 18.9814V18.0225C13.8193 17.8111 13.6478 17.6396 13.4365 17.6396C13.2252 17.6396 13.0537 17.8111 13.0537 18.0225V18.9814C13.0537 19.1927 13.2252 19.3642 13.4365 19.3642Z" fill="#3A2C60"/>
<path d="M33.1455 1.99756H36.4312C36.6425 1.99756 36.814 1.82606 36.814 1.61475C36.814 1.40343 36.6425 1.23193 36.4312 1.23193H33.1455C32.9342 1.23193 32.7627 1.40343 32.7627 1.61475C32.7627 1.82606 32.9342 1.99756 33.1455 1.99756Z" fill="#3A2C60"/>
<path d="M30.037 4.76449C30.037 4.76449 30.037 4.7641 30.0366 4.7641C30.0358 4.76334 30.0347 4.76334 30.0339 4.76257C30.0022 4.73156 29.9643 4.70898 29.9241 4.6906C29.9118 4.68524 29.8999 4.68103 29.8877 4.67682C29.8754 4.67261 29.864 4.66572 29.8509 4.66304L26.4784 3.91349L25.5657 2.98517C25.4172 2.83396 25.1749 2.83243 25.0244 2.98058C24.874 3.12873 24.8717 3.37105 25.0198 3.52188L25.9371 4.45479L26.7406 7.82163C26.7436 7.83464 26.7505 7.84613 26.7551 7.85838C26.7593 7.87063 26.7636 7.88173 26.7689 7.8936C26.7881 7.93417 26.8114 7.97284 26.8436 8.00461L26.8443 8.00538L35.2333 16.3243C35.2788 16.3691 35.3313 16.4016 35.3795 16.4418C35.3856 16.4491 35.3879 16.4583 35.3948 16.4652C35.4182 16.4885 35.4469 16.5019 35.4741 16.518C35.876 16.8181 36.3503 16.977 36.8296 16.977C37.4184 16.977 38.0064 16.7507 38.4508 16.2994C39.2505 15.4871 39.306 14.2261 38.6407 13.341C38.6265 13.3192 38.617 13.2951 38.5978 13.2759C38.5905 13.2687 38.581 13.2664 38.5733 13.2599C38.5243 13.2005 38.4822 13.1377 38.4263 13.0826L30.0378 4.76487C30.0374 4.76487 30.0374 4.76487 30.037 4.76449V4.76449ZM29.0107 5.26061L27.3251 6.97217L26.7995 4.76908L29.0107 5.26061ZM27.6536 7.73014L29.7713 5.57911L37.7954 13.5355L35.6563 15.6655L27.6536 7.73014ZM37.9057 15.7627C37.4727 16.2022 36.835 16.3178 36.2929 16.1122L38.2391 14.1744C38.4382 14.7077 38.3302 15.3313 37.9057 15.7627V15.7627Z" fill="#3A2C60"/>
</svg>
