<svg width="105" height="30" viewBox="0 0 105 30" fill="none" xmlns="http://www.w3.org/2000/svg">
<path d="M48.6187 10.004H45.4547V8.492H44.3067V10.004H41.1147V10.914H48.6187V10.004ZM43.0047 13.98C43.0047 13.112 43.7607 12.538 44.8807 12.538C46.0007 12.538 46.7567 13.112 46.7567 13.98C46.7567 14.848 46.0007 15.408 44.8807 15.408C43.7607 15.408 43.0047 14.848 43.0047 13.98ZM45.4547 16.276C46.8967 16.094 47.8487 15.226 47.8487 13.98C47.8487 12.566 46.6307 11.656 44.8807 11.656C43.1307 11.656 41.9127 12.566 41.9127 13.98C41.9127 15.226 42.8647 16.094 44.3067 16.276V17.648C43.0887 17.69 41.9127 17.69 40.9047 17.69L41.0587 18.656C43.2567 18.656 46.2107 18.628 48.8987 18.152L48.8287 17.298C47.7507 17.466 46.5887 17.55 45.4547 17.606V16.276ZM52.6787 13.812H50.7187V8.478H49.5707V21.036H50.7187V14.778H52.6787V13.812ZM63.0516 8.478V21.064H64.1996V8.478H63.0516ZM57.5776 9.444C55.7156 9.444 54.3856 11.152 54.3856 13.826C54.3856 16.5 55.7156 18.208 57.5776 18.208C59.4396 18.208 60.7696 16.5 60.7696 13.826C60.7696 11.152 59.4396 9.444 57.5776 9.444ZM57.5776 10.48C58.7956 10.48 59.6636 11.796 59.6636 13.826C59.6636 15.87 58.7956 17.186 57.5776 17.186C56.3456 17.186 55.4776 15.87 55.4776 13.826C55.4776 11.796 56.3456 10.48 57.5776 10.48ZM76.8825 15.254H69.4205V13.266H76.4765V12.356H69.4205V10.494H76.7565V9.57H68.2585V16.178H76.8825V15.254ZM66.7885 18.474V19.412H78.1845V18.474H66.7885ZM82.1595 12.552H88.5715V14.862H82.1595V12.552ZM85.9395 18.488V15.786H89.6915V9.374H88.5715V11.614H82.1595V9.374H81.0255V15.786H84.7775V18.488H79.6815V19.426H91.0635V18.488H85.9395ZM102.626 14.498H95.1364V10.578H102.5V9.626H94.0024V15.436H102.626V14.498ZM92.5464 18.39V19.342H103.942V18.39H92.5464Z" fill="#767676"/>
<path d="M25.8691 10.1561C25.7604 10.1561 25.656 10.1993 25.5791 10.2763C25.5022 10.3532 25.459 10.4575 25.459 10.5663V13.4765C25.459 13.5853 25.5022 13.6896 25.5791 13.7665C25.656 13.8435 25.7604 13.8867 25.8691 13.8867C25.9779 13.8867 26.0822 13.8435 26.1592 13.7665C26.2361 13.6896 26.2793 13.5853 26.2793 13.4765V10.5663C26.2793 10.4575 26.2361 10.3532 26.1592 10.2763C26.0822 10.1993 25.9779 10.1561 25.8691 10.1561Z" fill="#787878"/>
<path d="M28.4766 18.5742H27.6867V3.28125C27.6867 3.17247 27.6435 3.06814 27.5666 2.99123C27.4897 2.91431 27.3853 2.87109 27.2766 2.87109H16.1133V1.52344C16.1133 1.41466 16.0701 1.31033 15.9931 1.23341C15.9162 1.15649 15.8119 1.11328 15.7031 1.11328H14.2969C14.1881 1.11328 14.0838 1.15649 14.0069 1.23341C13.9299 1.31033 13.8867 1.41466 13.8867 1.52344V2.87109H2.72344C2.61466 2.87109 2.51033 2.91431 2.43341 2.99123C2.35649 3.06814 2.31328 3.17247 2.31328 3.28125V18.5742H1.52344C1.41466 18.5742 1.31033 18.6174 1.23341 18.6944C1.15649 18.7713 1.11328 18.8756 1.11328 18.9844V21.0938C1.11328 21.2025 1.15649 21.3069 1.23341 21.3838C1.31033 21.4607 1.41466 21.5039 1.52344 21.5039H10.9338L8.03109 27.2733C7.89838 27.5371 7.87589 27.8428 7.96857 28.1231C8.06124 28.4035 8.2615 28.6355 8.52527 28.7682C8.78905 28.901 9.09474 28.9234 9.3751 28.8308C9.65546 28.7381 9.88752 28.5378 10.0202 28.2741L13.4269 21.5039H16.5731L19.98 28.2745C20.0458 28.4051 20.1366 28.5215 20.2474 28.6169C20.3581 28.7124 20.4866 28.7851 20.6254 28.8309C20.7642 28.8768 20.9107 28.8948 21.0566 28.884C21.2024 28.8732 21.3446 28.8338 21.4752 28.768C21.6058 28.7022 21.7221 28.6114 21.8176 28.5006C21.9131 28.3899 21.9858 28.2615 22.0316 28.1226C22.0774 27.9838 22.0954 27.8373 22.0847 27.6915C22.0739 27.5456 22.0344 27.4034 21.9687 27.2728L19.0662 21.5039H28.4766C28.5853 21.5039 28.6897 21.4607 28.7666 21.3838C28.8435 21.3069 28.8867 21.2025 28.8867 21.0938V18.9844C28.8867 18.8756 28.8435 18.7713 28.7666 18.6944C28.6897 18.6174 28.5853 18.5742 28.4766 18.5742ZM14.707 1.93359H15.293V2.87109H14.707V1.93359ZM3.13359 3.69141H26.8664V18.5742H3.13359V3.69141ZM9.28758 27.9052C9.27026 27.9395 9.24635 27.9701 9.21721 27.9953C9.18806 28.0204 9.15425 28.0395 9.11771 28.0516C9.08117 28.0636 9.04261 28.0684 9.00424 28.0655C8.96586 28.0627 8.92843 28.0523 8.89406 28.035C8.8597 28.0177 8.82908 27.9938 8.80396 27.9646C8.77883 27.9355 8.7597 27.9017 8.74764 27.8651C8.73558 27.8286 8.73084 27.79 8.73369 27.7517C8.73653 27.7133 8.74691 27.6758 8.76422 27.6415L11.8521 21.5039H12.5084L9.28758 27.9052ZM21.2362 27.642C21.2588 27.6866 21.2694 27.7363 21.2673 27.7863C21.2651 27.8363 21.2502 27.8849 21.2239 27.9274C21.1976 27.97 21.1609 28.0051 21.1172 28.0295C21.0735 28.0538 21.0242 28.0665 20.9742 28.0664C20.92 28.0661 20.867 28.051 20.8209 28.0226C20.7747 27.9942 20.7373 27.9536 20.7127 27.9054L17.4914 21.5039H18.1477L21.2362 27.642ZM28.0664 20.6836H1.93359V19.3945H28.0664V20.6836Z" fill="#787878"/>
</svg>
