<svg width="92" height="30" viewBox="0 0 92 30" fill="none" xmlns="http://www.w3.org/2000/svg">
<path d="M46.6542 9.758C43.9382 9.758 42.2442 10.64 42.2442 12.138C42.2442 13.622 43.9382 14.504 46.6542 14.504C49.3702 14.504 51.0642 13.622 51.0642 12.138C51.0642 10.64 49.3702 9.758 46.6542 9.758ZM46.6542 10.668C48.6422 10.668 49.8882 11.214 49.8882 12.138C49.8882 13.062 48.6422 13.608 46.6542 13.608C44.6662 13.608 43.4202 13.062 43.4202 12.138C43.4202 11.214 44.6662 10.668 46.6542 10.668ZM42.3842 17.738V21.868H50.9522V17.738H42.3842ZM49.8322 18.648V20.944H43.5042V18.648H49.8322ZM40.9842 15.582V16.506H52.3382V15.582H40.9842ZM61.3111 10.892H58.1751V9.366H57.0271V10.892H53.9051V11.816H61.3111V10.892ZM55.6971 14.658C55.6971 13.832 56.4531 13.314 57.6011 13.314C58.7491 13.314 59.5191 13.832 59.5191 14.658C59.5191 15.484 58.7491 16.016 57.6011 16.016C56.4531 16.016 55.6971 15.484 55.6971 14.658ZM60.6111 14.658C60.6111 13.314 59.3931 12.446 57.6011 12.446C55.8091 12.446 54.6051 13.314 54.6051 14.658C54.6051 16.016 55.8091 16.884 57.6011 16.884C59.3931 16.884 60.6111 16.016 60.6111 14.658ZM59.6731 21.14C57.8391 21.14 56.7191 20.664 56.7191 19.852C56.7191 19.04 57.8391 18.564 59.6731 18.564C61.5071 18.564 62.6271 19.04 62.6271 19.852C62.6271 20.664 61.5071 21.14 59.6731 21.14ZM59.6731 17.682C57.1391 17.682 55.5851 18.466 55.5851 19.852C55.5851 21.224 57.1391 22.022 59.6731 22.022C62.1931 22.022 63.7611 21.224 63.7611 19.852C63.7611 18.466 62.1931 17.682 59.6731 17.682ZM65.4411 12.586V11.648H63.6071V9.478H62.4591V17.556H63.6071V15.274H65.4411V14.322H63.6071V12.586H65.4411ZM71.194 10.57H70.06V12.824C70.06 15.204 68.534 17.612 66.686 18.494L67.386 19.432C68.856 18.676 70.06 17.108 70.634 15.218C71.236 17.01 72.44 18.494 73.868 19.194L74.554 18.27C72.692 17.43 71.194 15.12 71.194 12.824V10.57ZM75.87 9.478V22.064H77.018V9.478H75.87ZM88.8049 15.974H89.9669V9.492H88.8049V11.76H86.0749V12.698H88.8049V15.974ZM86.9569 14.812C85.1509 14.21 83.8769 12.684 83.8769 11.046V9.884H82.7429V11.046C82.7429 12.866 81.4969 14.448 79.6069 15.092L80.2089 16.002C81.6789 15.456 82.8129 14.364 83.3449 12.95C83.8909 14.224 84.9829 15.218 86.3689 15.708L86.9569 14.812ZM83.0369 20.958V19.614H89.9669V16.604H81.8749V17.514H88.8329V18.746H81.9029V21.868H90.4429V20.958H83.0369Z" fill="#767676"/>
<path d="M24.2855 12.6479V8.33256C24.2855 7.60424 23.693 7.01162 22.9646 7.01162C22.2362 7.01162 21.6437 7.60424 21.6437 8.33256V10.7459H20.5116V5.51145C20.5116 2.47242 18.0392 0 15.0002 0C14.0995 0 13.2056 0.222246 12.4153 0.642656C12.2007 0.756855 12.1192 1.02346 12.2334 1.23814C12.3475 1.45271 12.6141 1.53451 12.8289 1.42008C13.4923 1.06723 14.2432 0.880664 15.0002 0.880664C17.3956 0.880664 19.3719 2.70891 19.6074 5.04328H18.3138C18.0706 5.04328 17.8735 5.24039 17.8735 5.48361C17.8735 5.72684 18.0706 5.92395 18.3138 5.92395H19.631V7.32434H18.3138C18.0706 7.32434 17.8735 7.52145 17.8735 7.76467C17.8735 8.00789 18.0706 8.205 18.3138 8.205H19.631V9.60545H18.3138C18.0706 9.60545 17.8735 9.80256 17.8735 10.0458C17.8735 10.289 18.0706 10.4861 18.3138 10.4861H19.631V11.8865H18.3138C18.0706 11.8865 17.8735 12.0836 17.8735 12.3268C17.8735 12.5701 18.0706 12.7672 18.3138 12.7672H19.6074C19.3719 15.1015 17.3956 16.9297 15.0002 16.9297C12.6048 16.9297 10.6285 15.1015 10.393 12.7672H11.6866C11.9298 12.7672 12.1269 12.5701 12.1269 12.3268C12.1269 12.0836 11.9298 11.8865 11.6866 11.8865H10.3694V10.4861H11.6866C11.9298 10.4861 12.1269 10.289 12.1269 10.0458C12.1269 9.80256 11.9298 9.60545 11.6866 9.60545H10.3694V8.20488H11.6866C11.9298 8.20488 12.1269 8.00777 12.1269 7.76455C12.1269 7.52133 11.9298 7.32422 11.6866 7.32422H10.3694V5.92383H11.6866C11.9298 5.92383 12.1269 5.72672 12.1269 5.4835C12.1269 5.24027 11.9298 5.04316 11.6866 5.04316H10.3937C10.4924 4.06729 10.8972 3.14666 11.5595 2.41195C11.7223 2.23137 11.7079 1.95293 11.5273 1.7901C11.3468 1.62721 11.0682 1.64168 10.9054 1.82232C9.99184 2.8357 9.48875 4.1458 9.48875 5.51133V10.7458H8.35672V8.3325C8.35672 7.60418 7.76416 7.01156 7.03578 7.01156C6.3074 7.01156 5.71484 7.60418 5.71484 8.3325V12.6478C5.71484 17.2253 9.04438 21.0392 13.4087 21.7962V27.1408H9.42676C8.6385 27.1408 7.99719 27.7821 7.99719 28.5704C7.99719 29.3586 8.6385 29.9999 9.42676 29.9999H11.3833C11.6265 29.9999 11.8237 29.8028 11.8237 29.5596C11.8237 29.3163 11.6265 29.1192 11.3833 29.1192H9.42676C9.12406 29.1192 8.87779 28.8729 8.87779 28.5703C8.87779 28.2676 9.12406 28.0213 9.42676 28.0213H20.5736C20.8763 28.0213 21.1225 28.2676 21.1225 28.5703C21.1225 28.8729 20.8763 29.1192 20.5736 29.1192H13.1446C12.9014 29.1192 12.7043 29.3163 12.7043 29.5596C12.7043 29.8028 12.9014 29.9999 13.1446 29.9999H20.5736C21.3619 29.9999 22.0032 29.3586 22.0032 28.5703C22.0032 27.7821 21.3619 27.1408 20.5736 27.1408H16.5917V21.7962C20.956 21.0393 24.2855 17.2253 24.2855 12.6479V12.6479ZM6.59551 12.6479V8.33256C6.59551 8.08975 6.79303 7.89223 7.03584 7.89223C7.27865 7.89223 7.47617 8.08975 7.47617 8.33256V12.6479C7.47617 16.7967 10.8515 20.172 15.0003 20.172C16.5297 20.172 18.0028 19.7138 19.2603 18.847C19.4605 18.709 19.511 18.4348 19.3729 18.2346C19.2351 18.0344 18.9608 17.9838 18.7606 18.1219C17.6506 18.8869 16.3503 19.2913 15.0003 19.2913C11.337 19.2913 8.35678 16.311 8.35678 12.6478V11.6264H9.48881V12.2987C9.48881 15.3377 11.9612 17.8102 15.0003 17.8102C18.0393 17.8102 20.5117 15.3377 20.5117 12.2987V11.6264H21.6437V12.6478C21.6437 14.2566 21.0588 15.8099 19.9967 17.0216C19.8363 17.2044 19.8546 17.4826 20.0376 17.6429C20.2203 17.8033 20.4986 17.785 20.6589 17.602C21.8619 16.2296 22.5244 14.4703 22.5244 12.6478V8.3325C22.5244 8.08969 22.7219 7.89217 22.9647 7.89217C23.2075 7.89217 23.4051 8.08969 23.4051 8.3325V12.6478C23.4051 17.2822 19.6347 21.0525 15.0004 21.0525C10.366 21.0525 6.59551 17.2822 6.59551 12.6479V12.6479ZM15.7111 27.1409H14.2894V21.9062C14.5241 21.9241 14.7611 21.9332 15.0002 21.9332C15.2394 21.9332 15.4764 21.924 15.7111 21.9062V27.1409Z" fill="#787878"/>
</svg>
