<svg width="92" height="30" viewBox="0 0 92 30" fill="none" xmlns="http://www.w3.org/2000/svg">
<path d="M41.7122 14.462C43.2242 14.196 44.4002 13.482 44.9182 12.53C45.4642 13.426 46.6122 14.084 48.0962 14.35L48.4742 13.496C46.8082 13.23 45.4922 12.418 45.4782 11.396H48.2082V10.542H45.4782V9.45H44.3302V10.542H41.6002V11.396H44.3442C44.3302 12.474 43.0282 13.328 41.3202 13.622L41.7122 14.462ZM48.7822 14.938C47.7462 15.092 46.5982 15.176 45.4782 15.232V13.902H44.3302V15.274C43.1402 15.316 41.9642 15.316 40.9702 15.316L41.1102 16.212C43.3082 16.212 46.2622 16.184 48.8802 15.75L48.7822 14.938ZM43.7422 19.866H50.7142V17.15H42.5802V18.004H49.5802V19.04H42.6222V21.896H51.1902V21.028H43.7422V19.866ZM50.7142 12.488V9.492H49.5662V16.604H50.7142V13.44H52.5622V12.488H50.7142ZM55.1511 13.202C55.1511 12.04 56.0751 11.2 57.2931 11.2C58.5251 11.2 59.4211 12.04 59.4211 13.202C59.4211 14.378 58.5251 15.218 57.2931 15.218C56.0751 15.218 55.1511 14.378 55.1511 13.202ZM63.0471 12.222V14.182H60.3451C60.4571 13.874 60.5131 13.552 60.5131 13.202C60.5131 12.838 60.4571 12.516 60.3591 12.222H63.0471ZM63.0471 15.12V16.912H64.2091V9.478H63.0471V11.284H59.8271C59.2531 10.64 58.3571 10.234 57.2931 10.234C55.4311 10.234 54.0591 11.452 54.0591 13.202C54.0591 14.966 55.4311 16.198 57.2931 16.198C58.3571 16.198 59.2531 15.792 59.8271 15.12H63.0471ZM60.0511 21.112C58.1611 21.112 57.0131 20.552 57.0131 19.614C57.0131 18.662 58.1611 18.102 60.0511 18.102C61.9691 18.102 63.1171 18.662 63.1171 19.614C63.1171 20.552 61.9691 21.112 60.0511 21.112ZM60.0511 17.206C57.4751 17.206 55.8791 18.088 55.8791 19.614C55.8791 21.14 57.4751 22.022 60.0511 22.022C62.6411 22.022 64.2511 21.14 64.2511 19.614C64.2511 18.088 62.6411 17.206 60.0511 17.206ZM74.022 15.554C72.174 14.938 70.984 13.468 70.984 11.83V11.34H73.756V10.416H67.022V11.34H69.836V11.83C69.836 13.636 68.576 15.26 66.686 15.918L67.274 16.828C68.772 16.296 69.906 15.176 70.438 13.748C70.97 14.994 72.048 15.988 73.476 16.45L74.022 15.554ZM72.496 21.112C70.62 21.112 69.5 20.594 69.5 19.698C69.5 18.816 70.62 18.298 72.496 18.298C74.344 18.298 75.478 18.816 75.478 19.698C75.478 20.594 74.344 21.112 72.496 21.112ZM72.496 17.388C69.92 17.388 68.352 18.242 68.352 19.698C68.352 21.168 69.92 22.022 72.496 22.022C75.044 22.022 76.626 21.168 76.626 19.698C76.626 18.242 75.044 17.388 72.496 17.388ZM76.486 12.656V9.492H75.338V17.066H76.486V13.622H78.348V12.656H76.486ZM88.7489 9.478V22.05H89.8969V9.478H88.7489ZM80.3349 10.542V19.012H86.2429V10.542H85.1089V13.86H81.4689V10.542H80.3349ZM81.4689 14.77H85.1089V18.074H81.4689V14.77Z" fill="#767676"/>
<g clip-path="url(#clip0)">
<path d="M27.0703 6.32812H24.6438L22.7723 2.6632C22.6722 2.46715 22.4706 2.34375 22.2504 2.34375H11.9292C11.7091 2.34375 11.5075 2.46715 11.4074 2.6632L9.53596 6.32812H7.14844V5.09766C7.14844 4.48377 6.64904 3.98438 6.03516 3.98438H4.27734C3.66346 3.98438 3.16406 4.48377 3.16406 5.09766V6.32812H2.92969C1.31426 6.32812 0 7.64238 0 9.25781V24.7266C0 26.342 1.31426 27.6562 2.92969 27.6562H27.0703C28.6857 27.6562 30 26.342 30 24.7266V9.25781C30 7.64238 28.6857 6.32812 27.0703 6.32812ZM12.2879 3.51562H21.8917L23.3279 6.32812H10.8517L12.2879 3.51562ZM4.33594 5.15625H5.97656V6.32812H4.33594V5.15625ZM28.8281 24.7266C28.8281 25.6958 28.0396 26.4844 27.0703 26.4844H2.92969C1.96043 26.4844 1.17188 25.6958 1.17188 24.7266V9.25781C1.17188 8.28855 1.96043 7.5 2.92969 7.5H27.0703C28.0396 7.5 28.8281 8.28855 28.8281 9.25781V24.7266Z" fill="#787878"/>
<path d="M17.0896 8.90625C15.4033 8.90625 13.7872 9.42029 12.4162 10.3928C11.0758 11.3438 10.0677 12.6581 9.50123 14.1937C9.3892 14.4973 9.54453 14.8342 9.84816 14.9462C10.1517 15.0583 10.4887 14.9029 10.6007 14.5993C11.5983 11.8951 14.206 10.0781 17.0896 10.0781C20.9021 10.0781 24.0037 13.1798 24.0037 16.9922C24.0037 20.8046 20.9021 23.9062 17.0896 23.9062C14.206 23.9062 11.5983 22.0893 10.6007 19.3851C10.4887 19.0815 10.1516 18.9261 9.84816 19.0382C9.54453 19.1501 9.3892 19.487 9.50123 19.7907C10.0677 21.3263 11.0757 22.6407 12.4162 23.5915C13.7872 24.5641 15.4033 25.0781 17.0896 25.0781C21.5482 25.0781 25.1756 21.4508 25.1756 16.9922C25.1756 12.5336 21.5482 8.90625 17.0896 8.90625Z" fill="#787878"/>
<path d="M17.0898 22.5C20.1269 22.5 22.5976 20.0292 22.5976 16.9922C22.5976 13.9552 20.1269 11.4844 17.0898 11.4844C14.0528 11.4844 11.582 13.9552 11.582 16.9922C11.582 20.0292 14.0528 22.5 17.0898 22.5ZM17.0898 12.6562C19.4807 12.6562 21.4258 14.6013 21.4258 16.9922C21.4258 19.383 19.4807 21.3281 17.0898 21.3281C14.699 21.3281 12.7539 19.383 12.7539 16.9922C12.7539 14.6013 14.699 12.6562 17.0898 12.6562Z" fill="#787878"/>
<path d="M17.0898 15.4921C17.917 15.4921 18.5899 16.165 18.5899 16.9922C18.5899 17.3158 18.8522 17.5781 19.1758 17.5781C19.4995 17.5781 19.7618 17.3158 19.7618 16.9922C19.7618 15.5189 18.5631 14.3203 17.0898 14.3203C16.7662 14.3203 16.5039 14.5826 16.5039 14.9062C16.5039 15.2298 16.7662 15.4921 17.0898 15.4921Z" fill="#787878"/>
<path d="M5.1559 9.62766C4.18523 9.62766 3.39551 10.4174 3.39551 11.388C3.39551 12.3587 4.18523 13.1484 5.1559 13.1484C6.12656 13.1484 6.91629 12.3587 6.91629 11.388C6.91629 10.4174 6.12656 9.62766 5.1559 9.62766ZM5.1559 11.9766C4.83141 11.9766 4.56738 11.7125 4.56738 11.388C4.56738 11.0636 4.83141 10.7995 5.1559 10.7995C5.48039 10.7995 5.74441 11.0636 5.74441 11.388C5.74441 11.7125 5.48039 11.9766 5.1559 11.9766Z" fill="#787878"/>
<path d="M9.58984 17.5781C9.91345 17.5781 10.1758 17.3158 10.1758 16.9922C10.1758 16.6686 9.91345 16.4062 9.58984 16.4062C9.26624 16.4062 9.00391 16.6686 9.00391 16.9922C9.00391 17.3158 9.26624 17.5781 9.58984 17.5781Z" fill="#787878"/>
</g>
<defs>
<clipPath id="clip0">
<rect width="30" height="30" fill="white"/>
</clipPath>
</defs>
</svg>
