<svg width="312" height="24" viewBox="0 0 312 24" fill="none" xmlns="http://www.w3.org/2000/svg">
<path d="M37.952 7.592H34.256V5.848H32.944V7.592H29.232V8.648H37.952V7.592ZM31.392 12.12C31.392 11.112 32.288 10.472 33.6 10.472C34.896 10.472 35.792 11.112 35.792 12.12C35.792 13.112 34.896 13.752 33.6 13.752C32.288 13.752 31.392 13.112 31.392 12.12ZM34.256 14.744C35.952 14.536 37.04 13.544 37.04 12.12C37.04 10.504 35.648 9.464 33.6 9.464C31.552 9.464 30.144 10.504 30.144 12.12C30.144 13.56 31.248 14.552 32.944 14.76V16.296C31.52 16.344 30.144 16.36 28.928 16.36L29.12 17.464C31.76 17.464 35.216 17.416 38.416 16.888L38.32 15.912C37.008 16.088 35.616 16.184 34.256 16.248V14.744ZM39.232 5.848V20.184H40.544V5.848H39.232ZM51.0868 14.312V15.288H53.9988V16.76H55.3108V5.832H53.9988V14.312H51.0868ZM48.1588 7.384C49.5188 7.384 50.4468 7.992 50.4468 8.904C50.4468 9.832 49.5188 10.44 48.1588 10.44C46.7988 10.44 45.8708 9.832 45.8708 8.904C45.8708 7.992 46.7988 7.384 48.1588 7.384ZM48.1588 11.416C50.2548 11.416 51.6948 10.44 51.6948 8.904C51.6948 7.4 50.2548 6.408 48.1588 6.408C46.0628 6.408 44.6228 7.4 44.6228 8.904C44.6228 10.44 46.0628 11.416 48.1588 11.416ZM47.6468 16.248H48.9588V13.416C50.2548 13.336 51.5828 13.192 52.8468 13L52.7348 12.056C49.6948 12.44 46.1428 12.472 43.4868 12.472L43.6628 13.56C44.8468 13.56 46.2228 13.544 47.6468 13.48V16.248ZM46.8468 18.792V15.688H45.5348V19.864H55.6788V18.792H46.8468ZM59.0535 7.368V8.456H64.3175C64.0135 11.848 62.0455 14.6 58.3815 16.44L59.1015 17.464C63.7415 15.144 65.6135 11.448 65.6135 7.368H59.0535ZM71.6295 11.656H69.3255V5.832H68.0135V20.184H69.3255V12.744H71.6295V11.656ZM83.4683 5.848V13.544H84.7803V5.848H83.4683ZM75.5323 14.248V19.992H84.7803V14.248H83.4843V16.008H76.8283V14.248H75.5323ZM76.8283 17.032H83.4843V18.936H76.8283V17.032ZM77.0683 6.52C74.9083 6.52 73.3403 7.864 73.3403 9.816C73.3403 11.8 74.9083 13.128 77.0683 13.128C79.2443 13.128 80.8283 11.8 80.8283 9.816C80.8283 7.864 79.2443 6.52 77.0683 6.52ZM77.0683 7.608C78.5243 7.608 79.5483 8.52 79.5483 9.816C79.5483 11.128 78.5243 12.04 77.0683 12.04C75.6443 12.04 74.6203 11.128 74.6203 9.816C74.6203 8.52 75.6443 7.608 77.0683 7.608ZM94.203 7.064C96.555 7.064 97.899 7.608 97.899 8.568C97.899 9.528 96.555 10.072 94.203 10.072C91.851 10.072 90.507 9.528 90.507 8.568C90.507 7.608 91.851 7.064 94.203 7.064ZM94.203 11.048C97.355 11.048 99.243 10.184 99.243 8.568C99.243 6.952 97.355 6.072 94.203 6.072C91.051 6.072 89.163 6.952 89.163 8.568C89.163 10.184 91.051 11.048 94.203 11.048ZM90.603 17.544H99.035V14.312H89.275V15.304H97.739V16.584H89.323V20.024H99.467V19H90.603V17.544ZM87.707 12.024V13.08H100.699V12.024H87.707ZM110.724 7.592C112.116 7.592 113.108 8.344 113.108 9.464C113.108 10.584 112.116 11.336 110.724 11.336C109.316 11.336 108.324 10.584 108.324 9.464C108.324 8.344 109.316 7.592 110.724 7.592ZM110.724 12.408C112.852 12.408 114.372 11.208 114.372 9.464C114.372 7.704 112.852 6.504 110.724 6.504C108.58 6.504 107.06 7.704 107.06 9.464C107.06 11.208 108.58 12.408 110.724 12.408ZM115.444 13.112C112.292 13.592 108.66 13.624 105.988 13.624L106.164 14.728C107.348 14.728 108.708 14.712 110.132 14.648V19.736H111.444V14.568C112.804 14.488 114.196 14.328 115.556 14.088L115.444 13.112ZM116.484 5.848V20.2H117.796V5.848H116.484ZM124.291 15.768C123.171 15.768 122.387 14.856 122.387 13.576C122.387 12.328 123.171 11.416 124.291 11.416C125.395 11.416 126.195 12.328 126.195 13.576C126.195 14.856 125.395 15.768 124.291 15.768ZM124.291 10.312C122.515 10.312 121.219 11.656 121.219 13.576C121.219 15.528 122.515 16.856 124.291 16.856C126.067 16.856 127.363 15.528 127.363 13.576C127.363 11.656 126.067 10.312 124.291 10.312ZM124.931 6.248H123.635V8.28H120.723V9.352H127.843V8.28H124.931V6.248ZM131.635 5.816V11.88H129.795V6.152H128.563V19.48H129.795V12.952H131.635V20.168H132.899V5.816H131.635ZM144.988 12.92H140.924V10.296H144.988V12.92ZM146.267 6.872H144.988V9.272H140.924V6.872H139.628V13.976H146.267V6.872ZM142.556 15.368H141.244V19.864H150.812V18.792H142.556V15.368ZM150.172 10.184V5.848H148.86V16.376H150.172V11.288H152.3V10.184H150.172ZM165.258 12.712H156.698V8.232H165.114V7.144H155.402V13.784H165.258V12.712ZM153.738 17.16V18.248H166.762V17.16H153.738ZM173.561 7.08H172.265V9.656C172.265 12.376 170.521 15.128 168.409 16.136L169.209 17.208C170.889 16.344 172.265 14.552 172.921 12.392C173.609 14.44 174.985 16.136 176.617 16.936L177.401 15.88C175.273 14.92 173.561 12.28 173.561 9.656V7.08ZM178.905 5.832V20.216H180.217V5.832H178.905ZM193.266 19.16C190.994 19.16 189.666 18.6 189.666 17.592C189.666 16.584 190.994 16.024 193.266 16.024C195.506 16.024 196.834 16.584 196.834 17.592C196.834 18.6 195.506 19.16 193.266 19.16ZM193.266 15C190.194 15 188.338 15.928 188.338 17.592C188.338 19.256 190.194 20.184 193.266 20.184C196.306 20.184 198.162 19.256 198.162 17.592C198.162 15.928 196.306 15 193.266 15ZM193.922 12.92V11.256H198.242V10.2H189.714V7.544H198.146V6.488H188.402V11.256H192.61V12.92H186.77V13.976H199.762V12.92H193.922ZM206.145 6.888C203.921 6.888 202.305 8.248 202.305 10.264C202.305 12.264 203.921 13.64 206.145 13.64C208.385 13.64 209.985 12.264 209.985 10.264C209.985 8.248 208.385 6.888 206.145 6.888ZM206.145 8.008C207.633 8.008 208.705 8.92 208.705 10.264C208.705 11.592 207.633 12.52 206.145 12.52C204.657 12.52 203.585 11.592 203.585 10.264C203.585 8.92 204.657 8.008 206.145 8.008ZM211.873 5.832V20.216H213.185V5.832H211.873ZM201.745 17.064C204.337 17.064 207.809 17.048 211.041 16.44L210.929 15.464C207.793 15.944 204.193 15.96 201.585 15.96L201.745 17.064ZM220.415 15.896C219.119 15.896 218.175 14.968 218.175 13.688C218.175 12.392 219.119 11.464 220.415 11.464C221.727 11.464 222.671 12.392 222.671 13.688C222.671 14.968 221.727 15.896 220.415 15.896ZM220.415 10.376C218.399 10.376 216.943 11.752 216.943 13.688C216.943 15.64 218.399 16.984 220.415 16.984C222.463 16.984 223.919 15.64 223.919 13.688C223.919 11.752 222.463 10.376 220.415 10.376ZM221.055 6.008H219.743V8.136H216.127V9.192H224.591V8.136H221.055V6.008ZM229.615 11.736H227.263V5.848H225.951V20.184H227.263V12.84H229.615V11.736ZM235.95 7.08H234.638V9.64C234.638 12.312 233.006 15.064 230.926 16.12L231.726 17.16C233.342 16.28 234.67 14.488 235.294 12.36C235.934 14.392 237.262 16.12 238.878 16.952L239.662 15.896C237.582 14.904 235.95 12.28 235.95 9.64V7.08ZM241.422 5.832V8.952H238.318V10.04H241.422V12.536H238.318V13.624H241.422V20.216H242.75V5.832H241.422ZM249.469 15.784C248.077 15.784 247.101 14.264 247.101 11.928C247.101 9.624 248.077 8.12 249.469 8.12C250.845 8.12 251.821 9.624 251.821 11.928C251.821 14.264 250.845 15.784 249.469 15.784ZM249.469 6.936C247.357 6.936 245.853 8.888 245.853 11.928C245.853 15 247.357 16.952 249.469 16.952C251.581 16.952 253.069 15 253.069 11.928C253.069 8.888 251.581 6.936 249.469 6.936ZM258.973 10.536V9.448H256.685V5.848H255.373V20.184H256.685V14.808H258.973V13.72H256.685V10.536H258.973ZM272.454 7.304H268.87V5.688H267.558V7.304H263.99V8.36H272.454V7.304ZM266.038 11.544C266.038 10.616 266.902 10.024 268.214 10.024C269.526 10.024 270.406 10.616 270.406 11.544C270.406 12.488 269.526 13.064 268.214 13.064C266.902 13.064 266.038 12.488 266.038 11.544ZM271.654 11.544C271.654 10.024 270.262 9.048 268.214 9.048C266.166 9.048 264.79 10.024 264.79 11.544C264.79 13.08 266.166 14.056 268.214 14.056C270.262 14.056 271.654 13.08 271.654 11.544ZM273.782 18.936H267.35V17.352H273.782V18.936ZM273.782 16.328H267.35V14.808H266.054V19.992H275.078V14.808H273.782V16.328ZM277.206 9.48H275.078V5.832H273.766V14.168H275.078V10.584H277.206V9.48ZM280.869 7.224H279.557V16.472H280.741C283.029 16.472 285.285 16.312 287.781 15.8L287.637 14.68C285.253 15.16 283.029 15.352 280.869 15.352V7.224ZM289.109 5.832V20.168H290.421V5.832H289.109ZM295.299 8.296H300.659V7.208H293.987V16.632H295.123C297.827 16.632 299.715 16.536 301.907 16.12L301.763 15.032C299.683 15.4 297.843 15.512 295.299 15.512V8.296ZM306.787 11.496H304.419V5.832H303.107V20.216H304.419V12.584H306.787V11.496ZM309.474 19.208C310.05 19.208 310.53 18.76 310.53 18.104C310.53 17.448 310.05 16.968 309.474 16.968C308.898 16.968 308.418 17.448 308.418 18.104C308.418 18.76 308.898 19.208 309.474 19.208Z" fill="#D94A2B"/>
<path d="M11 15H13V17H11V15ZM11 7H13V13H11V7ZM11.99 2C6.47 2 2 6.48 2 12C2 17.52 6.47 22 11.99 22C17.52 22 22 17.52 22 12C22 6.48 17.52 2 11.99 2ZM12 20C7.58 20 4 16.42 4 12C4 7.58 7.58 4 12 4C16.42 4 20 7.58 20 12C20 16.42 16.42 20 12 20Z" fill="#D94A2B"/>
</svg>
