<svg width="108" height="30" viewBox="0 0 108 30" fill="none" xmlns="http://www.w3.org/2000/svg">
<path d="M51.8013 15.792C49.6033 15.372 47.2233 13.468 47.2233 11.326V10.36H46.0193V11.326C46.0193 13.468 43.6533 15.358 41.4553 15.792L41.9733 16.744C43.8633 16.296 45.8233 14.952 46.6213 13.118C47.4193 14.966 49.3793 16.31 51.2833 16.744L51.8013 15.792ZM40.9793 19.404V20.356H52.3613V19.404H40.9793ZM55.4822 11.662H58.9962V17.92H55.4822V11.662ZM54.3622 18.844H60.1162V10.738H54.3622V18.844ZM65.5902 14.49H63.5182V9.492H62.3702V22.036H63.5182V15.456H65.5902V14.49ZM76.8171 16.254H69.3551V14.266H76.4111V13.356H69.3551V11.494H76.6911V10.57H68.1931V17.178H76.8171V16.254ZM66.7231 19.474V20.412H78.1191V19.474H66.7231ZM85.2249 13.552H91.6369V15.862H85.2249V13.552ZM89.0049 19.488V16.786H92.7569V10.374H91.6369V12.614H85.2249V10.374H84.0909V16.786H87.8429V19.488H82.7469V20.426H94.1289V19.488H89.0049ZM105.692 15.498H98.2018V11.578H105.566V10.626H97.0678V16.436H105.692V15.498ZM95.6118 19.39V20.342H107.008V19.39H95.6118Z" fill="#767676"/>
<path d="M27.7852 0H2.21484C0.993574 0 0 0.993574 0 2.21484V4.10918C0 4.35193 0.196758 4.54863 0.439453 4.54863C0.682148 4.54863 0.878906 4.35193 0.878906 4.10918V2.21484C0.878906 1.4782 1.4782 0.878906 2.21484 0.878906H27.7852C28.5218 0.878906 29.1211 1.4782 29.1211 2.21484V14.7439C29.1211 14.9867 29.3179 15.1834 29.5605 15.1834C29.8032 15.1834 30 14.9867 30 14.7439V2.21484C30 0.993574 29.0064 0 27.7852 0V0Z" fill="#787878"/>
<path d="M29.5605 16.3553C29.3179 16.3553 29.1211 16.552 29.1211 16.7947V18.8222H0.878906V6.15995C0.878906 5.9172 0.682148 5.7205 0.439453 5.7205C0.196758 5.7205 0 5.9172 0 6.15995V21.0375C0 22.2588 0.993574 23.2523 2.21484 23.2523H11.5354L10.3577 27.2268H7.77891C7.27553 27.2268 6.86602 27.6365 6.86602 28.1402V29.0871C6.86602 29.5905 7.27553 30 7.77891 30H22.2211C22.7245 30 23.134 29.5905 23.134 29.0871V28.1402C23.134 27.6365 22.7245 27.2268 22.2211 27.2268H19.6423L18.4646 23.2523H27.7852C29.0064 23.2523 30 22.2588 30 21.0375V16.7947C30 16.552 29.8032 16.3553 29.5605 16.3553ZM18.7256 27.2268H13.8943C13.6516 27.2268 13.4549 27.4235 13.4549 27.6662C13.4549 27.909 13.6516 28.1057 13.8943 28.1057H22.2211C22.2398 28.1057 22.2551 28.1212 22.2551 28.1402V29.0871C22.2551 29.1059 22.2398 29.1211 22.2211 29.1211H7.77891C7.76021 29.1211 7.74492 29.1059 7.74492 29.0871V28.1402C7.74492 28.1212 7.76016 28.1057 7.77891 28.1057H11.8436C12.0863 28.1057 12.283 27.909 12.283 27.6662C12.283 27.4235 12.0863 27.2268 11.8436 27.2268H11.2744L12.4521 23.2523H17.5481L18.7256 27.2268ZM27.7852 22.3734H2.21484C1.4782 22.3734 0.878906 21.7741 0.878906 21.0375V19.701H29.1211V21.0375C29.1211 21.7741 28.5218 22.3734 27.7852 22.3734Z" fill="#787878"/>
<path d="M2.33301 3.66972C2.09031 3.66972 1.89355 3.86642 1.89355 4.10918V17.3675C1.89355 17.6103 2.09031 17.807 2.33301 17.807H19.3795C19.6222 17.807 19.819 17.6103 19.819 17.3675C19.819 17.1248 19.6222 16.9281 19.3795 16.9281H17.9249V10.2648C17.9249 10.022 17.7282 9.82535 17.4855 9.82535H15.5914C15.3487 9.82535 15.152 10.022 15.152 10.2648V16.9281H14.1368V7.89726C14.1368 7.65451 13.9401 7.45781 13.6974 7.45781H11.8033C11.5606 7.45781 11.3639 7.65451 11.3639 7.89726V16.9281H10.3488V10.2648C10.3488 10.022 10.152 9.82535 9.9093 9.82535H8.01525C7.77256 9.82535 7.5758 10.022 7.5758 10.2648V16.9281H6.56066V4.34595C6.56066 4.1032 6.36391 3.9065 6.12121 3.9065H4.22705C3.98436 3.9065 3.7876 4.1032 3.7876 4.34595V16.9281H2.77246V4.10918C2.77246 3.86642 2.5757 3.66972 2.33301 3.66972V3.66972ZM16.0309 10.7043H17.046V16.9281H16.0309V10.7043ZM12.2427 8.33671H13.2579V16.9281H12.2427V8.33671ZM8.45465 10.7043H9.46979V16.9281H8.45465V10.7043ZM4.6665 4.78541H5.68164V16.9281H4.6665V4.78541Z" fill="#787878"/>
<path d="M28.1062 2.33349C28.1062 2.09073 27.9094 1.89403 27.6667 1.89403H20.8008C20.5581 1.89403 20.3613 2.09073 20.3613 2.33349V4.22753C20.3613 4.47028 20.5581 4.66698 20.8008 4.66698H27.6667C27.9094 4.66698 28.1062 4.47028 28.1062 4.22753V2.33349ZM27.2273 3.78808H21.2402V2.77294H27.2273V3.78808Z" fill="#787878"/>
<path d="M27.6658 15.034H22.9307C22.688 15.034 22.4912 15.2307 22.4912 15.4735V17.3675C22.4912 17.6103 22.688 17.807 22.9307 17.807H27.6658C27.9085 17.807 28.1053 17.6103 28.1053 17.3675V15.4735C28.1053 15.2307 27.9085 15.034 27.6658 15.034ZM27.2263 16.9281H23.3701V15.9129H27.2263V16.9281Z" fill="#787878"/>
<path d="M27.666 5.68217H23.8779C23.6352 5.68217 23.4385 5.87887 23.4385 6.12163C23.4385 6.36438 23.6352 6.56108 23.8779 6.56108H27.666C27.9087 6.56108 28.1055 6.36438 28.1055 6.12163C28.1055 5.87887 27.9087 5.68217 27.666 5.68217V5.68217Z" fill="#787878"/>
<path d="M20.8008 6.56108H21.9846C22.2272 6.56108 22.424 6.36438 22.424 6.12163C22.424 5.87887 22.2272 5.68217 21.9846 5.68217H20.8008C20.5581 5.68217 20.3613 5.87887 20.3613 6.12163C20.3613 6.36438 20.5581 6.56108 20.8008 6.56108Z" fill="#787878"/>
<path d="M27.6672 7.57623H26.4834C26.2407 7.57623 26.0439 7.77293 26.0439 8.01568C26.0439 8.25844 26.2407 8.45514 26.4834 8.45514H27.6672C27.9099 8.45514 28.1066 8.25844 28.1066 8.01568C28.1066 7.77293 27.9099 7.57623 27.6672 7.57623Z" fill="#787878"/>
<path d="M20.8008 8.45514H24.5889C24.8316 8.45514 25.0283 8.25844 25.0283 8.01568C25.0283 7.77293 24.8316 7.57623 24.5889 7.57623H20.8008C20.5581 7.57623 20.3613 7.77293 20.3613 8.01568C20.3613 8.25844 20.5581 8.45514 20.8008 8.45514Z" fill="#787878"/>
<path d="M20.8008 10.3492H27.6667C27.9094 10.3492 28.1062 10.1525 28.1062 9.90973C28.1062 9.66698 27.9094 9.47028 27.6667 9.47028H20.8008C20.5581 9.47028 20.3613 9.66698 20.3613 9.90973C20.3613 10.1525 20.5581 10.3492 20.8008 10.3492Z" fill="#787878"/>
<path d="M27.6663 11.3643H23.168C22.9253 11.3643 22.7285 11.561 22.7285 11.8038C22.7285 12.0465 22.9253 12.2432 23.168 12.2432H27.6663C27.909 12.2432 28.1058 12.0465 28.1058 11.8038C28.1058 11.561 27.909 11.3643 27.6663 11.3643Z" fill="#787878"/>
</svg>
