<svg width="92" height="30" viewBox="0 0 92 30" fill="none" xmlns="http://www.w3.org/2000/svg">
<path d="M42.5242 12.244C42.5242 11.068 43.4482 10.256 44.7362 10.256C46.0102 10.256 46.9342 11.068 46.9342 12.244C46.9342 13.434 46.0102 14.218 44.7362 14.218C43.4482 14.218 42.5242 13.434 42.5242 12.244ZM45.3102 15.156C46.9202 14.946 48.0542 13.812 48.0542 12.244C48.0542 10.48 46.6542 9.29 44.7362 9.29C42.7902 9.29 41.4042 10.48 41.4042 12.244C41.4042 13.812 42.5242 14.96 44.1622 15.156V17.326C42.9862 17.354 41.8382 17.368 40.8442 17.368L40.9982 18.334C43.2102 18.334 46.1362 18.292 48.7962 17.844L48.6982 17.004C47.6202 17.158 46.4582 17.228 45.3102 17.284V15.156ZM52.6322 13.658H50.6442V8.464H49.4962V21.036H50.6442V14.624H52.6322V13.658ZM62.9911 8.478V21.064H64.1391V8.478H62.9911ZM57.5171 9.444C55.6551 9.444 54.3251 11.152 54.3251 13.826C54.3251 16.5 55.6551 18.208 57.5171 18.208C59.3791 18.208 60.7091 16.5 60.7091 13.826C60.7091 11.152 59.3791 9.444 57.5171 9.444ZM57.5171 10.48C58.7351 10.48 59.6031 11.796 59.6031 13.826C59.6031 15.87 58.7351 17.186 57.5171 17.186C56.2851 17.186 55.4171 15.87 55.4171 13.826C55.4171 11.796 56.2851 10.48 57.5171 10.48ZM69.374 10.76H71.432V16.864C70.746 16.892 70.046 16.92 69.374 16.934V10.76ZM72.552 10.76H73.896V9.836H66.91V10.76H68.254V16.948C67.666 16.962 67.106 16.962 66.588 16.962L66.728 17.928C68.94 17.928 71.922 17.886 74.554 17.466L74.47 16.612C73.854 16.696 73.21 16.752 72.552 16.794V10.76ZM78.474 13.504H76.402V8.492H75.254V21.036H76.402V14.456H78.474V13.504ZM88.7489 8.478V21.064H89.8969V8.478H88.7489ZM83.2749 9.444C81.4129 9.444 80.0829 11.152 80.0829 13.826C80.0829 16.5 81.4129 18.208 83.2749 18.208C85.1369 18.208 86.4669 16.5 86.4669 13.826C86.4669 11.152 85.1369 9.444 83.2749 9.444ZM83.2749 10.48C84.4929 10.48 85.3609 11.796 85.3609 13.826C85.3609 15.87 84.4929 17.186 83.2749 17.186C82.0429 17.186 81.1749 15.87 81.1749 13.826C81.1749 11.796 82.0429 10.48 83.2749 10.48Z" fill="#767676"/>
<g clip-path="url(#clip0)">
<path d="M20.6099 16.3952C17.2457 14.0985 12.7808 14.0804 9.39013 16.3952C8.37664 17.087 8.24486 18.5363 9.11562 19.407C9.78112 20.0726 10.8359 20.1695 11.6239 19.6356C13.655 18.2593 16.3375 18.2542 18.376 19.6356C19.7678 20.5786 21.6076 19.48 21.4533 17.8288C21.3989 17.2465 21.0914 16.724 20.6099 16.3952ZM20.2215 18.7441C19.8728 19.0928 19.3178 19.1413 18.902 18.8595C16.5541 17.2686 13.4552 17.2623 11.0981 18.8595C10.6822 19.1414 10.1273 19.0929 9.7786 18.7441C9.32292 18.2885 9.39065 17.5299 9.91875 17.1695C12.9716 15.0852 17.017 15.0774 20.0814 17.1695C20.6104 17.5307 20.6762 18.2894 20.2215 18.7441Z" fill="#787878"/>
<path d="M25.0149 12.2048C19.1803 7.49549 10.8295 7.48776 4.98523 12.2048C4.07768 12.9373 4.00807 14.2996 4.83342 15.1249C5.54579 15.8372 6.67559 15.8967 7.46162 15.263C11.8381 11.735 18.1326 11.7113 22.5385 15.263C23.8603 16.3286 25.8316 15.3286 25.741 13.6269C25.7115 13.0718 25.4468 12.5534 25.0149 12.2048ZM24.5039 14.4619C24.1311 14.8348 23.5391 14.8655 23.1269 14.5331C18.4082 10.7294 11.6236 10.7039 6.87328 14.5331C6.46108 14.8655 5.86917 14.8347 5.49634 14.4619C5.07388 14.0394 5.08865 13.3261 5.57409 12.9344C11.046 8.51789 18.9172 8.48795 24.4262 12.9344C24.9118 13.3263 24.9261 14.0397 24.5039 14.4619Z" fill="#787878"/>
<path d="M29.9986 9.40282C29.9782 8.85738 29.7293 8.34041 29.3157 7.98445C21.0877 0.901404 8.89701 0.914646 0.684337 7.9844C0.270785 8.34041 0.0218812 8.85738 0.00149073 9.40282C-0.0626689 11.121 1.95874 12.0803 3.25535 10.9647C10.0059 5.15586 20.0067 5.16676 26.7446 10.9647C28.0432 12.0819 30.0627 11.119 29.9986 9.40282ZM28.7605 10.2053C28.3816 10.5843 27.7647 10.6056 27.3562 10.2541C20.2546 4.14331 9.73384 4.15327 2.64393 10.2541C2.23536 10.6057 1.61849 10.5842 1.23957 10.2053C0.817637 9.78339 0.838437 9.08882 1.29599 8.6949C9.1721 1.91483 20.8427 1.92743 28.7041 8.69496C29.1563 9.08413 29.1874 9.7784 28.7605 10.2053Z" fill="#787878"/>
<path d="M15 27.323C13.1907 27.323 11.7188 25.8511 11.7188 24.0417C11.7188 22.2324 13.1907 20.7605 15 20.7605C16.8093 20.7605 18.2813 22.2324 18.2813 24.0417C18.2813 25.8511 16.8093 27.323 15 27.323ZM15 21.698C13.7077 21.698 12.6563 22.7494 12.6563 24.0417C12.6563 25.3341 13.7077 26.3855 15 26.3855C16.2924 26.3855 17.3438 25.3341 17.3438 24.0417C17.3438 22.7494 16.2924 21.698 15 21.698Z" fill="#787878"/>
</g>
<defs>
<clipPath id="clip0">
<rect width="30" height="30" fill="white"/>
</clipPath>
</defs>
</svg>
