<svg width="718" height="288" viewBox="0 0 718 288" fill="none" xmlns="http://www.w3.org/2000/svg">
<g clip-path="url(#clip0)">
<path d="M22.0395 141.718C22.556 142.235 23.417 142.235 23.9335 141.718L26.9467 138.705C27.4632 138.188 27.4632 137.327 26.9467 136.811L22.9865 132.85C22.47 132.334 21.609 132.334 21.0925 132.85L18.0793 135.864C17.5628 136.38 17.5628 137.241 18.0793 137.758L22.0395 141.718Z" fill="white" stroke="#070707" stroke-width="3" stroke-linecap="round"/>
<path d="M24.1917 157.474H27.8936" stroke="#070707" stroke-width="3" stroke-linecap="round"/>
<path d="M64.3964 141.718C63.8799 142.235 63.019 142.235 62.5024 141.718L59.4892 138.705C58.9727 138.188 58.9727 137.327 59.4892 136.811L63.4494 132.85C63.966 132.334 64.8269 132.334 65.3434 132.85L68.3566 135.864C68.8732 136.38 68.8732 137.241 68.3566 137.758L64.3964 141.718Z" fill="white" stroke="#070707" stroke-width="3" stroke-linecap="round"/>
<path d="M38.4829 123.035V131.3C38.4829 132.334 39.3438 133.195 40.463 133.281H46.6616C47.6947 133.281 48.5556 132.42 48.5556 131.3V123.035" stroke="#070707" stroke-width="3" stroke-linecap="round"/>
<path d="M55.1845 115.889H31.9399V122.26H55.1845V115.889Z" stroke="#070707" stroke-width="3" stroke-linecap="round" stroke-linejoin="round"/>
<path d="M467.389 265.959L488.137 286.709L543.407 231.433V197.683L509.66 163.932L453.614 220.154" stroke="#323744" stroke-width="3" stroke-miterlimit="10" stroke-linecap="round" stroke-linejoin="round"/>
<path d="M543.408 197.683H543.321L526.534 214.558L543.408 231.347V197.683Z" stroke="#323744" stroke-width="3" stroke-miterlimit="10" stroke-linecap="round" stroke-linejoin="round"/>
<path d="M473.846 227.214C472.641 228.248 472.899 227.731 471.263 229.367C468.25 232.38 466.356 236.599 466.356 241.162H483.058L494.938 229.281C489.256 223.598 480.389 222.823 473.846 227.214Z" stroke="#323744" stroke-width="3" stroke-miterlimit="10" stroke-linecap="round" stroke-linejoin="round"/>
<path d="M483.058 241.162H466.356C466.356 247.706 470.058 253.302 475.482 256.057" fill="#5775D9"/>
<path d="M483.058 241.162H466.356C466.356 247.706 470.058 253.302 475.482 256.057" stroke="black" stroke-width="3" stroke-miterlimit="10" stroke-linejoin="round"/>
<path d="M488.223 257.177C497.09 254.422 501.998 244.865 499.071 235.996C498.21 233.414 496.832 231.175 494.938 229.281L483.058 241.162" stroke="#323744" stroke-width="3" stroke-miterlimit="10" stroke-linecap="round" stroke-linejoin="round"/>
<path d="M483.057 241.162L475.481 256.144C477.806 257.349 480.389 257.952 483.144 257.952C484.951 257.952 486.587 257.693 488.223 257.177L483.057 241.162Z" fill="#D8DBD7" stroke="black" stroke-width="3" stroke-miterlimit="10" stroke-linejoin="round"/>
<path d="M497.349 198.371L525.845 226.784" stroke="#323744" stroke-width="3" stroke-miterlimit="10" stroke-linecap="round" stroke-linejoin="round"/>
<path d="M492.269 203.537L520.679 231.95" stroke="#323744" stroke-width="3" stroke-miterlimit="10" stroke-linecap="round" stroke-linejoin="round"/>
<path d="M487.104 208.703L515.514 237.116" stroke="#323744" stroke-width="3" stroke-miterlimit="10" stroke-linecap="round" stroke-linejoin="round"/>
<path d="M612.366 263.979C596.956 263.979 584.387 251.494 584.387 235.996V234.102V226.439C584.387 211.028 571.904 198.457 556.407 198.457" stroke="#323744" stroke-width="3" stroke-miterlimit="10" stroke-linecap="round" stroke-linejoin="round" stroke-dasharray="10 10"/>
<path d="M126.898 204.14C126.898 211.631 120.786 217.744 113.296 217.744C105.806 217.744 99.6936 211.631 99.6936 204.14C99.6936 196.649 105.806 190.536 113.296 190.536C120.786 190.536 126.898 196.563 126.898 204.14Z" fill="#D8DBD7"/>
<path d="M113.296 194.927V213.266" stroke="#323744" stroke-width="3" stroke-miterlimit="10" stroke-linecap="round" stroke-linejoin="round"/>
<path d="M122.422 204.14H104.17" stroke="#323744" stroke-width="3" stroke-miterlimit="10" stroke-linecap="round" stroke-linejoin="round"/>
<path d="M669.617 145.593C669.617 153.17 663.504 159.283 655.928 159.283C648.352 159.283 642.24 153.17 642.24 145.593C642.24 138.016 648.352 131.903 655.928 131.903C663.418 131.903 669.617 138.016 669.617 145.593Z" fill="#D8DBD7"/>
<path d="M662.988 145.593H648.869" stroke="#323744" stroke-width="3" stroke-miterlimit="10" stroke-linecap="round" stroke-linejoin="round"/>
<path d="M607.976 204.14H598.592" stroke="#323744" stroke-width="3" stroke-miterlimit="10" stroke-linecap="round" stroke-linejoin="round"/>
<path d="M612.367 204.14C612.367 209.134 608.32 213.266 603.241 213.266C598.248 213.266 594.115 209.22 594.115 204.14C594.115 199.06 598.162 195.013 603.241 195.013C608.32 195.013 612.367 199.06 612.367 204.14Z" stroke="#323744" stroke-width="3" stroke-miterlimit="10" stroke-linecap="round" stroke-linejoin="round"/>
<path d="M147.819 241.076L121.733 266.561L96.9387 242.282L70.1644 269.058H69.82L26.9467 226.956L1.2915 252.613" stroke="#323744" stroke-width="3" stroke-miterlimit="10" stroke-linecap="round" stroke-linejoin="round"/>
<path d="M96.7667 249.083C100.57 249.083 103.654 246 103.654 242.196C103.654 238.391 100.57 235.308 96.7667 235.308C92.9629 235.308 89.8794 238.391 89.8794 242.196C89.8794 246 92.9629 249.083 96.7667 249.083Z" fill="#5775D9"/>
<path d="M121.561 273.621C125.365 273.621 128.448 270.538 128.448 266.734C128.448 262.93 125.365 259.846 121.561 259.846C117.757 259.846 114.674 262.93 114.674 266.734C114.674 270.538 117.757 273.621 121.561 273.621Z" fill="#5775D9"/>
<path d="M69.5616 275.946C73.3654 275.946 76.4489 272.862 76.4489 269.058C76.4489 265.254 73.3654 262.17 69.5616 262.17C65.7579 262.17 62.6743 265.254 62.6743 269.058C62.6743 272.862 65.7579 275.946 69.5616 275.946Z" fill="#5775D9"/>
<path d="M26.9466 234.102C30.7504 234.102 33.8339 231.018 33.8339 227.214C33.8339 223.41 30.7504 220.326 26.9466 220.326C23.1429 220.326 20.0593 223.41 20.0593 227.214C20.0593 231.018 23.1429 234.102 26.9466 234.102Z" fill="#5775D9"/>
<path d="M561.228 250.805V260.621" stroke="#323744" stroke-width="3" stroke-miterlimit="10" stroke-linecap="round" stroke-linejoin="round"/>
<path d="M566.135 255.713H556.321" stroke="#323744" stroke-width="3" stroke-miterlimit="10" stroke-linecap="round" stroke-linejoin="round"/>
<path d="M481.938 103.232V113.048" stroke="#323744" stroke-width="3" stroke-miterlimit="10" stroke-linecap="round" stroke-linejoin="round"/>
<path d="M486.845 108.14H477.031" stroke="#323744" stroke-width="3" stroke-miterlimit="10" stroke-linecap="round" stroke-linejoin="round"/>
<path d="M650.986 103.756C652.559 97.0921 648.433 90.4144 641.77 88.8409C635.107 87.2674 628.43 91.3939 626.856 98.0578C625.283 104.722 629.409 111.399 636.072 112.973C642.735 114.546 649.413 110.42 650.986 103.756Z" stroke="#323744" stroke-width="3" stroke-miterlimit="10"/>
<path d="M632.942 101.166L636.903 104.782L644.823 96.947" stroke="#323744" stroke-width="3" stroke-miterlimit="10" stroke-linecap="round" stroke-linejoin="round"/>
<path d="M455.164 233.413C455.164 236.771 452.495 239.44 449.138 239.44H269.293C265.936 239.44 263.267 236.771 263.267 233.413V120.022C263.267 116.664 265.936 113.995 269.293 113.995H449.138C452.495 113.995 455.164 116.664 455.164 120.022V233.413Z" fill="#E8F2FC" stroke="black" stroke-width="3" stroke-miterlimit="10" stroke-linejoin="round"/>
<path d="M379.49 136.639C379.49 137.241 379.059 137.672 378.457 137.672H361.669C361.066 137.672 360.636 137.241 360.636 136.639V127.168C360.636 126.565 361.066 126.135 361.669 126.135H378.457C379.059 126.135 379.49 126.565 379.49 127.168V136.639Z" fill="#5775D9"/>
<path d="M357.45 136.639C357.45 137.241 357.02 137.672 356.417 137.672H339.63C339.027 137.672 338.596 137.241 338.596 136.639V127.168C338.596 126.565 339.027 126.135 339.63 126.135H356.417C357.02 126.135 357.45 126.565 357.45 127.168V136.639Z" fill="#5775D9"/>
<path d="M335.411 136.639C335.411 137.241 334.981 137.672 334.378 137.672H317.59C316.988 137.672 316.557 137.241 316.557 136.639V127.168C316.557 126.565 316.988 126.135 317.59 126.135H334.378C334.981 126.135 335.411 126.565 335.411 127.168V136.639Z" fill="#5775D9"/>
<path d="M445.608 136.639C445.608 137.241 445.177 137.672 444.575 137.672H428.648C428.045 137.672 427.615 137.241 427.615 136.639V127.168C427.615 126.565 428.045 126.135 428.648 126.135H444.575C445.177 126.135 445.608 126.565 445.608 127.168V136.639Z" fill="#5775D9"/>
<path d="M422.707 136.639C422.707 137.241 422.277 137.672 421.674 137.672H405.747C405.145 137.672 404.714 137.241 404.714 136.639V127.168C404.714 126.565 405.145 126.135 405.747 126.135H421.674C422.277 126.135 422.707 126.565 422.707 127.168V136.639Z" fill="#5775D9"/>
<path d="M401.529 136.639C401.529 137.241 401.099 137.672 400.496 137.672H383.708C383.106 137.672 382.675 137.241 382.675 136.639V127.168C382.675 126.565 383.106 126.135 383.708 126.135H400.496C401.099 126.135 401.529 126.565 401.529 127.168V136.639Z" fill="#5775D9"/>
<path d="M313.372 136.639C313.372 137.241 312.941 137.672 312.339 137.672H295.551C294.948 137.672 294.518 137.241 294.518 136.639V127.168C294.518 126.565 294.948 126.135 295.551 126.135H312.339C312.941 126.135 313.372 126.565 313.372 127.168V136.639Z" fill="#5775D9"/>
<path d="M291.332 136.639C291.332 137.241 290.902 137.672 290.299 137.672H273.512C272.909 137.672 272.479 137.241 272.479 136.639V127.168C272.479 126.565 272.909 126.135 273.512 126.135H290.299C290.902 126.135 291.332 126.565 291.332 127.168V136.639Z" fill="#5775D9"/>
<path d="M392.834 154.805C392.834 155.408 392.404 155.839 391.801 155.839H375.013C374.41 155.839 373.98 155.408 373.98 154.805V145.335C373.98 144.732 374.41 144.301 375.013 144.301H391.801C392.404 144.301 392.834 144.732 392.834 145.335V154.805Z" fill="#5775D9"/>
<path d="M370.795 154.805C370.795 155.408 370.364 155.839 369.762 155.839H352.974C352.371 155.839 351.941 155.408 351.941 154.805V145.335C351.941 144.732 352.371 144.301 352.974 144.301H369.762C370.364 144.301 370.795 144.732 370.795 145.335V154.805Z" fill="#5775D9"/>
<path d="M348.755 154.805C348.755 155.408 348.325 155.839 347.722 155.839H330.934C330.332 155.839 329.901 155.408 329.901 154.805V145.335C329.901 144.732 330.332 144.301 330.934 144.301H347.722C348.325 144.301 348.755 144.732 348.755 145.335V154.805Z" fill="#5775D9"/>
<path d="M436.052 154.805C436.052 155.408 435.621 155.839 435.019 155.839H419.092C418.489 155.839 418.059 155.408 418.059 154.805V145.335C418.059 144.732 418.489 144.301 419.092 144.301H435.019C435.621 144.301 436.052 144.732 436.052 145.335V154.805Z" fill="#5775D9"/>
<path d="M414.873 154.805C414.873 155.408 414.443 155.839 413.84 155.839H397.053C396.45 155.839 396.02 155.408 396.02 154.805V145.335C396.02 144.732 396.45 144.301 397.053 144.301H413.84C414.443 144.301 414.873 144.732 414.873 145.335V154.805Z" fill="#5775D9"/>
<path d="M326.716 154.805C326.716 155.408 326.286 155.839 325.683 155.839H308.895C308.293 155.839 307.862 155.408 307.862 154.805V145.335C307.862 144.732 308.293 144.301 308.895 144.301H325.683C326.286 144.301 326.716 144.732 326.716 145.335V154.805Z" fill="#5775D9"/>
<path d="M304.677 154.805C304.677 155.408 304.246 155.839 303.644 155.839H286.856C286.253 155.839 285.823 155.408 285.823 154.805V145.335C285.823 144.732 286.253 144.301 286.856 144.301H303.644C304.246 144.301 304.677 144.732 304.677 145.335V154.805Z" fill="#5775D9"/>
<path d="M388.443 191.225C388.443 191.828 389.046 192.258 388.443 192.258H375.013C374.41 192.258 373.98 191.828 373.98 191.225V181.754C373.98 181.152 374.41 180.721 375.013 180.721H384.139C384.741 180.721 385.172 181.152 385.172 181.754L388.443 191.225Z" fill="#5775D9"/>
<path d="M370.795 191.225C370.795 191.828 370.364 192.258 369.762 192.258H352.974C352.371 192.258 351.941 191.828 351.941 191.225V181.754C351.941 181.152 352.371 180.721 352.974 180.721H369.762C370.364 180.721 370.795 181.152 370.795 181.754V191.225Z" fill="#5775D9"/>
<path d="M348.755 191.225C348.755 191.828 348.325 192.258 347.722 192.258H330.934C330.332 192.258 329.901 191.828 329.901 191.225V181.754C329.901 181.152 330.332 180.721 330.934 180.721H347.722C348.325 180.721 348.755 181.152 348.755 181.754V191.225Z" fill="#5775D9"/>
<path d="M379.748 172.972C379.748 173.575 379.318 174.005 378.715 174.005H361.927C361.325 174.005 360.894 173.575 360.894 172.972V163.501C360.894 162.899 361.325 162.468 361.927 162.468H378.715C379.318 162.468 379.748 162.899 379.748 163.501V172.972Z" fill="#5775D9"/>
<path d="M357.709 172.972C357.709 173.575 357.278 174.005 356.676 174.005H339.888C339.285 174.005 338.855 173.575 338.855 172.972V163.501C338.855 162.899 339.285 162.468 339.888 162.468H356.676C357.278 162.468 357.709 162.899 357.709 163.501V172.972Z" fill="#5775D9"/>
<path d="M335.669 172.972C335.669 173.575 335.239 174.005 334.636 174.005H331.279L330.246 168.926L324.564 167.806L319.829 174.005H317.849C317.246 174.005 316.815 173.575 316.815 172.972V163.501C316.815 162.899 317.246 162.468 317.849 162.468H334.636C335.239 162.468 335.669 162.899 335.669 163.501V172.972Z" fill="#5775D9"/>
<path d="M445.866 172.972C445.866 173.575 445.436 174.005 444.833 174.005H439.151L435.277 165.654L429.337 167.634L428.906 174.005C428.304 174.005 427.873 173.575 427.873 172.972V163.501C427.873 162.899 428.304 162.468 428.906 162.468H444.833C445.436 162.468 445.866 162.899 445.866 163.501V172.972Z" fill="#5775D9"/>
<path d="M398.344 174.005H393.695C393.351 174.005 391.457 169.184 388.443 168.237C386.377 167.634 382.934 170.906 382.934 170.648V163.501C382.934 162.899 383.364 162.468 383.967 162.468H395.847C396.45 162.468 398.947 174.005 398.344 174.005Z" fill="#5775D9"/>
<path d="M291.591 168.065C291.591 168.667 289.266 174.092 288.75 174.092H284.876L284.273 167.032L278.419 165.998L273.856 174.092C273.253 174.092 272.823 173.661 272.823 173.058V163.588C272.823 162.985 273.253 162.554 273.856 162.554H290.644C291.247 162.554 291.677 162.985 291.677 163.588V168.065H291.591Z" fill="#5775D9"/>
<path d="M325.597 211.2C325.597 211.717 326.027 212.061 326.458 212.061H383.192C383.708 212.061 384.053 211.63 384.053 211.2V202.59C384.053 202.074 383.622 201.729 383.192 201.729H326.458C325.941 201.729 325.597 202.16 325.597 202.59V211.2Z" fill="#5775D9"/>
<path d="M458.78 99.9606C457.058 103.835 455.508 107.193 451.548 107.193H267.916C263.955 107.193 262.148 102.888 260.684 99.9606L239.936 60.0108C237.698 55.9642 236.837 52.4341 247.168 52.7785H473.846C483.143 52.6063 480.733 56.5669 479.269 59.9247L458.78 99.9606Z" fill="#E8F2FC" stroke="black" stroke-width="3" stroke-miterlimit="10" stroke-linejoin="round"/>
<path d="M256.207 58.6333C270.843 93.0727 266.796 83.688 274.459 101.338C278.763 101.338 440.442 101.338 444.833 101.338L463.084 58.4611C391.801 58.4611 256.207 58.6333 256.207 58.6333Z" fill="#5775D9"/>
<path d="M330.848 173.403C330.504 174.522 313.2 224.804 310.789 231.003C310.445 231.95 310.1 232.811 309.756 233.672C312.167 233.069 315.094 232.38 317.935 231.692C318.021 231.433 318.107 231.261 318.193 231.003C320.518 224.718 337.908 174.522 338.252 173.403C339.458 169.787 333.517 164.879 329.729 169.442C330.762 170.648 331.279 172.111 330.848 173.403Z" fill="#D8DBD7"/>
<path d="M303.471 164.276C303.385 164.879 297.187 182.443 291.849 197.683C292.021 198.457 292.71 198.285 292.882 197.769L292.968 197.683C293.054 197.51 293.14 197.338 293.313 197.166C295.207 192.603 306.657 165.396 308.981 162.038C309.326 161.521 309.67 161.091 310.1 160.746C308.551 158.249 305.021 157.044 302.352 160.316C303.213 161.435 303.644 162.813 303.471 164.276Z" fill="#D8DBD7"/>
<path d="M318.021 165.396C317.762 166.084 310.359 187.523 304.763 203.537C304.763 203.968 304.849 204.312 305.365 204.484C306.398 204.915 307.001 203.107 307.001 203.107C307.001 203.107 314.405 185.543 316.902 180.204C318.365 177.191 320.948 171.509 321.895 170.131C322.67 168.926 323.617 168.237 324.65 167.892C325.166 166.429 325.425 165.568 325.511 165.396C326.716 161.779 320.862 156.872 316.988 161.435C317.935 162.554 318.451 164.018 318.021 165.396Z" fill="#D8DBD7"/>
<path d="M280.227 196.391C280.916 194.497 287.286 177.277 291.419 167.376C289.611 165.395 286.339 164.707 284.187 167.634C284.962 168.581 285.392 169.7 285.392 170.906C285.392 171.422 282.896 183.476 280.227 196.391Z" fill="#D8DBD7"/>
<path d="M310.531 252.872C311.22 252.613 311.994 252.355 312.769 252.097C321.12 248.825 336.961 242.884 344.02 239.44C346.173 237.805 347.722 234.533 346.173 231.864C344.623 229.109 341.179 227.387 336.1 229.022C336.014 229.022 335.928 229.109 335.756 229.109C337.047 229.711 338.08 230.658 338.769 231.864C340.318 234.533 338.769 237.805 336.617 239.44C329.557 242.884 313.63 248.739 305.365 252.097C304.591 252.355 303.902 252.613 303.127 252.872H300.975L292.366 255.713C290.73 255.971 289.266 256.144 287.889 256.23L286.081 260.965L288.578 262.429C289.094 262.601 289.439 263.204 289.18 263.806L281.69 283.695H289.266L296.67 263.806C296.842 263.29 296.584 262.687 296.068 262.429L294.001 260.965L310.531 252.872Z" fill="#D8DBD7"/>
<path d="M256.293 250.117L258.704 243.745C258.704 243.745 253.625 236.857 258.876 222.995C261.975 214.644 264.3 208.531 264.3 208.531C264.3 208.531 264.644 207.498 265.333 206.034L268.863 196.477C268.863 196.391 268.949 196.305 268.949 196.133C271.273 185.973 274.717 171.336 276.008 168.753C279.022 162.726 285.392 166.515 285.392 170.82C285.392 171.336 282.896 183.39 280.227 196.305C281.174 193.722 291.935 164.362 294.432 160.746C298.22 155.15 304.074 159.799 303.471 164.104C303.385 164.707 297.187 182.271 291.849 197.51C292.021 198.285 292.71 198.113 292.882 197.596L292.968 197.51C293.054 197.338 293.14 197.166 293.313 196.994C295.207 192.43 306.657 165.223 308.981 161.865C312.769 156.269 319.226 161.521 318.021 165.223C317.762 165.912 310.359 187.351 304.763 203.365C304.763 203.795 304.849 204.14 305.365 204.312C306.398 204.743 307.001 202.934 307.001 202.934C307.001 202.934 314.405 185.37 316.902 180.032C318.365 177.019 320.948 171.336 321.895 169.959C325.683 164.362 332.14 169.614 330.934 173.317C330.59 174.436 313.286 224.717 310.875 230.917C310.531 231.864 310.186 232.725 309.842 233.586C316.815 231.95 328.007 229.108 328.696 228.85C333.775 227.3 337.219 228.936 338.769 231.691C340.318 234.36 338.769 237.632 336.616 239.268C329.557 242.712 313.716 248.567 305.365 251.925C297.875 254.852 292.107 255.885 287.975 256.057L286.081 261.137L256.293 250.117Z" fill="white" stroke="black" stroke-width="3" stroke-miterlimit="10" stroke-linecap="round" stroke-linejoin="round"/>
<path d="M281.863 283.695L289.353 263.806C289.525 263.29 289.266 262.687 288.75 262.429L254.313 249.6C253.797 249.428 253.194 249.686 252.936 250.203L240.367 283.609" stroke="#323744" stroke-width="3" stroke-miterlimit="10" stroke-linecap="round" stroke-linejoin="round"/>
<path d="M419.522 260.965L417.456 262.429C416.939 262.601 416.595 263.204 416.853 263.806L424.257 283.695H431.833L424.257 263.806C424.085 263.29 424.343 262.687 424.86 262.429L427.357 260.965L425.549 256.23C422.105 256.057 417.714 255.283 412.118 253.475L410.913 252.872H410.397C409.708 252.614 408.933 252.355 408.158 252.097C399.807 248.825 383.967 242.884 376.907 239.44C374.755 237.805 373.205 234.533 374.755 231.864C375.444 230.744 376.391 229.711 377.768 229.109C377.596 229.023 377.424 229.022 377.424 229.022C372.344 227.473 368.901 229.109 367.351 231.864C365.801 234.533 367.351 237.805 369.503 239.44C376.563 242.884 392.49 248.739 400.754 252.097C401.529 252.355 402.218 252.614 402.993 252.872L419.522 260.965Z" fill="#D8DBD7"/>
<path d="M382.675 173.403C383.02 174.522 400.324 224.804 402.734 231.003C403.079 231.95 403.423 232.811 403.768 233.672C401.357 233.069 398.43 232.38 395.589 231.692C395.503 231.433 395.417 231.261 395.331 231.003C393.006 224.718 375.616 174.522 375.271 173.403C374.066 169.787 380.006 164.879 383.794 169.442C382.761 170.648 382.245 172.111 382.675 173.403Z" fill="#D8DBD7"/>
<path d="M410.052 164.276C410.138 164.879 416.337 182.443 421.674 197.683C421.502 198.457 420.813 198.285 420.641 197.769L420.555 197.683C420.469 197.51 420.383 197.338 420.211 197.166C418.317 192.603 406.867 165.396 404.542 162.038C404.198 161.521 403.854 161.091 403.423 160.746C404.973 158.249 408.502 157.044 411.171 160.316C410.31 161.435 409.88 162.813 410.052 164.276Z" fill="#D8DBD7"/>
<path d="M395.503 165.396C395.761 166.084 403.165 187.523 408.761 203.537C408.761 203.968 408.675 204.312 408.158 204.484C407.125 204.915 406.522 203.107 406.522 203.107C406.522 203.107 399.119 185.543 396.622 180.205C395.158 177.191 392.576 171.509 391.629 170.131C390.854 168.926 389.907 168.237 388.874 167.892C388.357 166.429 388.099 165.568 388.013 165.396C386.807 161.779 392.662 156.872 396.536 161.435C395.589 162.554 395.072 164.018 395.503 165.396Z" fill="#D8DBD7"/>
<path d="M433.21 196.391C432.522 194.497 426.151 177.277 422.019 167.376C423.826 165.395 427.098 164.707 429.25 167.634C428.475 168.581 428.045 169.7 428.045 170.906C428.131 171.422 430.628 183.476 433.21 196.391Z" fill="#D8DBD7"/>
<path d="M457.23 250.117L454.82 243.745C454.82 243.745 459.899 236.857 454.647 222.995C451.548 214.644 449.224 208.531 449.224 208.531C449.224 208.531 448.879 207.498 448.191 206.034L444.661 196.477C444.661 196.391 444.575 196.305 444.489 196.133C442.164 185.973 438.721 171.336 437.429 168.753C434.416 162.726 428.045 166.515 428.045 170.82C428.045 171.336 430.542 183.39 433.211 196.305C432.264 193.722 421.502 164.362 419.006 160.746C415.218 155.15 409.364 159.799 409.966 164.104C410.052 164.707 416.251 182.271 421.588 197.51C421.416 198.285 420.728 198.113 420.555 197.596L420.469 197.51C420.383 197.338 420.297 197.166 420.125 196.994C418.231 192.43 406.781 165.223 404.456 161.865C400.668 156.269 394.211 161.521 395.417 165.223C395.675 165.912 403.079 187.351 408.675 203.365C408.675 203.795 408.589 204.14 408.072 204.312C407.039 204.743 406.436 202.934 406.436 202.934C406.436 202.934 399.033 185.37 396.536 180.032C395.072 177.019 392.49 171.336 391.543 169.959C387.755 164.362 381.298 169.614 382.503 173.317C382.847 174.436 400.152 224.717 402.562 230.917C402.907 231.864 403.251 232.725 403.595 233.586C396.622 231.95 385.43 229.108 384.741 228.85C379.662 227.3 376.218 228.936 374.669 231.691C373.119 234.36 374.669 237.632 376.821 239.268C383.881 242.712 399.721 248.567 408.072 251.925C415.562 254.852 421.33 255.885 425.463 256.057L427.357 261.137L457.23 250.117Z" fill="white" stroke="black" stroke-width="3" stroke-miterlimit="10" stroke-linecap="round" stroke-linejoin="round"/>
<path d="M431.747 283.695L424.171 263.806C423.999 263.29 424.257 262.687 424.774 262.429L459.21 249.6C459.727 249.428 460.33 249.686 460.588 250.203L473.071 283.609" stroke="#323744" stroke-width="3" stroke-miterlimit="10" stroke-linecap="round" stroke-linejoin="round"/>
<path d="M524.381 250.719C528.685 261.223 532.043 272.244 534.281 283.609" stroke="#323744" stroke-width="3" stroke-miterlimit="10" stroke-linecap="round" stroke-linejoin="round"/>
<path d="M455.164 169.27C465.237 175.555 474.621 182.787 483.144 190.881" stroke="#323744" stroke-width="3" stroke-miterlimit="10" stroke-linecap="round" stroke-linejoin="round"/>
<path d="M217.208 223.512C229.347 204.657 244.929 188.212 263.267 175.297" stroke="#323744" stroke-width="3" stroke-miterlimit="10" stroke-linecap="round" stroke-linejoin="round"/>
<path d="M193.103 283.695C195.169 273.019 198.268 262.687 202.142 252.872" stroke="#323744" stroke-width="3" stroke-miterlimit="10" stroke-linecap="round" stroke-linejoin="round"/>
<path d="M590.499 115.286C591.274 115.286 592.049 115.286 592.738 115.372V32.373H506.388V147.917H559.42C559.42 147.401 559.42 146.884 559.42 146.368C559.42 129.234 573.281 115.286 590.499 115.286Z" fill="#D8DBD7"/>
<path d="M616.241 164.534L635.439 183.562C637.677 185.801 637.763 189.503 635.525 191.741L635.439 191.828C633.201 194.066 629.585 193.98 627.26 191.741L608.062 172.714" stroke="#323744" stroke-width="3" stroke-miterlimit="10" stroke-linecap="round" stroke-linejoin="round"/>
<path d="M621.578 146.368C621.578 163.501 607.631 177.449 590.499 177.449C573.367 177.449 559.42 163.501 559.42 146.368C559.42 129.234 573.367 115.286 590.499 115.286C607.631 115.286 621.578 129.234 621.578 146.368Z" stroke="#323744" stroke-width="3" stroke-miterlimit="10" stroke-linecap="round" stroke-linejoin="round"/>
<path d="M613.141 146.368C613.141 158.938 602.982 169.098 590.413 169.098C577.844 169.098 567.685 158.938 567.685 146.368C567.685 133.797 577.844 123.637 590.413 123.637C602.982 123.637 613.141 133.797 613.141 146.368Z" fill="#5775D9"/>
<path d="M539.792 60.4412H520.163V71.0313H539.792V60.4412Z" fill="#5775D9"/>
<path d="M559.421 71.0312H539.792V81.6214H559.421V71.0312Z" fill="#5775D9"/>
<path d="M579.135 40.0358H520.163V52.5201H579.135V40.0358Z" stroke="#323744" stroke-width="3" stroke-miterlimit="10" stroke-linecap="round" stroke-linejoin="round"/>
<path d="M579.135 60.4412H520.163V81.6214H579.135V60.4412Z" stroke="#323744" stroke-width="3" stroke-miterlimit="10" stroke-linecap="round" stroke-linejoin="round"/>
<path d="M520.163 71.0312H579.135" stroke="#323744" stroke-width="3" stroke-miterlimit="10" stroke-linecap="round" stroke-linejoin="round"/>
<path d="M559.507 60.4412V81.6214" stroke="#323744" stroke-width="3" stroke-miterlimit="10" stroke-linecap="round" stroke-linejoin="round"/>
<path d="M539.792 60.4412V81.6214" stroke="#323744" stroke-width="3" stroke-miterlimit="10" stroke-linecap="round" stroke-linejoin="round"/>
<path d="M520.163 94.8806H579.135" stroke="#323744" stroke-width="3" stroke-miterlimit="10" stroke-linecap="round" stroke-linejoin="round"/>
<path d="M520.163 102.285H579.135" stroke="#323744" stroke-width="3" stroke-miterlimit="10" stroke-linecap="round" stroke-linejoin="round"/>
<path d="M520.163 109.69H579.135" stroke="#323744" stroke-width="3" stroke-miterlimit="10" stroke-linecap="round" stroke-linejoin="round"/>
<path d="M624.591 210.253C624.591 208.531 625.969 207.153 627.691 207.153H680.895C682.617 207.153 683.994 208.531 683.994 210.253V272.158C683.994 273.88 682.617 275.257 680.895 275.257H627.691C625.969 275.257 624.591 273.88 624.591 272.158V210.253Z" fill="#E8F2FC" stroke="black" stroke-width="3" stroke-miterlimit="10"/>
<path d="M678.743 229.281C678.743 229.711 678.398 230.056 677.968 230.056H630.618C630.187 230.056 629.843 229.711 629.843 229.281V213.783C629.843 213.353 630.187 213.008 630.618 213.008H677.968C678.398 213.008 678.743 213.353 678.743 213.783V229.281Z" fill="#5775D9"/>
<path d="M660.233 243.143C660.233 243.487 659.975 243.745 659.63 243.745H649.558C649.213 243.745 648.955 243.487 648.955 243.143V237.891C648.955 237.546 649.213 237.288 649.558 237.288H659.63C659.975 237.288 660.233 237.546 660.233 237.891V243.143Z" stroke="#323744" stroke-width="3" stroke-miterlimit="10" stroke-linecap="round" stroke-linejoin="round"/>
<path d="M678.14 243.143C678.14 243.487 677.882 243.745 677.537 243.745H667.464C667.12 243.745 666.862 243.487 666.862 243.143V237.891C666.862 237.546 667.12 237.288 667.464 237.288H677.537C677.882 237.288 678.14 237.546 678.14 237.891V243.143Z" stroke="#323744" stroke-width="3" stroke-miterlimit="10" stroke-linecap="round" stroke-linejoin="round"/>
<path d="M642.24 243.143C642.24 243.487 641.982 243.745 641.637 243.745H631.565C631.22 243.745 630.962 243.487 630.962 243.143V237.891C630.962 237.546 631.22 237.288 631.565 237.288H641.637C641.982 237.288 642.24 237.546 642.24 237.891V243.143Z" stroke="#323744" stroke-width="3" stroke-miterlimit="10" stroke-linecap="round" stroke-linejoin="round"/>
<path d="M660.233 255.627C660.233 255.971 659.975 256.23 659.63 256.23H649.558C649.213 256.23 648.955 255.971 648.955 255.627V250.375C648.955 250.03 649.213 249.772 649.558 249.772H659.63C659.975 249.772 660.233 250.03 660.233 250.375V255.627Z" stroke="#323744" stroke-width="3" stroke-miterlimit="10" stroke-linecap="round" stroke-linejoin="round"/>
<path d="M678.14 255.627C678.14 255.971 677.882 256.23 677.537 256.23H667.464C667.12 256.23 666.862 255.971 666.862 255.627V250.375C666.862 250.03 667.12 249.772 667.464 249.772H677.537C677.882 249.772 678.14 250.03 678.14 250.375V255.627Z" stroke="#323744" stroke-width="3" stroke-miterlimit="10" stroke-linecap="round" stroke-linejoin="round"/>
<path d="M642.24 255.627C642.24 255.971 641.982 256.23 641.637 256.23H631.565C631.22 256.23 630.962 255.971 630.962 255.627V250.375C630.962 250.03 631.22 249.772 631.565 249.772H641.637C641.982 249.772 642.24 250.03 642.24 250.375V255.627Z" stroke="#323744" stroke-width="3" stroke-miterlimit="10" stroke-linecap="round" stroke-linejoin="round"/>
<path d="M642.24 268.542C642.24 268.886 641.982 269.144 641.637 269.144H631.565C631.22 269.144 630.962 268.886 630.962 268.542V263.29C630.962 262.945 631.22 262.687 631.565 262.687H641.637C641.982 262.687 642.24 262.945 642.24 263.29V268.542Z" stroke="#323744" stroke-width="3" stroke-miterlimit="10" stroke-linecap="round" stroke-linejoin="round"/>
<path d="M678.226 268.542C678.226 268.886 677.968 269.144 677.623 269.144H649.644C649.299 269.144 649.041 268.886 649.041 268.542V263.29C649.041 262.945 649.299 262.687 649.644 262.687H677.623C677.968 262.687 678.226 262.945 678.226 263.29V268.542Z" fill="#5775D9"/>
<path d="M45.8005 106.934C45.8005 91.5228 58.2837 78.9524 73.7801 78.9524H75.6742H83.3363C98.7466 78.9524 111.316 66.4681 111.316 50.9703" stroke="#323744" stroke-width="3" stroke-miterlimit="10" stroke-linecap="round" stroke-linejoin="round" stroke-dasharray="10 10"/>
<path d="M146.183 34.5256C146.183 27.9821 141.276 22.6439 134.905 22.0413C134.13 9.72915 123.885 0 111.402 0C100.813 0 91.8594 6.97399 88.9323 16.617C81.1841 17.3919 75.1577 23.8493 75.1577 31.7704C75.1577 40.2081 81.9589 47.0099 90.3958 47.0099H90.4819H133.7C140.587 47.0099 146.183 41.4135 146.183 34.5256Z" fill="#DDE3F2"/>
<path d="M219.016 36.9363C219.016 33.2341 216.175 30.1345 212.559 29.7901C212.129 22.73 206.275 17.2197 199.129 17.2197C193.103 17.2197 187.937 21.1803 186.301 26.6906C181.911 27.1211 178.381 30.8233 178.381 35.3865C178.381 40.2081 182.255 44.0825 187.076 44.0825C187.076 44.0825 187.076 44.0825 187.162 44.0825H211.871C215.831 44.0825 219.016 40.8969 219.016 36.9363Z" fill="#DDE3F2"/>
<path d="M197.665 88.5955L205.241 82.2242C205.241 82.2242 208.513 86.2709 208.857 86.6153L216.433 80.3301" stroke="#323744" stroke-width="3" stroke-miterlimit="10" stroke-linecap="round" stroke-linejoin="round"/>
<path d="M213.42 78.608L217.897 79.0385H218.069L217.466 83.5157" stroke="#323744" stroke-width="3" stroke-miterlimit="10" stroke-linecap="round" stroke-linejoin="round"/>
<path d="M198.698 152.309H191.036V168.495H198.698V152.309Z" fill="#5775D9"/>
<path d="M210.837 143.182H203.175V168.323H210.837V143.182Z" fill="#5775D9"/>
<path d="M222.89 136.639H215.228V168.323H222.89V136.639Z" fill="#5775D9"/>
<path d="M237.87 152.997C237.87 169.614 224.44 183.046 207.824 183.046C191.209 183.046 177.778 169.614 177.778 152.997C177.778 136.38 191.209 122.949 207.824 122.949C224.44 122.863 237.87 136.38 237.87 152.997Z" stroke="#323744" stroke-width="3" stroke-miterlimit="10" stroke-linecap="round" stroke-linejoin="round"/>
<path d="M207.824 122.863V100.822" stroke="#323744" stroke-width="3" stroke-miterlimit="10" stroke-linecap="round" stroke-linejoin="round"/>
<path d="M185.785 132.42L169.686 117.439" stroke="#323744" stroke-width="3" stroke-miterlimit="10" stroke-linecap="round" stroke-linejoin="round"/>
<path d="M177.778 155.064L155.825 156.613" stroke="#323744" stroke-width="3" stroke-miterlimit="10" stroke-linecap="round" stroke-linejoin="round"/>
<path d="M188.884 176.33L175.023 193.464" stroke="#323744" stroke-width="3" stroke-miterlimit="10" stroke-linecap="round" stroke-linejoin="round"/>
<path d="M159.183 96.0861C159.441 95.5695 160.13 95.5695 160.302 96.0861L162.368 100.305C162.54 100.649 162.885 100.908 163.315 100.994L167.964 101.682C168.481 101.769 168.739 102.371 168.308 102.802L164.951 106.073C164.693 106.332 164.52 106.762 164.606 107.193L165.381 111.842C165.467 112.359 164.951 112.789 164.434 112.531L160.302 110.378C159.958 110.206 159.527 110.206 159.183 110.378L155.05 112.531C154.534 112.789 154.017 112.359 154.103 111.842L154.878 107.193C154.964 106.762 154.792 106.418 154.534 106.073L151.176 102.802C150.832 102.457 151.004 101.769 151.521 101.682L156.17 100.994C156.6 100.908 156.944 100.649 157.117 100.305L159.183 96.0861Z" fill="#3381E0"/>
<path d="M175.97 104.179C175.97 113.134 168.739 120.452 159.699 120.452C150.746 120.452 143.428 113.22 143.428 104.179C143.428 95.2251 150.66 87.9067 159.699 87.9067C168.739 87.9067 175.97 95.139 175.97 104.179Z" stroke="#323744" stroke-width="3" stroke-miterlimit="10"/>
<path d="M219.35 95.3528C225.704 88.998 225.704 78.6949 219.35 72.3401C212.996 65.9853 202.693 65.9853 196.339 72.3401C189.985 78.6949 189.985 88.998 196.339 95.3528C202.693 101.708 212.996 101.708 219.35 95.3528Z" stroke="#323744" stroke-width="3" stroke-miterlimit="10"/>
<path d="M155.222 156.613C155.222 165.568 147.991 172.886 138.951 172.886C129.912 172.886 122.68 165.568 122.68 156.613C122.68 147.659 129.912 140.341 138.951 140.341C147.991 140.341 155.222 147.659 155.222 156.613Z" stroke="#323744" stroke-width="3" stroke-miterlimit="10"/>
<path d="M142.395 151.706C142.395 153.6 140.845 155.15 138.951 155.15C137.057 155.15 135.508 153.6 135.508 151.706C135.508 149.812 137.057 148.262 138.951 148.262C140.845 148.262 142.395 149.812 142.395 151.706Z" fill="#3381E0"/>
<path d="M146.355 161.952L144.117 156.958C143.858 156.355 143.428 155.752 142.997 155.322C142.05 156.527 140.587 157.302 138.951 157.302C137.315 157.302 135.852 156.527 134.905 155.322C134.474 155.752 134.13 156.355 133.786 156.958L131.547 161.952C130.945 163.243 131.719 164.879 132.839 164.879H144.891C146.183 164.879 146.872 163.243 146.355 161.952Z" fill="#3381E0"/>
<path d="M183.288 209.134C183.288 218.088 176.056 225.406 167.017 225.406C158.063 225.406 150.746 218.088 150.746 209.134C150.746 200.179 157.977 192.861 167.017 192.861C176.056 192.861 183.288 200.179 183.288 209.134Z" stroke="#323744" stroke-width="3" stroke-miterlimit="10"/>
<path d="M174.163 199.749H159.958V218.605H174.163V199.749Z" fill="#D8DBD7"/>
<path d="M163.315 204.312H170.805" stroke="#323744" stroke-width="3" stroke-miterlimit="10" stroke-linecap="round" stroke-linejoin="round"/>
<path d="M163.315 208.273H170.805" stroke="#323744" stroke-width="3" stroke-miterlimit="10" stroke-linecap="round" stroke-linejoin="round"/>
<path d="M163.315 212.233H170.805" stroke="#323744" stroke-width="3" stroke-miterlimit="10" stroke-linecap="round" stroke-linejoin="round"/>
<path d="M677.451 27.2072C665.743 27.2072 656.273 34.3533 656.273 43.1354C656.273 49.2484 660.836 54.5004 667.465 57.1695C666.26 60.1829 664.193 63.713 660.922 65.8654C665.399 65.3489 671.942 62.6798 676.677 59.0637C676.935 59.0637 677.193 59.0637 677.451 59.0637C689.16 59.0637 698.63 51.9175 698.63 43.1354C698.716 34.3533 689.16 27.2072 677.451 27.2072Z" stroke="#323744" stroke-width="3" stroke-miterlimit="10" stroke-linecap="round" stroke-linejoin="round"/>
<path d="M669.273 43.1354C669.273 44.7713 667.895 46.1489 666.259 46.1489C664.624 46.1489 663.246 44.7713 663.246 43.1354C663.246 41.4996 664.624 40.122 666.259 40.122C667.895 40.0359 669.273 41.4135 669.273 43.1354Z" fill="#5775D9"/>
<path d="M680.723 43.2215C680.723 44.8574 679.346 46.235 677.71 46.235C676.074 46.235 674.697 44.8574 674.697 43.2215C674.697 41.5856 676.074 40.2081 677.71 40.2081C679.346 40.122 680.723 41.4995 680.723 43.2215Z" fill="#5775D9"/>
<path d="M692.173 43.2215C692.173 44.8574 690.795 46.235 689.16 46.235C687.524 46.235 686.146 44.8574 686.146 43.2215C686.146 41.5856 687.524 40.2081 689.16 40.2081C690.881 40.122 692.173 41.4995 692.173 43.2215Z" fill="#5775D9"/>
<path d="M689.418 81.9659C680.378 81.9659 672.975 89.3704 672.975 98.4969C672.975 107.623 680.378 115.028 689.504 115.028C698.63 115.028 706.034 107.623 706.034 98.4969H689.504V81.9659H689.418Z" stroke="#323744" stroke-width="3" stroke-miterlimit="10" stroke-linecap="round" stroke-linejoin="round"/>
<path d="M693.55 79.2969C693.464 79.2969 693.464 79.2969 693.55 79.2969L693.464 94.4502H708.703C708.703 86.0987 701.901 79.2969 693.55 79.2969Z" fill="#5775D9"/>
<path d="M98.8328 105.901H92.8064V122.346H98.8328V105.901Z" fill="#D8E5EF" stroke="black" stroke-width="3" stroke-miterlimit="10" stroke-linejoin="round"/>
<path d="M109.68 96.6028H103.654V122.174H109.68V96.6028Z" fill="#D8E5EF" stroke="black" stroke-width="3" stroke-miterlimit="10" stroke-linejoin="round"/>
<path d="M120.528 89.9731H114.501V122.174H120.528V89.9731Z" fill="#D8E5EF" stroke="black" stroke-width="3" stroke-miterlimit="10" stroke-linejoin="round"/>
<path d="M92.8064 127.598H120.442" stroke="#323744" stroke-width="3" stroke-miterlimit="10" stroke-linecap="round" stroke-linejoin="round"/>
<path d="M678.312 165.051H669.617V188.814H678.312V165.051Z" fill="#5775D9"/>
<path d="M693.98 151.62H685.285V188.642H693.98V151.62Z" fill="#5775D9"/>
<path d="M709.649 142.063H700.954V188.642H709.649V142.063Z" fill="#5775D9"/>
<path d="M669.617 196.477H709.563" stroke="#323744" stroke-width="3" stroke-miterlimit="10" stroke-linecap="round" stroke-linejoin="round"/>
<path d="M66.8069 187.351C71.628 187.351 75.5882 196.649 75.5882 208.1C75.5882 215.161 74.1246 221.446 71.8002 225.148C71.4558 225.751 71.1975 226.612 71.1975 227.645V234.533C71.1975 236.944 70.5088 237.288 69.6479 237.374H71.7141C74.7273 237.374 77.2239 237.632 77.2239 234.533V227.645C77.2239 226.612 77.8266 225.665 78.6014 225.148C84.0251 221.446 87.5549 215.161 87.5549 208.1C87.5549 196.649 78.257 187.351 66.8069 187.351Z" fill="#D8DBD7"/>
<path d="M87.5548 208.1C87.5548 196.649 78.2569 187.351 66.8068 187.351C55.3567 187.351 46.0588 196.649 46.0588 208.1C46.0588 215.161 49.5886 221.446 55.0123 225.148C55.8732 225.751 56.3898 226.612 56.3898 227.645V234.533C56.3898 237.546 58.8864 237.374 61.8996 237.374H71.5418C74.555 237.374 77.0516 237.632 77.0516 234.533V227.645C77.0516 226.612 77.6543 225.665 78.4291 225.148C84.025 221.446 87.5548 215.161 87.5548 208.1Z" stroke="#323744" stroke-width="3" stroke-miterlimit="10" stroke-linecap="round" stroke-linejoin="round"/>
<path d="M71.1113 216.796V232.036" stroke="#323744" stroke-width="3" stroke-miterlimit="10" stroke-linecap="round" stroke-linejoin="round"/>
<path d="M62.2439 215.419V232.036" stroke="#323744" stroke-width="3" stroke-miterlimit="10" stroke-linecap="round" stroke-linejoin="round"/>
<path d="M61.9858 215.333C61.1248 216.022 60.1778 216.28 59.0587 216.28C56.3898 216.28 54.2375 214.127 54.2375 211.458C54.2375 208.789 56.3898 206.637 59.0587 206.637C61.7275 206.637 63.7076 208.445 66.5486 211.458C69.6479 214.644 71.3697 216.194 73.9524 216.194C76.6212 216.194 78.7735 214.041 78.7735 211.372C78.7735 208.703 76.6212 206.551 73.9524 206.551C72.9193 206.551 71.8862 206.895 71.0253 207.498" stroke="#323744" stroke-width="3" stroke-miterlimit="10" stroke-linecap="round" stroke-linejoin="round"/>
<path d="M72.4888 242.023C72.4888 245.381 69.82 248.05 66.4624 248.05C63.1049 248.05 60.436 245.381 60.436 242.023C60.436 238.665 63.1049 238.752 66.4624 238.752C69.82 238.752 72.4888 238.752 72.4888 242.023Z" fill="white" stroke="black" stroke-width="3" stroke-linecap="round" stroke-linejoin="round"/>
<path d="M56.3896 229.969V236.427C56.3896 238.579 58.1976 240.387 60.3498 240.387H73.1774C75.3297 240.387 77.1376 238.665 77.1376 236.427V229.969H56.3896Z" fill="white" stroke="black" stroke-width="3" stroke-linecap="round" stroke-linejoin="round"/>
<path d="M71.8863 157.475C71.8863 173.144 59.2309 185.801 43.5623 185.801C27.8937 185.801 15.2383 173.144 15.2383 157.475C15.2383 141.805 27.9798 129.148 43.5623 129.148C59.2309 129.148 71.8863 141.805 71.8863 157.475Z" fill="#5775D9"/>
<path d="M67.5816 157.474C67.5816 170.734 56.8202 181.582 43.4761 181.582C30.2181 181.582 19.3706 170.82 19.3706 157.474C19.3706 144.215 30.132 133.367 43.4761 133.367C56.8202 133.453 67.5816 144.215 67.5816 157.474Z" fill="white"/>
<path d="M31.854 146.97L43.8207 157.561" stroke="#070707" stroke-width="3" stroke-linecap="round"/>
<path d="M50.6218 149.553L43.3902 157.388L42.9597 156.872" fill="white"/>
<path d="M50.6218 149.553L43.3902 157.388L42.9597 156.872" stroke="#070707" stroke-width="3" stroke-linecap="round"/>
<path d="M46.231 157.474C46.231 159.024 45.0257 160.23 43.4761 160.23C41.9265 160.23 40.7212 159.024 40.7212 157.474C40.7212 155.925 41.9265 154.719 43.4761 154.719C45.0257 154.805 46.231 156.011 46.231 157.474Z" fill="white" stroke="#070707" stroke-width="3" stroke-linecap="round"/>
<path d="M43.5623 138.102V141.804" stroke="#070707" stroke-width="3" stroke-linecap="round"/>
<path d="M43.5623 176.847V173.144" stroke="#070707" stroke-width="3" stroke-linecap="round"/>
<path d="M62.9329 157.474H59.231" stroke="#070707" stroke-width="3" stroke-linecap="round"/>
<path d="M705.775 253.388L705.861 237.46C705.861 235.996 707.067 234.877 708.444 234.877H708.961C710.424 234.877 711.543 236.082 711.543 237.46L711.457 258.726C711.457 260.879 709.649 262.601 707.497 262.601H704.57C702.418 262.601 700.696 260.793 700.696 258.64L700.868 230.056C700.868 227.042 703.365 224.631 706.378 224.631H711.285C714.298 224.631 716.709 227.128 716.709 230.142L716.623 253.216" stroke="#323744" stroke-width="3" stroke-miterlimit="10" stroke-linecap="round" stroke-linejoin="round"/>
<path d="M611.075 60.6999H609.44V49.7653L606.082 50.9707V49.507L610.817 47.699H611.075V60.6999Z" fill="black"/>
<path d="M623.989 55.1893C623.989 57.0834 623.645 58.5471 623.042 59.4942C622.353 60.4413 621.32 60.8718 619.943 60.8718C618.565 60.8718 617.532 60.4413 616.844 59.4942C616.155 58.5471 615.811 57.1695 615.811 55.3615V53.1229C615.811 51.2287 616.155 49.7651 616.758 48.9041C617.446 47.957 618.479 47.5265 619.857 47.5265C621.234 47.5265 622.267 47.957 622.956 48.9041C623.645 49.7651 623.989 51.1426 623.989 53.0368V55.1893ZM622.353 52.9507C622.353 51.5731 622.181 50.5399 621.751 49.9372C621.32 49.3346 620.718 48.9902 619.857 48.9902C618.996 48.9902 618.393 49.3346 618.049 49.9372C617.705 50.5399 617.446 51.5731 617.446 52.8646V55.5337C617.446 56.9112 617.618 57.9444 618.049 58.6332C618.479 59.322 619.082 59.6664 619.857 59.6664C620.632 59.6664 621.234 59.322 621.665 58.7193C622.095 58.1166 622.267 57.0834 622.267 55.7059V52.9507H622.353Z" fill="black"/>
<path d="M634.234 55.1893C634.234 57.0834 633.889 58.5471 633.287 59.4942C632.598 60.4413 631.565 60.8718 630.188 60.8718C628.81 60.8718 627.777 60.4413 627.088 59.4942C626.4 58.5471 626.055 57.1695 626.055 55.3615V53.1229C626.055 51.2287 626.4 49.7651 627.002 48.9041C627.691 47.957 628.724 47.5265 630.101 47.5265C631.479 47.5265 632.512 47.957 633.201 48.9041C633.889 49.7651 634.234 51.1426 634.234 53.0368V55.1893ZM632.598 52.9507C632.598 51.5731 632.426 50.5399 631.995 49.9372C631.565 49.3346 630.962 48.9902 630.101 48.9902C629.241 48.9902 628.638 49.3346 628.294 49.9372C627.949 50.5399 627.691 51.5731 627.691 52.8646V55.5337C627.691 56.9112 627.863 57.9444 628.294 58.6332C628.724 59.322 629.327 59.6664 630.101 59.6664C630.876 59.6664 631.479 59.322 631.909 58.7193C632.34 58.1166 632.512 57.0834 632.512 55.7059V52.9507H632.598Z" fill="black"/>
<path d="M636.214 50.2819C636.214 49.507 636.472 48.9043 636.989 48.3877C637.505 47.8711 638.108 47.6128 638.883 47.6128C639.658 47.6128 640.346 47.8711 640.777 48.3877C641.293 48.9043 641.552 49.5931 641.552 50.368V50.9706C641.552 51.7455 641.293 52.4343 640.777 52.8648C640.26 53.3814 639.658 53.6397 638.883 53.6397C638.108 53.6397 637.505 53.3814 636.989 52.8648C636.472 52.3482 636.214 51.7455 636.214 50.8845V50.2819ZM637.419 50.9706C637.419 51.4011 637.591 51.8316 637.85 52.0899C638.108 52.3482 638.452 52.5204 638.883 52.5204C639.313 52.5204 639.658 52.3482 639.916 52.0899C640.174 51.8316 640.26 51.4011 640.26 50.8845V50.1958C640.26 49.7653 640.174 49.3348 639.916 49.0765C639.658 48.7321 639.313 48.646 638.883 48.646C638.452 48.646 638.108 48.8182 637.85 49.0765C637.591 49.4209 637.505 49.7653 637.505 50.2819V50.9706H637.419ZM639.227 59.7527L638.28 59.15L644.565 48.9904L645.512 49.5931L639.227 59.7527ZM642.499 57.5141C642.499 56.7393 642.757 56.1366 643.273 55.62C643.79 55.1034 644.393 54.8451 645.167 54.8451C645.942 54.8451 646.545 55.1034 647.061 55.62C647.578 56.1366 647.836 56.7393 647.836 57.6002V58.2029C647.836 58.9778 647.578 59.5805 647.061 60.0971C646.545 60.6137 645.942 60.872 645.167 60.872C644.393 60.872 643.79 60.6137 643.273 60.0971C642.757 59.5805 642.499 58.9778 642.499 58.1168V57.5141ZM643.704 58.2029C643.704 58.6334 643.876 59.0639 644.134 59.3222C644.393 59.5805 644.737 59.7527 645.167 59.7527C645.598 59.7527 645.942 59.5805 646.2 59.3222C646.459 59.0639 646.545 58.6334 646.545 58.1168V57.428C646.545 56.9975 646.459 56.5671 646.2 56.3088C645.942 56.0505 645.598 55.8783 645.167 55.8783C644.737 55.8783 644.393 56.0505 644.134 56.3088C643.876 56.5671 643.704 56.9976 643.704 57.5141V58.2029Z" fill="black"/>
<path d="M605.049 64.4879H648.525" stroke="black" stroke-width="2" stroke-miterlimit="10" stroke-linecap="round"/>
</g>
<defs>
<clipPath id="clip0">
<rect width="718" height="288" fill="white"/>
</clipPath>
</defs>
</svg>
