<?xml version="1.0" encoding="utf-8"?>
<!-- Generator: Adobe Illustrator 25.2.1, SVG Export Plug-In . SVG Version: 6.00 Build 0)  -->
<svg version="1.1" id="레이어_1" xmlns="http://www.w3.org/2000/svg" xmlns:xlink="http://www.w3.org/1999/xlink" x="0px"
	 y="0px" viewBox="0 0 236.6 41.2" style="enable-background:new 0 0 236.6 41.2;" xml:space="preserve">
<style type="text/css">
	.st0{fill:#282C37;}
	.st1{fill:#443229;}
	.st2{fill:#5775D9;}
</style>
<g id="레이어_2_1_">
	<g id="레이어_1-2">
		<path class="st0" d="M0,39.2V0h18.1c1.8,0,3.5,0.2,5.2,0.7c1.4,0.4,2.8,1,3.9,1.9c1,0.8,1.9,1.9,2.5,3.1c0.6,1.3,0.9,2.6,0.9,4
			c0.1,2.6-1.1,5.2-3.3,6.7c1.6,1,2.9,2.4,3.8,4c0.9,1.7,1.4,3.6,1.4,5.5c0,1.8-0.3,3.5-1,5.1c-0.6,1.6-1.6,3.1-2.9,4.2
			c-1.4,1.3-3,2.3-4.8,2.9c-2.1,0.7-4.4,1.1-6.6,1.1L0,39.2z M17.6,14.6c0.8-0.2,1.6-0.6,2.2-1.2c0.5-0.6,0.7-1.4,0.7-2.1
			c0-0.8-0.3-1.6-1-2.1c-0.9-0.6-1.9-0.9-3-0.8H10v7.1L17.6,14.6z M17.5,30.5c1.4-0.1,2.7-0.7,3.7-1.7c0.8-0.9,1.3-2,1.3-3.2
			c0-1.1-0.4-2.2-1.2-3c-1-0.8-2.4-1.2-3.6-0.9L10,22.6v8.7L17.5,30.5z"/>
		<path class="st0" d="M56.8,39.7v-2c-1,0.9-2.2,1.6-3.6,2c-1.4,0.5-2.9,0.7-4.3,0.8c-1.7,0.1-3.4-0.2-4.9-0.8
			c-1.5-0.6-2.8-1.5-3.9-2.7c-1.1-1.2-2-2.7-2.5-4.3c-0.6-1.9-1-3.9-0.9-5.8V11.2h9.8V26c0,0.9,0.1,1.7,0.4,2.5
			c0.3,0.7,0.7,1.3,1.2,1.8c0.5,0.5,1,0.8,1.6,1c0.6,0.2,1.3,0.3,2,0.2c1.4-0.1,2.8-0.7,3.7-1.7c1-1.2,1.5-2.7,1.5-4.2V11.2h9.8
			v26.6L56.8,39.7z"/>
		<path class="st0" d="M89,20.5c0-0.4-0.2-0.7-0.5-1c-0.3-0.3-0.6-0.5-1-0.6c-0.4-0.2-0.8-0.3-1.2-0.3c-0.4-0.1-0.9-0.1-1.3-0.1
			c-0.8,0-1.5,0.1-2.3,0.3c-0.7,0.2-1.1,0.5-1.1,0.8s0.3,0.7,1,0.9s1.4,0.5,2.2,0.7l5.2,1.6c1.3,0.5,2.6,0.9,3.7,1.4
			c1.1,0.4,2.1,1,3,1.6c0.8,0.6,1.5,1.3,2,2.1c0.5,0.9,0.8,1.9,0.7,2.9c0,1.4-0.3,2.7-1,3.9c-0.7,1.2-1.7,2.3-2.9,3
			c-1.4,0.9-3,1.5-4.7,1.9c-2.1,0.5-4.2,0.7-6.3,0.7c-1.7,0-3.4-0.2-5.1-0.6c-1.6-0.4-3.1-1-4.4-1.9c-1.3-0.8-2.4-1.8-3.3-3
			c-0.9-1.2-1.4-2.6-1.5-4.1l9.5-1.4c0,0.5,0.2,0.9,0.6,1.3c0.4,0.3,0.8,0.6,1.3,0.8c0.5,0.2,1.1,0.3,1.7,0.4
			c0.6,0.1,1.1,0.1,1.7,0.1c0.6,0,1.1,0,1.7-0.1c0.5-0.1,1-0.2,1.5-0.3c0.4-0.1,0.7-0.2,1.1-0.4c0.3-0.1,0.4-0.3,0.4-0.5
			s-0.2-0.4-0.5-0.5c-0.4-0.2-0.8-0.4-1.3-0.5c-0.5-0.2-1.1-0.4-1.8-0.5s-1.3-0.4-1.9-0.6l-4-1.3c-1.3-0.4-2.5-0.9-3.7-1.4
			c-0.9-0.5-1.8-1.1-2.6-1.8c-0.7-0.6-1.2-1.4-1.6-2.3c-0.4-1-0.6-2-0.5-3c0-1.4,0.4-2.7,1.1-3.8c0.8-1.1,1.8-2,2.9-2.7
			c1.3-0.7,2.7-1.2,4.1-1.6c3.4-0.7,6.9-0.7,10.3,0.2c1.5,0.4,3,1,4.3,1.9c1.2,0.7,2.1,1.8,2.9,2.9c0.7,1.1,1.1,2.4,1.1,3.8L89,20.5
			z"/>
		<path class="st0" d="M123.1,40.2v-3.6c-0.7,1.3-1.7,2.3-3,3c-1.4,0.6-2.9,0.9-4.5,0.9c-1.8,0-3.7-0.3-5.4-1
			c-1.7-0.7-3.2-1.7-4.4-3c-1.3-1.4-2.3-3-3-4.8c-0.8-2.1-1.1-4.3-1.1-6.5c0-2.2,0.3-4.4,1.1-6.5c0.7-1.8,1.7-3.4,3-4.7
			c1.2-1.3,2.7-2.3,4.4-2.9c1.7-0.7,3.5-1,5.4-1c2.8-0.1,5.5,1.1,7.4,3.2v-2.2h9.8v27L123.1,40.2z M117.3,32.1
			c0.8,0,1.5-0.2,2.2-0.5c0.7-0.3,1.3-0.8,1.8-1.4c0.5-0.6,1-1.4,1.3-2.2c0.3-0.9,0.5-1.8,0.5-2.8c0-0.9-0.1-1.9-0.5-2.8
			c-0.3-0.8-0.7-1.5-1.3-2.1c-0.5-0.6-1.1-1-1.8-1.4c-1.4-0.6-3-0.6-4.3,0c-0.7,0.3-1.3,0.8-1.8,1.4c-0.5,0.6-1,1.3-1.2,2.1
			c-0.3,0.9-0.5,1.8-0.4,2.8c0,0.9,0.1,1.9,0.4,2.8c0.3,0.8,0.7,1.5,1.2,2.1c0.5,0.6,1.1,1.1,1.8,1.4
			C115.8,31.9,116.6,32.1,117.3,32.1z"/>
		<path class="st0" d="M158.3,39.7V24.6c0-0.9-0.1-1.8-0.4-2.6c-0.2-0.7-0.6-1.3-1.1-1.8c-0.5-0.5-1-0.8-1.6-1
			c-0.6-0.2-1.3-0.3-2-0.2c-1.4,0.1-2.8,0.7-3.8,1.8c-1,1.2-1.4,2.7-1.4,4.3v13.2l-9.8,2v-29h9.8v2.4c0.4-0.5,1-1,1.6-1.4
			c0.7-0.4,1.4-0.7,2.2-1c0.8-0.3,1.6-0.5,2.4-0.7c0.8-0.2,1.5-0.2,2.3-0.3c1.6-0.1,3.3,0.2,4.8,0.8c1.4,0.6,2.7,1.5,3.7,2.7
			c1.1,1.3,1.9,2.7,2.4,4.3c0.6,1.9,0.9,3.9,0.9,5.8v13.9L158.3,39.7z"/>
		<path class="st1" d="M178.2,41.2l-6.8-6.6l6.8-6.6l6.9,6.6L178.2,41.2z"/>
		<path class="st2" d="M189.7,40.2V0H200v38.1L189.7,40.2z"/>
		<path class="st2" d="M215.3,40.2V8.8h-11.1V0h32.4v8.8h-11.1v29.3L215.3,40.2z"/>
	</g>
</g>
</svg>
