<svg width="1159" height="231" viewBox="0 0 1159 231" fill="none" xmlns="http://www.w3.org/2000/svg">
<rect y="5" width="5" height="26" fill="#5775D9"/>
<path d="M18.984 12.472H25.056V10.864H17.04V24.472H18.456C21.672 24.472 23.856 24.376 26.424 23.824L26.256 22.192C23.904 22.696 21.864 22.816 18.984 22.84V12.472ZM32.664 8.248V16.888H29.616V8.728H27.768V28.696H29.616V18.496H32.664V29.776H34.56V8.248H32.664ZM49.6541 17.44C50.2061 14.608 50.2061 12.472 50.2061 11.056V9.928H39.5021V11.536H48.2861C48.2861 12.904 48.2141 14.752 47.7101 17.224L49.6541 17.44ZM51.6941 18.736C49.5101 19.048 47.0621 19.216 44.7101 19.312V14.728H42.7661V19.384C41.1341 19.408 39.5741 19.432 38.2061 19.432L38.3981 21.04C42.2141 21.04 47.3741 20.92 51.8381 20.176L51.6941 18.736ZM43.4621 22.984H41.4941V29.296H55.7981V27.688H43.4621V22.984ZM55.1021 15.256V8.248H53.1341V24.472H55.1021V16.888H58.1981V15.256H55.1021ZM83.4594 8.248H81.4914V24.04H83.4594V8.248ZM78.7554 18.976C75.5634 17.8 73.3794 14.872 73.3794 11.632V9.448H71.4114V11.632C71.4114 14.992 69.2514 18.112 66.0114 19.36L67.0434 20.968C69.5634 19.912 71.5074 17.824 72.4194 15.208C73.3794 17.656 75.2754 19.6 77.7234 20.536L78.7554 18.976ZM71.5794 27.688V22.576H69.6114V29.296H84.1074V27.688H71.5794ZM99.3216 14.368V16H103.618V21.304H105.61V8.248H103.618V14.368H99.3216ZM100.618 18.88C97.4496 17.92 95.2176 15.52 95.2176 12.832V12.424H99.9696V10.84H95.2176V8.152H93.2496V10.84H88.4736V12.424H93.2496V12.832C93.2496 15.736 91.0896 18.352 87.9216 19.432L88.8816 20.944C91.4256 20.104 93.3696 18.28 94.2816 15.928C95.2656 18.016 97.2336 19.624 99.7056 20.392L100.618 18.88ZM98.4816 28.216C95.2416 28.216 93.2976 27.304 93.2976 25.792C93.2976 24.304 95.2416 23.392 98.4816 23.392C101.77 23.392 103.714 24.304 103.714 25.792C103.714 27.304 101.77 28.216 98.4816 28.216ZM98.4816 21.856C94.0656 21.856 91.3296 23.296 91.3296 25.792C91.3296 28.312 94.0656 29.752 98.4816 29.752C102.946 29.752 105.682 28.312 105.682 25.792C105.682 23.296 102.946 21.856 98.4816 21.856ZM124.247 17.944H118.151V14.392H124.247V17.944ZM126.167 9.616H124.247V12.856H118.151V9.616H116.207V19.528H126.167V9.616ZM125.183 28.216C121.967 28.216 120.047 27.304 120.047 25.768C120.047 24.232 121.967 23.344 125.183 23.344C128.351 23.344 130.295 24.232 130.295 25.768C130.295 27.304 128.351 28.216 125.183 28.216ZM125.183 21.76C120.791 21.76 118.079 23.224 118.079 25.768C118.079 28.312 120.791 29.776 125.183 29.776C129.551 29.776 132.263 28.312 132.263 25.768C132.263 23.224 129.551 21.76 125.183 21.76ZM132.023 13.672V8.248H130.055V21.208H132.023V15.304H135.215V13.672H132.023ZM153.165 27.88H143.277V25.192H153.165V27.88ZM153.165 23.656H143.277V21.064H141.333V29.464H155.109V21.064H153.165V23.656ZM146.229 17.608H140.421V14.2H146.229V17.608ZM153.141 8.272V13.552H148.173V9.376H146.229V12.664H140.421V9.376H138.477V19.216H148.173V15.16H153.141V20.032H155.133V8.272H153.141Z" fill="black"/>
<path d="M28.072 43.016H23V41.64H21.688V43.016H16.52V44.04H28.072V43.016ZM18.728 52.904H25.96V55H18.728V52.904ZM17.448 55.992H27.24V51.912H17.448V55.992ZM19.08 46.632C19.08 45.928 20.248 45.528 22.344 45.528C24.408 45.528 25.576 45.928 25.576 46.632C25.576 47.352 24.408 47.752 22.344 47.752C20.248 47.752 19.08 47.352 19.08 46.632ZM23 49.752V48.664C25.528 48.568 26.968 47.864 26.968 46.632C26.968 45.304 25.288 44.6 22.344 44.6C19.368 44.6 17.704 45.304 17.704 46.632C17.704 47.864 19.128 48.568 21.688 48.664V49.752H15.848V50.792H28.808V49.752H23ZM33.0788 44.712H34.8708V51.448C34.2628 51.48 33.6708 51.496 33.0788 51.512V44.712ZM36.0708 44.712H37.2548V43.656H30.6948V44.712H31.8788V51.544C31.3348 51.56 30.8548 51.56 30.4228 51.56L30.5508 52.648C32.4228 52.648 35.4308 52.584 37.6548 52.168L37.5748 51.208C37.1108 51.272 36.5828 51.32 36.0708 51.368V44.712ZM38.7908 47.304H36.8388V48.456H38.7908V55.432H40.0228V42.184H38.7908V47.304ZM41.5588 41.848V56.184H42.8228V41.848H41.5588ZM55.7175 41.832V56.216H57.0295V41.832H55.7175ZM49.4615 42.936C47.3335 42.936 45.8135 44.888 45.8135 47.944C45.8135 51 47.3335 52.952 49.4615 52.952C51.5895 52.952 53.1095 51 53.1095 47.944C53.1095 44.888 51.5895 42.936 49.4615 42.936ZM49.4615 44.12C50.8535 44.12 51.8455 45.624 51.8455 47.944C51.8455 50.28 50.8535 51.784 49.4615 51.784C48.0535 51.784 47.0615 50.28 47.0615 47.944C47.0615 45.624 48.0535 44.12 49.4615 44.12ZM65.1243 44.392H68.5003V43.304H60.4843V44.392H63.8123V46.216C63.8123 48.696 62.0683 51.4 60.0043 52.376L60.7723 53.432C62.4043 52.6 63.8123 50.792 64.4683 48.696C65.1563 50.664 66.5643 52.312 68.2283 53.08L68.9643 52.024C66.8523 51.128 65.1243 48.648 65.1243 46.216V44.392ZM70.4363 41.848V56.184H71.7483V41.848H70.4363ZM87.4051 43.592H83.7091V41.848H82.3971V43.592H78.6851V44.648H87.4051V43.592ZM80.8451 48.12C80.8451 47.112 81.7411 46.472 83.0531 46.472C84.3491 46.472 85.2451 47.112 85.2451 48.12C85.2451 49.112 84.3491 49.752 83.0531 49.752C81.7411 49.752 80.8451 49.112 80.8451 48.12ZM83.7091 50.744C85.4051 50.536 86.4931 49.544 86.4931 48.12C86.4931 46.504 85.1011 45.464 83.0531 45.464C81.0051 45.464 79.5971 46.504 79.5971 48.12C79.5971 49.56 80.7011 50.552 82.3971 50.76V52.296C80.9731 52.344 79.5971 52.36 78.3811 52.36L78.5731 53.464C81.2131 53.464 84.6691 53.416 87.8691 52.888L87.7731 51.912C86.4611 52.088 85.0691 52.184 83.7091 52.248V50.744ZM88.6851 41.848V56.184H89.9971V41.848H88.6851ZM100.54 50.312V51.288H103.452V52.76H104.764V41.832H103.452V50.312H100.54ZM97.6119 43.384C98.9719 43.384 99.8999 43.992 99.8999 44.904C99.8999 45.832 98.9719 46.44 97.6119 46.44C96.2519 46.44 95.3239 45.832 95.3239 44.904C95.3239 43.992 96.2519 43.384 97.6119 43.384ZM97.6119 47.416C99.7079 47.416 101.148 46.44 101.148 44.904C101.148 43.4 99.7079 42.408 97.6119 42.408C95.5159 42.408 94.0759 43.4 94.0759 44.904C94.0759 46.44 95.5159 47.416 97.6119 47.416ZM97.0999 52.248H98.4119V49.416C99.7079 49.336 101.036 49.192 102.3 49L102.188 48.056C99.1479 48.44 95.5959 48.472 92.9399 48.472L93.1159 49.56C94.2999 49.56 95.6759 49.544 97.0999 49.48V52.248ZM96.2999 54.792V51.688H94.9879V55.864H105.132V54.792H96.2999ZM108.507 43.368V44.456H113.771C113.467 47.848 111.499 50.6 107.835 52.44L108.555 53.464C113.195 51.144 115.067 47.448 115.067 43.368H108.507ZM121.083 47.656H118.779V41.832H117.467V56.184H118.779V48.744H121.083V47.656ZM132.921 41.848V49.544H134.233V41.848H132.921ZM124.985 50.248V55.992H134.233V50.248H132.937V52.008H126.281V50.248H124.985ZM126.281 53.032H132.937V54.936H126.281V53.032ZM126.521 42.52C124.361 42.52 122.793 43.864 122.793 45.816C122.793 47.8 124.361 49.128 126.521 49.128C128.697 49.128 130.281 47.8 130.281 45.816C130.281 43.864 128.697 42.52 126.521 42.52ZM126.521 43.608C127.977 43.608 129.001 44.52 129.001 45.816C129.001 47.128 127.977 48.04 126.521 48.04C125.097 48.04 124.073 47.128 124.073 45.816C124.073 44.52 125.097 43.608 126.521 43.608ZM140.546 49.464H152.882C152.066 50.088 151.01 51.096 150.29 52.088L151.25 52.648C152.322 51.24 153.922 49.832 155.346 48.92C153.922 48.008 152.322 46.6 151.25 45.192L150.29 45.752C151.01 46.744 152.066 47.752 152.882 48.376H140.546V49.464ZM169.436 43.592H165.74V41.848H164.428V43.592H160.716V44.648H169.436V43.592ZM162.876 48.12C162.876 47.112 163.772 46.472 165.084 46.472C166.38 46.472 167.276 47.112 167.276 48.12C167.276 49.112 166.38 49.752 165.084 49.752C163.772 49.752 162.876 49.112 162.876 48.12ZM165.74 50.744C167.436 50.536 168.524 49.544 168.524 48.12C168.524 46.504 167.132 45.464 165.084 45.464C163.036 45.464 161.628 46.504 161.628 48.12C161.628 49.56 162.732 50.552 164.428 50.76V52.296C163.004 52.344 161.628 52.36 160.412 52.36L160.604 53.464C163.244 53.464 166.7 53.416 169.9 52.888L169.804 51.912C168.492 52.088 167.1 52.184 165.74 52.248V50.744ZM170.716 41.848V56.184H172.028V41.848H170.716ZM182.571 50.312V51.288H185.483V52.76H186.795V41.832H185.483V50.312H182.571ZM179.643 43.384C181.003 43.384 181.931 43.992 181.931 44.904C181.931 45.832 181.003 46.44 179.643 46.44C178.283 46.44 177.355 45.832 177.355 44.904C177.355 43.992 178.283 43.384 179.643 43.384ZM179.643 47.416C181.739 47.416 183.179 46.44 183.179 44.904C183.179 43.4 181.739 42.408 179.643 42.408C177.547 42.408 176.107 43.4 176.107 44.904C176.107 46.44 177.547 47.416 179.643 47.416ZM179.131 52.248H180.443V49.416C181.739 49.336 183.067 49.192 184.331 49L184.219 48.056C181.179 48.44 177.627 48.472 174.971 48.472L175.147 49.56C176.331 49.56 177.707 49.544 179.131 49.48V52.248ZM178.331 54.792V51.688H177.019V55.864H187.163V54.792H178.331ZM190.538 43.368V44.456H195.802C195.498 47.848 193.53 50.6 189.866 52.44L190.586 53.464C195.226 51.144 197.098 47.448 197.098 43.368H190.538ZM203.114 47.656H200.81V41.832H199.498V56.184H200.81V48.744H203.114V47.656ZM214.953 41.848V49.544H216.265V41.848H214.953ZM207.017 50.248V55.992H216.265V50.248H214.969V52.008H208.313V50.248H207.017ZM208.313 53.032H214.969V54.936H208.313V53.032ZM208.553 42.52C206.393 42.52 204.825 43.864 204.825 45.816C204.825 47.8 206.393 49.128 208.553 49.128C210.729 49.128 212.313 47.8 212.313 45.816C212.313 43.864 210.729 42.52 208.553 42.52ZM208.553 43.608C210.009 43.608 211.033 44.52 211.033 45.816C211.033 47.128 210.009 48.04 208.553 48.04C207.129 48.04 206.105 47.128 206.105 45.816C206.105 44.52 207.129 43.608 208.553 43.608ZM222.578 49.464H234.914C234.098 50.088 233.042 51.096 232.322 52.088L233.282 52.648C234.354 51.24 235.954 49.832 237.378 48.92C235.954 48.008 234.354 46.6 233.282 45.192L232.322 45.752C233.042 46.744 234.098 47.752 234.914 48.376H222.578V49.464ZM249.516 53.336V50.632H254.108V49.576H245.276V47.256H253.772V42.888H243.948V43.96H252.492V46.2H243.98V50.632H248.188V53.336H242.348V54.408H255.388V53.336H249.516ZM267.034 44.792C267.034 46.568 267.034 48.712 266.458 51.64L267.77 51.784C268.33 48.68 268.33 46.616 268.33 44.792V43.368H267.722V43.352H258.49V44.424H267.034V44.792ZM257.098 53V54.088H270.074V53H257.098ZM283.577 41.848H282.265V52.328H283.577V41.848ZM273.417 46.36C273.417 44.968 274.473 43.976 275.865 43.976C277.289 43.976 278.345 44.968 278.345 46.36C278.345 47.784 277.289 48.776 275.865 48.776C274.473 48.776 273.417 47.784 273.417 46.36ZM279.625 46.36C279.625 44.296 278.009 42.84 275.865 42.84C273.737 42.84 272.137 44.296 272.137 46.36C272.137 48.44 273.737 49.912 275.865 49.912C278.009 49.912 279.625 48.44 279.625 46.36ZM275.657 54.792V51.256H274.345V55.864H284.009V54.792H275.657ZM289.89 49.464H302.226C301.41 50.088 300.354 51.096 299.634 52.088L300.594 52.648C301.666 51.24 303.266 49.832 304.69 48.92C303.266 48.008 301.666 46.6 300.594 45.192L299.634 45.752C300.354 46.744 301.41 47.752 302.226 48.376H289.89V49.464Z" fill="black"/>
<path d="M311.484 44.648H315.532V43.576H310.188V52.648H311.132C313.276 52.648 314.732 52.584 316.444 52.216L316.332 51.128C314.764 51.464 313.404 51.544 311.484 51.56V44.648ZM320.604 41.832V47.592H318.572V42.152H317.34V55.464H318.572V48.664H320.604V56.184H321.868V41.832H320.604ZM331.931 47.96C332.299 46.072 332.299 44.648 332.299 43.704V42.952H325.163V44.024H331.019C331.019 44.936 330.971 46.168 330.635 47.816L331.931 47.96ZM333.291 48.824C331.835 49.032 330.203 49.144 328.635 49.208V46.152H327.339V49.256C326.251 49.272 325.211 49.288 324.299 49.288L324.427 50.36C326.971 50.36 330.411 50.28 333.387 49.784L333.291 48.824ZM327.803 51.656H326.491V55.864H336.027V54.792H327.803V51.656ZM335.563 46.504V41.832H334.251V52.648H335.563V47.592H337.627V46.504H335.563ZM350.89 41.832H349.578V52.36H350.89V41.832ZM347.754 48.984C345.626 48.2 344.17 46.248 344.17 44.088V42.632H342.858V44.088C342.858 46.328 341.418 48.408 339.258 49.24L339.946 50.312C341.626 49.608 342.922 48.216 343.53 46.472C344.17 48.104 345.434 49.4 347.066 50.024L347.754 48.984ZM342.97 54.792V51.384H341.658V55.864H351.322V54.792H342.97ZM361.464 45.912V47H364.328V50.536H365.656V41.832H364.328V45.912H361.464ZM362.328 48.92C360.216 48.28 358.728 46.68 358.728 44.888V44.616H361.896V43.56H358.728V41.768H357.416V43.56H354.232V44.616H357.416V44.888C357.416 46.824 355.976 48.568 353.864 49.288L354.504 50.296C356.2 49.736 357.496 48.52 358.104 46.952C358.76 48.344 360.072 49.416 361.72 49.928L362.328 48.92ZM360.904 55.144C358.744 55.144 357.448 54.536 357.448 53.528C357.448 52.536 358.744 51.928 360.904 51.928C363.096 51.928 364.392 52.536 364.392 53.528C364.392 54.536 363.096 55.144 360.904 55.144ZM360.904 50.904C357.96 50.904 356.136 51.864 356.136 53.528C356.136 55.208 357.96 56.168 360.904 56.168C363.88 56.168 365.704 55.208 365.704 53.528C365.704 51.864 363.88 50.904 360.904 50.904Z" fill="#5775D9"/>
<rect x="0.5" y="80.5" width="199" height="69" fill="#F8F9FF" stroke="#243366"/>
<path d="M58.656 111.648H62.704V110.576H57.36V119.648H58.304C60.448 119.648 61.904 119.584 63.616 119.216L63.504 118.128C61.936 118.464 60.576 118.544 58.656 118.56V111.648ZM67.776 108.832V114.592H65.744V109.152H64.512V122.464H65.744V115.664H67.776V123.184H69.04V108.832H67.776ZM79.1028 114.96C79.4708 113.072 79.4708 111.648 79.4708 110.704V109.952H72.3348V111.024H78.1908C78.1908 111.936 78.1428 113.168 77.8068 114.816L79.1028 114.96ZM80.4628 115.824C79.0068 116.032 77.3748 116.144 75.8068 116.208V113.152H74.5108V116.256C73.4228 116.272 72.3828 116.288 71.4708 116.288L71.5988 117.36C74.1428 117.36 77.5828 117.28 80.5588 116.784L80.4628 115.824ZM74.9748 118.656H73.6628V122.864H83.1988V121.792H74.9748V118.656ZM82.7348 113.504V108.832H81.4228V119.648H82.7348V114.592H84.7988V113.504H82.7348ZM98.0615 108.832H96.7495V116.192H98.0615V108.832ZM87.8855 112.544C87.8855 111.296 88.9255 110.416 90.3175 110.416C91.7255 110.416 92.7495 111.296 92.7495 112.544C92.7495 113.776 91.7255 114.656 90.3175 114.656C88.9255 114.656 87.8855 113.776 87.8855 112.544ZM94.0295 112.544C94.0295 110.64 92.4615 109.344 90.3175 109.344C88.1735 109.344 86.6215 110.64 86.6215 112.544C86.6215 114.432 88.1735 115.712 90.3175 115.712C92.4615 115.712 94.0295 114.432 94.0295 112.544ZM90.0935 121.952V120.368H98.0615V116.896H88.7655V117.936H96.7655V119.392H88.7975V122.992H98.5415V121.952H90.0935ZM108.668 112.56V113.632H111.5V117.392H112.828V108.848H111.5V112.56H108.668ZM109.468 115.824C107.388 115.088 105.98 113.28 105.98 111.44V110.944H109.132V109.888H101.468V110.944H104.668V111.44C104.668 113.504 103.196 115.44 101.052 116.224L101.74 117.264C103.42 116.624 104.748 115.28 105.356 113.616C105.98 115.088 107.212 116.272 108.812 116.848L109.468 115.824ZM108.092 122.16C105.932 122.16 104.62 121.552 104.62 120.512C104.62 119.472 105.932 118.848 108.092 118.848C110.252 118.848 111.564 119.472 111.564 120.512C111.564 121.552 110.252 122.16 108.092 122.16ZM108.092 117.84C105.148 117.84 103.308 118.816 103.308 120.512C103.308 122.208 105.148 123.184 108.092 123.184C111.036 123.184 112.86 122.208 112.86 120.512C112.86 118.816 111.036 117.84 108.092 117.84ZM124.251 110.144H120.795V108.736H119.483V110.144H116.011V111.136H124.251V110.144ZM118.027 113.792C118.027 113.04 118.843 112.576 120.139 112.576C121.403 112.576 122.235 113.04 122.235 113.792C122.235 114.544 121.403 115.024 120.139 115.024C118.843 115.024 118.027 114.544 118.027 113.792ZM124.683 116.544C123.435 116.736 122.107 116.832 120.795 116.896V115.904C122.443 115.728 123.483 114.96 123.483 113.792C123.483 112.48 122.139 111.664 120.139 111.664C118.107 111.664 116.779 112.48 116.779 113.792C116.779 114.976 117.819 115.744 119.483 115.904V116.944C118.107 116.992 116.795 116.992 115.659 116.992L115.803 118.048C118.315 118.032 121.707 118.032 124.779 117.488L124.683 116.544ZM117.403 120.224H125.531V123.184H126.843V119.184H117.403V120.224ZM128.955 113.184H126.843V108.848H125.531V118.464H126.843V114.272H128.955V113.184ZM142.218 108.848H140.906V119.328H142.218V108.848ZM132.058 113.36C132.058 111.968 133.114 110.976 134.506 110.976C135.93 110.976 136.986 111.968 136.986 113.36C136.986 114.784 135.93 115.776 134.506 115.776C133.114 115.776 132.058 114.784 132.058 113.36ZM138.266 113.36C138.266 111.296 136.65 109.84 134.506 109.84C132.378 109.84 130.778 111.296 130.778 113.36C130.778 115.44 132.378 116.912 134.506 116.912C136.65 116.912 138.266 115.44 138.266 113.36ZM134.298 121.792V118.256H132.986V122.864H142.65V121.792H134.298Z" fill="#243366"/>
<path d="M5.992 160.236H9.028V159.432H5.02V166.236H5.728C7.336 166.236 8.428 166.188 9.712 165.912L9.628 165.096C8.452 165.348 7.432 165.408 5.992 165.42V160.236ZM12.832 158.124V162.444H11.308V158.364H10.384V168.348H11.308V163.248H12.832V168.888H13.78V158.124H12.832ZM21.3271 162.72C21.6031 161.304 21.6031 160.236 21.6031 159.528V158.964H16.2511V159.768H20.6431C20.6431 160.452 20.6071 161.376 20.3551 162.612L21.3271 162.72ZM22.3471 163.368C21.2551 163.524 20.0311 163.608 18.8551 163.656V161.364H17.8831V163.692C17.0671 163.704 16.2871 163.716 15.6031 163.716L15.6991 164.52C17.6071 164.52 20.1871 164.46 22.4191 164.088L22.3471 163.368ZM18.2311 165.492H17.2471V168.648H24.3991V167.844H18.2311V165.492ZM24.0511 161.628V158.124H23.0671V166.236H24.0511V162.444H25.5991V161.628H24.0511ZM29.9737 159.276V160.092H33.9217C33.6937 162.636 32.2177 164.7 29.4697 166.08L30.0097 166.848C33.4897 165.108 34.8937 162.336 34.8937 159.276H29.9737ZM39.4057 162.492H37.6777V158.124H36.6937V168.888H37.6777V163.308H39.4057V162.492ZM49.0648 161.124H42.7408V158.352H41.7568V161.916H49.0648V161.124ZM45.2968 168.084C43.6048 168.084 42.6088 167.64 42.6088 166.896C42.6088 166.128 43.6048 165.696 45.2968 165.696C46.9888 165.696 47.9848 166.128 47.9848 166.896C47.9848 167.64 46.9768 168.084 45.2968 168.084ZM45.2968 164.928C43.0048 164.928 41.6128 165.636 41.6128 166.896C41.6128 168.144 43.0048 168.852 45.2968 168.852C47.5888 168.852 48.9808 168.144 48.9808 166.896C48.9808 165.636 47.5888 164.928 45.2968 164.928ZM40.4488 163.164V163.968H50.1808V163.164H40.4488ZM57.9754 159.06H57.0034V160.992C57.0034 163.032 55.6954 165.096 54.1114 165.852L54.7114 166.656C55.9714 166.008 57.0034 164.664 57.4954 163.044C58.0114 164.58 59.0434 165.852 60.2674 166.452L60.8554 165.66C59.2594 164.94 57.9754 162.96 57.9754 160.992V159.06ZM61.9834 158.124V168.912H62.9674V158.124H61.9834ZM65.6545 158.964V159.768H69.6145C69.4105 161.664 67.7545 163.188 65.2225 163.98L65.6185 164.76C68.7145 163.788 70.6705 161.748 70.6705 158.964H65.6545ZM67.8265 165.192H66.8425V168.648H74.0185V167.844H67.8265V165.192ZM73.5505 161.4V158.136H72.5665V165.996H73.5505V162.216H75.1465V161.4H73.5505ZM79.9532 163.32C80.3852 163.32 80.7452 162.972 80.7452 162.492C80.7452 161.988 80.3852 161.64 79.9532 161.64C79.5212 161.64 79.1612 161.988 79.1612 162.492C79.1612 162.972 79.5212 163.32 79.9532 163.32ZM79.9532 168.156C80.3852 168.156 80.7452 167.82 80.7452 167.328C80.7452 166.836 80.3852 166.476 79.9532 166.476C79.5212 166.476 79.1612 166.836 79.1612 167.328C79.1612 167.82 79.5212 168.156 79.9532 168.156ZM10.324 181.248V181.896H12.46V182.46H13.444V176.136H12.46V181.248H10.324ZM8.08 177.024C9.136 177.024 9.808 177.384 9.808 177.96C9.808 178.512 9.136 178.884 8.08 178.884C7.036 178.884 6.352 178.512 6.352 177.96C6.352 177.384 7.036 177.024 8.08 177.024ZM8.08 179.556C9.676 179.556 10.732 178.944 10.732 177.96C10.732 176.952 9.676 176.34 8.08 176.34C6.484 176.34 5.428 176.952 5.428 177.96C5.428 178.944 6.484 179.556 8.08 179.556ZM7.528 182.496H8.512V180.84C9.556 180.78 10.624 180.696 11.668 180.552L11.608 179.904C9.304 180.168 6.676 180.18 4.6 180.18L4.72 180.924C5.584 180.924 6.532 180.912 7.528 180.888V182.496ZM7.228 186.048V185.1H13.444V182.856H6.232V183.564H12.484V184.428H6.256V186.768H13.816V186.048H7.228ZM15.5911 183.06H18.6631V182.22H15.5911V183.06ZM25.1992 184.74V182.52H28.4872V181.716H22.0792V180.096H28.1392V179.316H22.0792V177.804H28.3792V177H21.0832V182.52H24.2152V184.74H19.8232V185.556H29.6032V184.74H25.1992ZM36.2579 186.156C37.9259 186.156 38.9939 184.632 38.9939 181.572C38.9939 178.524 37.9259 177.036 36.2579 177.036C34.5779 177.036 33.5099 178.512 33.5099 181.572C33.5099 184.632 34.5779 186.156 36.2579 186.156ZM36.2579 185.28C35.2499 185.28 34.5779 184.164 34.5779 181.572C34.5779 179.004 35.2499 177.924 36.2579 177.924C37.2539 177.924 37.9259 179.004 37.9259 181.572C37.9259 184.164 37.2539 185.28 36.2579 185.28ZM42.7101 181.848C41.6661 181.848 41.1381 181.08 41.1381 179.892C41.1381 178.692 41.7861 177.9 42.6261 177.9C43.7541 177.9 44.4261 178.86 44.5461 180.672C43.9581 181.512 43.2981 181.848 42.7101 181.848ZM40.2741 185.256C40.7661 185.772 41.4381 186.156 42.3861 186.156C44.0421 186.156 45.5781 184.788 45.5781 181.224C45.5781 178.428 44.3181 177.036 42.6261 177.036C41.2581 177.036 40.1061 178.188 40.1061 179.892C40.1061 181.716 41.0661 182.664 42.5301 182.664C43.2741 182.664 44.0301 182.232 44.5581 181.572C44.4741 184.308 43.4901 185.244 42.3501 185.244C41.7861 185.244 41.2461 184.992 40.8741 184.572L40.2741 185.256ZM47.9024 181.32C48.3344 181.32 48.6944 180.972 48.6944 180.492C48.6944 179.988 48.3344 179.64 47.9024 179.64C47.4704 179.64 47.1104 179.988 47.1104 180.492C47.1104 180.972 47.4704 181.32 47.9024 181.32ZM47.9024 186.156C48.3344 186.156 48.6944 185.82 48.6944 185.328C48.6944 184.836 48.3344 184.476 47.9024 184.476C47.4704 184.476 47.1104 184.836 47.1104 185.328C47.1104 185.82 47.4704 186.156 47.9024 186.156ZM52.9102 186.156C54.5782 186.156 55.6462 184.632 55.6462 181.572C55.6462 178.524 54.5782 177.036 52.9102 177.036C51.2302 177.036 50.1622 178.512 50.1622 181.572C50.1622 184.632 51.2302 186.156 52.9102 186.156ZM52.9102 185.28C51.9022 185.28 51.2302 184.164 51.2302 181.572C51.2302 179.004 51.9022 177.924 52.9102 177.924C53.9062 177.924 54.5782 179.004 54.5782 181.572C54.5782 184.164 53.9062 185.28 52.9102 185.28ZM59.5665 186.156C61.2345 186.156 62.3025 184.632 62.3025 181.572C62.3025 178.524 61.2345 177.036 59.5665 177.036C57.8865 177.036 56.8185 178.512 56.8185 181.572C56.8185 184.632 57.8865 186.156 59.5665 186.156ZM59.5665 185.28C58.5585 185.28 57.8865 184.164 57.8865 181.572C57.8865 179.004 58.5585 177.924 59.5665 177.924C60.5625 177.924 61.2345 179.004 61.2345 181.572C61.2345 184.164 60.5625 185.28 59.5665 185.28ZM70.0823 182.556C70.6583 182.556 71.2583 182.196 71.7503 181.356L71.1263 180.912C70.8263 181.488 70.4903 181.728 70.1063 181.728C69.3503 181.728 68.7743 180.6 67.7303 180.6C67.1423 180.6 66.5423 180.96 66.0503 181.8L66.6623 182.232C66.9743 181.656 67.3103 181.416 67.6943 181.416C68.4503 181.416 69.0143 182.556 70.0823 182.556ZM75.4382 186H80.9702V185.052H78.5342C78.0902 185.052 77.5502 185.1 77.0942 185.136C79.1582 183.18 80.5382 181.392 80.5382 179.64C80.5382 178.068 79.5542 177.036 77.9822 177.036C76.8662 177.036 76.1102 177.552 75.3902 178.332L76.0262 178.956C76.5062 178.38 77.1302 177.936 77.8502 177.936C78.9422 177.936 79.4702 178.668 79.4702 179.676C79.4702 181.188 78.1982 182.94 75.4382 185.352V186ZM84.9024 186.156C86.5704 186.156 87.6384 184.632 87.6384 181.572C87.6384 178.524 86.5704 177.036 84.9024 177.036C83.2224 177.036 82.1544 178.512 82.1544 181.572C82.1544 184.632 83.2224 186.156 84.9024 186.156ZM84.9024 185.28C83.8944 185.28 83.2224 184.164 83.2224 181.572C83.2224 179.004 83.8944 177.924 84.9024 177.924C85.8984 177.924 86.5704 179.004 86.5704 181.572C86.5704 184.164 85.8984 185.28 84.9024 185.28ZM89.8907 181.32C90.3227 181.32 90.6827 180.972 90.6827 180.492C90.6827 179.988 90.3227 179.64 89.8907 179.64C89.4587 179.64 89.0987 179.988 89.0987 180.492C89.0987 180.972 89.4587 181.32 89.8907 181.32ZM89.8907 186.156C90.3227 186.156 90.6827 185.82 90.6827 185.328C90.6827 184.836 90.3227 184.476 89.8907 184.476C89.4587 184.476 89.0987 184.836 89.0987 185.328C89.0987 185.82 89.4587 186.156 89.8907 186.156ZM94.8985 186.156C96.5665 186.156 97.6345 184.632 97.6345 181.572C97.6345 178.524 96.5665 177.036 94.8985 177.036C93.2185 177.036 92.1505 178.512 92.1505 181.572C92.1505 184.632 93.2185 186.156 94.8985 186.156ZM94.8985 185.28C93.8905 185.28 93.2185 184.164 93.2185 181.572C93.2185 179.004 93.8905 177.924 94.8985 177.924C95.8945 177.924 96.5665 179.004 96.5665 181.572C96.5665 184.164 95.8945 185.28 94.8985 185.28ZM101.555 186.156C103.223 186.156 104.291 184.632 104.291 181.572C104.291 178.524 103.223 177.036 101.555 177.036C99.8748 177.036 98.8068 178.512 98.8068 181.572C98.8068 184.632 99.8748 186.156 101.555 186.156ZM101.555 185.28C100.547 185.28 99.8748 184.164 99.8748 181.572C99.8748 179.004 100.547 177.924 101.555 177.924C102.551 177.924 103.223 179.004 103.223 181.572C103.223 184.164 102.551 185.28 101.555 185.28Z" fill="#787878"/>
<rect x="241.5" y="80.5" width="199" height="69" fill="#F8F9FF" stroke="#243366"/>
<path d="M293.072 110.016H288V108.64H286.688V110.016H281.52V111.04H293.072V110.016ZM283.728 119.904H290.96V122H283.728V119.904ZM282.448 122.992H292.24V118.912H282.448V122.992ZM284.08 113.632C284.08 112.928 285.248 112.528 287.344 112.528C289.408 112.528 290.576 112.928 290.576 113.632C290.576 114.352 289.408 114.752 287.344 114.752C285.248 114.752 284.08 114.352 284.08 113.632ZM288 116.752V115.664C290.528 115.568 291.968 114.864 291.968 113.632C291.968 112.304 290.288 111.6 287.344 111.6C284.368 111.6 282.704 112.304 282.704 113.632C282.704 114.864 284.128 115.568 286.688 115.664V116.752H280.848V117.792H293.808V116.752H288ZM298.079 111.712H299.871V118.448C299.263 118.48 298.671 118.496 298.079 118.512V111.712ZM301.071 111.712H302.255V110.656H295.695V111.712H296.879V118.544C296.335 118.56 295.855 118.56 295.423 118.56L295.551 119.648C297.423 119.648 300.431 119.584 302.655 119.168L302.575 118.208C302.111 118.272 301.583 118.32 301.071 118.368V111.712ZM303.791 114.304H301.839V115.456H303.791V122.432H305.023V109.184H303.791V114.304ZM306.559 108.848V123.184H307.823V108.848H306.559ZM320.718 108.832V123.216H322.03V108.832H320.718ZM314.462 109.936C312.334 109.936 310.814 111.888 310.814 114.944C310.814 118 312.334 119.952 314.462 119.952C316.59 119.952 318.11 118 318.11 114.944C318.11 111.888 316.59 109.936 314.462 109.936ZM314.462 111.12C315.854 111.12 316.846 112.624 316.846 114.944C316.846 117.28 315.854 118.784 314.462 118.784C313.054 118.784 312.062 117.28 312.062 114.944C312.062 112.624 313.054 111.12 314.462 111.12ZM330.124 111.392H333.5V110.304H325.484V111.392H328.812V113.216C328.812 115.696 327.068 118.4 325.004 119.376L325.772 120.432C327.404 119.6 328.812 117.792 329.468 115.696C330.156 117.664 331.564 119.312 333.228 120.08L333.964 119.024C331.852 118.128 330.124 115.648 330.124 113.216V111.392ZM335.436 108.848V123.184H336.748V108.848H335.436ZM345.109 111.648H349.157V110.576H343.813V119.648H344.757C346.901 119.648 348.357 119.584 350.069 119.216L349.957 118.128C348.389 118.464 347.029 118.544 345.109 118.56V111.648ZM354.229 108.832V114.592H352.197V109.152H350.965V122.464H352.197V115.664H354.229V123.184H355.493V108.832H354.229ZM365.556 114.96C365.924 113.072 365.924 111.648 365.924 110.704V109.952H358.788V111.024H364.644C364.644 111.936 364.596 113.168 364.26 114.816L365.556 114.96ZM366.916 115.824C365.46 116.032 363.828 116.144 362.26 116.208V113.152H360.964V116.256C359.876 116.272 358.836 116.288 357.924 116.288L358.052 117.36C360.596 117.36 364.036 117.28 367.012 116.784L366.916 115.824ZM361.428 118.656H360.116V122.864H369.652V121.792H361.428V118.656ZM369.188 113.504V108.832H367.876V119.648H369.188V114.592H371.252V113.504H369.188ZM384.515 108.832H383.203V119.36H384.515V108.832ZM381.379 115.984C379.251 115.2 377.795 113.248 377.795 111.088V109.632H376.483V111.088C376.483 113.328 375.043 115.408 372.883 116.24L373.571 117.312C375.251 116.608 376.547 115.216 377.155 113.472C377.795 115.104 379.059 116.4 380.691 117.024L381.379 115.984ZM376.595 121.792V118.384H375.283V122.864H384.947V121.792H376.595ZM395.089 112.912V114H397.953V117.536H399.281V108.832H397.953V112.912H395.089ZM395.953 115.92C393.841 115.28 392.353 113.68 392.353 111.888V111.616H395.521V110.56H392.353V108.768H391.041V110.56H387.857V111.616H391.041V111.888C391.041 113.824 389.601 115.568 387.489 116.288L388.129 117.296C389.825 116.736 391.121 115.52 391.729 113.952C392.385 115.344 393.697 116.416 395.345 116.928L395.953 115.92ZM394.529 122.144C392.369 122.144 391.073 121.536 391.073 120.528C391.073 119.536 392.369 118.928 394.529 118.928C396.721 118.928 398.017 119.536 398.017 120.528C398.017 121.536 396.721 122.144 394.529 122.144ZM394.529 117.904C391.585 117.904 389.761 118.864 389.761 120.528C389.761 122.208 391.585 123.168 394.529 123.168C397.505 123.168 399.329 122.208 399.329 120.528C399.329 118.864 397.505 117.904 394.529 117.904Z" fill="#243366"/>
<rect x="482.5" y="80.5" width="199" height="69" fill="#F8F9FF" stroke="#243366"/>
<path d="M531.656 111.648H535.704V110.576H530.36V119.648H531.304C533.448 119.648 534.904 119.584 536.616 119.216L536.504 118.128C534.936 118.464 533.576 118.544 531.656 118.56V111.648ZM540.776 108.832V114.592H538.744V109.152H537.512V122.464H538.744V115.664H540.776V123.184H542.04V108.832H540.776ZM552.103 114.96C552.471 113.072 552.471 111.648 552.471 110.704V109.952H545.335V111.024H551.191C551.191 111.936 551.143 113.168 550.807 114.816L552.103 114.96ZM553.463 115.824C552.007 116.032 550.375 116.144 548.807 116.208V113.152H547.511V116.256C546.423 116.272 545.383 116.288 544.471 116.288L544.599 117.36C547.143 117.36 550.583 117.28 553.559 116.784L553.463 115.824ZM547.975 118.656H546.663V122.864H556.199V121.792H547.975V118.656ZM555.735 113.504V108.832H554.423V119.648H555.735V114.592H557.799V113.504H555.735ZM571.062 108.832H569.75V119.36H571.062V108.832ZM567.926 115.984C565.798 115.2 564.342 113.248 564.342 111.088V109.632H563.03V111.088C563.03 113.328 561.59 115.408 559.43 116.24L560.118 117.312C561.798 116.608 563.094 115.216 563.702 113.472C564.342 115.104 565.606 116.4 567.238 117.024L567.926 115.984ZM563.141 121.792V118.384H561.83V122.864H571.494V121.792H563.141ZM581.636 112.912V114H584.5V117.536H585.828V108.832H584.5V112.912H581.636ZM582.5 115.92C580.388 115.28 578.9 113.68 578.9 111.888V111.616H582.068V110.56H578.9V108.768H577.588V110.56H574.404V111.616H577.588V111.888C577.588 113.824 576.148 115.568 574.036 116.288L574.676 117.296C576.372 116.736 577.668 115.52 578.276 113.952C578.932 115.344 580.244 116.416 581.892 116.928L582.5 115.92ZM581.076 122.144C578.916 122.144 577.62 121.536 577.62 120.528C577.62 119.536 578.916 118.928 581.076 118.928C583.268 118.928 584.564 119.536 584.564 120.528C584.564 121.536 583.268 122.144 581.076 122.144ZM581.076 117.904C578.132 117.904 576.308 118.864 576.308 120.528C576.308 122.208 578.132 123.168 581.076 123.168C584.052 123.168 585.876 122.208 585.876 120.528C585.876 118.864 584.052 117.904 581.076 117.904ZM593.747 110.064H592.435V112.64C592.435 115.296 590.803 118.064 588.723 119.104L589.523 120.144C591.139 119.28 592.467 117.472 593.091 115.344C593.747 117.36 595.059 119.072 596.691 119.888L597.459 118.848C595.379 117.856 593.747 115.248 593.747 112.64V110.064ZM599.235 108.832V113.696H595.907V114.768H599.235V123.2H600.547V108.832H599.235ZM611.228 111.584H613.788V110.512H607.244V111.584H609.964V112.88C609.964 115.52 608.844 118.128 606.844 119.328L607.644 120.304C609.068 119.408 610.108 117.728 610.604 115.76C611.1 117.584 612.092 119.12 613.484 119.952L614.284 118.992C612.3 117.872 611.228 115.376 611.228 112.88V111.584ZM615.068 113.984H612.7V115.056H615.068V122.432H616.316V109.152H615.068V113.984ZM617.948 108.816V123.168H619.212V108.816H617.948ZM622.811 114.56C625.227 114.368 627.355 113.632 628.235 112.304C629.115 113.632 631.227 114.368 633.627 114.56L634.027 113.568C631.355 113.392 629.195 112.512 628.971 111.088H633.387V110.096H628.891V108.736H627.579V110.096H623.067V111.088H627.499C627.275 112.512 625.083 113.392 622.427 113.568L622.811 114.56ZM634.699 116.208V115.2H621.755V116.208H627.563V117.536H623.291V118.512H631.755V119.728H623.339V123.024H633.483V122.032H624.619V120.672H633.051V117.536H628.891V116.208H634.699Z" fill="#243366"/>
<path d="M487.992 160.236H491.028V159.432H487.02V166.236H487.728C489.336 166.236 490.428 166.188 491.712 165.912L491.628 165.096C490.452 165.348 489.432 165.408 487.992 165.42V160.236ZM494.832 158.124V162.444H493.308V158.364H492.384V168.348H493.308V163.248H494.832V168.888H495.78V158.124H494.832ZM503.327 162.72C503.603 161.304 503.603 160.236 503.603 159.528V158.964H498.251V159.768H502.643C502.643 160.452 502.607 161.376 502.355 162.612L503.327 162.72ZM504.347 163.368C503.255 163.524 502.031 163.608 500.855 163.656V161.364H499.883V163.692C499.067 163.704 498.287 163.716 497.603 163.716L497.699 164.52C499.607 164.52 502.187 164.46 504.419 164.088L504.347 163.368ZM500.231 165.492H499.247V168.648H506.399V167.844H500.231V165.492ZM506.051 161.628V158.124H505.067V166.236H506.051V162.444H507.599V161.628H506.051ZM517.546 158.124H516.562V166.02H517.546V158.124ZM515.194 163.488C513.598 162.9 512.506 161.436 512.506 159.816V158.724H511.522V159.816C511.522 161.496 510.442 163.056 508.822 163.68L509.338 164.484C510.598 163.956 511.57 162.912 512.026 161.604C512.506 162.828 513.454 163.8 514.678 164.268L515.194 163.488ZM511.606 167.844V165.288H510.622V168.648H517.87V167.844H511.606ZM525.477 161.184V162H527.625V164.652H528.621V158.124H527.625V161.184H525.477ZM526.125 163.44C524.541 162.96 523.425 161.76 523.425 160.416V160.212H525.801V159.42H523.425V158.076H522.441V159.42H520.053V160.212H522.441V160.416C522.441 161.868 521.361 163.176 519.777 163.716L520.257 164.472C521.529 164.052 522.501 163.14 522.957 161.964C523.449 163.008 524.433 163.812 525.669 164.196L526.125 163.44ZM525.057 168.108C523.437 168.108 522.465 167.652 522.465 166.896C522.465 166.152 523.437 165.696 525.057 165.696C526.701 165.696 527.673 166.152 527.673 166.896C527.673 167.652 526.701 168.108 525.057 168.108ZM525.057 164.928C522.849 164.928 521.481 165.648 521.481 166.896C521.481 168.156 522.849 168.876 525.057 168.876C527.289 168.876 528.657 168.156 528.657 166.896C528.657 165.648 527.289 164.928 525.057 164.928ZM534.56 159.048H533.576V160.98C533.576 162.972 532.352 165.048 530.792 165.828L531.392 166.608C532.604 165.96 533.6 164.604 534.068 163.008C534.56 164.52 535.544 165.804 536.768 166.416L537.344 165.636C535.784 164.892 534.56 162.936 534.56 160.98V159.048ZM538.676 158.124V161.772H536.18V162.576H538.676V168.9H539.66V158.124H538.676ZM549.367 160.008H543.079V162.312H550.531V161.604H544.051V160.68H550.339V158.436H543.055V159.132H549.367V160.008ZM543.991 167.04H550.375V164.748H542.995V165.456H549.403V166.356H543.019V168.744H550.711V168.036H543.991V167.04ZM541.831 163.128V163.872H551.587V163.128H541.831ZM556.994 159.972H561.014V159.156H556.01V166.224H556.862C558.89 166.224 560.306 166.152 561.95 165.84L561.842 165.024C560.282 165.3 558.902 165.384 556.994 165.384V159.972ZM565.61 162.372H563.834V158.124H562.85V168.912H563.834V163.188H565.61V162.372ZM571.453 159.192C573.109 159.192 574.189 159.708 574.189 160.56C574.189 161.4 573.109 161.916 571.453 161.916C569.809 161.916 568.717 161.4 568.717 160.56C568.717 159.708 569.809 159.192 571.453 159.192ZM571.453 162.72C573.733 162.72 575.221 161.892 575.221 160.56C575.221 159.228 573.733 158.4 571.453 158.4C569.173 158.4 567.685 159.228 567.685 160.56C567.685 161.892 569.173 162.72 571.453 162.72ZM568.813 165.504H567.829V168.648H575.269V167.832H568.813V165.504ZM566.581 163.584V164.388H571.045V166.56H572.041V164.388H576.337V163.584H566.581ZM582.096 162.948H579.048V161.148H582.096V162.948ZM583.056 158.724H582.096V160.368H579.048V158.724H578.076V163.74H583.056V158.724ZM580.248 165.804H586.08V165.012H579.264V168.732H586.272V167.94H580.248V165.804ZM585.984 160.716V158.136H585V164.424H585.984V161.532H587.58V160.716H585.984ZM591.539 165.588C590.495 165.588 589.763 164.46 589.763 162.708C589.763 160.968 590.495 159.84 591.539 159.84C592.571 159.84 593.303 160.968 593.303 162.708C593.303 164.46 592.571 165.588 591.539 165.588ZM591.539 158.952C589.955 158.952 588.827 160.416 588.827 162.708C588.827 165 589.955 166.464 591.539 166.464C593.123 166.464 594.239 165 594.239 162.708C594.239 160.416 593.123 158.952 591.539 158.952ZM598.727 162.42H596.951V158.136H595.967V168.888H596.951V163.248H598.727V162.42ZM603.478 159.048H602.494V160.98C602.494 162.972 601.27 165.048 599.71 165.828L600.31 166.608C601.522 165.96 602.518 164.604 602.986 163.008C603.478 164.52 604.462 165.804 605.686 166.416L606.262 165.636C604.702 164.892 603.478 162.936 603.478 160.98V159.048ZM607.594 158.124V161.772H605.098V162.576H607.594V168.9H608.578V158.124H607.594ZM490.248 177.06H489.276V178.992C489.276 180.948 488.052 183.012 486.504 183.804L487.092 184.596C488.304 183.948 489.3 182.604 489.768 181.032C490.26 182.508 491.232 183.768 492.372 184.38L492.984 183.6C491.472 182.844 490.248 180.888 490.248 178.992V177.06ZM496.692 180.492H494.916V176.136H493.932V186.888H494.916V181.308H496.692V180.492ZM505.559 185.952H500.627V184.56H505.559V185.952ZM505.559 183.792H500.627V182.436H499.655V186.744H506.543V182.436H505.559V183.792ZM500.615 180.792C499.547 180.792 498.779 180.096 498.779 179.112C498.779 178.128 499.547 177.444 500.615 177.444C501.683 177.444 502.451 178.128 502.451 179.112C502.451 180.096 501.683 180.792 500.615 180.792ZM505.547 176.136V178.692H503.351C503.147 177.444 502.067 176.628 500.615 176.628C499.007 176.628 497.843 177.636 497.843 179.112C497.843 180.6 499.007 181.608 500.615 181.608C502.091 181.608 503.171 180.768 503.363 179.496H505.547V181.908H506.543V176.136H505.547ZM514.954 181.332C513.37 180.804 512.35 179.544 512.35 178.14V177.72H514.726V176.928H508.954V177.72H511.366V178.14C511.366 179.688 510.286 181.08 508.666 181.644L509.17 182.424C510.454 181.968 511.426 181.008 511.882 179.784C512.338 180.852 513.262 181.704 514.486 182.1L514.954 181.332ZM513.646 186.096C512.038 186.096 511.078 185.652 511.078 184.884C511.078 184.128 512.038 183.684 513.646 183.684C515.23 183.684 516.202 184.128 516.202 184.884C516.202 185.652 515.23 186.096 513.646 186.096ZM513.646 182.904C511.438 182.904 510.094 183.636 510.094 184.884C510.094 186.144 511.438 186.876 513.646 186.876C515.83 186.876 517.186 186.144 517.186 184.884C517.186 183.636 515.83 182.904 513.646 182.904ZM517.066 178.848V176.136H516.082V182.628H517.066V179.676H518.662V178.848H517.066ZM530.261 176.124V186.912H531.245V176.124H530.261ZM525.569 176.952C523.973 176.952 522.833 178.416 522.833 180.708C522.833 183 523.973 184.464 525.569 184.464C527.165 184.464 528.305 183 528.305 180.708C528.305 178.416 527.165 176.952 525.569 176.952ZM525.569 177.84C526.613 177.84 527.357 178.968 527.357 180.708C527.357 182.46 526.613 183.588 525.569 183.588C524.513 183.588 523.769 182.46 523.769 180.708C523.769 178.968 524.513 177.84 525.569 177.84ZM537.04 183.216H534.784V178.152H537.04V183.216ZM539.548 180.18H537.952V177.372H533.86V183.996H537.952V180.996H539.548V186.348H540.484V176.364H539.548V180.18ZM541.684 176.124V186.876H542.62V176.124H541.684ZM553.347 176.124H552.363V181.644H553.347V176.124ZM545.715 178.908C545.715 177.972 546.495 177.312 547.539 177.312C548.595 177.312 549.363 177.972 549.363 178.908C549.363 179.832 548.595 180.492 547.539 180.492C546.495 180.492 545.715 179.832 545.715 178.908ZM550.323 178.908C550.323 177.48 549.147 176.508 547.539 176.508C545.931 176.508 544.767 177.48 544.767 178.908C544.767 180.324 545.931 181.284 547.539 181.284C549.147 181.284 550.323 180.324 550.323 178.908ZM547.371 185.964V184.776H553.347V182.172H546.375V182.952H552.375V184.044H546.399V186.744H553.707V185.964H547.371ZM560.918 184.752V182.724H564.362V181.932H557.738V180.192H564.11V176.916H556.742V177.72H563.15V179.4H556.766V182.724H559.922V184.752H555.542V185.556H565.322V184.752H560.918ZM572.433 178.188H574.353V177.384H569.445V178.188H571.485V179.16C571.485 181.14 570.645 183.096 569.145 183.996L569.745 184.728C570.813 184.056 571.593 182.796 571.965 181.32C572.337 182.688 573.081 183.84 574.125 184.464L574.725 183.744C573.237 182.904 572.433 181.032 572.433 179.16V178.188ZM575.313 179.988H573.537V180.792H575.313V186.324H576.249V176.364H575.313V179.988ZM577.473 176.112V186.876H578.421V176.112H577.473ZM581.12 180.42C582.932 180.276 584.528 179.724 585.188 178.728C585.848 179.724 587.432 180.276 589.232 180.42L589.532 179.676C587.528 179.544 585.908 178.884 585.74 177.816H589.052V177.072H585.68V176.052H584.696V177.072H581.312V177.816H584.636C584.468 178.884 582.824 179.544 580.832 179.676L581.12 180.42ZM590.036 181.656V180.9H580.328V181.656H584.684V182.652H581.48V183.384H587.828V184.296H581.516V186.768H589.124V186.024H582.476V185.004H588.8V182.652H585.68V181.656H590.036ZM594.019 183.576C593.179 183.576 592.591 182.892 592.591 181.932C592.591 180.996 593.179 180.312 594.019 180.312C594.847 180.312 595.447 180.996 595.447 181.932C595.447 182.892 594.847 183.576 594.019 183.576ZM594.019 179.484C592.687 179.484 591.715 180.492 591.715 181.932C591.715 183.396 592.687 184.392 594.019 184.392C595.351 184.392 596.323 183.396 596.323 181.932C596.323 180.492 595.351 179.484 594.019 179.484ZM594.499 176.436H593.527V177.96H591.343V178.764H596.683V177.96H594.499V176.436ZM599.527 176.112V180.66H598.147V176.364H597.223V186.36H598.147V181.464H599.527V186.876H600.475V176.112H599.527ZM603.354 181.356C605.022 181.068 606.606 180.168 607.266 178.896C607.914 180.168 609.51 181.068 611.178 181.356L611.562 180.576C609.666 180.3 607.806 179.064 607.806 177.648V177.588H611.178V176.796H603.318V177.588H606.714V177.648C606.714 179.064 604.854 180.3 602.982 180.576L603.354 181.356ZM612.126 182.256H602.406V183.06H606.75V186.888H607.734V183.06H612.138L612.126 182.256ZM616.625 177.144H615.677V179.196C615.677 181.044 614.789 182.976 613.313 183.84L613.925 184.584C614.993 183.924 615.773 182.7 616.157 181.272C616.541 182.58 617.261 183.72 618.281 184.344L618.845 183.576C617.429 182.712 616.625 180.888 616.625 179.16V177.144ZM619.457 179.988H617.681V180.804H619.457V186.36H620.381V176.364H619.457V179.988ZM621.641 176.124V186.888H622.577V176.124H621.641ZM627.844 182.16C628.288 182.268 628.804 182.328 629.332 182.328C629.872 182.328 630.388 182.268 630.844 182.16V184.692H627.844V182.16ZM629.332 177.576C631.06 177.576 632.308 178.368 632.308 179.568C632.308 180.768 631.06 181.56 629.332 181.56C627.604 181.56 626.368 180.768 626.368 179.568C626.368 178.368 627.604 177.576 629.332 177.576ZM631.828 184.692V181.776C632.716 181.308 633.244 180.54 633.244 179.568C633.244 177.888 631.624 176.808 629.332 176.808C627.052 176.808 625.42 177.888 625.42 179.568C625.42 180.54 625.96 181.32 626.86 181.788V184.692H624.46V185.508H634.24V184.692H631.828ZM636.543 186.156C636.975 186.156 637.335 185.82 637.335 185.328C637.335 184.836 636.975 184.476 636.543 184.476C636.111 184.476 635.751 184.836 635.751 185.328C635.751 185.82 636.111 186.156 636.543 186.156Z" fill="#787878"/>
<rect x="723.5" y="80.5" width="199" height="69" fill="#F8F9FF" stroke="#243366"/>
<path d="M789.664 110.08H788.368V112.656C788.368 115.264 786.736 118.016 784.672 119.072L785.456 120.128C787.072 119.264 788.4 117.472 789.024 115.376C789.68 117.344 790.976 119.024 792.496 119.84L793.312 118.8C791.296 117.792 789.664 115.184 789.664 112.656V110.08ZM798.256 114.656H795.888V108.848H794.576V123.184H795.888V115.744H798.256V114.656ZM806.047 122.16C803.791 122.16 802.463 121.6 802.463 120.624C802.463 119.648 803.791 119.088 806.047 119.088C808.287 119.088 809.631 119.648 809.631 120.624C809.631 121.6 808.287 122.16 806.047 122.16ZM806.047 118.064C802.975 118.064 801.135 118.976 801.135 120.624C801.135 122.272 802.975 123.168 806.047 123.168C809.135 123.168 810.959 122.272 810.959 120.624C810.959 118.976 809.135 118.064 806.047 118.064ZM804.063 114.256C804.655 114.352 805.327 114.416 806.047 114.416C806.783 114.416 807.455 114.352 808.047 114.256V115.936H804.063V114.256ZM802.351 111.76C802.351 110.72 803.759 110.112 806.047 110.112C808.335 110.112 809.743 110.72 809.743 111.76C809.743 112.784 808.335 113.408 806.047 113.408C803.759 113.408 802.351 112.784 802.351 111.76ZM809.343 115.936V113.904C810.447 113.456 811.087 112.72 811.087 111.76C811.087 110.08 809.167 109.088 806.047 109.088C802.943 109.088 801.007 110.08 801.007 111.76C801.007 112.736 801.631 113.456 802.767 113.92V115.936H799.551V116.992H812.543V115.936H809.343ZM819.214 117.616H822.494V120.336H819.214V117.616ZM823.79 120.336V117.616H826.03V116.544H817.198V114.24H825.694V109.888H815.87V110.96H824.414V113.184H815.902V117.616H817.918V120.336H814.27V121.408H827.31V120.336H823.79ZM840.95 113.92C838.662 114.368 836.614 114.512 834.582 114.528V109.504H833.286V115.632H834.406C836.55 115.632 838.694 115.472 841.11 114.992L840.95 113.92ZM842.422 121.936H835.958V120.032H842.422V121.936ZM842.422 118.976H835.958V117.072H834.662V122.992H843.718V117.072H842.422V118.976ZM845.862 112.048H843.734V108.848H842.406V116.304H843.734V113.136H845.862V112.048ZM857.349 114.544H850.229V112.432H857.349V114.544ZM858.661 109.408H857.349V111.376H850.229V109.408H848.933V115.616H858.661V109.408ZM860.309 117.344H847.285V118.4H853.109V123.2H854.421V118.4H860.309V117.344Z" fill="#243366"/>
<rect x="959.5" y="80.5" width="199" height="69" fill="#F8F9FF" stroke="#243366"/>
<path d="M1015.66 111.648H1019.7V110.576H1014.36V119.648H1015.3C1017.45 119.648 1018.9 119.584 1020.62 119.216L1020.5 118.128C1018.94 118.464 1017.58 118.544 1015.66 118.56V111.648ZM1024.78 108.832V114.592H1022.74V109.152H1021.51V122.464H1022.74V115.664H1024.78V123.184H1026.04V108.832H1024.78ZM1036.1 114.96C1036.47 113.072 1036.47 111.648 1036.47 110.704V109.952H1029.33V111.024H1035.19C1035.19 111.936 1035.14 113.168 1034.81 114.816L1036.1 114.96ZM1037.46 115.824C1036.01 116.032 1034.37 116.144 1032.81 116.208V113.152H1031.51V116.256C1030.42 116.272 1029.38 116.288 1028.47 116.288L1028.6 117.36C1031.14 117.36 1034.58 117.28 1037.56 116.784L1037.46 115.824ZM1031.97 118.656H1030.66V122.864H1040.2V121.792H1031.97V118.656ZM1039.73 113.504V108.832H1038.42V119.648H1039.73V114.592H1041.8V113.504H1039.73ZM1048.37 110.08H1047.08V112.656C1047.08 115.376 1045.33 118.128 1043.22 119.136L1044.02 120.208C1045.7 119.344 1047.08 117.552 1047.73 115.392C1048.42 117.44 1049.8 119.136 1051.43 119.936L1052.21 118.88C1050.09 117.92 1048.37 115.28 1048.37 112.656V110.08ZM1053.72 108.832V123.216H1055.03V108.832H1053.72ZM1068.5 116.256H1069.83V108.848H1068.5V111.44H1065.38V112.512H1068.5V116.256ZM1066.39 114.928C1064.32 114.24 1062.87 112.496 1062.87 110.624V109.296H1061.57V110.624C1061.57 112.704 1060.15 114.512 1057.99 115.248L1058.68 116.288C1060.36 115.664 1061.65 114.416 1062.26 112.8C1062.88 114.256 1064.13 115.392 1065.72 115.952L1066.39 114.928ZM1061.91 121.952V120.416H1069.83V116.976H1060.58V118.016H1068.53V119.424H1060.61V122.992H1070.37V121.952H1061.91ZM1086.73 108.832V123.216H1088.05V108.832H1086.73ZM1080.48 109.936C1078.35 109.936 1076.83 111.888 1076.83 114.944C1076.83 118 1078.35 119.952 1080.48 119.952C1082.61 119.952 1084.13 118 1084.13 114.944C1084.13 111.888 1082.61 109.936 1080.48 109.936ZM1080.48 111.12C1081.87 111.12 1082.86 112.624 1082.86 114.944C1082.86 117.28 1081.87 118.784 1080.48 118.784C1079.07 118.784 1078.08 117.28 1078.08 114.944C1078.08 112.624 1079.07 111.12 1080.48 111.12ZM1097.5 122.16C1095.24 122.16 1093.92 121.6 1093.92 120.624C1093.92 119.648 1095.24 119.088 1097.5 119.088C1099.74 119.088 1101.08 119.648 1101.08 120.624C1101.08 121.6 1099.74 122.16 1097.5 122.16ZM1097.5 118.064C1094.43 118.064 1092.59 118.976 1092.59 120.624C1092.59 122.272 1094.43 123.168 1097.5 123.168C1100.59 123.168 1102.41 122.272 1102.41 120.624C1102.41 118.976 1100.59 118.064 1097.5 118.064ZM1095.52 114.256C1096.11 114.352 1096.78 114.416 1097.5 114.416C1098.24 114.416 1098.91 114.352 1099.5 114.256V115.936H1095.52V114.256ZM1093.8 111.76C1093.8 110.72 1095.21 110.112 1097.5 110.112C1099.79 110.112 1101.2 110.72 1101.2 111.76C1101.2 112.784 1099.79 113.408 1097.5 113.408C1095.21 113.408 1093.8 112.784 1093.8 111.76ZM1100.8 115.936V113.904C1101.9 113.456 1102.54 112.72 1102.54 111.76C1102.54 110.08 1100.62 109.088 1097.5 109.088C1094.4 109.088 1092.46 110.08 1092.46 111.76C1092.46 112.736 1093.08 113.456 1094.22 113.92V115.936H1091V116.992H1104V115.936H1100.8Z" fill="#243366"/>
<path d="M218 109L216.59 110.41L221.17 115L216.59 119.59L218 121L224 115L218 109Z" fill="#8FB6FF"/>
<path d="M460 109L458.59 110.41L463.17 115L458.59 119.59L460 121L466 115L460 109Z" fill="#8FB6FF"/>
<path d="M701 109L699.59 110.41L704.17 115L699.59 119.59L701 121L707 115L701 109Z" fill="#8FB6FF"/>
<path d="M941 109L939.59 110.41L944.17 115L939.59 119.59L941 121L947 115L941 109Z" fill="#8FB6FF"/>
<path d="M8.05 216.69C8.05 216.116 7.574 215.64 7 215.64C6.426 215.64 5.95 216.116 5.95 216.69C5.95 217.264 6.426 217.74 7 217.74C7.574 217.74 8.05 217.264 8.05 216.69ZM2.38 215.654L1.974 216.06L6.594 220.68L1.96 225.314L2.366 225.72L7 221.086L11.62 225.706L12.026 225.3L7.406 220.68L12.026 216.06L11.62 215.654L7 220.274L2.38 215.654ZM3.01 219.63C2.436 219.63 1.96 220.106 1.96 220.68C1.96 221.254 2.436 221.73 3.01 221.73C3.584 221.73 4.06 221.254 4.06 220.68C4.06 220.106 3.584 219.63 3.01 219.63ZM10.99 221.73C11.564 221.73 12.04 221.254 12.04 220.68C12.04 220.106 11.564 219.63 10.99 219.63C10.416 219.63 9.94 220.106 9.94 220.68C9.94 221.254 10.416 221.73 10.99 221.73ZM5.95 224.67C5.95 225.244 6.426 225.72 7 225.72C7.574 225.72 8.05 225.244 8.05 224.67C8.05 224.096 7.574 223.62 7 223.62C6.426 223.62 5.95 224.096 5.95 224.67ZM19.4549 216.942H22.9969V216.004H18.3209V223.942H19.1469C21.0229 223.942 22.2969 223.886 23.7949 223.564L23.6969 222.612C22.3249 222.906 21.1349 222.976 19.4549 222.99V216.942ZM27.4349 214.478V219.518H25.6569V214.758H24.5789V226.406H25.6569V220.456H27.4349V227.036H28.5409V214.478H27.4349ZM37.3458 219.84C37.6678 218.188 37.6678 216.942 37.6678 216.116V215.458H31.4238V216.396H36.5478C36.5478 217.194 36.5058 218.272 36.2118 219.714L37.3458 219.84ZM38.5358 220.596C37.2618 220.778 35.8338 220.876 34.4618 220.932V218.258H33.3278V220.974C32.3758 220.988 31.4658 221.002 30.6678 221.002L30.7798 221.94C33.0058 221.94 36.0158 221.87 38.6198 221.436L38.5358 220.596ZM33.7338 223.074H32.5858V226.756H40.9298V225.818H33.7338V223.074ZM40.5238 218.566V214.478H39.3758V223.942H40.5238V219.518H42.3298V218.566H40.5238ZM50.3367 217.292V218.216H52.8147V220.974H53.9627V214.492H52.8147V217.292H50.3367ZM50.9947 219.924C49.2027 219.35 47.9707 217.908 47.9707 216.396V216.06H50.7427V215.136H44.0227V216.06H46.8087V216.396C46.8087 218.02 45.5067 219.588 43.6727 220.218L44.2467 221.114C45.7167 220.61 46.8647 219.504 47.3967 218.16C47.9427 219.392 49.0347 220.372 50.4487 220.82L50.9947 219.924ZM47.0327 225.986V224.614H53.9627V221.604H45.8707V222.5H52.8287V223.746H45.8987V226.896H54.4387V225.986H47.0327ZM60.7096 217.572H63.4956V216.648H60.7096V214.702H59.5616V216.648H56.7336V217.572H59.5756V218.552C59.5756 220.722 58.2316 222.85 56.3976 223.746L57.0416 224.614C58.4696 223.914 59.6176 222.458 60.1496 220.736C60.6816 222.346 61.7456 223.718 63.1176 224.39L63.7616 223.494C61.9556 222.626 60.7096 220.568 60.7096 218.552V217.572ZM68.2416 219.644H66.1696V214.478H65.0216V227.036H66.1696V220.596H68.2416V219.644ZM79.4545 218.258H72.0625V214.94H70.9145V219.196H79.4545V218.258ZM71.9785 223.06H70.8305V226.728H79.5245V225.79H71.9785V223.06ZM69.3745 220.876V221.8H80.7565V220.876H69.3745ZM86.9803 216.942H90.5223V216.004H85.8463V223.942H86.6723C88.5483 223.942 89.8223 223.886 91.3203 223.564L91.2223 222.612C89.8503 222.906 88.6603 222.976 86.9803 222.99V216.942ZM94.9603 214.478V219.518H93.1823V214.758H92.1043V226.406H93.1823V220.456H94.9603V227.036H96.0663V214.478H94.9603ZM104.871 219.84C105.193 218.188 105.193 216.942 105.193 216.116V215.458H98.9492V216.396H104.073C104.073 217.194 104.031 218.272 103.737 219.714L104.871 219.84ZM106.061 220.596C104.787 220.778 103.359 220.876 101.987 220.932V218.258H100.853V220.974C99.9012 220.988 98.9912 221.002 98.1932 221.002L98.3052 221.94C100.531 221.94 103.541 221.87 106.145 221.436L106.061 220.596ZM101.259 223.074H100.111V226.756H108.455V225.818H101.259V223.074ZM108.049 218.566V214.478H106.901V223.942H108.049V219.518H109.855V218.566H108.049ZM121.46 214.478H120.312V223.69H121.46V214.478ZM118.716 220.736C116.854 220.05 115.58 218.342 115.58 216.452V215.178H114.432V216.452C114.432 218.412 113.172 220.232 111.282 220.96L111.884 221.898C113.354 221.282 114.488 220.064 115.02 218.538C115.58 219.966 116.686 221.1 118.114 221.646L118.716 220.736ZM114.53 225.818V222.836H113.382V226.756H121.838V225.818H114.53ZM130.713 218.048V219H133.219V222.094H134.381V214.478H133.219V218.048H130.713ZM131.469 220.68C129.621 220.12 128.319 218.72 128.319 217.152V216.914H131.091V215.99H128.319V214.422H127.171V215.99H124.385V216.914H127.171V217.152C127.171 218.846 125.911 220.372 124.063 221.002L124.623 221.884C126.107 221.394 127.241 220.33 127.773 218.958C128.347 220.176 129.495 221.114 130.937 221.562L131.469 220.68ZM130.223 226.126C128.333 226.126 127.199 225.594 127.199 224.712C127.199 223.844 128.333 223.312 130.223 223.312C132.141 223.312 133.275 223.844 133.275 224.712C133.275 225.594 132.141 226.126 130.223 226.126ZM130.223 222.416C127.647 222.416 126.051 223.256 126.051 224.712C126.051 226.182 127.647 227.022 130.223 227.022C132.827 227.022 134.423 226.182 134.423 224.712C134.423 223.256 132.827 222.416 130.223 222.416ZM141.31 215.556H140.162V217.81C140.162 220.134 138.734 222.556 136.914 223.466L137.614 224.376C139.028 223.62 140.19 222.038 140.736 220.176C141.31 221.94 142.458 223.438 143.886 224.152L144.558 223.242C142.738 222.374 141.31 220.092 141.31 217.81V215.556ZM146.112 214.478V218.734H143.2V219.672H146.112V227.05H147.26V214.478H146.112ZM156.606 216.886H158.846V215.948H153.12V216.886H155.5V218.02C155.5 220.33 154.52 222.612 152.77 223.662L153.47 224.516C154.716 223.732 155.626 222.262 156.06 220.54C156.494 222.136 157.362 223.48 158.58 224.208L159.28 223.368C157.544 222.388 156.606 220.204 156.606 218.02V216.886ZM159.966 218.986H157.894V219.924H159.966V226.378H161.058V214.758H159.966V218.986ZM162.486 214.464V227.022H163.592V214.464H162.486ZM166.741 219.49C168.855 219.322 170.717 218.678 171.487 217.516C172.257 218.678 174.105 219.322 176.205 219.49L176.555 218.622C174.217 218.468 172.327 217.698 172.131 216.452H175.995V215.584H172.061V214.394H170.913V215.584H166.965V216.452H170.843C170.647 217.698 168.729 218.468 166.405 218.622L166.741 219.49ZM177.143 220.932V220.05H165.817V220.932H170.899V222.094H167.161V222.948H174.567V224.012H167.203V226.896H176.079V226.028H168.323V224.838H175.701V222.094H172.061V220.932H177.143ZM192.494 215.92H188.07V214.408H186.908V215.92H182.4V216.844H192.494V215.92ZM190.366 219.658C190.366 220.428 189.33 220.876 187.496 220.876C185.662 220.876 184.598 220.428 184.598 219.658C184.598 218.888 185.662 218.44 187.496 218.44C189.33 218.44 190.366 218.888 190.366 219.658ZM183.408 219.658C183.408 221.002 184.934 221.744 187.496 221.744C190.03 221.744 191.556 221.002 191.556 219.658C191.556 218.314 190.03 217.558 187.496 217.558C184.934 217.558 183.408 218.314 183.408 219.658ZM193.194 222.626H181.812V223.564H186.908V227.05H188.07V223.564H193.194V222.626ZM208.518 218.58C206.292 218.258 204.094 216.844 204.094 215.248V214.688H202.918V215.248C202.918 216.886 200.734 218.258 198.494 218.58L198.914 219.476C200.86 219.168 202.722 218.174 203.506 216.732C204.304 218.16 206.152 219.168 208.084 219.476L208.518 218.58ZM203.506 226.14C201.518 226.14 200.356 225.664 200.356 224.796C200.356 223.942 201.518 223.452 203.506 223.452C205.466 223.452 206.628 223.942 206.628 224.796C206.628 225.664 205.466 226.14 203.506 226.14ZM203.506 222.57C200.818 222.57 199.194 223.368 199.194 224.796C199.194 226.238 200.818 227.036 203.506 227.036C206.18 227.036 207.79 226.238 207.79 224.796C207.79 223.368 206.18 222.57 203.506 222.57ZM197.822 220.47V221.408H209.176V220.47H197.822ZM221.005 214.492H219.857V223.662H221.005V214.492ZM212.115 218.44C212.115 217.222 213.039 216.354 214.257 216.354C215.503 216.354 216.427 217.222 216.427 218.44C216.427 219.686 215.503 220.554 214.257 220.554C213.039 220.554 212.115 219.686 212.115 218.44ZM217.547 218.44C217.547 216.634 216.133 215.36 214.257 215.36C212.395 215.36 210.995 216.634 210.995 218.44C210.995 220.26 212.395 221.548 214.257 221.548C216.133 221.548 217.547 220.26 217.547 218.44ZM214.075 225.818V222.724H212.927V226.756H221.383V225.818H214.075ZM230.132 221.52C230.482 219.182 230.482 217.544 230.482 216.536V215.85H224.14V216.788H229.362C229.362 217.796 229.334 219.322 228.984 221.408L230.132 221.52ZM227.248 219.434H226.114V223.298C225.176 223.326 224.252 223.34 223.454 223.34L223.58 224.292C225.806 224.292 228.76 224.236 231.364 223.816L231.294 222.976C230.02 223.144 228.62 223.214 227.248 223.27V219.434ZM235.214 219.728H233.212V214.478H232.064V227.036H233.212V220.694H235.214V219.728ZM243.804 215.57H242.67V217.824C242.67 220.106 241.242 222.514 239.436 223.438L240.122 224.362C241.536 223.606 242.698 222.038 243.244 220.204C243.818 221.926 244.952 223.396 246.282 224.11L246.996 223.2C245.232 222.318 243.804 220.036 243.804 217.824V215.57ZM251.322 219.574H249.25V214.492H248.102V227.036H249.25V220.526H251.322V219.574ZM258.139 226.14C256.165 226.14 255.003 225.65 255.003 224.796C255.003 223.942 256.165 223.452 258.139 223.452C260.099 223.452 261.275 223.942 261.275 224.796C261.275 225.65 260.099 226.14 258.139 226.14ZM258.139 222.556C255.451 222.556 253.841 223.354 253.841 224.796C253.841 226.238 255.451 227.022 258.139 227.022C260.841 227.022 262.437 226.238 262.437 224.796C262.437 223.354 260.841 222.556 258.139 222.556ZM256.403 219.224C256.921 219.308 257.509 219.364 258.139 219.364C258.783 219.364 259.371 219.308 259.889 219.224V220.694H256.403V219.224ZM254.905 217.04C254.905 216.13 256.137 215.598 258.139 215.598C260.141 215.598 261.373 216.13 261.373 217.04C261.373 217.936 260.141 218.482 258.139 218.482C256.137 218.482 254.905 217.936 254.905 217.04ZM261.023 220.694V218.916C261.989 218.524 262.549 217.88 262.549 217.04C262.549 215.57 260.869 214.702 258.139 214.702C255.423 214.702 253.729 215.57 253.729 217.04C253.729 217.894 254.275 218.524 255.269 218.93V220.694H252.455V221.618H263.823V220.694H261.023ZM269.659 222.164H272.529V224.544H269.659V222.164ZM273.663 224.544V222.164H275.623V221.226H267.895V219.21H275.329V215.402H266.733V216.34H274.209V218.286H266.761V222.164H268.525V224.544H265.333V225.482H276.743V224.544H273.663ZM278.898 215.822V216.774H283.504C283.238 219.742 281.516 222.15 278.31 223.76L278.94 224.656C283 222.626 284.638 219.392 284.638 215.822H278.898ZM289.902 219.574H287.886V214.478H286.738V227.036H287.886V220.526H289.902V219.574ZM301.558 218.93C299.556 219.322 297.764 219.448 295.986 219.462V215.066H294.852V220.428H295.832C297.708 220.428 299.584 220.288 301.698 219.868L301.558 218.93ZM302.846 225.944H297.19V224.278H302.846V225.944ZM302.846 223.354H297.19V221.688H296.056V226.868H303.98V221.688H302.846V223.354ZM305.856 217.292H303.994V214.492H302.832V221.016H303.994V218.244H305.856V217.292ZM315.907 219.476H309.677V217.628H315.907V219.476ZM317.055 214.982H315.907V216.704H309.677V214.982H308.543V220.414H317.055V214.982ZM318.497 221.926H307.101V222.85H312.197V227.05H313.345V222.85H318.497V221.926ZM324.712 220.834H327.414V219.896H322.136V216.606H327.358V215.654H321.002V220.834H323.564V223.326C322.346 223.368 321.156 223.368 320.078 223.368L320.218 224.334C322.598 224.334 325.608 224.278 328.352 223.858L328.254 223.018C327.134 223.158 325.916 223.228 324.712 223.284V220.834ZM329.08 214.464V227.064H330.228V214.464H329.08ZM336.233 223.186C335.029 223.186 334.189 221.87 334.189 219.826C334.189 217.796 335.029 216.48 336.233 216.48C337.423 216.48 338.263 217.796 338.263 219.826C338.263 221.87 337.423 223.186 336.233 223.186ZM342.071 214.478V219.266H339.341C339.159 216.914 337.927 215.444 336.233 215.444C334.399 215.444 333.097 217.152 333.097 219.826C333.097 222.5 334.399 224.208 336.233 224.208C337.983 224.208 339.229 222.668 339.341 220.204H342.071V227.064H343.219V214.478H342.071ZM349.098 223.186C347.88 223.186 347.026 221.856 347.026 219.812C347.026 217.796 347.88 216.48 349.098 216.48C350.302 216.48 351.156 217.796 351.156 219.812C351.156 221.856 350.302 223.186 349.098 223.186ZM349.098 215.444C347.25 215.444 345.934 217.152 345.934 219.812C345.934 222.5 347.25 224.208 349.098 224.208C350.946 224.208 352.248 222.5 352.248 219.812C352.248 217.152 350.946 215.444 349.098 215.444ZM357.414 218.594V217.642H355.412V214.492H354.264V227.036H355.412V222.332H357.414V221.38H355.412V218.594H357.414ZM372.066 214.478H370.918V223.69H372.066V214.478ZM369.322 220.736C367.46 220.05 366.186 218.342 366.186 216.452V215.178H365.038V216.452C365.038 218.412 363.778 220.232 361.888 220.96L362.49 221.898C363.96 221.282 365.094 220.064 365.626 218.538C366.186 219.966 367.292 221.1 368.72 221.646L369.322 220.736ZM365.136 225.818V222.836H363.988V226.756H372.444V225.818H365.136ZM381.318 218.048V219H383.824V222.094H384.986V214.478H383.824V218.048H381.318ZM382.074 220.68C380.226 220.12 378.924 218.72 378.924 217.152V216.914H381.696V215.99H378.924V214.422H377.776V215.99H374.99V216.914H377.776V217.152C377.776 218.846 376.516 220.372 374.668 221.002L375.228 221.884C376.712 221.394 377.846 220.33 378.378 218.958C378.952 220.176 380.1 221.114 381.542 221.562L382.074 220.68ZM380.828 226.126C378.938 226.126 377.804 225.594 377.804 224.712C377.804 223.844 378.938 223.312 380.828 223.312C382.746 223.312 383.88 223.844 383.88 224.712C383.88 225.594 382.746 226.126 380.828 226.126ZM380.828 222.416C378.252 222.416 376.656 223.256 376.656 224.712C376.656 226.182 378.252 227.022 380.828 227.022C383.432 227.022 385.028 226.182 385.028 224.712C385.028 223.256 383.432 222.416 380.828 222.416ZM396.647 214.478V227.064H397.795V214.478H396.647ZM391.173 215.444C389.311 215.444 387.981 217.152 387.981 219.826C387.981 222.5 389.311 224.208 391.173 224.208C393.035 224.208 394.365 222.5 394.365 219.826C394.365 217.152 393.035 215.444 391.173 215.444ZM391.173 216.48C392.391 216.48 393.259 217.796 393.259 219.826C393.259 221.87 392.391 223.186 391.173 223.186C389.941 223.186 389.073 221.87 389.073 219.826C389.073 217.796 389.941 216.48 391.173 216.48ZM404.509 221.534C406.007 221.058 407.169 220.064 407.715 218.748C408.289 219.994 409.437 220.946 410.921 221.394L411.453 220.512C409.619 219.966 408.303 218.636 408.275 217.04H411.173V216.116H408.275V214.576H407.127V216.116H404.271V217.04H407.127C407.099 218.692 405.825 220.078 403.977 220.638L404.509 221.534ZM408.275 221.114H407.127V223.452C405.853 223.494 404.635 223.494 403.599 223.494L403.753 224.46C405.993 224.446 409.073 224.432 411.887 223.914L411.789 223.06C410.669 223.242 409.451 223.326 408.275 223.396V221.114ZM412.615 214.478V227.05H413.763V214.478H412.615ZM417.458 219.56C419.516 219.322 421.392 218.412 422.092 217.04C422.792 218.412 424.668 219.322 426.74 219.56L427.146 218.65C424.948 218.426 422.932 217.362 422.834 215.976H426.74V215.052H417.458V215.976H421.35C421.252 217.362 419.25 218.426 417.038 218.65L417.458 219.56ZM422.078 226.14C420.09 226.14 418.942 225.678 418.942 224.852C418.942 224.04 420.09 223.578 422.078 223.578C424.052 223.578 425.214 224.04 425.214 224.852C425.214 225.678 424.052 226.14 422.078 226.14ZM422.078 222.696C419.39 222.696 417.78 223.466 417.78 224.852C417.78 226.252 419.39 227.022 422.078 227.022C424.766 227.022 426.376 226.252 426.376 224.852C426.376 223.466 424.766 222.696 422.078 222.696ZM422.652 220.736V218.93H421.504V220.736H416.408V221.66H427.762V220.736H422.652ZM434.196 217.53C434.196 216.578 435.022 215.934 436.226 215.934C437.402 215.934 438.242 216.578 438.242 217.53C438.242 218.496 437.402 219.126 436.226 219.126C435.022 219.126 434.196 218.496 434.196 217.53ZM440.216 220.876C439.138 221.044 437.976 221.128 436.814 221.198V219.966C438.312 219.784 439.32 218.86 439.32 217.53C439.32 216.06 438.046 215.066 436.226 215.066C434.392 215.066 433.132 216.06 433.132 217.53C433.132 218.874 434.14 219.798 435.666 219.98V221.24C434.504 221.282 433.37 221.296 432.404 221.296L432.558 222.234C434.7 222.234 437.682 222.192 440.3 221.716L440.216 220.876ZM435.358 223.284H434.21V226.742H442.596V225.804H435.358V223.284ZM442.148 218.734V214.492H441V224.096H442.148V219.686H443.996V218.734H442.148ZM449.609 222.164H452.479V224.544H449.609V222.164ZM453.613 224.544V222.164H455.573V221.226H447.845V219.21H455.279V215.402H446.683V216.34H454.159V218.286H446.711V222.164H448.475V224.544H445.283V225.482H456.693V224.544H453.613ZM466.31 220.064C465.218 220.232 464.07 220.316 462.908 220.386V219.084H465.386V218.146H460.486V216.046H465.26V215.108H459.352V219.084H461.76V220.428C460.5 220.484 459.268 220.484 458.218 220.484L458.386 221.408C460.64 221.394 463.65 221.352 466.38 220.89L466.31 220.064ZM467.346 225.944H461.396V224.488H467.346V225.944ZM467.346 223.592H461.396V222.276H460.248V226.868H468.48V222.276H467.346V223.592ZM467.332 214.492V221.716H468.48V214.492H467.332ZM472.987 215.696H471.839V223.788H472.875C474.877 223.788 476.851 223.648 479.035 223.2L478.909 222.22C476.823 222.64 474.877 222.808 472.987 222.808V215.696ZM480.197 214.478V227.022H481.345V214.478H480.197ZM485.613 216.634H490.303V215.682H484.465V223.928H485.459C487.825 223.928 489.477 223.844 491.395 223.48L491.269 222.528C489.449 222.85 487.839 222.948 485.613 222.948V216.634ZM495.665 219.434H493.593V214.478H492.445V227.064H493.593V220.386H495.665V219.434ZM498.016 226.182C498.52 226.182 498.94 225.79 498.94 225.216C498.94 224.642 498.52 224.222 498.016 224.222C497.512 224.222 497.092 224.642 497.092 225.216C497.092 225.79 497.512 226.182 498.016 226.182ZM514.144 214.478H512.996V223.69H514.144V214.478ZM511.4 220.736C509.538 220.05 508.264 218.342 508.264 216.452V215.178H507.116V216.452C507.116 218.412 505.856 220.232 503.966 220.96L504.568 221.898C506.038 221.282 507.172 220.064 507.704 218.538C508.264 219.966 509.37 221.1 510.798 221.646L511.4 220.736ZM507.214 225.818V222.836H506.066V226.756H514.522V225.818H507.214ZM523.397 218.048V219H525.903V222.094H527.065V214.478H525.903V218.048H523.397ZM524.153 220.68C522.305 220.12 521.003 218.72 521.003 217.152V216.914H523.775V215.99H521.003V214.422H519.855V215.99H517.069V216.914H519.855V217.152C519.855 218.846 518.595 220.372 516.747 221.002L517.307 221.884C518.791 221.394 519.925 220.33 520.457 218.958C521.031 220.176 522.179 221.114 523.621 221.562L524.153 220.68ZM522.907 226.126C521.017 226.126 519.883 225.594 519.883 224.712C519.883 223.844 521.017 223.312 522.907 223.312C524.825 223.312 525.959 223.844 525.959 224.712C525.959 225.594 524.825 226.126 522.907 226.126ZM522.907 222.416C520.331 222.416 518.735 223.256 518.735 224.712C518.735 226.182 520.331 227.022 522.907 227.022C525.511 227.022 527.107 226.182 527.107 224.712C527.107 223.256 525.511 222.416 522.907 222.416ZM543.41 215.92H538.986V214.408H537.824V215.92H533.316V216.844H543.41V215.92ZM541.282 219.658C541.282 220.428 540.246 220.876 538.412 220.876C536.578 220.876 535.514 220.428 535.514 219.658C535.514 218.888 536.578 218.44 538.412 218.44C540.246 218.44 541.282 218.888 541.282 219.658ZM534.324 219.658C534.324 221.002 535.85 221.744 538.412 221.744C540.946 221.744 542.472 221.002 542.472 219.658C542.472 218.314 540.946 217.558 538.412 217.558C535.85 217.558 534.324 218.314 534.324 219.658ZM544.11 222.626H532.728V223.564H537.824V227.05H538.986V223.564H544.11V222.626ZM559.434 218.58C557.208 218.258 555.01 216.844 555.01 215.248V214.688H553.834V215.248C553.834 216.886 551.65 218.258 549.41 218.58L549.83 219.476C551.776 219.168 553.638 218.174 554.422 216.732C555.22 218.16 557.068 219.168 559 219.476L559.434 218.58ZM554.422 226.14C552.434 226.14 551.272 225.664 551.272 224.796C551.272 223.942 552.434 223.452 554.422 223.452C556.382 223.452 557.544 223.942 557.544 224.796C557.544 225.664 556.382 226.14 554.422 226.14ZM554.422 222.57C551.734 222.57 550.11 223.368 550.11 224.796C550.11 226.238 551.734 227.036 554.422 227.036C557.096 227.036 558.706 226.238 558.706 224.796C558.706 223.368 557.096 222.57 554.422 222.57ZM548.738 220.47V221.408H560.092V220.47H548.738ZM571.921 214.492H570.773V223.662H571.921V214.492ZM563.031 218.44C563.031 217.222 563.955 216.354 565.173 216.354C566.419 216.354 567.343 217.222 567.343 218.44C567.343 219.686 566.419 220.554 565.173 220.554C563.955 220.554 563.031 219.686 563.031 218.44ZM568.463 218.44C568.463 216.634 567.049 215.36 565.173 215.36C563.311 215.36 561.911 216.634 561.911 218.44C561.911 220.26 563.311 221.548 565.173 221.548C567.049 221.548 568.463 220.26 568.463 218.44ZM564.991 225.818V222.724H563.843V226.756H572.299V225.818H564.991ZM580.838 221.254C580.922 220.82 580.978 220.344 580.978 219.826C580.978 219.252 580.908 218.72 580.796 218.23H583.694V221.254H580.838ZM577.856 223.186C576.652 223.186 575.812 221.87 575.812 219.826C575.812 217.796 576.652 216.48 577.856 216.48C579.046 216.48 579.9 217.796 579.9 219.826C579.9 221.87 579.046 223.186 577.856 223.186ZM583.694 214.478V217.292H580.474C579.942 216.116 579.018 215.444 577.856 215.444C576.022 215.444 574.72 217.152 574.72 219.826C574.72 222.5 576.022 224.208 577.856 224.208C579.06 224.208 580.04 223.466 580.558 222.192H583.694V227.064H584.842V214.478H583.694ZM596.167 219.476H589.937V217.628H596.167V219.476ZM597.315 214.982H596.167V216.704H589.937V214.982H588.803V220.414H597.315V214.982ZM598.757 221.926H587.361V222.85H592.457V227.05H593.605V222.85H598.757V221.926ZM609.046 216.676H601.71V219.364H610.404V218.538H602.844V217.46H610.18V214.842H601.682V215.654H609.046V216.676ZM602.774 224.88H610.222V222.206H601.612V223.032H609.088V224.082H601.64V226.868H610.614V226.042H602.774V224.88ZM600.254 220.316V221.184H611.636V220.316H600.254ZM621.471 220.68H617.915V218.384H621.471V220.68ZM622.591 215.388H621.471V217.488H617.915V215.388H616.781V221.604H622.591V215.388ZM619.343 222.822H618.195V226.756H626.567V225.818H619.343V222.822ZM626.007 218.286V214.492H624.859V223.704H626.007V219.252H627.869V218.286H626.007ZM639.208 220.498H631.718V216.578H639.082V215.626H630.584V221.436H639.208V220.498ZM629.128 224.39V225.342H640.524V224.39H629.128ZM646.473 215.57H645.339V217.824C645.339 220.204 643.813 222.612 641.965 223.494L642.665 224.432C644.135 223.676 645.339 222.108 645.913 220.218C646.515 222.01 647.719 223.494 649.147 224.194L649.833 223.27C647.971 222.43 646.473 220.12 646.473 217.824V215.57ZM651.149 214.478V227.064H652.297V214.478H651.149ZM665.493 215.626H662.469V214.394H661.321V215.626H658.283V216.494H665.493V215.626ZM660.047 218.818C660.047 218.16 660.761 217.754 661.895 217.754C663.001 217.754 663.729 218.16 663.729 218.818C663.729 219.476 663.001 219.896 661.895 219.896C660.761 219.896 660.047 219.476 660.047 218.818ZM665.871 221.226C664.779 221.394 663.617 221.478 662.469 221.534V220.666C663.911 220.512 664.821 219.84 664.821 218.818C664.821 217.67 663.645 216.956 661.895 216.956C660.117 216.956 658.955 217.67 658.955 218.818C658.955 219.854 659.865 220.526 661.321 220.666V221.576C660.117 221.618 658.969 221.618 657.975 221.618L658.101 222.542C660.299 222.528 663.267 222.528 665.955 222.052L665.871 221.226ZM659.501 224.446H666.613V227.036H667.761V223.536H659.501V224.446ZM669.609 218.286H667.761V214.492H666.613V222.906H667.761V219.238H669.609V218.286ZM681.214 214.492H680.066V223.662H681.214V214.492ZM672.324 218.44C672.324 217.222 673.248 216.354 674.466 216.354C675.712 216.354 676.636 217.222 676.636 218.44C676.636 219.686 675.712 220.554 674.466 220.554C673.248 220.554 672.324 219.686 672.324 218.44ZM677.756 218.44C677.756 216.634 676.342 215.36 674.466 215.36C672.604 215.36 671.204 216.634 671.204 218.44C671.204 220.26 672.604 221.548 674.466 221.548C676.342 221.548 677.756 220.26 677.756 218.44ZM674.284 225.818V222.724H673.136V226.756H681.592V225.818H674.284ZM687.471 223.284C686.337 223.284 685.511 222.472 685.511 221.352C685.511 220.218 686.337 219.406 687.471 219.406C688.619 219.406 689.445 220.218 689.445 221.352C689.445 222.472 688.619 223.284 687.471 223.284ZM687.471 218.454C685.707 218.454 684.433 219.658 684.433 221.352C684.433 223.06 685.707 224.236 687.471 224.236C689.263 224.236 690.537 223.06 690.537 221.352C690.537 219.658 689.263 218.454 687.471 218.454ZM688.031 214.632H686.883V216.494H683.719V217.418H691.125V216.494H688.031V214.632ZM695.521 219.644H693.463V214.492H692.315V227.036H693.463V220.61H695.521V219.644ZM701.12 215.57H699.986V217.824C699.986 220.204 698.46 222.612 696.612 223.494L697.312 224.432C698.782 223.676 699.986 222.108 700.56 220.218C701.162 222.01 702.366 223.494 703.794 224.194L704.48 223.27C702.618 222.43 701.12 220.12 701.12 217.824V215.57ZM705.796 214.478V227.064H706.944V214.478H705.796ZM710.289 215.836V216.76H715.007C714.769 219.742 713.089 222.15 709.715 223.76L710.331 224.698C714.503 222.654 716.169 219.462 716.169 215.836H710.289ZM718.703 214.478V227.036H719.851V214.478H718.703ZM730.778 223.074H727.194V219.77H730.778V223.074ZM730.778 218.86H727.194V215.542H726.06V224.012H731.898V215.542H730.778V218.86ZM737.288 219.42H735.216V214.492H734.068V227.022H735.216V220.386H737.288V219.42ZM745.827 219.756C743.923 220.092 742.313 220.176 740.115 220.176V218.468H744.609V215.108H738.953V216.032H743.475V217.586H738.981V221.114H739.975C742.285 221.114 743.951 221.044 745.939 220.708L745.827 219.756ZM747.045 225.93H741.417V224.404H747.045V225.93ZM747.045 223.508H741.417V221.968H740.283V226.868H748.179V221.968H747.045V223.508ZM750.041 217.502H748.179V214.492H747.031V221.422H748.179V218.468H750.041V217.502ZM753.246 215.696H752.098V223.788H753.134C755.136 223.788 757.11 223.648 759.294 223.2L759.168 222.22C757.082 222.64 755.136 222.808 753.246 222.808V215.696ZM760.456 214.478V227.022H761.604V214.478H760.456ZM765.873 216.634H770.563V215.682H764.725V223.928H765.719C768.085 223.928 769.737 223.844 771.655 223.48L771.529 222.528C769.709 222.85 768.099 222.948 765.873 222.948V216.634ZM775.925 219.434H773.853V214.478H772.705V227.064H773.853V220.386H775.925V219.434ZM778.276 226.182C778.78 226.182 779.2 225.79 779.2 225.216C779.2 224.642 778.78 224.222 778.276 224.222C777.772 224.222 777.352 224.642 777.352 225.216C777.352 225.79 777.772 226.182 778.276 226.182ZM786.703 228.758L787.501 228.38C786.283 226.392 785.709 224.026 785.709 221.646C785.709 219.266 786.283 216.914 787.501 214.912L786.703 214.548C785.415 216.634 784.645 218.902 784.645 221.646C784.645 224.404 785.415 226.658 786.703 228.758ZM790.412 216.942H793.954V216.004H789.278V223.942H790.104C791.98 223.942 793.254 223.886 794.752 223.564L794.654 222.612C793.282 222.906 792.092 222.976 790.412 222.99V216.942ZM798.392 214.478V219.518H796.614V214.758H795.536V226.406H796.614V220.456H798.392V227.036H799.498V214.478H798.392ZM808.303 219.84C808.625 218.188 808.625 216.942 808.625 216.116V215.458H802.381V216.396H807.505C807.505 217.194 807.463 218.272 807.169 219.714L808.303 219.84ZM809.493 220.596C808.219 220.778 806.791 220.876 805.419 220.932V218.258H804.285V220.974C803.333 220.988 802.423 221.002 801.625 221.002L801.737 221.94C803.963 221.94 806.973 221.87 809.577 221.436L809.493 220.596ZM804.691 223.074H803.543V226.756H811.887V225.818H804.691V223.074ZM811.481 218.566V214.478H810.333V223.942H811.481V219.518H813.287V218.566H811.481ZM824.892 214.478H823.744V223.69H824.892V214.478ZM822.148 220.736C820.286 220.05 819.012 218.342 819.012 216.452V215.178H817.864V216.452C817.864 218.412 816.604 220.232 814.714 220.96L815.316 221.898C816.786 221.282 817.92 220.064 818.452 218.538C819.012 219.966 820.118 221.1 821.546 221.646L822.148 220.736ZM817.962 225.818V222.836H816.814V226.756H825.27V225.818H817.962ZM834.145 218.048V219H836.651V222.094H837.813V214.478H836.651V218.048H834.145ZM834.901 220.68C833.053 220.12 831.751 218.72 831.751 217.152V216.914H834.523V215.99H831.751V214.422H830.603V215.99H827.817V216.914H830.603V217.152C830.603 218.846 829.343 220.372 827.495 221.002L828.055 221.884C829.539 221.394 830.673 220.33 831.205 218.958C831.779 220.176 832.927 221.114 834.369 221.562L834.901 220.68ZM833.655 226.126C831.765 226.126 830.631 225.594 830.631 224.712C830.631 223.844 831.765 223.312 833.655 223.312C835.573 223.312 836.707 223.844 836.707 224.712C836.707 225.594 835.573 226.126 833.655 226.126ZM833.655 222.416C831.079 222.416 829.483 223.256 829.483 224.712C829.483 226.182 831.079 227.022 833.655 227.022C836.259 227.022 837.855 226.182 837.855 224.712C837.855 223.256 836.259 222.416 833.655 222.416ZM845.512 220.498H841.984V216.522H845.512V220.498ZM846.632 215.598H840.864V221.408H846.632V215.598ZM843.426 222.808H842.278V226.756H850.65V225.818H843.426V222.808ZM850.09 218.3V214.464H848.942V223.662H850.09V219.266H851.952V218.3H850.09ZM858.894 215.262C856.29 215.262 854.33 216.648 854.33 218.734C854.33 220.834 856.29 222.206 858.894 222.206C861.498 222.206 863.458 220.834 863.458 218.734C863.458 216.648 861.498 215.262 858.894 215.262ZM858.894 216.2C860.882 216.2 862.366 217.222 862.366 218.734C862.366 220.26 860.882 221.268 858.894 221.268C856.92 221.268 855.422 220.26 855.422 218.734C855.422 217.222 856.92 216.2 858.894 216.2ZM853.21 224.418V225.37H864.62V224.418H853.21ZM872.361 224.544V222.178H876.379V221.254H868.651V219.224H876.085V215.402H867.489V216.34H874.965V218.3H867.517V222.178H871.199V224.544H866.089V225.482H877.499V224.544H872.361ZM883.695 216.942H887.237V216.004H882.561V223.942H883.387C885.263 223.942 886.537 223.886 888.035 223.564L887.937 222.612C886.565 222.906 885.375 222.976 883.695 222.99V216.942ZM891.675 214.478V219.518H889.897V214.758H888.819V226.406H889.897V220.456H891.675V227.036H892.781V214.478H891.675ZM901.586 219.84C901.908 218.188 901.908 216.942 901.908 216.116V215.458H895.664V216.396H900.788C900.788 217.194 900.746 218.272 900.452 219.714L901.586 219.84ZM902.776 220.596C901.502 220.778 900.074 220.876 898.702 220.932V218.258H897.568V220.974C896.616 220.988 895.706 221.002 894.908 221.002L895.02 221.94C897.246 221.94 900.256 221.87 902.86 221.436L902.776 220.596ZM897.974 223.074H896.826V226.756H905.17V225.818H897.974V223.074ZM904.764 218.566V214.478H903.616V223.942H904.764V219.518H906.57V218.566H904.764ZM914.577 217.292V218.216H917.055V220.974H918.203V214.492H917.055V217.292H914.577ZM915.235 219.924C913.443 219.35 912.211 217.908 912.211 216.396V216.06H914.983V215.136H908.263V216.06H911.049V216.396C911.049 218.02 909.747 219.588 907.913 220.218L908.487 221.114C909.957 220.61 911.105 219.504 911.637 218.16C912.183 219.392 913.275 220.372 914.689 220.82L915.235 219.924ZM911.273 225.986V224.614H918.203V221.604H910.111V222.5H917.069V223.746H910.139V226.896H918.679V225.986H911.273ZM924.95 217.572H927.736V216.648H924.95V214.702H923.802V216.648H920.974V217.572H923.816V218.552C923.816 220.722 922.472 222.85 920.638 223.746L921.282 224.614C922.71 223.914 923.858 222.458 924.39 220.736C924.922 222.346 925.986 223.718 927.358 224.39L928.002 223.494C926.196 222.626 924.95 220.568 924.95 218.552V217.572ZM932.482 219.644H930.41V214.478H929.262V227.036H930.41V220.596H932.482V219.644ZM934.301 215.822V216.774H938.907C938.641 219.742 936.919 222.15 933.713 223.76L934.343 224.656C938.403 222.626 940.041 219.392 940.041 215.822H934.301ZM945.305 219.574H943.289V214.478H942.141V227.036H943.289V220.526H945.305V219.574ZM951.416 217.53C951.416 216.578 952.242 215.934 953.446 215.934C954.622 215.934 955.462 216.578 955.462 217.53C955.462 218.496 954.622 219.126 953.446 219.126C952.242 219.126 951.416 218.496 951.416 217.53ZM957.436 220.876C956.358 221.044 955.196 221.128 954.034 221.198V219.966C955.532 219.784 956.54 218.86 956.54 217.53C956.54 216.06 955.266 215.066 953.446 215.066C951.612 215.066 950.352 216.06 950.352 217.53C950.352 218.874 951.36 219.798 952.886 219.98V221.24C951.724 221.282 950.59 221.296 949.624 221.296L949.778 222.234C951.92 222.234 954.902 222.192 957.52 221.716L957.436 220.876ZM952.578 223.284H951.43V226.742H959.816V225.804H952.578V223.284ZM959.368 218.734V214.492H958.22V224.096H959.368V219.686H961.216V218.734H959.368ZM966.829 222.164H969.699V224.544H966.829V222.164ZM970.833 224.544V222.164H972.793V221.226H965.065V219.21H972.499V215.402H963.903V216.34H971.379V218.286H963.931V222.164H965.695V224.544H962.503V225.482H973.913V224.544H970.833ZM985.672 214.478H984.524V223.872H985.672V214.478ZM983.516 221.002C982.438 221.128 981.304 221.198 980.142 221.254V219.518H982.634V218.594H977.72V216.228H982.55V215.29H976.572V219.518H978.994V221.296C977.762 221.338 976.544 221.352 975.452 221.352L975.62 222.29C977.958 222.29 980.94 222.206 983.6 221.828L983.516 221.002ZM978.7 225.818V223.256H977.552V226.756H986.092V225.818H978.7ZM1000.59 222.976H1001.75V214.492H1000.59V218.02H997.888V218.958H1000.59V222.976ZM992.218 215.472V216.41H996.614C996.39 218.622 994.584 220.33 991.616 221.268L992.12 222.178C995.704 221.016 997.846 218.706 997.846 215.472H992.218ZM998.266 221.884H997.118V222.458C997.118 224.292 995.158 225.692 992.918 226.084L993.38 226.994C995.256 226.63 996.95 225.636 997.692 224.166C998.434 225.608 1000.11 226.602 1001.96 226.966L1002.42 226.07C1000.21 225.65 998.266 224.264 998.266 222.458V221.884ZM1013.41 214.478V227.064H1014.56V214.478H1013.41ZM1007.94 215.444C1006.08 215.444 1004.75 217.152 1004.75 219.826C1004.75 222.5 1006.08 224.208 1007.94 224.208C1009.8 224.208 1011.13 222.5 1011.13 219.826C1011.13 217.152 1009.8 215.444 1007.94 215.444ZM1007.94 216.48C1009.16 216.48 1010.02 217.796 1010.02 219.826C1010.02 221.87 1009.16 223.186 1007.94 223.186C1006.71 223.186 1005.84 221.87 1005.84 219.826C1005.84 217.796 1006.71 216.48 1007.94 216.48ZM1023.64 223.186C1022.42 223.186 1021.57 221.87 1021.57 219.826C1021.57 217.796 1022.42 216.48 1023.64 216.48C1024.84 216.48 1025.7 217.796 1025.7 219.826C1025.7 221.87 1024.84 223.186 1023.64 223.186ZM1023.64 215.444C1021.79 215.444 1020.48 217.152 1020.48 219.826C1020.48 222.5 1021.79 224.208 1023.64 224.208C1025.49 224.208 1026.79 222.5 1026.79 219.826C1026.79 217.152 1025.49 215.444 1023.64 215.444ZM1032.03 219.49H1029.95V214.492H1028.81V227.036H1029.95V220.456H1032.03V219.49ZM1040.94 218.958C1038.97 219.364 1037.15 219.518 1035.09 219.518V215.108H1033.94V220.484H1034.95C1037.14 220.484 1039.01 220.33 1041.11 219.91L1040.94 218.958ZM1042.34 225.93H1036.53V224.264H1042.34V225.93ZM1042.34 223.368H1036.53V221.688H1035.4V226.868H1043.48V221.688H1042.34V223.368ZM1042.33 214.492V221.1H1043.48V214.492H1042.33ZM1047.98 215.696H1046.84V223.788H1047.87C1049.87 223.788 1051.85 223.648 1054.03 223.2L1053.91 222.22C1051.82 222.64 1049.87 222.808 1047.98 222.808V215.696ZM1055.19 214.478V227.022H1056.34V214.478H1055.19ZM1060.61 216.634H1065.3V215.682H1059.46V223.928H1060.46C1062.82 223.928 1064.48 223.844 1066.39 223.48L1066.27 222.528C1064.45 222.85 1062.84 222.948 1060.61 222.948V216.634ZM1070.66 219.434H1068.59V214.478H1067.44V227.064H1068.59V220.386H1070.66V219.434ZM1073.01 226.182C1073.52 226.182 1073.94 225.79 1073.94 225.216C1073.94 224.642 1073.52 224.222 1073.01 224.222C1072.51 224.222 1072.09 224.642 1072.09 225.216C1072.09 225.79 1072.51 226.182 1073.01 226.182ZM1076.35 228.758C1077.65 226.658 1078.42 224.404 1078.42 221.646C1078.42 218.902 1077.65 216.634 1076.35 214.548L1075.57 214.912C1076.77 216.914 1077.36 219.266 1077.36 221.646C1077.36 224.026 1076.77 226.392 1075.57 228.38L1076.35 228.758Z" fill="#D94A2B"/>
</svg>
