<svg width="718" height="200" viewBox="0 0 718 200" fill="none" xmlns="http://www.w3.org/2000/svg">
<rect y="5" width="5" height="26" fill="#5775D9"/>
<path d="M18.984 12.472H25.056V10.864H17.04V24.472H18.456C21.672 24.472 23.856 24.376 26.424 23.824L26.256 22.192C23.904 22.696 21.864 22.816 18.984 22.84V12.472ZM32.664 8.248V16.888H29.616V8.728H27.768V28.696H29.616V18.496H32.664V29.776H34.56V8.248H32.664ZM49.6541 17.44C50.2061 14.608 50.2061 12.472 50.2061 11.056V9.928H39.5021V11.536H48.2861C48.2861 12.904 48.2141 14.752 47.7101 17.224L49.6541 17.44ZM51.6941 18.736C49.5101 19.048 47.0621 19.216 44.7101 19.312V14.728H42.7661V19.384C41.1341 19.408 39.5741 19.432 38.2061 19.432L38.3981 21.04C42.2141 21.04 47.3741 20.92 51.8381 20.176L51.6941 18.736ZM43.4621 22.984H41.4941V29.296H55.7981V27.688H43.4621V22.984ZM55.1021 15.256V8.248H53.1341V24.472H55.1021V16.888H58.1981V15.256H55.1021ZM78.5874 10.36H73.4034V8.176H71.4354V10.36H66.2274V11.824H78.5874V10.36ZM69.2514 16.024C69.2514 14.872 70.4754 14.128 72.4194 14.128C74.3154 14.128 75.5634 14.872 75.5634 16.024C75.5634 17.224 74.3154 17.944 72.4194 17.944C70.4754 17.944 69.2514 17.224 69.2514 16.024ZM79.2354 20.272C77.3874 20.584 75.3714 20.752 73.4034 20.848V19.312C75.8754 19.048 77.4354 17.872 77.4354 16.024C77.4354 13.984 75.4194 12.736 72.4194 12.736C69.3954 12.736 67.3794 13.984 67.3794 16.024C67.3794 17.872 68.9634 19.072 71.4354 19.312V20.944C69.3714 21.016 67.3794 21.04 65.6994 21.04L65.9154 22.624C69.6594 22.6 74.8194 22.528 79.3794 21.688L79.2354 20.272ZM70.8354 23.992H68.8674V29.296H83.2434V27.688H70.8354V23.992ZM82.4754 15.76V8.248H80.5074V25.096H82.4754V17.392H85.6434V15.76H82.4754ZM102.85 14.176H92.3856V12.112H102.85V14.176ZM104.794 8.584H102.85V10.624H92.3856V8.584H90.4416V15.688H104.794V8.584ZM107.338 19.024V17.44H87.8496V19.024H96.6096V21.136H90.2016V22.624H102.898V24.496H90.2736V29.536H105.49V28.024H92.1936V25.936H104.842V21.136H98.5776V19.024H107.338ZM134.783 19.024H131.471C132.119 15.616 132.119 13.168 132.119 11.224V9.616H117.791V11.248H130.175C130.175 13.168 130.175 15.616 129.503 19.024H115.343V20.632H120.335V29.752H122.303V20.632H127.703V29.752H129.647V20.632H134.783V19.024ZM148.893 13.84V15.448H153.141V21.088H155.133V8.272H153.141V13.84H148.893ZM150.093 18.736C146.973 17.632 144.861 14.92 144.861 12.16V11.416H149.589V9.832H138.093V11.416H142.893V12.16C142.893 15.256 140.685 18.16 137.469 19.336L138.501 20.896C141.021 19.936 143.013 17.92 143.925 15.424C144.861 17.632 146.709 19.408 149.109 20.272L150.093 18.736ZM148.029 28.24C144.789 28.24 142.821 27.328 142.821 25.768C142.821 24.208 144.789 23.272 148.029 23.272C151.269 23.272 153.237 24.208 153.237 25.768C153.237 27.328 151.269 28.24 148.029 28.24ZM148.029 21.76C143.613 21.76 140.853 23.224 140.853 25.768C140.853 28.312 143.613 29.776 148.029 29.776C152.445 29.776 155.181 28.312 155.181 25.768C155.181 23.224 152.445 21.76 148.029 21.76Z" fill="black"/>
<path d="M4.416 70.296C4.992 70.296 5.472 69.832 5.472 69.192C5.472 68.52 4.992 68.056 4.416 68.056C3.84 68.056 3.36 68.52 3.36 69.192C3.36 69.832 3.84 70.296 4.416 70.296ZM18.2109 63.08H16.9149V65.656C16.9149 68.264 15.2829 71.016 13.2189 72.072L14.0029 73.128C15.6189 72.264 16.9469 70.472 17.5709 68.376C18.2269 70.344 19.5229 72.024 21.0429 72.84L21.8589 71.8C19.8429 70.792 18.2109 68.184 18.2109 65.656V63.08ZM26.8029 67.656H24.4349V61.848H23.1229V76.184H24.4349V68.744H26.8029V67.656ZM34.5936 75.16C32.3376 75.16 31.0096 74.6 31.0096 73.624C31.0096 72.648 32.3376 72.088 34.5936 72.088C36.8336 72.088 38.1776 72.648 38.1776 73.624C38.1776 74.6 36.8336 75.16 34.5936 75.16ZM34.5936 71.064C31.5216 71.064 29.6816 71.976 29.6816 73.624C29.6816 75.272 31.5216 76.168 34.5936 76.168C37.6816 76.168 39.5056 75.272 39.5056 73.624C39.5056 71.976 37.6816 71.064 34.5936 71.064ZM32.6096 67.256C33.2016 67.352 33.8736 67.416 34.5936 67.416C35.3296 67.416 36.0016 67.352 36.5936 67.256V68.936H32.6096V67.256ZM30.8976 64.76C30.8976 63.72 32.3056 63.112 34.5936 63.112C36.8816 63.112 38.2896 63.72 38.2896 64.76C38.2896 65.784 36.8816 66.408 34.5936 66.408C32.3056 66.408 30.8976 65.784 30.8976 64.76ZM37.8896 68.936V66.904C38.9936 66.456 39.6336 65.72 39.6336 64.76C39.6336 63.08 37.7136 62.088 34.5936 62.088C31.4896 62.088 29.5536 63.08 29.5536 64.76C29.5536 65.736 30.1776 66.456 31.3136 66.92V68.936H28.0976V69.992H41.0896V68.936H37.8896ZM43.3764 63.688V64.76H47.6804C47.4884 67.736 46.1284 70.328 42.8324 72.168L43.6004 73.112C47.6804 70.808 48.9764 67.384 48.9764 63.688H43.3764ZM53.7444 61.832V67.608H51.7924V62.216H50.5604V75.464H51.7924V68.68H53.7444V76.184H55.0084V61.832H53.7444ZM62.6391 63.08H61.3431V65.656C61.3431 68.376 59.5991 71.128 57.4871 72.136L58.2871 73.208C59.9671 72.344 61.3431 70.552 61.9991 68.392C62.6871 70.44 64.0631 72.136 65.6951 72.936L66.4791 71.88C64.3511 70.92 62.6391 68.28 62.6391 65.656V63.08ZM67.9831 61.832V76.216H69.2951V61.832H67.9831ZM84.0459 61.832H82.7339V69.192H84.0459V61.832ZM73.8699 65.544C73.8699 64.296 74.9099 63.416 76.3019 63.416C77.7099 63.416 78.7339 64.296 78.7339 65.544C78.7339 66.776 77.7099 67.656 76.3019 67.656C74.9099 67.656 73.8699 66.776 73.8699 65.544ZM80.0139 65.544C80.0139 63.64 78.4459 62.344 76.3019 62.344C74.1579 62.344 72.6059 63.64 72.6059 65.544C72.6059 67.432 74.1579 68.712 76.3019 68.712C78.4459 68.712 80.0139 67.432 80.0139 65.544ZM76.0779 74.952V73.368H84.0459V69.896H74.7499V70.936H82.7499V72.392H74.7819V75.992H84.5259V74.952H76.0779ZM91.4148 63.384V64.44H96.8068C96.5348 67.848 94.6148 70.6 90.7588 72.44L91.4628 73.512C96.2308 71.176 98.1348 67.528 98.1348 63.384H91.4148ZM101.031 61.832V76.184H102.343V61.832H101.031ZM106.566 68.184C108.886 67.832 110.998 66.68 111.782 65.016C112.55 66.68 114.662 67.832 116.998 68.184L117.478 67.128C114.95 66.792 112.63 65.368 112.63 63.624V63.608H117.094V62.552H106.47V63.608H110.934V63.624C110.934 65.368 108.614 66.792 106.07 67.128L106.566 68.184ZM108.23 71.8H106.918V75.864H116.838V74.792H108.23V71.8ZM105.254 69.224V70.28H111.222V73.192H112.534V70.28H118.278V69.224H105.254ZM127.197 75.224C129.389 75.224 131.341 73.704 131.341 71.064C131.341 68.488 129.677 67.304 127.693 67.304C127.149 67.304 126.749 67.416 126.269 67.64L126.493 65.128H130.797V63.144H124.461L124.141 68.904L125.213 69.608C125.901 69.16 126.285 68.984 126.989 68.984C128.189 68.984 128.989 69.752 128.989 71.128C128.989 72.52 128.125 73.304 126.893 73.304C125.789 73.304 124.957 72.76 124.285 72.104L123.197 73.608C124.077 74.488 125.325 75.224 127.197 75.224ZM145.131 61.64H143.003V69.016H145.131V61.64ZM135.147 65.432C135.147 64.392 135.963 63.768 137.051 63.768C138.139 63.768 138.923 64.392 138.923 65.432C138.923 66.488 138.139 67.096 137.051 67.096C135.963 67.096 135.147 66.488 135.147 65.432ZM140.971 65.432C140.971 63.48 139.291 62.072 137.051 62.072C134.795 62.072 133.099 63.48 133.099 65.432C133.099 67.4 134.795 68.808 137.051 68.808C139.291 68.808 140.971 67.4 140.971 65.432ZM137.419 74.568V73.64H145.131V69.624H135.307V71.24H143.035V72.136H135.323V76.2H145.499V74.568H137.419ZM155.514 65.448V67.16H157.818V72.392H159.93V61.64H157.818V65.448H155.514ZM156.49 68.84C154.17 68.056 153.162 66.248 153.162 64.504V64.312H156.026V62.632H148.106V64.312H151.002V64.52C151.002 66.376 149.946 68.312 147.53 69.096L148.602 70.776C150.314 70.2 151.466 69.032 152.122 67.576C152.762 68.904 153.85 69.96 155.466 70.488L156.49 68.84ZM152.33 74.44V71.496H150.218V76.12H160.266V74.44H152.33ZM165.385 78.232L166.857 77.608C165.513 75.272 164.905 72.584 164.905 69.944C164.905 67.336 165.513 64.632 166.857 62.296L165.385 61.672C163.881 64.136 163.001 66.76 163.001 69.944C163.001 73.16 163.881 75.752 165.385 78.232ZM169.144 75H172.52C176.008 75 178.248 73.016 178.248 69.032C178.248 65.032 176.008 63.144 172.391 63.144H169.144V75ZM171.512 73.096V65.048H172.248C174.456 65.048 175.832 66.136 175.832 69.032C175.832 71.912 174.456 73.096 172.248 73.096H171.512ZM179.893 71.256H184.261V69.576H179.893V71.256ZM189.447 75.224C191.639 75.224 193.591 73.704 193.591 71.064C193.591 68.488 191.927 67.304 189.943 67.304C189.399 67.304 188.999 67.416 188.519 67.64L188.743 65.128H193.047V63.144H186.711L186.391 68.904L187.463 69.608C188.151 69.16 188.535 68.984 189.239 68.984C190.439 68.984 191.239 69.752 191.239 71.128C191.239 72.52 190.375 73.304 189.143 73.304C188.039 73.304 187.207 72.76 186.535 72.104L185.447 73.608C186.327 74.488 187.575 75.224 189.447 75.224ZM196.741 78.232C198.261 75.752 199.141 73.16 199.141 69.944C199.141 66.76 198.261 64.136 196.741 61.672L195.285 62.296C196.629 64.632 197.237 67.336 197.237 69.944C197.237 72.584 196.629 75.272 195.285 77.608L196.741 78.232ZM206.189 69.16C207.901 68.808 209.069 67.992 209.725 66.92C210.381 67.88 211.485 68.616 213.133 68.936L213.949 67.304C211.805 66.92 210.797 65.896 210.733 64.728H213.613V63.096H210.733V61.656H208.621V63.096H205.741V64.728H208.621C208.557 65.976 207.549 67.112 205.341 67.528L206.189 69.16ZM214.205 69.352C211.117 69.768 207.549 69.784 204.861 69.784L205.117 71.496C206.173 71.496 207.357 71.496 208.605 71.448V75.928H210.717V71.32C211.917 71.224 213.149 71.08 214.333 70.872L214.205 69.352ZM215.037 61.64V76.36H217.149V61.64H215.037ZM232.428 68.36C229.068 67.816 227.26 65.608 227.26 63.512V62.456H225.004V63.512C225.004 65.56 223.18 67.816 219.852 68.36L220.716 70.104C223.292 69.64 225.164 68.248 226.124 66.44C227.084 68.264 228.972 69.64 231.564 70.104L232.428 68.36ZM227.196 72.936V69.64H225.084V72.936H219.532V74.632H232.876V72.936H227.196ZM243.588 62.776H241.476V64.92C241.476 67.784 240.26 70.632 237.684 71.736L238.948 73.48C240.708 72.648 241.908 71.064 242.564 69.096C243.22 70.904 244.356 72.36 246.052 73.128L247.252 71.416C244.756 70.344 243.588 67.656 243.588 64.92V62.776ZM247.972 61.624V76.408H250.084V61.624H247.972ZM264.7 66.92C262.412 67.368 260.364 67.512 258.332 67.528V62.504H257.036V68.632H258.156C260.3 68.632 262.444 68.472 264.86 67.992L264.7 66.92ZM266.172 74.936H259.708V73.032H266.172V74.936ZM266.172 71.976H259.708V70.072H258.412V75.992H267.468V70.072H266.172V71.976ZM269.612 65.048H267.484V61.848H266.156V69.304H267.484V66.136H269.612V65.048ZM281.099 67.544H273.979V65.432H281.099V67.544ZM282.411 62.408H281.099V64.376H273.979V62.408H272.683V68.616H282.411V62.408ZM284.059 70.344H271.035V71.4H276.859V76.2H278.171V71.4H284.059V70.344ZM290.586 63.08H289.29V65.656C289.29 68.264 287.658 71.016 285.594 72.072L286.378 73.128C287.994 72.264 289.322 70.472 289.946 68.376C290.602 70.344 291.898 72.024 293.418 72.84L294.234 71.8C292.218 70.792 290.586 68.184 290.586 65.656V63.08ZM299.178 67.656H296.81V61.848H295.498V76.184H296.81V68.744H299.178V67.656ZM306.969 75.16C304.713 75.16 303.385 74.6 303.385 73.624C303.385 72.648 304.713 72.088 306.969 72.088C309.209 72.088 310.553 72.648 310.553 73.624C310.553 74.6 309.209 75.16 306.969 75.16ZM306.969 71.064C303.897 71.064 302.057 71.976 302.057 73.624C302.057 75.272 303.897 76.168 306.969 76.168C310.057 76.168 311.881 75.272 311.881 73.624C311.881 71.976 310.057 71.064 306.969 71.064ZM304.985 67.256C305.577 67.352 306.249 67.416 306.969 67.416C307.705 67.416 308.377 67.352 308.969 67.256V68.936H304.985V67.256ZM303.273 64.76C303.273 63.72 304.681 63.112 306.969 63.112C309.257 63.112 310.665 63.72 310.665 64.76C310.665 65.784 309.257 66.408 306.969 66.408C304.681 66.408 303.273 65.784 303.273 64.76ZM310.265 68.936V66.904C311.369 66.456 312.009 65.72 312.009 64.76C312.009 63.08 310.089 62.088 306.969 62.088C303.865 62.088 301.929 63.08 301.929 64.76C301.929 65.736 302.553 66.456 303.689 66.92V68.936H300.473V69.992H313.465V68.936H310.265ZM320.135 70.616H323.415V73.336H320.135V70.616ZM324.711 73.336V70.616H326.951V69.544H318.119V67.24H326.615V62.888H316.791V63.96H325.335V66.184H316.823V70.616H318.839V73.336H315.191V74.408H328.231V73.336H324.711ZM375.048 63.24H371.592V61.784H370.28V63.24H366.808V64.216H375.048V63.24ZM368.824 67.016C368.824 66.248 369.64 65.752 370.936 65.752C372.2 65.752 373.032 66.248 373.032 67.016C373.032 67.816 372.2 68.296 370.936 68.296C369.64 68.296 368.824 67.816 368.824 67.016ZM375.48 69.848C374.248 70.056 372.904 70.168 371.592 70.232V69.208C373.24 69.032 374.28 68.248 374.28 67.016C374.28 65.656 372.936 64.824 370.936 64.824C368.92 64.824 367.576 65.656 367.576 67.016C367.576 68.248 368.632 69.048 370.28 69.208V70.296C368.904 70.344 367.576 70.36 366.456 70.36L366.6 71.416C369.096 71.4 372.536 71.352 375.576 70.792L375.48 69.848ZM369.88 72.328H368.568V75.864H378.152V74.792H369.88V72.328ZM377.64 66.84V61.832H376.328V73.064H377.64V67.928H379.752V66.84H377.64ZM391.223 65.784H384.247V64.408H391.223V65.784ZM392.519 62.056H391.223V63.416H384.247V62.056H382.951V66.792H392.519V62.056ZM394.215 69.016V67.96H381.223V69.016H387.063V70.424H382.791V71.416H391.255V72.664H382.839V76.024H392.983V75.016H384.119V73.624H392.551V70.424H388.375V69.016H394.215ZM397.333 75.208C397.909 75.208 398.389 74.76 398.389 74.104C398.389 73.448 397.909 72.968 397.333 72.968C396.757 72.968 396.277 73.448 396.277 74.104C396.277 74.76 396.757 75.208 397.333 75.208ZM4.416 94.296C4.992 94.296 5.472 93.832 5.472 93.192C5.472 92.52 4.992 92.056 4.416 92.056C3.84 92.056 3.36 92.52 3.36 93.192C3.36 93.832 3.84 94.296 4.416 94.296ZM18.2109 87.08H16.9149V89.656C16.9149 92.264 15.2829 95.016 13.2189 96.072L14.0029 97.128C15.6189 96.264 16.9469 94.472 17.5709 92.376C18.2269 94.344 19.5229 96.024 21.0429 96.84L21.8589 95.8C19.8429 94.792 18.2109 92.184 18.2109 89.656V87.08ZM26.8029 91.656H24.4349V85.848H23.1229V100.184H24.4349V92.744H26.8029V91.656ZM34.5936 99.16C32.3376 99.16 31.0096 98.6 31.0096 97.624C31.0096 96.648 32.3376 96.088 34.5936 96.088C36.8336 96.088 38.1776 96.648 38.1776 97.624C38.1776 98.6 36.8336 99.16 34.5936 99.16ZM34.5936 95.064C31.5216 95.064 29.6816 95.976 29.6816 97.624C29.6816 99.272 31.5216 100.168 34.5936 100.168C37.6816 100.168 39.5056 99.272 39.5056 97.624C39.5056 95.976 37.6816 95.064 34.5936 95.064ZM32.6096 91.256C33.2016 91.352 33.8736 91.416 34.5936 91.416C35.3296 91.416 36.0016 91.352 36.5936 91.256V92.936H32.6096V91.256ZM30.8976 88.76C30.8976 87.72 32.3056 87.112 34.5936 87.112C36.8816 87.112 38.2896 87.72 38.2896 88.76C38.2896 89.784 36.8816 90.408 34.5936 90.408C32.3056 90.408 30.8976 89.784 30.8976 88.76ZM37.8896 92.936V90.904C38.9936 90.456 39.6336 89.72 39.6336 88.76C39.6336 87.08 37.7136 86.088 34.5936 86.088C31.4896 86.088 29.5536 87.08 29.5536 88.76C29.5536 89.736 30.1776 90.456 31.3136 90.92V92.936H28.0976V93.992H41.0896V92.936H37.8896ZM43.3764 87.688V88.76H47.6804C47.4884 91.736 46.1284 94.328 42.8324 96.168L43.6004 97.112C47.6804 94.808 48.9764 91.384 48.9764 87.688H43.3764ZM53.7444 85.832V91.608H51.7924V86.216H50.5604V99.464H51.7924V92.68H53.7444V100.184H55.0084V85.832H53.7444ZM62.6391 87.08H61.3431V89.656C61.3431 92.376 59.5991 95.128 57.4871 96.136L58.2871 97.208C59.9671 96.344 61.3431 94.552 61.9991 92.392C62.6871 94.44 64.0631 96.136 65.6951 96.936L66.4791 95.88C64.3511 94.92 62.6391 92.28 62.6391 89.656V87.08ZM67.9831 85.832V100.216H69.2951V85.832H67.9831ZM84.0459 85.832H82.7339V93.192H84.0459V85.832ZM73.8699 89.544C73.8699 88.296 74.9099 87.416 76.3019 87.416C77.7099 87.416 78.7339 88.296 78.7339 89.544C78.7339 90.776 77.7099 91.656 76.3019 91.656C74.9099 91.656 73.8699 90.776 73.8699 89.544ZM80.0139 89.544C80.0139 87.64 78.4459 86.344 76.3019 86.344C74.1579 86.344 72.6059 87.64 72.6059 89.544C72.6059 91.432 74.1579 92.712 76.3019 92.712C78.4459 92.712 80.0139 91.432 80.0139 89.544ZM76.0779 98.952V97.368H84.0459V93.896H74.7499V94.936H82.7499V96.392H74.7819V99.992H84.5259V98.952H76.0779ZM91.4148 87.384V88.44H96.8068C96.5348 91.848 94.6148 94.6 90.7588 96.44L91.4628 97.512C96.2308 95.176 98.1348 91.528 98.1348 87.384H91.4148ZM101.031 85.832V100.184H102.343V85.832H101.031ZM106.566 92.184C108.886 91.832 110.998 90.68 111.782 89.016C112.55 90.68 114.662 91.832 116.998 92.184L117.478 91.128C114.95 90.792 112.63 89.368 112.63 87.624V87.608H117.094V86.552H106.47V87.608H110.934V87.624C110.934 89.368 108.614 90.792 106.07 91.128L106.566 92.184ZM108.23 95.8H106.918V99.864H116.838V98.792H108.23V95.8ZM105.254 93.224V94.28H111.222V97.192H112.534V94.28H118.278V93.224H105.254ZM127.165 99.224C129.421 99.224 131.325 97.96 131.325 95.784C131.325 94.232 130.301 93.24 128.973 92.872V92.792C130.221 92.296 130.941 91.368 130.941 90.088C130.941 88.072 129.389 86.936 127.101 86.936C125.709 86.936 124.573 87.496 123.549 88.392L124.749 89.832C125.453 89.176 126.141 88.792 126.989 88.792C127.997 88.792 128.573 89.336 128.573 90.264C128.573 91.32 127.869 92.072 125.693 92.072V93.752C128.269 93.752 128.957 94.488 128.957 95.64C128.957 96.712 128.141 97.304 126.941 97.304C125.869 97.304 125.005 96.776 124.301 96.088L123.197 97.576C124.029 98.52 125.293 99.224 127.165 99.224ZM145.131 85.64H143.003V93.016H145.131V85.64ZM135.147 89.432C135.147 88.392 135.963 87.768 137.051 87.768C138.139 87.768 138.923 88.392 138.923 89.432C138.923 90.488 138.139 91.096 137.051 91.096C135.963 91.096 135.147 90.488 135.147 89.432ZM140.971 89.432C140.971 87.48 139.291 86.072 137.051 86.072C134.795 86.072 133.099 87.48 133.099 89.432C133.099 91.4 134.795 92.808 137.051 92.808C139.291 92.808 140.971 91.4 140.971 89.432ZM137.419 98.568V97.64H145.131V93.624H135.307V95.24H143.035V96.136H135.323V100.2H145.499V98.568H137.419ZM155.514 89.448V91.16H157.818V96.392H159.93V85.64H157.818V89.448H155.514ZM156.49 92.84C154.17 92.056 153.162 90.248 153.162 88.504V88.312H156.026V86.632H148.106V88.312H151.002V88.52C151.002 90.376 149.946 92.312 147.53 93.096L148.602 94.776C150.314 94.2 151.466 93.032 152.122 91.576C152.762 92.904 153.85 93.96 155.466 94.488L156.49 92.84ZM152.33 98.44V95.496H150.218V100.12H160.266V98.44H152.33ZM165.385 102.232L166.857 101.608C165.513 99.272 164.905 96.584 164.905 93.944C164.905 91.336 165.513 88.632 166.857 86.296L165.385 85.672C163.881 88.136 163.001 90.76 163.001 93.944C163.001 97.16 163.881 99.752 165.385 102.232ZM169.144 99H172.52C176.008 99 178.248 97.016 178.248 93.032C178.248 89.032 176.008 87.144 172.391 87.144H169.144V99ZM171.512 97.096V89.048H172.248C174.456 89.048 175.832 90.136 175.832 93.032C175.832 95.912 174.456 97.096 172.248 97.096H171.512ZM179.893 95.256H184.261V93.576H179.893V95.256ZM189.415 99.224C191.671 99.224 193.575 97.96 193.575 95.784C193.575 94.232 192.551 93.24 191.223 92.872V92.792C192.471 92.296 193.191 91.368 193.191 90.088C193.191 88.072 191.639 86.936 189.351 86.936C187.959 86.936 186.823 87.496 185.799 88.392L186.999 89.832C187.703 89.176 188.391 88.792 189.239 88.792C190.247 88.792 190.823 89.336 190.823 90.264C190.823 91.32 190.119 92.072 187.943 92.072V93.752C190.519 93.752 191.207 94.488 191.207 95.64C191.207 96.712 190.391 97.304 189.191 97.304C188.119 97.304 187.255 96.776 186.551 96.088L185.447 97.576C186.279 98.52 187.543 99.224 189.415 99.224ZM196.741 102.232C198.261 99.752 199.141 97.16 199.141 93.944C199.141 90.76 198.261 88.136 196.741 85.672L195.285 86.296C196.629 88.632 197.237 91.336 197.237 93.944C197.237 96.584 196.629 99.272 195.285 101.608L196.741 102.232ZM206.189 93.16C207.901 92.808 209.069 91.992 209.725 90.92C210.381 91.88 211.485 92.616 213.133 92.936L213.949 91.304C211.805 90.92 210.797 89.896 210.733 88.728H213.613V87.096H210.733V85.656H208.621V87.096H205.741V88.728H208.621C208.557 89.976 207.549 91.112 205.341 91.528L206.189 93.16ZM214.205 93.352C211.117 93.768 207.549 93.784 204.861 93.784L205.117 95.496C206.173 95.496 207.357 95.496 208.605 95.448V99.928H210.717V95.32C211.917 95.224 213.149 95.08 214.333 94.872L214.205 93.352ZM215.037 85.64V100.36H217.149V85.64H215.037ZM232.428 92.36C229.068 91.816 227.26 89.608 227.26 87.512V86.456H225.004V87.512C225.004 89.56 223.18 91.816 219.852 92.36L220.716 94.104C223.292 93.64 225.164 92.248 226.124 90.44C227.084 92.264 228.972 93.64 231.564 94.104L232.428 92.36ZM227.196 96.936V93.64H225.084V96.936H219.532V98.632H232.876V96.936H227.196ZM243.588 86.776H241.476V88.92C241.476 91.784 240.26 94.632 237.684 95.736L238.948 97.48C240.708 96.648 241.908 95.064 242.564 93.096C243.22 94.904 244.356 96.36 246.052 97.128L247.252 95.416C244.756 94.344 243.588 91.656 243.588 88.92V86.776ZM247.972 85.624V100.408H250.084V85.624H247.972ZM264.7 90.92C262.412 91.368 260.364 91.512 258.332 91.528V86.504H257.036V92.632H258.156C260.3 92.632 262.444 92.472 264.86 91.992L264.7 90.92ZM266.172 98.936H259.708V97.032H266.172V98.936ZM266.172 95.976H259.708V94.072H258.412V99.992H267.468V94.072H266.172V95.976ZM269.612 89.048H267.484V85.848H266.156V93.304H267.484V90.136H269.612V89.048ZM281.099 91.544H273.979V89.432H281.099V91.544ZM282.411 86.408H281.099V88.376H273.979V86.408H272.683V92.616H282.411V86.408ZM284.059 94.344H271.035V95.4H276.859V100.2H278.171V95.4H284.059V94.344ZM290.586 87.08H289.29V89.656C289.29 92.264 287.658 95.016 285.594 96.072L286.378 97.128C287.994 96.264 289.322 94.472 289.946 92.376C290.602 94.344 291.898 96.024 293.418 96.84L294.234 95.8C292.218 94.792 290.586 92.184 290.586 89.656V87.08ZM299.178 91.656H296.81V85.848H295.498V100.184H296.81V92.744H299.178V91.656ZM306.969 99.16C304.713 99.16 303.385 98.6 303.385 97.624C303.385 96.648 304.713 96.088 306.969 96.088C309.209 96.088 310.553 96.648 310.553 97.624C310.553 98.6 309.209 99.16 306.969 99.16ZM306.969 95.064C303.897 95.064 302.057 95.976 302.057 97.624C302.057 99.272 303.897 100.168 306.969 100.168C310.057 100.168 311.881 99.272 311.881 97.624C311.881 95.976 310.057 95.064 306.969 95.064ZM304.985 91.256C305.577 91.352 306.249 91.416 306.969 91.416C307.705 91.416 308.377 91.352 308.969 91.256V92.936H304.985V91.256ZM303.273 88.76C303.273 87.72 304.681 87.112 306.969 87.112C309.257 87.112 310.665 87.72 310.665 88.76C310.665 89.784 309.257 90.408 306.969 90.408C304.681 90.408 303.273 89.784 303.273 88.76ZM310.265 92.936V90.904C311.369 90.456 312.009 89.72 312.009 88.76C312.009 87.08 310.089 86.088 306.969 86.088C303.865 86.088 301.929 87.08 301.929 88.76C301.929 89.736 302.553 90.456 303.689 90.92V92.936H300.473V93.992H313.465V92.936H310.265ZM320.135 94.616H323.415V97.336H320.135V94.616ZM324.711 97.336V94.616H326.951V93.544H318.119V91.24H326.615V86.888H316.791V87.96H325.335V90.184H316.823V94.616H318.839V97.336H315.191V98.408H328.231V97.336H324.711ZM334.582 86.888C332.358 86.888 330.742 88.248 330.742 90.264C330.742 92.264 332.358 93.64 334.582 93.64C336.822 93.64 338.422 92.264 338.422 90.264C338.422 88.248 336.822 86.888 334.582 86.888ZM334.582 88.008C336.07 88.008 337.142 88.92 337.142 90.264C337.142 91.592 336.07 92.52 334.582 92.52C333.094 92.52 332.022 91.592 332.022 90.264C332.022 88.92 333.094 88.008 334.582 88.008ZM340.31 85.832V100.216H341.622V85.832H340.31ZM330.182 97.064C332.774 97.064 336.246 97.048 339.478 96.44L339.366 95.464C336.23 95.944 332.63 95.96 330.022 95.96L330.182 97.064ZM348.783 99H355.215V97.784H352.863V87.272H351.743C351.103 87.64 350.351 87.912 349.311 88.104V89.032H351.391V97.784H348.783V99ZM360.698 99.208C362.922 99.208 364.346 97.176 364.346 93.096C364.346 89.032 362.922 87.048 360.698 87.048C358.458 87.048 357.034 89.016 357.034 93.096C357.034 97.176 358.458 99.208 360.698 99.208ZM360.698 98.04C359.354 98.04 358.458 96.552 358.458 93.096C358.458 89.672 359.354 88.232 360.698 88.232C362.026 88.232 362.922 89.672 362.922 93.096C362.922 96.552 362.026 98.04 360.698 98.04ZM369.573 99.208C371.797 99.208 373.221 97.176 373.221 93.096C373.221 89.032 371.797 87.048 369.573 87.048C367.333 87.048 365.909 89.016 365.909 93.096C365.909 97.176 367.333 99.208 369.573 99.208ZM369.573 98.04C368.229 98.04 367.333 96.552 367.333 93.096C367.333 89.672 368.229 88.232 369.573 88.232C370.901 88.232 371.797 89.672 371.797 93.096C371.797 96.552 370.901 98.04 369.573 98.04ZM384.832 90.984H377.856V89.128H384.832V90.984ZM386.128 86.296H384.832V88.12H377.856V86.296H376.56V92.024H386.128V86.296ZM377.776 95.96H376.48V99.864H386.4V98.792H377.776V95.96ZM374.816 93.416V94.472H380.784V97.256H382.096V94.472H387.856V93.416H374.816ZM394.223 86.888C391.999 86.888 390.383 88.248 390.383 90.264C390.383 92.264 391.999 93.64 394.223 93.64C396.463 93.64 398.063 92.264 398.063 90.264C398.063 88.248 396.463 86.888 394.223 86.888ZM394.223 88.008C395.711 88.008 396.783 88.92 396.783 90.264C396.783 91.592 395.711 92.52 394.223 92.52C392.735 92.52 391.663 91.592 391.663 90.264C391.663 88.92 392.735 88.008 394.223 88.008ZM399.951 85.832V100.216H401.263V85.832H399.951ZM389.823 97.064C392.415 97.064 395.887 97.048 399.119 96.44L399.007 95.464C395.871 95.944 392.271 95.96 389.663 95.96L389.823 97.064ZM408.424 99H414.856V97.784H412.504V87.272H411.384C410.744 87.64 409.992 87.912 408.952 88.104V89.032H411.032V97.784H408.424V99ZM420.339 99.208C422.563 99.208 423.987 97.176 423.987 93.096C423.987 89.032 422.563 87.048 420.339 87.048C418.099 87.048 416.675 89.016 416.675 93.096C416.675 97.176 418.099 99.208 420.339 99.208ZM420.339 98.04C418.995 98.04 418.099 96.552 418.099 93.096C418.099 89.672 418.995 88.232 420.339 88.232C421.667 88.232 422.563 89.672 422.563 93.096C422.563 96.552 421.667 98.04 420.339 98.04ZM432.094 87.064C434.446 87.064 435.79 87.608 435.79 88.568C435.79 89.528 434.446 90.072 432.094 90.072C429.742 90.072 428.398 89.528 428.398 88.568C428.398 87.608 429.742 87.064 432.094 87.064ZM432.094 91.048C435.246 91.048 437.134 90.184 437.134 88.568C437.134 86.952 435.246 86.072 432.094 86.072C428.942 86.072 427.054 86.952 427.054 88.568C427.054 90.184 428.942 91.048 432.094 91.048ZM428.494 97.544H436.926V94.312H427.166V95.304H435.63V96.584H427.214V100.024H437.358V99H428.494V97.544ZM425.598 92.024V93.08H438.59V92.024H425.598ZM453.943 87.784C453.943 88.904 453.943 89.96 453.559 91.432L454.839 91.576C455.239 90.104 455.239 88.936 455.239 87.784V86.568H445.463V87.624H453.943V87.784ZM450.343 99.144C448.103 99.144 446.663 98.536 446.663 97.544C446.663 96.52 448.103 95.912 450.343 95.912C452.599 95.912 454.039 96.52 454.039 97.544C454.039 98.536 452.599 99.144 450.343 99.144ZM450.343 94.904C447.286 94.904 445.351 95.88 445.351 97.544C445.351 99.176 447.286 100.168 450.343 100.168C453.399 100.168 455.351 99.176 455.351 97.544C455.351 95.88 453.399 94.904 450.343 94.904ZM450.551 92.52V89.768H449.239V92.52H443.943V93.592H456.855V92.52H450.551ZM462.837 88.584H465.397V87.512H458.853V88.584H461.573V89.88C461.573 92.52 460.453 95.128 458.453 96.328L459.253 97.304C460.677 96.408 461.717 94.728 462.213 92.76C462.709 94.584 463.701 96.12 465.093 96.952L465.893 95.992C463.909 94.872 462.837 92.376 462.837 89.88V88.584ZM466.677 90.984H464.309V92.056H466.677V99.432H467.925V86.152H466.677V90.984ZM469.557 85.816V100.168H470.821V85.816H469.557ZM481.86 87.592H478.276V85.848H476.964V87.592H473.396V88.648H481.86V87.592ZM475.444 92.104C475.444 91.112 476.308 90.472 477.62 90.472C478.916 90.472 479.812 91.112 479.812 92.104C479.812 93.112 478.916 93.752 477.62 93.752C476.308 93.752 475.444 93.112 475.444 92.104ZM481.06 92.104C481.06 90.504 479.652 89.448 477.62 89.448C475.588 89.448 474.196 90.504 474.196 92.104C474.196 93.72 475.588 94.776 477.62 94.776C479.652 94.776 481.06 93.72 481.06 92.104ZM476.868 95.752H475.556V99.864H485.124V98.792H476.868V95.752ZM484.484 90.568V85.848H483.172V96.6H484.484V91.672H486.612V90.568H484.484ZM493.517 87.224H492.221V96.552H493.357C495.549 96.552 497.741 96.392 500.189 95.896L500.029 94.808C497.709 95.272 495.581 95.448 493.517 95.448V87.224ZM504.989 91.56H502.685V85.832H501.373V100.184H502.685V92.648H504.989V91.56ZM512.172 95.512H508.22V88.28H512.172V95.512ZM516.876 85.832V91.064H513.468V87.24H506.94V96.552H513.468V92.136H516.876V100.216H518.188V85.832H516.876ZM526.202 88.392H529.578V87.304H521.562V88.392H524.89V90.216C524.89 92.696 523.146 95.4 521.082 96.376L521.85 97.432C523.482 96.6 524.89 94.792 525.546 92.696C526.234 94.664 527.642 96.312 529.306 97.08L530.042 96.024C527.93 95.128 526.202 92.648 526.202 90.216V88.392ZM531.514 85.848V100.184H532.826V85.848H531.514ZM542.259 95.944H549.475V98.936H542.259V95.944ZM540.979 99.992H550.771V94.888H540.979V99.992ZM550.339 91.88C550.723 90.088 550.723 88.776 550.723 87.656V86.6H541.027V87.656H549.427C549.427 88.776 549.427 90.088 549.011 91.88H539.363V92.936H552.403V91.88H550.339ZM555.426 90.12C555.426 88.792 556.306 87.832 557.506 87.832C558.69 87.832 559.57 88.792 559.57 90.12C559.57 91.448 558.69 92.408 557.506 92.408C556.306 92.408 555.426 91.448 555.426 90.12ZM560.77 90.12C560.77 88.104 559.378 86.728 557.506 86.728C555.618 86.728 554.242 88.104 554.242 90.12C554.242 92.12 555.618 93.496 557.506 93.496C559.378 93.496 560.77 92.12 560.77 90.12ZM556.562 96.248H564.898V100.2H566.21V95.192H556.562V96.248ZM564.946 85.832V89.528H563.122V86.104H561.89V94.296H563.122V90.6H564.946V94.376H566.21V85.832H564.946ZM627.267 87.24H623.811V85.784H622.499V87.24H619.027V88.216H627.267V87.24ZM621.043 91.016C621.043 90.248 621.859 89.752 623.155 89.752C624.419 89.752 625.251 90.248 625.251 91.016C625.251 91.816 624.419 92.296 623.155 92.296C621.859 92.296 621.043 91.816 621.043 91.016ZM627.699 93.848C626.467 94.056 625.123 94.168 623.811 94.232V93.208C625.459 93.032 626.499 92.248 626.499 91.016C626.499 89.656 625.155 88.824 623.155 88.824C621.139 88.824 619.795 89.656 619.795 91.016C619.795 92.248 620.851 93.048 622.499 93.208V94.296C621.123 94.344 619.795 94.36 618.675 94.36L618.819 95.416C621.315 95.4 624.755 95.352 627.795 94.792L627.699 93.848ZM622.099 96.328H620.787V99.864H630.371V98.792H622.099V96.328ZM629.859 90.84V85.832H628.547V97.064H629.859V91.928H631.971V90.84H629.859ZM643.441 89.784H636.465V88.408H643.441V89.784ZM644.737 86.056H643.441V87.416H636.465V86.056H635.169V90.792H644.737V86.056ZM646.433 93.016V91.96H633.441V93.016H639.281V94.424H635.009V95.416H643.473V96.664H635.057V100.024H645.201V99.016H636.337V97.624H644.769V94.424H640.593V93.016H646.433ZM649.552 99.208C650.128 99.208 650.608 98.76 650.608 98.104C650.608 97.448 650.128 96.968 649.552 96.968C648.976 96.968 648.496 97.448 648.496 98.104C648.496 98.76 648.976 99.208 649.552 99.208ZM4.416 118.296C4.992 118.296 5.472 117.832 5.472 117.192C5.472 116.52 4.992 116.056 4.416 116.056C3.84 116.056 3.36 116.52 3.36 117.192C3.36 117.832 3.84 118.296 4.416 118.296ZM18.2109 111.08H16.9149V113.656C16.9149 116.264 15.2829 119.016 13.2189 120.072L14.0029 121.128C15.6189 120.264 16.9469 118.472 17.5709 116.376C18.2269 118.344 19.5229 120.024 21.0429 120.84L21.8589 119.8C19.8429 118.792 18.2109 116.184 18.2109 113.656V111.08ZM26.8029 115.656H24.4349V109.848H23.1229V124.184H24.4349V116.744H26.8029V115.656ZM34.5936 123.16C32.3376 123.16 31.0096 122.6 31.0096 121.624C31.0096 120.648 32.3376 120.088 34.5936 120.088C36.8336 120.088 38.1776 120.648 38.1776 121.624C38.1776 122.6 36.8336 123.16 34.5936 123.16ZM34.5936 119.064C31.5216 119.064 29.6816 119.976 29.6816 121.624C29.6816 123.272 31.5216 124.168 34.5936 124.168C37.6816 124.168 39.5056 123.272 39.5056 121.624C39.5056 119.976 37.6816 119.064 34.5936 119.064ZM32.6096 115.256C33.2016 115.352 33.8736 115.416 34.5936 115.416C35.3296 115.416 36.0016 115.352 36.5936 115.256V116.936H32.6096V115.256ZM30.8976 112.76C30.8976 111.72 32.3056 111.112 34.5936 111.112C36.8816 111.112 38.2896 111.72 38.2896 112.76C38.2896 113.784 36.8816 114.408 34.5936 114.408C32.3056 114.408 30.8976 113.784 30.8976 112.76ZM37.8896 116.936V114.904C38.9936 114.456 39.6336 113.72 39.6336 112.76C39.6336 111.08 37.7136 110.088 34.5936 110.088C31.4896 110.088 29.5536 111.08 29.5536 112.76C29.5536 113.736 30.1776 114.456 31.3136 114.92V116.936H28.0976V117.992H41.0896V116.936H37.8896ZM43.3764 111.688V112.76H47.6804C47.4884 115.736 46.1284 118.328 42.8324 120.168L43.6004 121.112C47.6804 118.808 48.9764 115.384 48.9764 111.688H43.3764ZM53.7444 109.832V115.608H51.7924V110.216H50.5604V123.464H51.7924V116.68H53.7444V124.184H55.0084V109.832H53.7444ZM62.6391 111.08H61.3431V113.656C61.3431 116.376 59.5991 119.128 57.4871 120.136L58.2871 121.208C59.9671 120.344 61.3431 118.552 61.9991 116.392C62.6871 118.44 64.0631 120.136 65.6951 120.936L66.4791 119.88C64.3511 118.92 62.6391 116.28 62.6391 113.656V111.08ZM67.9831 109.832V124.216H69.2951V109.832H67.9831ZM84.0459 109.832H82.7339V117.192H84.0459V109.832ZM73.8699 113.544C73.8699 112.296 74.9099 111.416 76.3019 111.416C77.7099 111.416 78.7339 112.296 78.7339 113.544C78.7339 114.776 77.7099 115.656 76.3019 115.656C74.9099 115.656 73.8699 114.776 73.8699 113.544ZM80.0139 113.544C80.0139 111.64 78.4459 110.344 76.3019 110.344C74.1579 110.344 72.6059 111.64 72.6059 113.544C72.6059 115.432 74.1579 116.712 76.3019 116.712C78.4459 116.712 80.0139 115.432 80.0139 113.544ZM76.0779 122.952V121.368H84.0459V117.896H74.7499V118.936H82.7499V120.392H74.7819V123.992H84.5259V122.952H76.0779ZM91.4148 111.384V112.44H96.8068C96.5348 115.848 94.6148 118.6 90.7588 120.44L91.4628 121.512C96.2308 119.176 98.1348 115.528 98.1348 111.384H91.4148ZM101.031 109.832V124.184H102.343V109.832H101.031ZM106.566 116.184C108.886 115.832 110.998 114.68 111.782 113.016C112.55 114.68 114.662 115.832 116.998 116.184L117.478 115.128C114.95 114.792 112.63 113.368 112.63 111.624V111.608H117.094V110.552H106.47V111.608H110.934V111.624C110.934 113.368 108.614 114.792 106.07 115.128L106.566 116.184ZM108.23 119.8H106.918V123.864H116.838V122.792H108.23V119.8ZM105.254 117.224V118.28H111.222V121.192H112.534V118.28H118.278V117.224H105.254ZM124.093 123H131.213V121.096H128.989V111.144H127.245C126.493 111.624 125.677 111.928 124.493 112.152V113.608H126.637V121.096H124.093V123ZM145.131 109.64H143.003V117.016H145.131V109.64ZM135.147 113.432C135.147 112.392 135.963 111.768 137.051 111.768C138.139 111.768 138.923 112.392 138.923 113.432C138.923 114.488 138.139 115.096 137.051 115.096C135.963 115.096 135.147 114.488 135.147 113.432ZM140.971 113.432C140.971 111.48 139.291 110.072 137.051 110.072C134.795 110.072 133.099 111.48 133.099 113.432C133.099 115.4 134.795 116.808 137.051 116.808C139.291 116.808 140.971 115.4 140.971 113.432ZM137.419 122.568V121.64H145.131V117.624H135.307V119.24H143.035V120.136H135.323V124.2H145.499V122.568H137.419ZM155.514 113.448V115.16H157.818V120.392H159.93V109.64H157.818V113.448H155.514ZM156.49 116.84C154.17 116.056 153.162 114.248 153.162 112.504V112.312H156.026V110.632H148.106V112.312H151.002V112.52C151.002 114.376 149.946 116.312 147.53 117.096L148.602 118.776C150.314 118.2 151.466 117.032 152.122 115.576C152.762 116.904 153.85 117.96 155.466 118.488L156.49 116.84ZM152.33 122.44V119.496H150.218V124.12H160.266V122.44H152.33ZM165.385 126.232L166.857 125.608C165.513 123.272 164.905 120.584 164.905 117.944C164.905 115.336 165.513 112.632 166.857 110.296L165.385 109.672C163.881 112.136 163.001 114.76 163.001 117.944C163.001 121.16 163.881 123.752 165.385 126.232ZM169.144 123H172.52C176.008 123 178.248 121.016 178.248 117.032C178.248 113.032 176.008 111.144 172.391 111.144H169.144V123ZM171.512 121.096V113.048H172.248C174.456 113.048 175.832 114.136 175.832 117.032C175.832 119.912 174.456 121.096 172.248 121.096H171.512ZM179.893 119.256H184.261V117.576H179.893V119.256ZM186.343 123H193.463V121.096H191.239V111.144H189.495C188.743 111.624 187.927 111.928 186.743 112.152V113.608H188.887V121.096H186.343V123ZM196.741 126.232C198.261 123.752 199.141 121.16 199.141 117.944C199.141 114.76 198.261 112.136 196.741 109.672L195.285 110.296C196.629 112.632 197.237 115.336 197.237 117.944C197.237 120.584 196.629 123.272 195.285 125.608L196.741 126.232ZM206.189 117.16C207.901 116.808 209.069 115.992 209.725 114.92C210.381 115.88 211.485 116.616 213.133 116.936L213.949 115.304C211.805 114.92 210.797 113.896 210.733 112.728H213.613V111.096H210.733V109.656H208.621V111.096H205.741V112.728H208.621C208.557 113.976 207.549 115.112 205.341 115.528L206.189 117.16ZM214.205 117.352C211.117 117.768 207.549 117.784 204.861 117.784L205.117 119.496C206.173 119.496 207.357 119.496 208.605 119.448V123.928H210.717V119.32C211.917 119.224 213.149 119.08 214.333 118.872L214.205 117.352ZM215.037 109.64V124.36H217.149V109.64H215.037ZM232.428 116.36C229.068 115.816 227.26 113.608 227.26 111.512V110.456H225.004V111.512C225.004 113.56 223.18 115.816 219.852 116.36L220.716 118.104C223.292 117.64 225.164 116.248 226.124 114.44C227.084 116.264 228.972 117.64 231.564 118.104L232.428 116.36ZM227.196 120.936V117.64H225.084V120.936H219.532V122.632H232.876V120.936H227.196ZM243.588 110.776H241.476V112.92C241.476 115.784 240.26 118.632 237.684 119.736L238.948 121.48C240.708 120.648 241.908 119.064 242.564 117.096C243.22 118.904 244.356 120.36 246.052 121.128L247.252 119.416C244.756 118.344 243.588 115.656 243.588 112.92V110.776ZM247.972 109.624V124.408H250.084V109.624H247.972ZM264.7 114.92C262.412 115.368 260.364 115.512 258.332 115.528V110.504H257.036V116.632H258.156C260.3 116.632 262.444 116.472 264.86 115.992L264.7 114.92ZM266.172 122.936H259.708V121.032H266.172V122.936ZM266.172 119.976H259.708V118.072H258.412V123.992H267.468V118.072H266.172V119.976ZM269.612 113.048H267.484V109.848H266.156V117.304H267.484V114.136H269.612V113.048ZM281.099 115.544H273.979V113.432H281.099V115.544ZM282.411 110.408H281.099V112.376H273.979V110.408H272.683V116.616H282.411V110.408ZM284.059 118.344H271.035V119.4H276.859V124.2H278.171V119.4H284.059V118.344ZM290.586 111.08H289.29V113.656C289.29 116.264 287.658 119.016 285.594 120.072L286.378 121.128C287.994 120.264 289.322 118.472 289.946 116.376C290.602 118.344 291.898 120.024 293.418 120.84L294.234 119.8C292.218 118.792 290.586 116.184 290.586 113.656V111.08ZM299.178 115.656H296.81V109.848H295.498V124.184H296.81V116.744H299.178V115.656ZM306.969 123.16C304.713 123.16 303.385 122.6 303.385 121.624C303.385 120.648 304.713 120.088 306.969 120.088C309.209 120.088 310.553 120.648 310.553 121.624C310.553 122.6 309.209 123.16 306.969 123.16ZM306.969 119.064C303.897 119.064 302.057 119.976 302.057 121.624C302.057 123.272 303.897 124.168 306.969 124.168C310.057 124.168 311.881 123.272 311.881 121.624C311.881 119.976 310.057 119.064 306.969 119.064ZM304.985 115.256C305.577 115.352 306.249 115.416 306.969 115.416C307.705 115.416 308.377 115.352 308.969 115.256V116.936H304.985V115.256ZM303.273 112.76C303.273 111.72 304.681 111.112 306.969 111.112C309.257 111.112 310.665 111.72 310.665 112.76C310.665 113.784 309.257 114.408 306.969 114.408C304.681 114.408 303.273 113.784 303.273 112.76ZM310.265 116.936V114.904C311.369 114.456 312.009 113.72 312.009 112.76C312.009 111.08 310.089 110.088 306.969 110.088C303.865 110.088 301.929 111.08 301.929 112.76C301.929 113.736 302.553 114.456 303.689 114.92V116.936H300.473V117.992H313.465V116.936H310.265ZM320.135 118.616H323.415V121.336H320.135V118.616ZM324.711 121.336V118.616H326.951V117.544H318.119V115.24H326.615V110.888H316.791V111.96H325.335V114.184H316.823V118.616H318.839V121.336H315.191V122.408H328.231V121.336H324.711ZM334.582 110.888C332.358 110.888 330.742 112.248 330.742 114.264C330.742 116.264 332.358 117.64 334.582 117.64C336.822 117.64 338.422 116.264 338.422 114.264C338.422 112.248 336.822 110.888 334.582 110.888ZM334.582 112.008C336.07 112.008 337.142 112.92 337.142 114.264C337.142 115.592 336.07 116.52 334.582 116.52C333.094 116.52 332.022 115.592 332.022 114.264C332.022 112.92 333.094 112.008 334.582 112.008ZM340.31 109.832V124.216H341.622V109.832H340.31ZM330.182 121.064C332.774 121.064 336.246 121.048 339.478 120.44L339.366 119.464C336.23 119.944 332.63 119.96 330.022 119.96L330.182 121.064ZM348.783 123H355.215V121.784H352.863V111.272H351.743C351.103 111.64 350.351 111.912 349.311 112.104V113.032H351.391V121.784H348.783V123ZM360.698 123.208C362.922 123.208 364.346 121.176 364.346 117.096C364.346 113.032 362.922 111.048 360.698 111.048C358.458 111.048 357.034 113.016 357.034 117.096C357.034 121.176 358.458 123.208 360.698 123.208ZM360.698 122.04C359.354 122.04 358.458 120.552 358.458 117.096C358.458 113.672 359.354 112.232 360.698 112.232C362.026 112.232 362.922 113.672 362.922 117.096C362.922 120.552 362.026 122.04 360.698 122.04ZM369.573 123.208C371.797 123.208 373.221 121.176 373.221 117.096C373.221 113.032 371.797 111.048 369.573 111.048C367.333 111.048 365.909 113.016 365.909 117.096C365.909 121.176 367.333 123.208 369.573 123.208ZM369.573 122.04C368.229 122.04 367.333 120.552 367.333 117.096C367.333 113.672 368.229 112.232 369.573 112.232C370.901 112.232 371.797 113.672 371.797 117.096C371.797 120.552 370.901 122.04 369.573 122.04ZM384.832 114.984H377.856V113.128H384.832V114.984ZM386.128 110.296H384.832V112.12H377.856V110.296H376.56V116.024H386.128V110.296ZM377.776 119.96H376.48V123.864H386.4V122.792H377.776V119.96ZM374.816 117.416V118.472H380.784V121.256H382.096V118.472H387.856V117.416H374.816ZM394.223 110.888C391.999 110.888 390.383 112.248 390.383 114.264C390.383 116.264 391.999 117.64 394.223 117.64C396.463 117.64 398.063 116.264 398.063 114.264C398.063 112.248 396.463 110.888 394.223 110.888ZM394.223 112.008C395.711 112.008 396.783 112.92 396.783 114.264C396.783 115.592 395.711 116.52 394.223 116.52C392.735 116.52 391.663 115.592 391.663 114.264C391.663 112.92 392.735 112.008 394.223 112.008ZM399.951 109.832V124.216H401.263V109.832H399.951ZM389.823 121.064C392.415 121.064 395.887 121.048 399.119 120.44L399.007 119.464C395.871 119.944 392.271 119.96 389.663 119.96L389.823 121.064ZM411.24 123.208C413.32 123.208 415 121.96 415 119.864C415 118.264 413.896 117.208 412.504 116.888V116.824C413.752 116.36 414.6 115.416 414.6 113.992C414.6 112.104 413.16 111.048 411.192 111.048C409.832 111.048 408.792 111.64 407.912 112.456L408.696 113.384C409.352 112.728 410.184 112.248 411.128 112.216C412.344 112.248 413.112 112.968 413.112 114.104C413.112 115.368 412.28 116.344 409.864 116.344V117.464C412.568 117.464 413.512 118.408 413.512 119.816C413.512 121.16 412.52 121.992 411.128 121.992C409.8 121.992 408.904 121.368 408.216 120.648L407.48 121.608C408.248 122.44 409.4 123.208 411.24 123.208ZM420.339 123.208C422.563 123.208 423.987 121.176 423.987 117.096C423.987 113.032 422.563 111.048 420.339 111.048C418.099 111.048 416.675 113.016 416.675 117.096C416.675 121.176 418.099 123.208 420.339 123.208ZM420.339 122.04C418.995 122.04 418.099 120.552 418.099 117.096C418.099 113.672 418.995 112.232 420.339 112.232C421.667 112.232 422.563 113.672 422.563 117.096C422.563 120.552 421.667 122.04 420.339 122.04ZM432.094 111.064C434.446 111.064 435.79 111.608 435.79 112.568C435.79 113.528 434.446 114.072 432.094 114.072C429.742 114.072 428.398 113.528 428.398 112.568C428.398 111.608 429.742 111.064 432.094 111.064ZM432.094 115.048C435.246 115.048 437.134 114.184 437.134 112.568C437.134 110.952 435.246 110.072 432.094 110.072C428.942 110.072 427.054 110.952 427.054 112.568C427.054 114.184 428.942 115.048 432.094 115.048ZM428.494 121.544H436.926V118.312H427.166V119.304H435.63V120.584H427.214V124.024H437.358V123H428.494V121.544ZM425.598 116.024V117.08H438.59V116.024H425.598ZM453.943 111.784C453.943 112.904 453.943 113.96 453.559 115.432L454.839 115.576C455.239 114.104 455.239 112.936 455.239 111.784V110.568H445.463V111.624H453.943V111.784ZM450.343 123.144C448.103 123.144 446.663 122.536 446.663 121.544C446.663 120.52 448.103 119.912 450.343 119.912C452.599 119.912 454.039 120.52 454.039 121.544C454.039 122.536 452.599 123.144 450.343 123.144ZM450.343 118.904C447.286 118.904 445.351 119.88 445.351 121.544C445.351 123.176 447.286 124.168 450.343 124.168C453.399 124.168 455.351 123.176 455.351 121.544C455.351 119.88 453.399 118.904 450.343 118.904ZM450.551 116.52V113.768H449.239V116.52H443.943V117.592H456.855V116.52H450.551ZM462.837 112.584H465.397V111.512H458.853V112.584H461.573V113.88C461.573 116.52 460.453 119.128 458.453 120.328L459.253 121.304C460.677 120.408 461.717 118.728 462.213 116.76C462.709 118.584 463.701 120.12 465.093 120.952L465.893 119.992C463.909 118.872 462.837 116.376 462.837 113.88V112.584ZM466.677 114.984H464.309V116.056H466.677V123.432H467.925V110.152H466.677V114.984ZM469.557 109.816V124.168H470.821V109.816H469.557ZM481.86 111.592H478.276V109.848H476.964V111.592H473.396V112.648H481.86V111.592ZM475.444 116.104C475.444 115.112 476.308 114.472 477.62 114.472C478.916 114.472 479.812 115.112 479.812 116.104C479.812 117.112 478.916 117.752 477.62 117.752C476.308 117.752 475.444 117.112 475.444 116.104ZM481.06 116.104C481.06 114.504 479.652 113.448 477.62 113.448C475.588 113.448 474.196 114.504 474.196 116.104C474.196 117.72 475.588 118.776 477.62 118.776C479.652 118.776 481.06 117.72 481.06 116.104ZM476.868 119.752H475.556V123.864H485.124V122.792H476.868V119.752ZM484.484 114.568V109.848H483.172V120.6H484.484V115.672H486.612V114.568H484.484ZM493.517 111.224H492.221V120.552H493.357C495.549 120.552 497.741 120.392 500.189 119.896L500.029 118.808C497.709 119.272 495.581 119.448 493.517 119.448V111.224ZM504.989 115.56H502.685V109.832H501.373V124.184H502.685V116.648H504.989V115.56ZM512.172 119.512H508.22V112.28H512.172V119.512ZM516.876 109.832V115.064H513.468V111.24H506.94V120.552H513.468V116.136H516.876V124.216H518.188V109.832H516.876ZM526.202 112.392H529.578V111.304H521.562V112.392H524.89V114.216C524.89 116.696 523.146 119.4 521.082 120.376L521.85 121.432C523.482 120.6 524.89 118.792 525.546 116.696C526.234 118.664 527.642 120.312 529.306 121.08L530.042 120.024C527.93 119.128 526.202 116.648 526.202 114.216V112.392ZM531.514 109.848V124.184H532.826V109.848H531.514ZM542.259 119.944H549.475V122.936H542.259V119.944ZM540.979 123.992H550.771V118.888H540.979V123.992ZM550.339 115.88C550.723 114.088 550.723 112.776 550.723 111.656V110.6H541.027V111.656H549.427C549.427 112.776 549.427 114.088 549.011 115.88H539.363V116.936H552.403V115.88H550.339ZM555.426 114.12C555.426 112.792 556.306 111.832 557.506 111.832C558.69 111.832 559.57 112.792 559.57 114.12C559.57 115.448 558.69 116.408 557.506 116.408C556.306 116.408 555.426 115.448 555.426 114.12ZM560.77 114.12C560.77 112.104 559.378 110.728 557.506 110.728C555.618 110.728 554.242 112.104 554.242 114.12C554.242 116.12 555.618 117.496 557.506 117.496C559.378 117.496 560.77 116.12 560.77 114.12ZM556.562 120.248H564.898V124.2H566.21V119.192H556.562V120.248ZM564.946 109.832V113.528H563.122V110.104H561.89V118.296H563.122V114.6H564.946V118.376H566.21V109.832H564.946ZM627.267 111.24H623.811V109.784H622.499V111.24H619.027V112.216H627.267V111.24ZM621.043 115.016C621.043 114.248 621.859 113.752 623.155 113.752C624.419 113.752 625.251 114.248 625.251 115.016C625.251 115.816 624.419 116.296 623.155 116.296C621.859 116.296 621.043 115.816 621.043 115.016ZM627.699 117.848C626.467 118.056 625.123 118.168 623.811 118.232V117.208C625.459 117.032 626.499 116.248 626.499 115.016C626.499 113.656 625.155 112.824 623.155 112.824C621.139 112.824 619.795 113.656 619.795 115.016C619.795 116.248 620.851 117.048 622.499 117.208V118.296C621.123 118.344 619.795 118.36 618.675 118.36L618.819 119.416C621.315 119.4 624.755 119.352 627.795 118.792L627.699 117.848ZM622.099 120.328H620.787V123.864H630.371V122.792H622.099V120.328ZM629.859 114.84V109.832H628.547V121.064H629.859V115.928H631.971V114.84H629.859ZM643.441 113.784H636.465V112.408H643.441V113.784ZM644.737 110.056H643.441V111.416H636.465V110.056H635.169V114.792H644.737V110.056ZM646.433 117.016V115.96H633.441V117.016H639.281V118.424H635.009V119.416H643.473V120.664H635.057V124.024H645.201V123.016H636.337V121.624H644.769V118.424H640.593V117.016H646.433ZM649.552 123.208C650.128 123.208 650.608 122.76 650.608 122.104C650.608 121.448 650.128 120.968 649.552 120.968C648.976 120.968 648.496 121.448 648.496 122.104C648.496 122.76 648.976 123.208 649.552 123.208ZM4.704 142.584C5.536 142.584 6.176 141.912 6.176 141.048C6.176 140.184 5.536 139.512 4.704 139.512C3.872 139.512 3.248 140.184 3.248 141.048C3.248 141.912 3.872 142.584 4.704 142.584ZM19.2058 134.776H17.0778V136.92C17.0778 139.656 15.9578 142.472 13.4778 143.64L14.7418 145.352C16.4058 144.536 17.5098 142.984 18.1498 141.112C18.7578 142.872 19.7978 144.296 21.3338 145.08L22.6138 143.416C20.2458 142.248 19.2058 139.576 19.2058 136.92V134.776ZM27.4618 139.304H25.3178V133.64H23.2058V148.376H25.3178V141.064H27.4618V139.304ZM35.1245 146.792C33.1565 146.792 32.1485 146.456 32.1485 145.704C32.1485 144.952 33.1565 144.632 35.1245 144.632C37.0925 144.632 38.1005 144.952 38.1005 145.704C38.1005 146.456 37.0925 146.792 35.1245 146.792ZM35.1245 143.032C31.9405 143.032 30.0205 143.992 30.0205 145.704C30.0205 147.416 31.9405 148.392 35.1245 148.392C38.3085 148.392 40.2445 147.416 40.2445 145.704C40.2445 143.992 38.3085 143.032 35.1245 143.032ZM33.6045 139.4C34.0845 139.464 34.5965 139.496 35.1565 139.496C35.7005 139.496 36.2125 139.464 36.6765 139.416V140.632H33.6045V139.4ZM35.1565 135.464C37.1725 135.464 38.3245 135.864 38.3245 136.696C38.3245 137.496 37.1725 137.912 35.1565 137.912C33.1565 137.912 32.0045 137.496 32.0045 136.696C32.0045 135.864 33.1565 135.464 35.1565 135.464ZM38.7885 140.632V138.872C39.8765 138.392 40.5005 137.656 40.5005 136.696C40.5005 134.936 38.4205 133.864 35.1565 133.864C31.9085 133.864 29.8285 134.936 29.8285 136.696C29.8285 137.64 30.4365 138.376 31.4925 138.856V140.632H28.5005V142.296H41.8125V140.632H38.7885ZM43.7793 135.464V137.144H47.5073C47.2352 140.04 45.9873 142.168 43.0273 143.896L44.2593 145.368C48.3713 142.968 49.5873 139.592 49.5873 135.464H43.7793ZM53.8273 133.64V139.192H52.5153V134.024H50.5473V147.752H52.5153V140.888H53.8273V148.376H55.8433V133.64H53.8273ZM63.65 134.776H61.538V136.92C61.538 139.784 60.322 142.632 57.746 143.736L59.01 145.48C60.77 144.648 61.97 143.064 62.626 141.096C63.282 142.904 64.418 144.36 66.114 145.128L67.314 143.416C64.818 142.344 63.65 139.656 63.65 136.92V134.776ZM68.034 133.624V148.408H70.146V133.624H68.034ZM84.8968 133.64H82.7688V141.016H84.8968V133.64ZM74.9128 137.432C74.9128 136.392 75.7288 135.768 76.8168 135.768C77.9048 135.768 78.6888 136.392 78.6888 137.432C78.6888 138.488 77.9048 139.096 76.8168 139.096C75.7288 139.096 74.9128 138.488 74.9128 137.432ZM80.7368 137.432C80.7368 135.48 79.0568 134.072 76.8168 134.072C74.5608 134.072 72.8648 135.48 72.8648 137.432C72.8648 139.4 74.5608 140.808 76.8168 140.808C79.0568 140.808 80.7368 139.4 80.7368 137.432ZM77.1848 146.568V145.64H84.8968V141.624H75.0728V143.24H82.8008V144.136H75.0888V148.2H85.2648V146.568H77.1848ZM96.1365 136.536H99.1445V140.712H96.1365V136.536ZM98.6965 145.016V142.392H103.193V140.712H101.241V136.536H103.241V134.856H92.0405V136.536H94.0405V140.712H92.1205V142.392H96.5845V145.016H91.0005V146.712H104.345V145.016H98.6965ZM114.391 134.968H111.111V133.544H108.983V134.968H105.703V136.632H114.391V134.968ZM108.455 139.72C108.455 139 109.111 138.632 110.055 138.632C110.999 138.632 111.655 139 111.655 139.72C111.655 140.456 110.999 140.824 110.055 140.824C109.111 140.824 108.455 140.456 108.455 139.72ZM113.671 139.72C113.671 138.152 112.183 137.08 110.055 137.08C107.927 137.08 106.439 138.152 106.439 139.72C106.439 141.32 107.927 142.376 110.055 142.376C112.183 142.376 113.671 141.32 113.671 139.72ZM109.815 144.824H115.255V146.552H109.815V144.824ZM107.735 148.2H117.319V143.16H107.735V148.2ZM119.271 137.272H117.319V133.656H115.207V142.52H117.319V139H119.271V137.272ZM129.487 134.776H127.359V136.92C127.359 139.656 126.239 142.472 123.759 143.64L125.023 145.352C126.687 144.536 127.791 142.984 128.431 141.112C129.039 142.872 130.079 144.296 131.615 145.08L132.895 143.416C130.527 142.248 129.487 139.576 129.487 136.92V134.776ZM137.743 139.304H135.599V133.64H133.487V148.376H135.599V141.064H137.743V139.304ZM145.406 146.792C143.438 146.792 142.43 146.456 142.43 145.704C142.43 144.952 143.438 144.632 145.406 144.632C147.374 144.632 148.382 144.952 148.382 145.704C148.382 146.456 147.374 146.792 145.406 146.792ZM145.406 143.032C142.222 143.032 140.302 143.992 140.302 145.704C140.302 147.416 142.222 148.392 145.406 148.392C148.59 148.392 150.526 147.416 150.526 145.704C150.526 143.992 148.59 143.032 145.406 143.032ZM143.886 139.4C144.366 139.464 144.878 139.496 145.438 139.496C145.982 139.496 146.494 139.464 146.958 139.416V140.632H143.886V139.4ZM145.438 135.464C147.454 135.464 148.606 135.864 148.606 136.696C148.606 137.496 147.454 137.912 145.438 137.912C143.438 137.912 142.286 137.496 142.286 136.696C142.286 135.864 143.438 135.464 145.438 135.464ZM149.07 140.632V138.872C150.158 138.392 150.782 137.656 150.782 136.696C150.782 134.936 148.702 133.864 145.438 133.864C142.19 133.864 140.11 134.936 140.11 136.696C140.11 137.64 140.718 138.376 141.774 138.856V140.632H138.782V142.296H152.094V140.632H149.07ZM154.061 135.464V137.144H157.789C157.516 140.04 156.269 142.168 153.309 143.896L154.541 145.368C158.653 142.968 159.869 139.592 159.869 135.464H154.061ZM164.109 133.64V139.192H162.797V134.024H160.829V147.752H162.797V140.888H164.109V148.376H166.125V133.64H164.109ZM173.931 134.776H171.819V136.92C171.819 139.784 170.603 142.632 168.027 143.736L169.291 145.48C171.051 144.648 172.251 143.064 172.907 141.096C173.563 142.904 174.699 144.36 176.395 145.128L177.595 143.416C175.099 142.344 173.931 139.656 173.931 136.92V134.776ZM178.315 133.624V148.408H180.427V133.624H178.315ZM195.178 133.64H193.05V141.016H195.178V133.64ZM185.194 137.432C185.194 136.392 186.01 135.768 187.098 135.768C188.186 135.768 188.97 136.392 188.97 137.432C188.97 138.488 188.186 139.096 187.098 139.096C186.01 139.096 185.194 138.488 185.194 137.432ZM191.018 137.432C191.018 135.48 189.338 134.072 187.098 134.072C184.842 134.072 183.146 135.48 183.146 137.432C183.146 139.4 184.842 140.808 187.098 140.808C189.338 140.808 191.018 139.4 191.018 137.432ZM187.466 146.568V145.64H195.178V141.624H185.354V143.24H193.082V144.136H185.37V148.2H195.546V146.568H187.466ZM211.378 133.624V148.408H213.49V133.624H211.378ZM205.57 134.664C203.346 134.664 201.698 136.68 201.698 139.912C201.698 143.16 203.346 145.192 205.57 145.192C207.794 145.192 209.442 143.16 209.442 139.912C209.442 136.68 207.794 134.664 205.57 134.664ZM205.57 136.568C206.658 136.568 207.41 137.736 207.41 139.912C207.41 142.104 206.658 143.272 205.57 143.272C204.482 143.272 203.73 142.104 203.73 139.912C203.73 137.736 204.482 136.568 205.57 136.568ZM228.625 135.176H223.713V133.624H221.601V135.176H216.641V136.824H228.625V135.176ZM225.521 139.944C225.521 140.6 224.577 140.904 222.657 140.904C220.737 140.904 219.809 140.6 219.809 139.944C219.809 139.256 220.737 138.968 222.657 138.968C224.577 138.968 225.521 139.256 225.521 139.944ZM217.617 139.944C217.617 141.56 219.505 142.472 222.657 142.472C225.809 142.472 227.713 141.56 227.713 139.944C227.713 138.312 225.809 137.4 222.657 137.4C219.505 137.4 217.617 138.312 217.617 139.944ZM229.345 143.176H216.001V144.872H221.601V148.392H223.713V144.872H229.345V143.176ZM235.72 141.16C237.432 140.808 238.6 139.992 239.256 138.92C239.912 139.88 241.016 140.616 242.664 140.936L243.48 139.304C241.336 138.92 240.328 137.896 240.264 136.728H243.144V135.096H240.264V133.656H238.152V135.096H235.272V136.728H238.152C238.088 137.976 237.08 139.112 234.872 139.528L235.72 141.16ZM243.736 141.352C240.648 141.768 237.08 141.784 234.392 141.784L234.648 143.496C235.704 143.496 236.888 143.496 238.136 143.448V147.928H240.248V143.32C241.448 143.224 242.68 143.08 243.864 142.872L243.736 141.352ZM244.568 133.64V148.36H246.68V133.64H244.568ZM261.959 140.36C258.599 139.816 256.791 137.608 256.791 135.512V134.456H254.535V135.512C254.535 137.56 252.711 139.816 249.383 140.36L250.247 142.104C252.823 141.64 254.695 140.248 255.655 138.44C256.615 140.264 258.503 141.64 261.095 142.104L261.959 140.36ZM256.727 144.936V141.64H254.615V144.936H249.063V146.632H262.407V144.936H256.727ZM273.119 134.776H271.007V136.92C271.007 139.784 269.791 142.632 267.215 143.736L268.479 145.48C270.239 144.648 271.439 143.064 272.095 141.096C272.751 142.904 273.887 144.36 275.583 145.128L276.783 143.416C274.287 142.344 273.119 139.656 273.119 136.92V134.776ZM277.503 133.624V148.408H279.615V133.624H277.503ZM294.232 138.92C291.944 139.368 289.896 139.512 287.864 139.528V134.504H286.568V140.632H287.688C289.832 140.632 291.976 140.472 294.392 139.992L294.232 138.92ZM295.704 146.936H289.24V145.032H295.704V146.936ZM295.704 143.976H289.24V142.072H287.944V147.992H297V142.072H295.704V143.976ZM299.144 137.048H297.016V133.848H295.688V141.304H297.016V138.136H299.144V137.048ZM310.63 139.544H303.51V137.432H310.63V139.544ZM311.942 134.408H310.63V136.376H303.51V134.408H302.214V140.616H311.942V134.408ZM313.59 142.344H300.566V143.4H306.39V148.2H307.702V143.4H313.59V142.344ZM320.117 135.08H318.821V137.656C318.821 140.264 317.189 143.016 315.125 144.072L315.909 145.128C317.525 144.264 318.853 142.472 319.477 140.376C320.133 142.344 321.429 144.024 322.949 144.84L323.765 143.8C321.749 142.792 320.117 140.184 320.117 137.656V135.08ZM328.709 139.656H326.341V133.848H325.029V148.184H326.341V140.744H328.709V139.656ZM336.5 147.16C334.244 147.16 332.916 146.6 332.916 145.624C332.916 144.648 334.244 144.088 336.5 144.088C338.74 144.088 340.084 144.648 340.084 145.624C340.084 146.6 338.74 147.16 336.5 147.16ZM336.5 143.064C333.428 143.064 331.588 143.976 331.588 145.624C331.588 147.272 333.428 148.168 336.5 148.168C339.588 148.168 341.412 147.272 341.412 145.624C341.412 143.976 339.588 143.064 336.5 143.064ZM334.516 139.256C335.108 139.352 335.78 139.416 336.5 139.416C337.236 139.416 337.908 139.352 338.5 139.256V140.936H334.516V139.256ZM332.804 136.76C332.804 135.72 334.212 135.112 336.5 135.112C338.788 135.112 340.196 135.72 340.196 136.76C340.196 137.784 338.788 138.408 336.5 138.408C334.212 138.408 332.804 137.784 332.804 136.76ZM339.796 140.936V138.904C340.9 138.456 341.54 137.72 341.54 136.76C341.54 135.08 339.62 134.088 336.5 134.088C333.396 134.088 331.46 135.08 331.46 136.76C331.46 137.736 332.084 138.456 333.22 138.92V140.936H330.004V141.992H342.996V140.936H339.796ZM349.667 142.616H352.947V145.336H349.667V142.616ZM354.243 145.336V142.616H356.483V141.544H347.651V139.24H356.147V134.888H346.323V135.96H354.867V138.184H346.355V142.616H348.371V145.336H344.723V146.408H357.763V145.336H354.243ZM364.113 134.888C361.889 134.888 360.273 136.248 360.273 138.264C360.273 140.264 361.889 141.64 364.113 141.64C366.353 141.64 367.953 140.264 367.953 138.264C367.953 136.248 366.353 134.888 364.113 134.888ZM364.113 136.008C365.601 136.008 366.673 136.92 366.673 138.264C366.673 139.592 365.601 140.52 364.113 140.52C362.625 140.52 361.553 139.592 361.553 138.264C361.553 136.92 362.625 136.008 364.113 136.008ZM369.841 133.832V148.216H371.153V133.832H369.841ZM359.713 145.064C362.305 145.064 365.777 145.048 369.009 144.44L368.897 143.464C365.761 143.944 362.161 143.96 359.553 143.96L359.713 145.064ZM378.314 147H384.746V145.784H382.394V135.272H381.274C380.634 135.64 379.882 135.912 378.842 136.104V137.032H380.922V145.784H378.314V147ZM390.229 147.208C392.453 147.208 393.877 145.176 393.877 141.096C393.877 137.032 392.453 135.048 390.229 135.048C387.989 135.048 386.565 137.016 386.565 141.096C386.565 145.176 387.989 147.208 390.229 147.208ZM390.229 146.04C388.885 146.04 387.989 144.552 387.989 141.096C387.989 137.672 388.885 136.232 390.229 136.232C391.557 136.232 392.453 137.672 392.453 141.096C392.453 144.552 391.557 146.04 390.229 146.04ZM399.104 147.208C401.328 147.208 402.752 145.176 402.752 141.096C402.752 137.032 401.328 135.048 399.104 135.048C396.864 135.048 395.44 137.016 395.44 141.096C395.44 145.176 396.864 147.208 399.104 147.208ZM399.104 146.04C397.76 146.04 396.864 144.552 396.864 141.096C396.864 137.672 397.76 136.232 399.104 136.232C400.432 136.232 401.328 137.672 401.328 141.096C401.328 144.552 400.432 146.04 399.104 146.04ZM414.363 138.984H407.387V137.128H414.363V138.984ZM415.659 134.296H414.363V136.12H407.387V134.296H406.091V140.024H415.659V134.296ZM407.307 143.96H406.011V147.864H415.931V146.792H407.307V143.96ZM404.347 141.416V142.472H410.315V145.256H411.627V142.472H417.387V141.416H404.347ZM423.754 134.888C421.53 134.888 419.914 136.248 419.914 138.264C419.914 140.264 421.53 141.64 423.754 141.64C425.994 141.64 427.594 140.264 427.594 138.264C427.594 136.248 425.994 134.888 423.754 134.888ZM423.754 136.008C425.242 136.008 426.314 136.92 426.314 138.264C426.314 139.592 425.242 140.52 423.754 140.52C422.266 140.52 421.194 139.592 421.194 138.264C421.194 136.92 422.266 136.008 423.754 136.008ZM429.482 133.832V148.216H430.794V133.832H429.482ZM419.354 145.064C421.946 145.064 425.418 145.048 428.65 144.44L428.538 143.464C425.402 143.944 421.802 143.96 419.194 143.96L419.354 145.064ZM440.723 147.208C442.707 147.208 444.563 145.752 444.563 143.176C444.563 140.6 442.979 139.448 441.027 139.448C440.323 139.448 439.795 139.624 439.283 139.912L439.571 136.52H444.003V135.272H438.291L437.923 140.76L438.707 141.24C439.379 140.792 439.875 140.552 440.659 140.552C442.131 140.552 443.091 141.544 443.091 143.224C443.091 144.936 441.971 145.992 440.595 145.992C439.235 145.992 438.387 145.368 437.715 144.696L436.995 145.656C437.779 146.44 438.899 147.208 440.723 147.208ZM449.87 147.208C452.094 147.208 453.518 145.176 453.518 141.096C453.518 137.032 452.094 135.048 449.87 135.048C447.63 135.048 446.206 137.016 446.206 141.096C446.206 145.176 447.63 147.208 449.87 147.208ZM449.87 146.04C448.526 146.04 447.63 144.552 447.63 141.096C447.63 137.672 448.526 136.232 449.87 136.232C451.198 136.232 452.094 137.672 452.094 141.096C452.094 144.552 451.198 146.04 449.87 146.04ZM461.625 135.064C463.977 135.064 465.321 135.608 465.321 136.568C465.321 137.528 463.977 138.072 461.625 138.072C459.273 138.072 457.929 137.528 457.929 136.568C457.929 135.608 459.273 135.064 461.625 135.064ZM461.625 139.048C464.777 139.048 466.665 138.184 466.665 136.568C466.665 134.952 464.777 134.072 461.625 134.072C458.473 134.072 456.585 134.952 456.585 136.568C456.585 138.184 458.473 139.048 461.625 139.048ZM458.025 145.544H466.457V142.312H456.697V143.304H465.161V144.584H456.745V148.024H466.889V147H458.025V145.544ZM455.129 140.024V141.08H468.121V140.024H455.129ZM483.474 135.784C483.474 136.904 483.474 137.96 483.09 139.432L484.37 139.576C484.77 138.104 484.77 136.936 484.77 135.784V134.568H474.994V135.624H483.474V135.784ZM479.874 147.144C477.634 147.144 476.194 146.536 476.194 145.544C476.194 144.52 477.634 143.912 479.874 143.912C482.13 143.912 483.57 144.52 483.57 145.544C483.57 146.536 482.13 147.144 479.874 147.144ZM479.874 142.904C476.818 142.904 474.882 143.88 474.882 145.544C474.882 147.176 476.818 148.168 479.874 148.168C482.93 148.168 484.882 147.176 484.882 145.544C484.882 143.88 482.93 142.904 479.874 142.904ZM480.082 140.52V137.768H478.77V140.52H473.474V141.592H486.386V140.52H480.082ZM492.369 136.584H494.929V135.512H488.385V136.584H491.105V137.88C491.105 140.52 489.985 143.128 487.985 144.328L488.785 145.304C490.209 144.408 491.249 142.728 491.745 140.76C492.241 142.584 493.233 144.12 494.625 144.952L495.425 143.992C493.441 142.872 492.369 140.376 492.369 137.88V136.584ZM496.209 138.984H493.841V140.056H496.209V147.432H497.457V134.152H496.209V138.984ZM499.089 133.816V148.168H500.353V133.816H499.089ZM511.391 135.592H507.807V133.848H506.495V135.592H502.927V136.648H511.391V135.592ZM504.975 140.104C504.975 139.112 505.839 138.472 507.151 138.472C508.447 138.472 509.343 139.112 509.343 140.104C509.343 141.112 508.447 141.752 507.151 141.752C505.839 141.752 504.975 141.112 504.975 140.104ZM510.591 140.104C510.591 138.504 509.183 137.448 507.151 137.448C505.119 137.448 503.727 138.504 503.727 140.104C503.727 141.72 505.119 142.776 507.151 142.776C509.183 142.776 510.591 141.72 510.591 140.104ZM506.399 143.752H505.087V147.864H514.655V146.792H506.399V143.752ZM514.015 138.568V133.848H512.703V144.6H514.015V139.672H516.143V138.568H514.015ZM523.048 135.224H521.752V144.552H522.888C525.08 144.552 527.272 144.392 529.72 143.896L529.56 142.808C527.24 143.272 525.112 143.448 523.048 143.448V135.224ZM534.52 139.56H532.216V133.832H530.904V148.184H532.216V140.648H534.52V139.56ZM541.703 143.512H537.751V136.28H541.703V143.512ZM546.407 133.832V139.064H542.999V135.24H536.471V144.552H542.999V140.136H546.407V148.216H547.719V133.832H546.407ZM555.734 136.392H559.11V135.304H551.094V136.392H554.422V138.216C554.422 140.696 552.678 143.4 550.614 144.376L551.382 145.432C553.014 144.6 554.422 142.792 555.078 140.696C555.766 142.664 557.174 144.312 558.838 145.08L559.574 144.024C557.462 143.128 555.734 140.648 555.734 138.216V136.392ZM561.046 133.848V148.184H562.358V133.848H561.046ZM571.791 143.944H579.007V146.936H571.791V143.944ZM570.511 147.992H580.303V142.888H570.511V147.992ZM579.871 139.88C580.255 138.088 580.255 136.776 580.255 135.656V134.6H570.559V135.656H578.959C578.959 136.776 578.959 138.088 578.543 139.88H568.895V140.936H581.935V139.88H579.871ZM584.957 138.12C584.957 136.792 585.837 135.832 587.037 135.832C588.221 135.832 589.101 136.792 589.101 138.12C589.101 139.448 588.221 140.408 587.037 140.408C585.837 140.408 584.957 139.448 584.957 138.12ZM590.301 138.12C590.301 136.104 588.909 134.728 587.037 134.728C585.149 134.728 583.773 136.104 583.773 138.12C583.773 140.12 585.149 141.496 587.037 141.496C588.909 141.496 590.301 140.12 590.301 138.12ZM586.093 144.248H594.429V148.2H595.741V143.192H586.093V144.248ZM594.477 133.832V137.528H592.653V134.104H591.421V142.296H592.653V138.6H594.477V142.376H595.741V133.832H594.477ZM656.798 135.24H653.342V133.784H652.03V135.24H648.558V136.216H656.798V135.24ZM650.574 139.016C650.574 138.248 651.39 137.752 652.686 137.752C653.95 137.752 654.782 138.248 654.782 139.016C654.782 139.816 653.95 140.296 652.686 140.296C651.39 140.296 650.574 139.816 650.574 139.016ZM657.23 141.848C655.998 142.056 654.654 142.168 653.342 142.232V141.208C654.99 141.032 656.03 140.248 656.03 139.016C656.03 137.656 654.686 136.824 652.686 136.824C650.67 136.824 649.326 137.656 649.326 139.016C649.326 140.248 650.382 141.048 652.03 141.208V142.296C650.654 142.344 649.326 142.36 648.206 142.36L648.35 143.416C650.846 143.4 654.286 143.352 657.326 142.792L657.23 141.848ZM651.63 144.328H650.318V147.864H659.902V146.792H651.63V144.328ZM659.39 138.84V133.832H658.078V145.064H659.39V139.928H661.502V138.84H659.39ZM672.973 137.784H665.997V136.408H672.973V137.784ZM674.269 134.056H672.973V135.416H665.997V134.056H664.701V138.792H674.269V134.056ZM675.965 141.016V139.96H662.973V141.016H668.813V142.424H664.541V143.416H673.005V144.664H664.589V148.024H674.733V147.016H665.869V145.624H674.301V142.424H670.125V141.016H675.965ZM679.083 147.208C679.659 147.208 680.139 146.76 680.139 146.104C680.139 145.448 679.659 144.968 679.083 144.968C678.507 144.968 678.027 145.448 678.027 146.104C678.027 146.76 678.507 147.208 679.083 147.208ZM9.152 188.12C7.28 188.488 5.648 188.6 2.816 188.6V184.136H7.856V183.08H1.504V189.672H2.624C5.632 189.672 7.328 189.576 9.296 189.176L9.152 188.12ZM4.368 191.176H3.056V195.864H12.624V194.792H4.368V191.176ZM11.984 186.088V181.832H10.672V192.216H11.984V187.176H14.112V186.088H11.984ZM15.9188 198.04C17.3588 197.432 18.2548 196.232 18.2548 194.696C18.2548 193.624 17.7908 192.968 17.0228 192.968C16.4308 192.968 15.9188 193.368 15.9188 193.992C15.9188 194.664 16.4308 195.016 16.9908 195.016C17.0548 195.016 17.1028 195.016 17.1668 195C17.1508 195.976 16.5588 196.744 15.5668 197.176L15.9188 198.04ZM31.198 186.248V187.336H34.094V192.552H35.422V181.848H34.094V186.248H31.198ZM32.078 189.496C29.95 188.824 28.494 187.16 28.494 185.256V184.808H31.662V183.752H28.494V181.928H27.182V183.752H23.998V184.808H27.182V185.256C27.182 187.256 25.758 189.048 23.63 189.768L24.286 190.792C25.966 190.2 27.246 188.984 27.854 187.4C28.51 188.856 29.79 189.992 31.438 190.536L32.078 189.496ZM27.566 194.792V191.592H26.238V195.864H35.822V194.792H27.566ZM42.5568 184.6H45.1648V183.528H38.5088V184.6H41.2928V185.72C41.2928 188.632 40.2208 191.08 38.1728 192.232L38.9728 193.224C40.4608 192.36 41.4688 190.808 41.9488 188.856C42.4608 190.552 43.4528 191.944 44.8608 192.728L45.6288 191.72C43.5968 190.664 42.5568 188.344 42.5568 185.72V184.6ZM49.2928 181.816V187.624H47.4048V182.152H46.1728V195.48H47.4048V188.712H49.2928V196.184H50.5568V181.816H49.2928ZM58.1555 184.392H61.5315V183.304H53.5155V184.392H56.8435V186.216C56.8435 188.696 55.0995 191.4 53.0355 192.376L53.8035 193.432C55.4355 192.6 56.8435 190.792 57.4995 188.696C58.1875 190.664 59.5955 192.312 61.2595 193.08L61.9955 192.024C59.8835 191.128 58.1555 188.648 58.1555 186.216V184.392ZM63.4675 181.848V196.184H64.7795V181.848H63.4675ZM78.2503 185.528V187.56H74.9383V185.528H78.2503ZM73.6423 188.952H69.7703V186.36H73.6423V188.952ZM74.9383 188.632H78.2503V192.456H79.5783V181.848H78.2503V184.472H74.9383V182.792H73.6423V185.32H69.7703V182.792H68.4743V190.008H74.9383V188.632ZM71.6583 194.792V191.416H70.3463V195.864H79.9143V194.792H71.6583ZM92.905 181.832V196.216H94.217V181.832H92.905ZM86.649 182.936C84.521 182.936 83.001 184.888 83.001 187.944C83.001 191 84.521 192.952 86.649 192.952C88.777 192.952 90.297 191 90.297 187.944C90.297 184.888 88.777 182.936 86.649 182.936ZM86.649 184.12C88.041 184.12 89.033 185.624 89.033 187.944C89.033 190.28 88.041 191.784 86.649 191.784C85.241 191.784 84.249 190.28 84.249 187.944C84.249 185.624 85.241 184.12 86.649 184.12ZM99.0638 183.224H97.7678V192.552H98.9038C101.096 192.552 103.288 192.392 105.736 191.896L105.576 190.808C103.256 191.272 101.128 191.448 99.0638 191.448V183.224ZM110.536 187.56H108.232V181.832H106.92V196.184H108.232V188.648H110.536V187.56ZM125.441 184.792C125.441 186.568 125.441 188.712 124.865 191.64L126.177 191.784C126.737 188.68 126.737 186.616 126.737 184.792V183.368H126.129V183.352H116.897V184.424H125.441V184.792ZM115.505 193V194.088H128.481V193H115.505ZM139.738 188.28H135.674V185.896H139.738V188.28ZM141.017 182.696H139.738V184.856H135.674V182.696H134.378V189.336H141.017V182.696ZM135.274 192.024H138.522V196.168H139.818V190.968H135.274V192.024ZM140.49 192.024H143.626V196.168H144.922V190.968H140.49V192.024ZM147.05 185.432H144.922V181.832H143.61V190.248H144.922V186.536H147.05V185.432ZM153.16 182.888C150.936 182.888 149.32 184.248 149.32 186.264C149.32 188.264 150.936 189.64 153.16 189.64C155.4 189.64 157 188.264 157 186.264C157 184.248 155.4 182.888 153.16 182.888ZM153.16 184.008C154.648 184.008 155.72 184.92 155.72 186.264C155.72 187.592 154.648 188.52 153.16 188.52C151.672 188.52 150.6 187.592 150.6 186.264C150.6 184.92 151.672 184.008 153.16 184.008ZM158.888 181.832V196.216H160.2V181.832H158.888ZM148.76 193.064C151.352 193.064 154.824 193.048 158.056 192.44L157.944 191.464C154.808 191.944 151.208 191.96 148.6 191.96L148.76 193.064ZM176.785 185.784H169.809V184.408H176.785V185.784ZM178.081 182.056H176.785V183.416H169.809V182.056H168.513V186.792H178.081V182.056ZM179.777 189.016V187.96H166.785V189.016H172.625V190.424H168.353V191.416H176.817V192.664H168.401V196.024H178.545V195.016H169.681V193.624H178.113V190.424H173.937V189.016H179.777ZM182.288 183.368V184.456H187.552C187.248 187.848 185.28 190.6 181.616 192.44L182.336 193.464C186.976 191.144 188.848 187.448 188.848 183.368H182.288ZM194.864 187.656H192.56V181.832H191.248V196.184H192.56V188.744H194.864V187.656ZM204.751 183.448H201.167V181.704H199.855V183.448H196.287V184.504H204.751V183.448ZM198.335 187.752C198.335 186.824 199.215 186.216 200.511 186.216C201.823 186.216 202.703 186.824 202.703 187.752C202.703 188.696 201.823 189.304 200.511 189.304C199.215 189.304 198.335 188.696 198.335 187.752ZM203.951 187.752C203.951 186.216 202.559 185.224 200.511 185.224C198.463 185.224 197.087 186.216 197.087 187.752C197.087 189.304 198.463 190.296 200.511 190.296C202.559 190.296 203.951 189.304 203.951 187.752ZM202.879 195.16C200.783 195.16 199.503 194.616 199.503 193.688C199.503 192.76 200.783 192.216 202.879 192.216C204.975 192.216 206.255 192.76 206.255 193.688C206.255 194.616 204.975 195.16 202.879 195.16ZM202.879 191.208C199.983 191.208 198.207 192.104 198.207 193.688C198.207 195.256 199.983 196.168 202.879 196.168C205.759 196.168 207.551 195.256 207.551 193.688C207.551 192.104 205.759 191.208 202.879 191.208ZM207.375 185.816V181.832H206.063V191.064H207.375V186.904H209.503V185.816H207.375ZM218.541 188.6C216.877 188.872 215.501 188.936 212.845 188.936V186.76H217.709V182.696H211.517V183.768H216.429V185.752H211.565V190.008H212.589C215.453 190.008 216.909 189.96 218.669 189.656L218.541 188.6ZM213.165 192.504H221.453V196.2H222.765V191.432H213.165V192.504ZM221.453 181.848V183.96H218.653V185.032H221.453V186.952H218.653V188.008H221.453V190.664H222.765V181.848H221.453ZM234.14 188.84C232.06 188.104 230.652 186.296 230.652 184.456V183.88H233.804V182.808H226.14V183.88H229.34V184.456C229.34 186.488 227.852 188.408 225.724 189.16L226.412 190.2C228.092 189.576 229.404 188.264 230.012 186.616C230.652 188.104 231.884 189.288 233.484 189.864L234.14 188.84ZM227.9 192.264H236.172V196.2H237.484V191.208H227.9V192.264ZM236.172 181.832V185.576H233.372V186.648H236.172V190.424H237.484V181.832H236.172ZM248.789 183.08H247.493V185.656C247.493 188.264 245.861 191.016 243.797 192.072L244.581 193.128C246.197 192.264 247.525 190.472 248.149 188.376C248.805 190.344 250.101 192.024 251.621 192.84L252.437 191.8C250.421 190.792 248.789 188.184 248.789 185.656V183.08ZM257.381 187.656H255.013V181.848H253.701V196.184H255.013V188.744H257.381V187.656ZM265.156 183.464C267.348 183.464 268.836 184.264 268.836 185.528C268.836 186.792 267.348 187.608 265.156 187.608C262.98 187.608 261.492 186.792 261.492 185.528C261.492 184.264 262.98 183.464 265.156 183.464ZM265.156 188.664C268.148 188.664 270.18 187.448 270.18 185.528C270.18 183.608 268.148 182.408 265.156 182.408C262.18 182.408 260.148 183.608 260.148 185.528C260.148 187.448 262.18 188.664 265.156 188.664ZM271.684 190.008H258.692V191.08H262.036V196.184H263.364V191.08H266.964V196.184H268.292V191.08H271.684V190.008ZM280.562 193.336V190.632H285.155V189.576H276.323V187.256H284.819V182.888H274.995V183.96H283.539V186.2H275.027V190.632H279.235V193.336H273.395V194.408H286.435V193.336H280.562ZM296.523 183.08H295.227V185.656C295.227 188.264 293.595 191.016 291.531 192.072L292.315 193.128C293.931 192.264 295.259 190.472 295.883 188.376C296.539 190.344 297.835 192.024 299.355 192.84L300.171 191.8C298.155 190.792 296.523 188.184 296.523 185.656V183.08ZM305.115 187.656H302.747V181.848H301.435V196.184H302.747V188.744H305.115V187.656ZM312.906 195.16C310.65 195.16 309.322 194.6 309.322 193.624C309.322 192.648 310.65 192.088 312.906 192.088C315.146 192.088 316.49 192.648 316.49 193.624C316.49 194.6 315.146 195.16 312.906 195.16ZM312.906 191.064C309.834 191.064 307.994 191.976 307.994 193.624C307.994 195.272 309.834 196.168 312.906 196.168C315.994 196.168 317.818 195.272 317.818 193.624C317.818 191.976 315.994 191.064 312.906 191.064ZM310.922 187.256C311.514 187.352 312.186 187.416 312.906 187.416C313.642 187.416 314.314 187.352 314.906 187.256V188.936H310.922V187.256ZM309.21 184.76C309.21 183.72 310.618 183.112 312.906 183.112C315.194 183.112 316.602 183.72 316.602 184.76C316.602 185.784 315.194 186.408 312.906 186.408C310.618 186.408 309.21 185.784 309.21 184.76ZM316.202 188.936V186.904C317.306 186.456 317.946 185.72 317.946 184.76C317.946 183.08 316.026 182.088 312.906 182.088C309.802 182.088 307.866 183.08 307.866 184.76C307.866 185.736 308.49 186.456 309.626 186.92V188.936H306.41V189.992H319.402V188.936H316.202ZM331.577 181.832V196.216H332.889V181.832H331.577ZM325.321 182.936C323.193 182.936 321.673 184.888 321.673 187.944C321.673 191 323.193 192.952 325.321 192.952C327.449 192.952 328.969 191 328.969 187.944C328.969 184.888 327.449 182.936 325.321 182.936ZM325.321 184.12C326.713 184.12 327.705 185.624 327.705 187.944C327.705 190.28 326.713 191.784 325.321 191.784C323.913 191.784 322.921 190.28 322.921 187.944C322.921 185.624 323.913 184.12 325.321 184.12ZM347.058 185.8V186.872H349.938V192.36H351.266V181.848H349.938V185.8H347.058ZM347.906 189.176C345.826 188.44 344.418 186.648 344.418 184.776V184.072H347.57V183H339.906V184.072H343.106V184.792C343.106 186.824 341.618 188.728 339.49 189.496L340.178 190.52C341.858 189.912 343.17 188.584 343.794 186.952C344.418 188.424 345.65 189.624 347.25 190.2L347.906 189.176ZM343.41 194.792V191.432H342.082V195.864H351.666V194.792H343.41ZM362.561 184.136H359.057V181.992H357.745V184.136H354.145V185.192H362.561V184.136ZM358.401 191.88C357.153 191.88 356.257 190.968 356.257 189.672C356.257 188.408 357.153 187.496 358.401 187.496C359.633 187.496 360.545 188.408 360.545 189.672C360.545 190.968 359.633 191.88 358.401 191.88ZM358.401 186.376C356.465 186.376 355.057 187.736 355.057 189.672C355.057 191.608 356.465 192.984 358.401 192.984C360.337 192.984 361.745 191.608 361.745 189.672C361.745 187.736 360.337 186.376 358.401 186.376ZM364.673 181.848V186.6H362.289V187.688H364.673V190.168H362.321V191.24H364.673V196.184H365.985V181.848H364.673ZM382.441 185.784H375.465V184.408H382.441V185.784ZM383.737 182.056H382.441V183.416H375.465V182.056H374.169V186.792H383.737V182.056ZM385.433 189.016V187.96H372.441V189.016H378.281V190.424H374.009V191.416H382.473V192.664H374.057V196.024H384.201V195.016H375.337V193.624H383.769V190.424H379.593V189.016H385.433ZM387.944 183.368V184.456H393.208C392.904 187.848 390.936 190.6 387.272 192.44L387.992 193.464C392.632 191.144 394.504 187.448 394.504 183.368H387.944ZM400.52 187.656H398.216V181.832H396.904V196.184H398.216V188.744H400.52V187.656ZM413.399 185.832H404.967V182.136H403.655V186.888H413.399V185.832ZM408.375 195.112C406.119 195.112 404.791 194.52 404.791 193.528C404.791 192.504 406.119 191.928 408.375 191.928C410.631 191.928 411.959 192.504 411.959 193.528C411.959 194.52 410.615 195.112 408.375 195.112ZM408.375 190.904C405.319 190.904 403.463 191.848 403.463 193.528C403.463 195.192 405.319 196.136 408.375 196.136C411.431 196.136 413.287 195.192 413.287 193.528C413.287 191.848 411.431 190.904 408.375 190.904ZM401.911 188.552V189.624H414.887V188.552H401.911ZM420.822 191.896C419.526 191.896 418.582 190.968 418.582 189.688C418.582 188.392 419.526 187.464 420.822 187.464C422.134 187.464 423.078 188.392 423.078 189.688C423.078 190.968 422.134 191.896 420.822 191.896ZM420.822 186.376C418.806 186.376 417.35 187.752 417.35 189.688C417.35 191.64 418.806 192.984 420.822 192.984C422.87 192.984 424.326 191.64 424.326 189.688C424.326 187.752 422.87 186.376 420.822 186.376ZM421.462 182.008H420.15V184.136H416.534V185.192H424.998V184.136H421.462V182.008ZM430.022 187.736H427.67V181.848H426.358V196.184H427.67V188.84H430.022V187.736ZM433.252 184.296H438.612V183.208H431.94V192.632H433.076C435.78 192.632 437.668 192.536 439.86 192.12L439.716 191.032C437.636 191.4 435.796 191.512 433.252 191.512V184.296ZM444.74 187.496H442.372V181.832H441.06V196.216H442.372V188.584H444.74V187.496ZM456.179 184.696C456.179 186.424 456.179 188.44 455.635 191.192L456.947 191.336C457.491 188.44 457.491 186.472 457.491 184.696V183.272H447.427V184.344H456.179V184.696ZM452.419 193.096V187.96H451.107V193.096H446.067V194.168H459.043V193.096H452.419ZM476.124 181.848H474.812V192.328H476.124V181.848ZM465.964 186.36C465.964 184.968 467.02 183.976 468.412 183.976C469.836 183.976 470.892 184.968 470.892 186.36C470.892 187.784 469.836 188.776 468.412 188.776C467.02 188.776 465.964 187.784 465.964 186.36ZM472.172 186.36C472.172 184.296 470.556 182.84 468.412 182.84C466.284 182.84 464.684 184.296 464.684 186.36C464.684 188.44 466.284 189.912 468.412 189.912C470.556 189.912 472.172 188.44 472.172 186.36ZM468.204 194.792V191.256H466.892V195.864H476.556V194.792H468.204ZM486.731 185.56V186.632H489.563V190.392H490.891V181.848H489.563V185.56H486.731ZM487.531 188.824C485.451 188.088 484.043 186.28 484.043 184.44V183.944H487.195V182.888H479.531V183.944H482.731V184.44C482.731 186.504 481.259 188.44 479.115 189.224L479.803 190.264C481.483 189.624 482.811 188.28 483.419 186.616C484.043 188.088 485.275 189.272 486.875 189.848L487.531 188.824ZM486.155 195.16C483.995 195.16 482.683 194.552 482.683 193.512C482.683 192.472 483.995 191.848 486.155 191.848C488.315 191.848 489.627 192.472 489.627 193.512C489.627 194.552 488.315 195.16 486.155 195.16ZM486.155 190.84C483.211 190.84 481.371 191.816 481.371 193.512C481.371 195.208 483.211 196.184 486.155 196.184C489.099 196.184 490.923 195.208 490.923 193.512C490.923 191.816 489.099 190.84 486.155 190.84ZM499.178 189.096H502.266V188.024H496.234V184.264H502.202V183.176H494.938V189.096H497.866V191.944C496.474 191.992 495.114 191.992 493.882 191.992L494.042 193.096C496.762 193.096 500.202 193.032 503.338 192.552L503.226 191.592C501.946 191.752 500.554 191.832 499.178 191.896V189.096ZM504.17 181.816V196.216H505.482V181.816H504.17ZM520.008 186.152H511.56V182.36H510.248V187.224H520.008V186.152ZM511.464 191.64H510.152V195.832H520.088V194.76H511.464V191.64ZM508.488 189.144V190.2H521.496V189.144H508.488ZM537.297 185.544V187.464H533.537V188.536H537.297V190.424H538.625V181.848H537.297V184.472H534.049C534.145 183.976 534.209 183.448 534.209 182.92H527.729V183.976H532.785C532.545 186.456 530.417 188.36 526.993 189.384L527.521 190.424C530.609 189.528 532.785 187.848 533.713 185.544H537.297ZM533.937 195.096C531.825 195.096 530.481 194.44 530.481 193.352C530.481 192.28 531.825 191.624 533.937 191.624C536.049 191.624 537.393 192.28 537.393 193.352C537.393 194.44 536.049 195.096 533.937 195.096ZM533.937 190.584C531.041 190.584 529.185 191.624 529.185 193.352C529.185 195.08 531.041 196.12 533.937 196.12C536.833 196.12 538.689 195.08 538.689 193.352C538.689 191.624 536.833 190.584 533.937 190.584ZM547.984 183.464C550.176 183.464 551.664 184.28 551.664 185.544C551.664 186.824 550.176 187.64 547.984 187.64C545.808 187.64 544.32 186.824 544.32 185.544C544.32 184.28 545.808 183.464 547.984 183.464ZM547.984 188.696C550.976 188.696 553.008 187.48 553.008 185.544C553.008 183.624 550.976 182.408 547.984 182.408C545.008 182.408 542.976 183.624 542.976 185.544C542.976 187.48 545.008 188.696 547.984 188.696ZM554.512 190.056H541.52V191.144H547.328V196.2H548.64V191.144H554.512V190.056ZM567.743 186.152H559.295V182.36H557.983V187.224H567.743V186.152ZM559.199 191.64H557.887V195.832H567.823V194.76H559.199V191.64ZM556.223 189.144V190.2H569.231V189.144H556.223ZM582.904 186.92C580.616 187.368 578.568 187.512 576.536 187.528V182.504H575.24V188.632H576.36C578.504 188.632 580.648 188.472 583.064 187.992L582.904 186.92ZM584.376 194.936H577.911V193.032H584.376V194.936ZM584.376 191.976H577.911V190.072H576.616V195.992H585.672V190.072H584.376V191.976ZM587.816 185.048H585.688V181.848H584.36V189.304H585.688V186.136H587.816V185.048ZM599.302 187.544H592.182V185.432H599.302V187.544ZM600.614 182.408H599.302V184.376H592.182V182.408H590.886V188.616H600.614V182.408ZM602.262 190.344H589.238V191.4H595.062V196.2H596.374V191.4H602.262V190.344ZM608.789 183.08H607.493V185.656C607.493 188.264 605.861 191.016 603.797 192.072L604.581 193.128C606.197 192.264 607.525 190.472 608.149 188.376C608.805 190.344 610.101 192.024 611.621 192.84L612.437 191.8C610.421 190.792 608.789 188.184 608.789 185.656V183.08ZM617.381 187.656H615.013V181.848H613.701V196.184H615.013V188.744H617.381V187.656ZM625.172 195.16C622.916 195.16 621.588 194.6 621.588 193.624C621.588 192.648 622.916 192.088 625.172 192.088C627.412 192.088 628.756 192.648 628.756 193.624C628.756 194.6 627.412 195.16 625.172 195.16ZM625.172 191.064C622.1 191.064 620.26 191.976 620.26 193.624C620.26 195.272 622.1 196.168 625.172 196.168C628.26 196.168 630.084 195.272 630.084 193.624C630.084 191.976 628.26 191.064 625.172 191.064ZM623.188 187.256C623.78 187.352 624.452 187.416 625.172 187.416C625.908 187.416 626.58 187.352 627.172 187.256V188.936H623.188V187.256ZM621.476 184.76C621.476 183.72 622.884 183.112 625.172 183.112C627.46 183.112 628.868 183.72 628.868 184.76C628.868 185.784 627.46 186.408 625.172 186.408C622.884 186.408 621.476 185.784 621.476 184.76ZM628.468 188.936V186.904C629.572 186.456 630.212 185.72 630.212 184.76C630.212 183.08 628.292 182.088 625.172 182.088C622.068 182.088 620.132 183.08 620.132 184.76C620.132 185.736 620.756 186.456 621.892 186.92V188.936H618.676V189.992H631.668V188.936H628.468ZM638.339 190.616H641.619V193.336H638.339V190.616ZM642.915 193.336V190.616H645.155V189.544H636.323V187.24H644.819V182.888H634.995V183.96H643.539V186.184H635.027V190.616H637.043V193.336H633.395V194.408H646.435V193.336H642.915ZM693.251 183.24H689.795V181.784H688.483V183.24H685.011V184.216H693.251V183.24ZM687.027 187.016C687.027 186.248 687.843 185.752 689.139 185.752C690.403 185.752 691.235 186.248 691.235 187.016C691.235 187.816 690.403 188.296 689.139 188.296C687.843 188.296 687.027 187.816 687.027 187.016ZM693.683 189.848C692.451 190.056 691.107 190.168 689.795 190.232V189.208C691.443 189.032 692.483 188.248 692.483 187.016C692.483 185.656 691.139 184.824 689.139 184.824C687.123 184.824 685.779 185.656 685.779 187.016C685.779 188.248 686.835 189.048 688.483 189.208V190.296C687.107 190.344 685.779 190.36 684.659 190.36L684.803 191.416C687.299 191.4 690.739 191.352 693.779 190.792L693.683 189.848ZM688.083 192.328H686.771V195.864H696.355V194.792H688.083V192.328ZM695.843 186.84V181.832H694.531V193.064H695.843V187.928H697.955V186.84H695.843ZM709.426 185.784H702.45V184.408H709.426V185.784ZM710.722 182.056H709.426V183.416H702.45V182.056H701.154V186.792H710.722V182.056ZM712.418 189.016V187.96H699.426V189.016H705.266V190.424H700.994V191.416H709.458V192.664H701.042V196.024H711.186V195.016H702.322V193.624H710.754V190.424H706.578V189.016H712.418ZM715.537 195.208C716.113 195.208 716.593 194.76 716.593 194.104C716.593 193.448 716.113 192.968 715.537 192.968C714.961 192.968 714.481 193.448 714.481 194.104C714.481 194.76 714.961 195.208 715.537 195.208Z" fill="black"/>
<path d="M341.248 65.448V67.16H343.552V72.392H345.664V61.64H343.552V65.448H341.248ZM342.224 68.84C339.904 68.056 338.896 66.248 338.896 64.504V64.312H341.76V62.632H333.84V64.312H336.736V64.52C336.736 66.376 335.68 68.312 333.264 69.096L334.336 70.776C336.048 70.2 337.2 69.032 337.856 67.576C338.496 68.904 339.584 69.96 341.2 70.488L342.224 68.84ZM338.064 74.44V71.496H335.952V76.12H346V74.44H338.064ZM350.015 66.12C350.015 64.984 350.623 64.296 351.487 64.296C352.351 64.296 352.959 64.984 352.959 66.12C352.959 67.288 352.351 67.96 351.487 67.96C350.623 67.96 350.015 67.288 350.015 66.12ZM354.847 66.12C354.847 64.008 353.439 62.52 351.487 62.52C349.535 62.52 348.111 64.008 348.111 66.12C348.111 68.264 349.535 69.736 351.487 69.736C353.439 69.736 354.847 68.264 354.847 66.12ZM350.479 72.776H358.511V76.392H360.623V71.112H350.479V72.776ZM358.623 61.64V65.208H357.503V61.896H355.535V70.392H357.503V66.904H358.623V70.424H360.623V61.64H358.623ZM571.713 102.232L573.185 101.608C571.841 99.272 571.233 96.584 571.233 93.944C571.233 91.336 571.841 88.632 573.185 86.296L571.713 85.672C570.209 88.136 569.329 90.76 569.329 93.944C569.329 97.16 570.209 99.752 571.713 102.232ZM576.816 90.888C576.816 89.432 577.536 88.712 578.416 88.712C579.424 88.712 580.24 89.512 580.448 91.656C579.904 92.568 579.152 92.936 578.496 92.936C577.472 92.936 576.816 92.28 576.816 90.888ZM578.096 99.224C580.448 99.224 582.64 97.288 582.64 92.808C582.64 88.696 580.624 86.936 578.384 86.936C576.352 86.936 574.656 88.456 574.656 90.888C574.656 93.4 576.08 94.616 578.048 94.616C578.848 94.616 579.856 94.136 580.48 93.336C580.368 96.296 579.28 97.304 577.952 97.304C577.248 97.304 576.528 96.936 576.096 96.456L574.848 97.88C575.552 98.6 576.624 99.224 578.096 99.224ZM588.158 99.224C590.574 99.224 592.158 97.112 592.158 93.032C592.158 88.952 590.574 86.936 588.158 86.936C585.742 86.936 584.142 88.936 584.142 93.032C584.142 97.112 585.742 99.224 588.158 99.224ZM588.158 97.384C587.134 97.384 586.366 96.36 586.366 93.032C586.366 89.72 587.134 88.76 588.158 88.76C589.182 88.76 589.934 89.72 589.934 93.032C589.934 96.36 589.182 97.384 588.158 97.384ZM596.251 94.44C597.947 94.44 599.147 93.048 599.147 90.664C599.147 88.296 597.947 86.936 596.251 86.936C594.555 86.936 593.371 88.296 593.371 90.664C593.371 93.048 594.555 94.44 596.251 94.44ZM596.251 93.112C595.563 93.112 595.035 92.408 595.035 90.664C595.035 88.92 595.563 88.264 596.251 88.264C596.939 88.264 597.483 88.92 597.483 90.664C597.483 92.408 596.939 93.112 596.251 93.112ZM596.651 99.224H598.043L604.475 86.936H603.083L596.651 99.224ZM604.859 99.224C606.539 99.224 607.755 97.816 607.755 95.448C607.755 93.064 606.539 91.704 604.859 91.704C603.179 91.704 601.979 93.064 601.979 95.448C601.979 97.816 603.179 99.224 604.859 99.224ZM604.859 97.88C604.171 97.88 603.643 97.192 603.643 95.448C603.643 93.704 604.171 93.032 604.859 93.032C605.547 93.032 606.091 93.704 606.091 95.448C606.091 97.192 605.547 97.88 604.859 97.88ZM610.554 102.232C612.074 99.752 612.954 97.16 612.954 93.944C612.954 90.76 612.074 88.136 610.554 85.672L609.098 86.296C610.442 88.632 611.05 91.336 611.05 93.944C611.05 96.584 610.442 99.272 609.098 101.608L610.554 102.232ZM571.713 126.232L573.185 125.608C571.841 123.272 571.233 120.584 571.233 117.944C571.233 115.336 571.841 112.632 573.185 110.296L571.713 109.672C570.209 112.136 569.329 114.76 569.329 117.944C569.329 121.16 570.209 123.752 571.713 126.232ZM576.992 123H579.376C579.568 118.36 579.936 115.944 582.688 112.584V111.144H574.816V113.128H580.144C577.888 116.264 577.2 118.888 576.992 123ZM588.158 123.224C590.574 123.224 592.158 121.112 592.158 117.032C592.158 112.952 590.574 110.936 588.158 110.936C585.742 110.936 584.142 112.936 584.142 117.032C584.142 121.112 585.742 123.224 588.158 123.224ZM588.158 121.384C587.134 121.384 586.366 120.36 586.366 117.032C586.366 113.72 587.134 112.76 588.158 112.76C589.182 112.76 589.934 113.72 589.934 117.032C589.934 120.36 589.182 121.384 588.158 121.384ZM596.251 118.44C597.947 118.44 599.147 117.048 599.147 114.664C599.147 112.296 597.947 110.936 596.251 110.936C594.555 110.936 593.371 112.296 593.371 114.664C593.371 117.048 594.555 118.44 596.251 118.44ZM596.251 117.112C595.563 117.112 595.035 116.408 595.035 114.664C595.035 112.92 595.563 112.264 596.251 112.264C596.939 112.264 597.483 112.92 597.483 114.664C597.483 116.408 596.939 117.112 596.251 117.112ZM596.651 123.224H598.043L604.475 110.936H603.083L596.651 123.224ZM604.859 123.224C606.539 123.224 607.755 121.816 607.755 119.448C607.755 117.064 606.539 115.704 604.859 115.704C603.179 115.704 601.979 117.064 601.979 119.448C601.979 121.816 603.179 123.224 604.859 123.224ZM604.859 121.88C604.171 121.88 603.643 121.192 603.643 119.448C603.643 117.704 604.171 117.032 604.859 117.032C605.547 117.032 606.091 117.704 606.091 119.448C606.091 121.192 605.547 121.88 604.859 121.88ZM610.554 126.232C612.074 123.752 612.954 121.16 612.954 117.944C612.954 114.76 612.074 112.136 610.554 109.672L609.098 110.296C610.442 112.632 611.05 115.336 611.05 117.944C611.05 120.584 610.442 123.272 609.098 125.608L610.554 126.232ZM601.244 150.232L602.716 149.608C601.372 147.272 600.764 144.584 600.764 141.944C600.764 139.336 601.372 136.632 602.716 134.296L601.244 133.672C599.74 136.136 598.86 138.76 598.86 141.944C598.86 145.16 599.74 147.752 601.244 150.232ZM607.963 147.224C610.155 147.224 612.107 145.704 612.107 143.064C612.107 140.488 610.443 139.304 608.459 139.304C607.915 139.304 607.515 139.416 607.035 139.64L607.259 137.128H611.563V135.144H605.227L604.907 140.904L605.979 141.608C606.667 141.16 607.051 140.984 607.755 140.984C608.955 140.984 609.755 141.752 609.755 143.128C609.755 144.52 608.891 145.304 607.659 145.304C606.555 145.304 605.723 144.76 605.051 144.104L603.963 145.608C604.843 146.488 606.091 147.224 607.963 147.224ZM617.689 147.224C620.105 147.224 621.689 145.112 621.689 141.032C621.689 136.952 620.105 134.936 617.689 134.936C615.273 134.936 613.673 136.936 613.673 141.032C613.673 145.112 615.273 147.224 617.689 147.224ZM617.689 145.384C616.665 145.384 615.897 144.36 615.897 141.032C615.897 137.72 616.665 136.76 617.689 136.76C618.713 136.76 619.465 137.72 619.465 141.032C619.465 144.36 618.713 145.384 617.689 145.384ZM625.783 142.44C627.479 142.44 628.679 141.048 628.679 138.664C628.679 136.296 627.479 134.936 625.783 134.936C624.087 134.936 622.903 136.296 622.903 138.664C622.903 141.048 624.087 142.44 625.783 142.44ZM625.783 141.112C625.095 141.112 624.567 140.408 624.567 138.664C624.567 136.92 625.095 136.264 625.783 136.264C626.471 136.264 627.015 136.92 627.015 138.664C627.015 140.408 626.471 141.112 625.783 141.112ZM626.183 147.224H627.575L634.007 134.936H632.615L626.183 147.224ZM634.391 147.224C636.071 147.224 637.287 145.816 637.287 143.448C637.287 141.064 636.071 139.704 634.391 139.704C632.711 139.704 631.511 141.064 631.511 143.448C631.511 145.816 632.711 147.224 634.391 147.224ZM634.391 145.88C633.703 145.88 633.175 145.192 633.175 143.448C633.175 141.704 633.703 141.032 634.391 141.032C635.079 141.032 635.623 141.704 635.623 143.448C635.623 145.192 635.079 145.88 634.391 145.88ZM640.085 150.232C641.605 147.752 642.485 145.16 642.485 141.944C642.485 138.76 641.605 136.136 640.085 133.672L638.629 134.296C639.973 136.632 640.581 139.336 640.581 141.944C640.581 144.584 639.973 147.272 638.629 149.608L640.085 150.232ZM659.451 185.448V187.16H661.755V192.392H663.867V181.64H661.755V185.448H659.451ZM660.427 188.84C658.107 188.056 657.099 186.248 657.099 184.504V184.312H659.963V182.632H652.043V184.312H654.939V184.52C654.939 186.376 653.883 188.312 651.467 189.096L652.539 190.776C654.251 190.2 655.403 189.032 656.059 187.576C656.699 188.904 657.787 189.96 659.403 190.488L660.427 188.84ZM656.267 194.44V191.496H654.155V196.12H664.203V194.44H656.267ZM668.218 186.12C668.218 184.984 668.826 184.296 669.69 184.296C670.554 184.296 671.162 184.984 671.162 186.12C671.162 187.288 670.554 187.96 669.69 187.96C668.826 187.96 668.218 187.288 668.218 186.12ZM673.05 186.12C673.05 184.008 671.642 182.52 669.69 182.52C667.738 182.52 666.314 184.008 666.314 186.12C666.314 188.264 667.738 189.736 669.69 189.736C671.642 189.736 673.05 188.264 673.05 186.12ZM668.682 192.776H676.714V196.392H678.826V191.112H668.682V192.776ZM676.826 181.64V185.208H675.706V181.896H673.738V190.392H675.706V186.904H676.826V190.424H678.826V181.64H676.826Z" fill="#D94A2B"/>
</svg>
