<svg width="577" height="474" viewBox="0 0 577 474" fill="none" xmlns="http://www.w3.org/2000/svg">
<path d="M480.629 211.771C469.435 192.519 473.667 151.967 473.667 151.967L471.21 154.288C482.403 124.933 472.984 113.054 472.984 113.054C445.274 71.8191 403.777 99.1268 403.777 99.1268C403.777 99.1268 373.337 104.042 384.53 140.361C385.213 142.546 385.486 145.277 385.622 148.008C385.486 148.281 380.844 165.621 379.206 168.898C377.978 171.219 384.121 174.496 387.67 176.134C395.587 210.542 397.361 209.313 397.361 209.313C411.285 209.996 422.342 207.675 431.351 203.715C432.579 210.133 433.808 217.233 433.808 217.233C436.811 240.99 403.368 256.283 403.368 256.283L466.842 280.313L530.043 240.034C530.043 239.761 494.279 235.256 480.629 211.771Z" fill="white" stroke="#405391" stroke-miterlimit="10"/>
<path d="M162.849 423.406L375.248 404.017L498.647 438.561L499.193 447.3L286.794 466.688L163.395 432.144L162.849 423.406Z" fill="white" stroke="#405391" stroke-miterlimit="10" stroke-linejoin="round"/>
<path d="M168.582 424.225L376.749 411.937L344.944 281.406L141.418 290.963L168.582 424.225Z" fill="white" stroke="#405391" stroke-miterlimit="10" stroke-linejoin="round"/>
<path d="M252.258 290.554C252.531 291.919 251.849 293.421 250.62 293.694C249.392 293.967 248.163 293.011 247.754 291.646C247.481 290.281 248.163 288.779 249.392 288.506C250.62 288.233 251.985 289.188 252.258 290.554Z" fill="#405391"/>
<path d="M141.417 290.963L344.944 281.406L141.417 290.963L168.582 424.225L162.849 423.542L137.595 294.923L141.417 290.963Z" fill="white"/>
<path d="M141.417 290.963L344.944 281.406L141.417 290.963ZM141.417 290.963L168.582 424.225L162.849 423.542L137.595 294.923L141.417 290.963Z" stroke="#405391" stroke-miterlimit="10" stroke-linejoin="round"/>
<path d="M157.252 301.477L335.116 293.148L358.731 396.371L180.184 412.346L157.252 301.477Z" fill="#8FB6FF" stroke="#405391" stroke-miterlimit="10"/>
<path d="M162.849 423.406L286.248 457.813L498.647 438.561L375.248 404.017L162.849 423.406Z" fill="white" stroke="#405391" stroke-miterlimit="10" stroke-linejoin="round"/>
<path d="M254.442 443.34L193.016 426.137L374.702 409.615L434.49 426.273L254.442 443.34Z" fill="white" stroke="#405391" stroke-miterlimit="10" stroke-linejoin="round"/>
<path d="M206.12 429.823L388.489 413.438" stroke="#405391" stroke-miterlimit="10" stroke-linejoin="round"/>
<path d="M221.408 434.056L403.777 417.808" stroke="#405391" stroke-miterlimit="10" stroke-linejoin="round"/>
<path d="M236.697 438.425L419.066 422.04" stroke="#405391" stroke-miterlimit="10" stroke-linejoin="round"/>
<path d="M214.993 424.361L275.191 441.156" stroke="#405391" stroke-miterlimit="10" stroke-linejoin="round"/>
<path d="M235.332 422.587L295.666 439.381" stroke="#405391" stroke-miterlimit="10" stroke-linecap="round" stroke-linejoin="round"/>
<path d="M252.804 420.812L313.139 437.606" stroke="#405391" stroke-miterlimit="10" stroke-linecap="round" stroke-linejoin="round"/>
<path d="M270.413 419.173L330.611 435.967" stroke="#405391" stroke-miterlimit="10" stroke-linecap="round" stroke-linejoin="round"/>
<path d="M287.886 417.398L348.084 434.192" stroke="#405391" stroke-miterlimit="10" stroke-linecap="round" stroke-linejoin="round"/>
<path d="M306.177 416.033L365.693 432.554" stroke="#405391" stroke-miterlimit="10" stroke-linecap="round" stroke-linejoin="round"/>
<path d="M323.65 414.258L383.711 430.915" stroke="#405391" stroke-miterlimit="10" stroke-linecap="round" stroke-linejoin="round"/>
<path d="M341.395 412.619L401.183 429.277" stroke="#405391" stroke-miterlimit="10" stroke-linecap="round" stroke-linejoin="round"/>
<path d="M359.55 411.117L418.656 427.502" stroke="#405391" stroke-miterlimit="10" stroke-linecap="round" stroke-linejoin="round"/>
<path d="M254.852 315.404L321.602 311.444C322.148 311.444 322.557 311.717 322.694 312.263L329.383 338.888C329.519 339.571 329.11 340.254 328.427 340.254L273.416 344.35C273.143 344.35 273.007 344.486 272.734 344.623L264.271 354.317C263.588 354.863 262.633 354.59 262.359 353.635L253.623 316.633C253.623 316.087 254.169 315.404 254.852 315.404Z" fill="white" stroke="#405391" stroke-miterlimit="10" stroke-linejoin="round"/>
<path d="M264.953 365.787L333.614 360.462L338.255 376.3L334.979 376.573L331.84 376.983L269.048 382.581L264.953 365.787Z" fill="white" stroke="#405391" stroke-miterlimit="10" stroke-linejoin="round"/>
<path d="M252.668 382.444L237.379 315.95L189.467 317.862L182.642 322.367L197.111 392.138L245.706 386.95L252.668 382.444Z" fill="white" stroke="#405391" stroke-miterlimit="10" stroke-linejoin="round"/>
<path d="M189.467 317.862L237.379 315.95L252.668 382.444L203.936 387.633L189.467 317.862Z" fill="white" stroke="#405391" stroke-miterlimit="10" stroke-linejoin="round"/>
<path d="M197.111 392.138L203.936 387.633" stroke="#405391" stroke-miterlimit="10"/>
<path d="M220.999 316.633L223.593 330.287C223.593 330.696 224.139 330.696 224.275 330.423L226.459 327.283C226.596 327.01 227.005 327.01 227.142 327.146L230.145 329.604C230.418 329.877 230.827 329.604 230.827 329.194L227.961 316.36L220.999 316.633Z" fill="#405391"/>
<path d="M205.574 346.534L235.605 344.213" stroke="#405391" stroke-miterlimit="10" stroke-linecap="round" stroke-linejoin="round"/>
<path d="M206.666 352.952L236.697 350.631" stroke="#405391" stroke-miterlimit="10" stroke-linecap="round" stroke-linejoin="round"/>
<path d="M279.559 323.733L289.66 323.05" stroke="#405391" stroke-miterlimit="10" stroke-linecap="round" stroke-linejoin="round"/>
<path d="M279.832 328.238L317.37 326.19" stroke="#405391" stroke-miterlimit="10" stroke-linecap="round" stroke-linejoin="round"/>
<path d="M280.514 332.881L318.053 330.969" stroke="#405391" stroke-miterlimit="10" stroke-linecap="round" stroke-linejoin="round"/>
<path d="M273.826 328.238C274.508 331.379 273.007 334.383 270.277 335.065C267.547 335.612 264.817 333.7 264.134 330.56C263.452 327.419 264.953 324.415 267.683 323.733C270.413 323.05 273.143 325.098 273.826 328.238Z" fill="white" stroke="#405391" stroke-miterlimit="10" stroke-linejoin="round"/>
<path d="M273.553 371.385C273.689 372.204 273.28 372.886 272.597 373.159C271.915 373.296 271.232 372.75 271.096 372.067C270.959 371.248 271.369 370.565 272.051 370.292C272.734 370.019 273.416 370.565 273.553 371.385Z" fill="#405391"/>
<path d="M278.467 370.838C278.603 371.658 278.194 372.34 277.511 372.613C276.829 372.75 276.146 372.204 276.01 371.521C275.873 370.702 276.283 370.019 276.965 369.746C277.648 369.473 278.33 370.019 278.467 370.838Z" fill="#405391"/>
<path d="M283.518 370.292C283.654 371.112 283.245 371.794 282.562 372.067C281.879 372.204 281.197 371.658 281.06 370.975C280.924 370.156 281.333 369.473 282.016 369.2C282.562 368.927 283.245 369.473 283.518 370.292Z" fill="#405391"/>
<path d="M527.859 251.367C527.859 251.367 525.129 236.348 523.627 288.779C522.262 337.933 521.716 389.544 521.716 389.544C521.716 389.544 495.098 390.363 466.569 402.788L448.141 410.435C448.141 410.435 496.053 436.923 530.043 447.573C561.439 457.267 564.305 433.373 560.62 375.071C560.62 375.071 542.874 255.463 527.859 251.367Z" fill="white" stroke="#405391" stroke-miterlimit="10" stroke-linejoin="round"/>
<path d="M402.003 86.2922C402.003 86.2922 362.007 107.592 384.94 129.029L412.104 101.858L402.003 86.2922Z" fill="#405391"/>
<path d="M461.791 188.559C461.791 188.559 470.8 188.286 476.124 200.438C476.124 200.438 470.254 186.648 480.492 175.179L461.791 188.559Z" fill="#405391"/>
<path d="M402.003 86.2923C402.003 86.2923 353.134 134.217 382.346 120.837C443.636 92.8461 440.497 163.437 440.497 163.437C440.497 163.437 448.96 155.79 445.82 163.846L461.791 188.56C461.791 188.56 495.917 175.725 497.691 132.715C498.374 118.106 484.041 51.6115 402.003 86.2923Z" fill="#405391"/>
<path d="M423.024 114.692C423.98 122.065 423.024 151.285 435.992 153.469C448.96 155.654 433.808 116.74 433.808 116.74L423.024 114.692Z" fill="#405391"/>
<path d="M381.936 272.121C366.512 341.756 359.277 413.711 359.277 413.711C359.277 413.711 328.7 404.973 299.625 400.331L267.956 391.865C266.864 391.456 255.944 386.267 252.395 382.854C248.709 379.167 246.525 389.408 252.531 394.05C254.306 395.415 255.671 396.644 256.763 397.736L249.119 398.965C247.754 399.102 246.525 399.785 245.57 400.604C240.246 405.383 222.91 421.494 226.186 422.45C227.005 422.723 227.961 422.723 228.916 422.586C223.047 427.502 222.501 432.554 224.139 432.827C226.596 433.1 229.735 431.325 232.875 428.731C230.145 431.871 226.732 438.971 230.554 438.698C235.605 438.425 239.973 434.465 244.068 427.775C244.068 427.775 243.113 429.55 243.522 429.14L240.519 434.056C240.519 434.056 246.662 439.517 251.166 441.975C255.398 444.433 257.991 435.558 251.849 431.871C251.849 431.871 254.033 429.686 255.807 425.044C255.807 425.044 272.87 433.236 281.47 426.819L287.203 427.365C302.082 436.65 377.568 470.648 387.943 469.829C411.421 468.054 415.926 421.904 427.256 320.865C427.119 320.729 388.898 240.854 381.936 272.121Z" fill="white" stroke="#405391" stroke-miterlimit="10" stroke-linejoin="round"/>
<path d="M359.277 413.711C359.277 413.711 351.906 417.671 350.541 428.458" stroke="#405391" stroke-miterlimit="10"/>
<path d="M544.649 374.661C556.797 372.613 576.317 365.923 576.317 365.923C576.317 365.923 568.81 271.438 545.058 243.448C543.83 240.854 539.871 235.392 527.04 233.617C523.218 233.071 519.532 232.388 515.983 231.569C503.425 228.838 493.323 225.152 490.457 223.24C490.457 223.24 490.457 223.377 490.457 223.513C490.457 223.513 490.32 223.377 490.184 223.377C490.184 223.377 490.73 225.971 489.911 228.838C489.774 229.111 489.774 229.384 489.638 229.658C489.638 229.794 489.501 229.931 489.501 230.067C489.365 230.477 489.092 230.886 488.819 231.296C484.86 237.713 459.061 240.308 433.125 226.654C433.125 226.654 388.625 251.913 376.886 260.652C358.731 299.429 350.95 386.95 350.95 382.854C350.95 381.761 387.943 401.15 412.104 402.242C412.24 409.069 406.234 495.908 406.234 495.908C406.234 495.908 510.932 501.233 557.343 476.519C557.343 476.519 539.052 415.623 541.236 398.556C541.236 396.644 544.103 379.713 544.649 374.661Z" fill="#8FB6FF" stroke="#405391" stroke-miterlimit="10"/>
<path d="M406.234 85.7461C406.234 85.7461 354.909 73.7307 358.185 86.9749C361.461 100.219 374.702 111.688 374.702 111.688C374.702 111.688 359.55 111.279 367.467 118.925C375.384 126.571 382.073 126.025 382.073 126.025L406.234 85.7461Z" fill="#405391"/>
<path d="M431.351 203.715C431.351 203.715 436.674 202.35 446.366 194.021" stroke="#405391" stroke-miterlimit="10"/>
<path d="M440.77 141.59C440.77 141.59 437.22 75.5057 402.549 83.5615" stroke="white" stroke-width="2" stroke-miterlimit="10"/>
<path d="M461.472 160.537C462.262 148.271 453.206 137.703 441.244 136.932C429.283 136.161 418.945 145.479 418.155 157.745C417.365 170.01 426.421 180.579 438.383 181.35C450.344 182.121 460.682 172.802 461.472 160.537Z" fill="#8FB6FF" stroke="#405391" stroke-miterlimit="10"/>
<path d="M454.42 159.75C453.874 168.625 446.776 175.315 438.722 174.769C430.532 174.223 424.389 166.713 425.072 157.838C425.618 148.963 432.716 142.273 440.769 142.819C448.823 143.365 454.966 151.011 454.42 159.75Z" fill="white" stroke="#405391" stroke-miterlimit="10"/>
<path d="M392.174 152.787C392.174 154.562 393.266 155.927 394.631 155.927C395.996 155.927 397.088 154.425 397.088 152.65C397.088 150.875 395.996 149.51 394.631 149.51C393.266 149.51 392.174 151.012 392.174 152.787Z" fill="#405391"/>
<path d="M404.187 143.502C402.139 140.771 399.409 139.815 397.088 139.133C394.631 138.313 392.174 137.494 391.082 138.723C390.4 139.406 390.4 140.771 390.946 141.59C391.765 142.683 393.403 142.683 394.904 142.819C401.047 143.502 404.596 147.188 405.279 146.233C405.688 145.55 404.733 144.185 404.187 143.502Z" fill="#405391"/>
<path d="M392.584 184.736C392.584 184.736 399.273 184.463 403.641 179.958" stroke="#405391" stroke-miterlimit="10"/>
<path d="M367.058 76.1884C367.467 76.1884 387.67 70.5903 402.958 87.9307" stroke="#405391" stroke-miterlimit="10"/>
<path d="M488.273 88.6134L486.771 104.315C486.771 104.315 490.866 96.5326 498.92 101.721" stroke="#405391" stroke-miterlimit="10"/>
<path d="M387.26 105.681C387.26 105.681 370.197 129.848 378.934 129.848C392.174 129.711 405.142 112.644 402.822 111.688C400.228 110.869 387.26 105.681 387.26 105.681Z" fill="#405391"/>
<path d="M232.875 428.594L239.563 414.394L246.798 408.66" fill="white"/>
<path d="M232.875 428.594L239.563 414.394L246.798 408.66" stroke="#405391" stroke-miterlimit="10"/>
<path d="M228.78 422.45L236.56 413.711" stroke="#405391" stroke-miterlimit="10"/>
<path d="M256.626 410.298L247.89 416.579L243.386 429.004" fill="white"/>
<path d="M256.626 410.298L247.89 416.579L243.386 429.004" stroke="#405391" stroke-miterlimit="10" stroke-linejoin="round"/>
<path d="M376.749 260.652C376.749 260.652 432.033 246.998 430.805 317.042L428.211 401.013C428.211 401.013 417.837 403.198 407.19 401.833" stroke="#405391" stroke-miterlimit="10"/>
<path d="M542.601 278.265C542.601 278.265 554.204 306.256 554.34 330.969C554.477 344.213 544.649 374.934 544.649 374.934" stroke="#405391" stroke-miterlimit="10"/>
<path d="M256.626 397.6L266.182 396.235" stroke="#405391" stroke-miterlimit="10" stroke-linejoin="round"/>
<path d="M61.9725 426H163.395" stroke="#405391" stroke-miterlimit="10" stroke-linejoin="round"/>
<path d="M359.277 209.313C359.277 211.225 357.775 212.727 355.864 212.727C353.953 212.727 352.452 211.225 352.452 209.313C352.452 207.402 353.953 205.9 355.864 205.9C357.775 205.9 359.277 207.402 359.277 209.313Z" fill="white" stroke="#405391" stroke-miterlimit="10" stroke-linejoin="round"/>
<path d="M517.757 184.737C517.757 186.648 516.256 188.15 514.345 188.15C512.434 188.15 510.932 186.648 510.932 184.737C510.932 182.825 512.434 181.323 514.345 181.323C516.256 181.46 517.757 182.962 517.757 184.737Z" fill="white" stroke="#405391" stroke-miterlimit="10" stroke-linejoin="round"/>
<path d="M320.647 105.271C320.647 107.183 319.145 108.685 317.234 108.685C315.323 108.685 313.821 107.183 313.821 105.271C313.821 103.36 315.323 101.858 317.234 101.858C319.145 101.994 320.647 103.496 320.647 105.271Z" fill="white" stroke="#405391" stroke-miterlimit="10" stroke-linejoin="round"/>
<path d="M199.158 202.487C199.158 204.398 197.657 205.9 195.746 205.9C193.835 205.9 192.333 204.398 192.333 202.487C192.333 200.575 193.835 199.073 195.746 199.073C197.657 199.21 199.158 200.712 199.158 202.487Z" fill="white" stroke="#405391" stroke-miterlimit="10" stroke-linejoin="round"/>
<path d="M287.886 169.308C292.117 169.035 295.53 165.485 295.53 161.252C295.53 156.746 291.844 153.06 287.34 153.06C286.521 153.06 285.702 153.196 285.019 153.469C283.654 147.735 278.467 143.502 272.461 143.502C266.455 143.502 261.268 147.598 259.902 153.333C259.356 153.196 258.674 153.196 258.128 153.196C253.623 153.196 249.938 156.883 249.938 161.388C249.938 165.621 253.214 169.171 257.445 169.444L287.886 169.308Z" fill="white" stroke="#405391" stroke-miterlimit="10" stroke-linejoin="round"/>
<path d="M329.656 28.6731C334.16 28.4 337.709 24.7135 337.709 20.2077C337.709 15.5654 333.887 11.7423 329.246 11.7423C328.427 11.7423 327.608 11.8789 326.789 12.1519C325.288 6.28079 319.964 1.77502 313.685 1.77502C307.406 1.77502 302.082 6.14425 300.58 12.0154C300.034 11.8789 299.352 11.7423 298.669 11.7423C294.028 11.7423 290.206 15.5654 290.206 20.2077C290.206 24.7135 293.619 28.2635 297.987 28.6731H329.656Z" fill="white" stroke="#405391" stroke-miterlimit="10" stroke-linejoin="round"/>
<path d="M465.886 0V3.82308" stroke="#405391" stroke-miterlimit="10" stroke-linejoin="round"/>
<path d="M453.601 6.8269L456.877 8.73844" stroke="#405391" stroke-miterlimit="10" stroke-linejoin="round"/>
<path d="M453.328 20.7538L456.604 18.8423" stroke="#405391" stroke-miterlimit="10" stroke-linejoin="round"/>
<path d="M465.34 28.1269V24.1672" stroke="#405391" stroke-miterlimit="10" stroke-linejoin="round"/>
<path d="M477.625 21.3L474.213 19.3884" stroke="#405391" stroke-miterlimit="10" stroke-linejoin="round"/>
<path d="M477.898 7.23657L474.486 9.14811" stroke="#405391" stroke-miterlimit="10" stroke-linejoin="round"/>
<path d="M236.697 59.3943V63.2174" stroke="#405391" stroke-miterlimit="10" stroke-linejoin="round"/>
<path d="M224.412 66.2212L227.688 68.1327" stroke="#405391" stroke-miterlimit="10" stroke-linejoin="round"/>
<path d="M224.139 80.2847L227.415 78.2366" stroke="#405391" stroke-miterlimit="10" stroke-linejoin="round"/>
<path d="M236.151 87.5213V83.5616" stroke="#405391" stroke-miterlimit="10" stroke-linejoin="round"/>
<path d="M248.436 80.6942L245.024 78.7827" stroke="#405391" stroke-miterlimit="10" stroke-linejoin="round"/>
<path d="M248.709 66.6309L245.297 68.5424" stroke="#405391" stroke-miterlimit="10" stroke-linejoin="round"/>
<path d="M264.407 221.602V225.425" stroke="#405391" stroke-miterlimit="10" stroke-linejoin="round"/>
<path d="M252.122 228.292L255.398 230.34" stroke="#405391" stroke-miterlimit="10" stroke-linejoin="round"/>
<path d="M251.849 242.356L255.125 240.444" stroke="#405391" stroke-miterlimit="10" stroke-linejoin="round"/>
<path d="M263.861 249.592V245.769" stroke="#405391" stroke-miterlimit="10" stroke-linejoin="round"/>
<path d="M276.146 242.902L272.734 240.99" stroke="#405391" stroke-miterlimit="10" stroke-linejoin="round"/>
<path d="M276.419 228.839L273.007 230.75" stroke="#405391" stroke-miterlimit="10" stroke-linejoin="round"/>
<path d="M58.1505 387.769C73.1528 387.769 85.3146 385.874 85.3146 383.537C85.3146 381.199 73.1528 379.304 58.1505 379.304C43.1481 379.304 30.9863 381.199 30.9863 383.537C30.9863 385.874 43.1481 387.769 58.1505 387.769Z" fill="#405391"/>
<path d="M51.3253 434.056H64.8392C69.8898 433.783 74.1214 433.237 76.715 432.417L84.2226 383.673H84.0861C84.0861 385.858 72.3468 387.769 58.014 387.769C43.5446 387.769 31.9418 385.994 31.9418 383.673H31.8053L39.313 432.417C42.1796 433.237 46.2747 433.783 51.3253 434.056Z" fill="white" stroke="#405391" stroke-miterlimit="10" stroke-linejoin="round"/>
<path d="M20.2025 325.371C9.41874 325.371 0.682522 334.11 0.682522 344.896C0.682522 346.671 0.955529 348.31 1.36504 349.948C1.91105 349.675 2.59357 349.538 3.41259 349.538C5.86965 349.538 7.9172 351.586 7.9172 354.044C7.9172 355.683 7.09818 357.185 5.73315 357.867C9.28224 361.827 14.4694 364.285 20.2025 364.285C30.9863 364.285 39.7225 355.546 39.7225 344.76C39.586 334.11 30.8498 325.371 20.2025 325.371Z" fill="#8FB6FF" stroke="#405391" stroke-miterlimit="10"/>
<path d="M34.6718 339.435C34.6718 340.937 33.4433 342.165 31.9418 342.165C30.4402 342.165 29.2117 340.937 29.2117 339.435C29.2117 337.933 30.4402 336.704 31.9418 336.704C33.4433 336.704 34.6718 337.933 34.6718 339.435Z" fill="white" stroke="#405391" stroke-miterlimit="10" stroke-linejoin="round"/>
<path d="M103.559 343.104C109.667 334.218 107.418 322.062 98.5347 315.952C89.6515 309.843 77.4984 312.093 71.3902 320.978C65.2819 329.864 67.5314 342.02 76.4146 348.13C85.2978 354.239 97.4508 351.989 103.559 343.104Z" fill="#8FB6FF" stroke="#405391" stroke-miterlimit="10"/>
<path d="M86.2702 332.335C86.2702 332.335 58.287 348.583 60.6075 381.079" stroke="#405391" stroke-miterlimit="10" stroke-linejoin="round"/>
<path d="M49.1413 325.917C56.7855 333.427 69.0708 333.427 76.715 325.781C84.2227 318.135 84.2227 305.846 76.5785 298.2C68.9343 290.69 56.649 290.69 49.0048 298.337C41.3606 306.119 41.4971 318.408 49.1413 325.917Z" fill="#8FB6FF" stroke="#405391" stroke-miterlimit="10"/>
<path d="M61.9726 312.946C61.9726 312.946 42.4526 361.144 60.471 385.312" stroke="#405391" stroke-miterlimit="10" stroke-linejoin="round"/>
<path d="M20.885 344.76C20.885 344.76 51.4618 355.273 55.5569 387.633" stroke="#405391" stroke-miterlimit="10" stroke-linejoin="round"/>
<path d="M80.4006 340.39C91.1843 340.39 99.9205 349.129 99.9205 359.915C99.9205 361.69 99.6475 363.329 99.238 364.967C98.692 364.694 98.0095 364.558 97.1905 364.558C94.7334 364.558 92.6859 366.606 92.6859 369.063C92.6859 370.702 93.5049 372.204 94.8699 372.887C91.3208 376.846 86.1337 379.304 80.4006 379.304C69.6168 379.304 60.8806 370.565 60.8806 359.779C60.8806 349.129 69.6168 340.39 80.4006 340.39Z" fill="#8FB6FF" stroke="#405391" stroke-miterlimit="10"/>
<path d="M65.9312 354.454C65.9312 355.956 67.1597 357.185 68.6613 357.185C70.1628 357.185 71.3913 355.956 71.3913 354.454C71.3913 352.952 70.1628 351.723 68.6613 351.723C67.1597 351.723 65.9312 352.952 65.9312 354.454Z" fill="white" stroke="#405391" stroke-miterlimit="10" stroke-linejoin="round"/>
<path d="M84.3591 355.546C84.3591 355.546 62.7916 364.148 57.468 386.677" stroke="#405391" stroke-miterlimit="10" stroke-linejoin="round"/>
<path d="M171.175 422.04C172.131 425.454 170.766 428.731 168.036 429.55C165.306 430.369 162.303 428.321 161.211 424.908C160.255 421.494 161.62 418.217 164.35 417.398C167.08 416.579 170.22 418.763 171.175 422.04Z" fill="#405391"/>
<path d="M100.194 53.5231C81.2195 55.025 65.6581 70.0442 63.7471 88.8865C62.9281 96.2596 64.2931 103.36 67.0232 109.64C67.5692 110.869 67.5692 112.098 67.1597 113.327L63.2011 125.615C62.5186 127.937 64.5661 130.121 66.8867 129.575L78.353 126.708C79.718 126.435 81.2195 126.571 82.3116 127.254C89.2732 131.623 97.6 133.808 106.609 133.125C125.856 131.623 141.554 115.921 143.056 96.6692C144.967 72.0923 124.628 51.7481 100.194 53.5231Z" fill="white" stroke="#405391" stroke-miterlimit="10" stroke-linejoin="round"/>
<path d="M121.624 88.7499V103.769C121.624 103.769 117.529 109.64 104.016 109.64C90.5017 109.64 86.4066 103.769 86.4066 103.769V88.7499" fill="#8FB6FF"/>
<path d="M121.624 88.7499V103.769C121.624 103.769 117.529 109.64 104.016 109.64C90.5017 109.64 86.4066 103.769 86.4066 103.769V88.7499" stroke="#405391" stroke-miterlimit="10"/>
<path d="M116.71 91.2076V114.419" stroke="#405391" stroke-miterlimit="10"/>
<path d="M103.47 97.2153L76.8514 85.8826C75.8959 85.473 75.8959 84.1076 76.8514 83.8345L103.47 74.0038C103.743 73.8672 104.016 73.8672 104.289 74.0038L131.043 83.698C131.999 84.1076 131.999 85.3365 131.043 85.7461L104.425 97.0788C104.152 97.2153 103.743 97.2153 103.47 97.2153Z" fill="#8FB6FF" stroke="#405391" stroke-miterlimit="10"/>
<path d="M116.71 118.515C115.618 118.515 114.663 117.56 114.663 116.467C114.663 115.375 115.618 114.419 116.71 114.419C117.802 114.419 118.758 115.375 118.758 116.467C118.758 117.56 117.939 118.515 116.71 118.515Z" fill="#405391"/>
</svg>
