<svg width="660" height="50" viewBox="0 0 660 50" fill="none" xmlns="http://www.w3.org/2000/svg">
<rect x="0.5" y="0.5" width="659" height="49" stroke="#5775D9"/>
<path d="M39.6875 21.73C39.6875 20.9484 39.0516 20.3125 38.27 20.3125C37.8916 20.3125 37.5353 20.46 37.2678 20.7278L36.3416 21.6541L35.3125 22.6831V19.6625C36.3709 19.51 37.1875 18.5997 37.1875 17.5C37.1875 16.2938 36.2063 15.3125 35 15.3125H22.5C21.2938 15.3125 20.3125 16.2938 20.3125 17.5V33.125C20.3125 33.2975 20.4525 33.4375 20.625 33.4375H22.1875V34.375C22.1875 34.5475 22.3275 34.6875 22.5 34.6875H35C35.1725 34.6875 35.3125 34.5475 35.3125 34.375V26.6919L38.3459 23.6584L38.6669 23.3375C38.505 24.1438 38.1103 24.885 37.5159 25.4797L36.0294 26.9662L36.4713 27.4081L37.9578 25.9216C38.8447 25.0347 39.3406 23.8634 39.3697 22.6137C39.5719 22.3631 39.6875 22.0569 39.6875 21.73ZM37.7097 21.1697C37.8594 21.02 38.0584 20.9375 38.27 20.9375C38.7069 20.9375 39.0625 21.2931 39.0625 21.73C39.0625 21.9416 38.98 22.1406 38.8303 22.2903L38.125 22.9956L37.0044 21.875L37.7097 21.1697ZM36.5625 22.3169L36.9019 22.6562L32.9688 26.5894L32.6294 26.25L36.5625 22.3169ZM29.1303 30.5634L29.7731 29.2775L30.7225 30.2269L29.4366 30.8697L29.1303 30.5634ZM30.1294 28.75L32.1875 26.6919L33.3081 27.8125L31.25 29.8706L30.1294 28.75ZM35 15.9375C35.8616 15.9375 36.5625 16.6384 36.5625 17.5C36.5625 18.3616 35.8616 19.0625 35 19.0625H24.0281C24.4344 18.665 24.6875 18.1119 24.6875 17.5C24.6875 16.8881 24.4344 16.335 24.0281 15.9375H35ZM22.8125 19.0309V18.125C22.8125 17.9528 22.9528 17.8125 23.125 17.8125H24.0309C23.9062 18.4237 23.4237 18.9062 22.8125 19.0309ZM20.9375 32.8125V17.5C20.9375 16.6384 21.6384 15.9375 22.5 15.9375C23.2544 15.9375 23.8856 16.4753 24.0309 17.1875H23.125C22.6081 17.1875 22.1875 17.6081 22.1875 18.125V32.8125H20.9375ZM34.6875 34.0625H22.8125V19.6875H34.6875V23.3081L33.3081 24.6875H24.0625V25.3125H32.6831L32.0581 25.9375H24.0625V26.5625H31.4331L29.4666 28.5291C29.4422 28.5534 29.4263 28.5825 29.4116 28.6119L29.4081 28.61L28.4706 30.485C28.4106 30.6053 28.4341 30.7506 28.5294 30.8456L28.6206 30.9375L27.9041 31.6541L28.3459 32.0959L29.0625 31.3794L29.1541 31.4709C29.2141 31.5309 29.2941 31.5625 29.375 31.5625C29.4222 31.5625 29.4703 31.5516 29.5147 31.5297L31.3897 30.5922L31.3878 30.5887C31.4172 30.5741 31.4462 30.5581 31.4706 30.5338L33.9706 28.0338L34.6875 27.3169V34.0625ZM33.75 27.3706L33.4106 27.0312L37.3438 23.0981L37.6831 23.4375L33.75 27.3706Z" fill="#5775D9"/>
<path d="M24.0625 20.9375H33.4375V21.5625H24.0625V20.9375Z" fill="#5775D9"/>
<path d="M24.0625 22.1875H33.4375V22.8125H24.0625V22.1875Z" fill="#5775D9"/>
<path d="M24.0625 23.4375H33.4375V24.0625H24.0625V23.4375Z" fill="#5775D9"/>
<path d="M24.0625 30.9375H27.5V31.5625H24.0625V30.9375Z" fill="#5775D9"/>
<path d="M24.0625 32.1875H33.4375V32.8125H24.0625V32.1875Z" fill="#5775D9"/>
<path d="M631 18L629.59 19.41L634.17 24H618V26H634.17L629.58 30.59L631 32L638 25L631 18Z" fill="#5775D9"/>
</svg>
