<svg width="88" height="24" viewBox="0 0 88 24" fill="none" xmlns="http://www.w3.org/2000/svg">
<path d="M19 13H13V19H11V13H5V11H11V5H13V11H19V13Z" fill="#243366"/>
<path d="M43.142 6.242L39.46 16H37.99L34.308 6.242H35.666L38.732 14.656L41.798 6.242H43.142ZM45.1969 7.082C44.9543 7.082 44.7489 6.998 44.5809 6.83C44.4129 6.662 44.3289 6.45667 44.3289 6.214C44.3289 5.97133 44.4129 5.766 44.5809 5.598C44.7489 5.43 44.9543 5.346 45.1969 5.346C45.4303 5.346 45.6263 5.43 45.7849 5.598C45.9529 5.766 46.0369 5.97133 46.0369 6.214C46.0369 6.45667 45.9529 6.662 45.7849 6.83C45.6263 6.998 45.4303 7.082 45.1969 7.082ZM45.8129 8.328V16H44.5389V8.328H45.8129ZM54.9843 11.87C54.9843 12.1127 54.9703 12.3693 54.9423 12.64H48.8103C48.8569 13.396 49.1136 13.9887 49.5803 14.418C50.0563 14.838 50.6303 15.048 51.3023 15.048C51.8529 15.048 52.3103 14.922 52.6743 14.67C53.0476 14.4087 53.3089 14.0633 53.4583 13.634H54.8303C54.6249 14.3713 54.2143 14.9733 53.5983 15.44C52.9823 15.8973 52.2169 16.126 51.3023 16.126C50.5743 16.126 49.9209 15.9627 49.3423 15.636C48.7729 15.3093 48.3249 14.8473 47.9983 14.25C47.6716 13.6433 47.5083 12.9433 47.5083 12.15C47.5083 11.3567 47.6669 10.6613 47.9843 10.064C48.3016 9.46667 48.7449 9.00933 49.3143 8.692C49.8929 8.36533 50.5556 8.202 51.3023 8.202C52.0303 8.202 52.6743 8.36067 53.2343 8.678C53.7943 8.99533 54.2236 9.434 54.5223 9.994C54.8303 10.5447 54.9843 11.17 54.9843 11.87ZM53.6683 11.604C53.6683 11.1187 53.5609 10.7033 53.3463 10.358C53.1316 10.0033 52.8376 9.73733 52.4643 9.56C52.1003 9.37333 51.6943 9.28 51.2463 9.28C50.6023 9.28 50.0516 9.48533 49.5943 9.896C49.1463 10.3067 48.8896 10.876 48.8243 11.604H53.6683ZM66.8859 8.328L64.4919 16H63.1759L61.3279 9.91L59.4799 16H58.1639L55.7559 8.328H57.0579L58.8219 14.768L60.7259 8.328H62.0279L63.8899 14.782L65.6259 8.328H66.8859ZM77.6507 13.83H73.3947L72.6107 16H71.2667L74.7947 6.298H76.2647L79.7787 16H78.4347L77.6507 13.83ZM77.2867 12.794L75.5227 7.866L73.7587 12.794H77.2867ZM82.5903 5.64V16H81.3163V5.64H82.5903ZM86.0356 5.64V16H84.7616V5.64H86.0356Z" fill="#243366"/>
</svg>
