<svg xmlns="http://www.w3.org/2000/svg" viewBox="0 0 1027 375"><defs><style>.cls-1{isolation:isolate;}.cls-2{fill:#f9b5b2;}.cls-3{fill:#07085b;}.cls-4,.cls-5{fill:#57ace5;}.cls-14,.cls-30,.cls-5,.cls-8{opacity:0.3;}.cls-13,.cls-14,.cls-24,.cls-30,.cls-33,.cls-5{mix-blend-mode:multiply;}.cls-6{fill:#026eaf;}.cls-7{fill:#02ccc0;}.cls-9{fill:#fff;}.cls-10{fill:#142666;}.cls-11{fill:#70c0fd;}.cls-12{fill:#4188e4;}.cls-13,.cls-24,.cls-31{fill:#97cef7;}.cls-14{fill:#e87b50;}.cls-15{fill:#0a9;}.cls-16{fill:#f4a640;}.cls-17{fill:#202121;}.cls-18{fill:#333;}.cls-19{fill:#183658;}.cls-20{fill:#fee4cb;}.cls-21{fill:#ffc0bb;}.cls-22,.cls-30{fill:#f99893;}.cls-23{fill:#09083c;}.cls-24,.cls-33{opacity:0.5;}.cls-25{fill:#81caef;}.cls-26{fill:#ef5488;}.cls-27{fill:#ea426e;}.cls-28{fill:#f76390;}.cls-29{fill:#daeef7;}.cls-32{fill:#feb546;}.cls-33{fill:#e0a689;}.cls-34{fill:#c9eafd;}</style></defs><g class="cls-1"><g id="레이어_2" data-name="레이어 2"><g id="레이어_1-2" data-name="레이어 1"><path class="cls-2" d="M923.36,248.54l-1.13,10.37a58.54,58.54,0,0,1,6,1c1.82.53,7-9.66,7-9.66s-5.5-2.36-5.76-2.36S923.36,248.54,923.36,248.54Z"/><polygon class="cls-3" points="982.79 296.49 987.91 369.66 985.35 369.66 977.24 297.28 982.79 296.49"/><polygon class="cls-3" points="929.02 296.49 923.9 369.66 926.46 369.66 934.57 297.28 929.02 296.49"/><path class="cls-4" d="M1005.13,217.34s-40.92-1.22-43.57-1-5.1,8.71-5.1,8.71-12,44.35-11.71,45.56-11.15,29.8-11.15,29.8,9.82-.26,10.26,0,38-3.22,38.51-3.57,2.44-6.88,2.53-7.23,3-25.79,3-25.79l1.48-14s5.65-12,5.74-12.07,5.3-10.58,5.65-11.1,5.74-6.37,5.91-6.89S1005.13,217.34,1005.13,217.34Z"/><path class="cls-5" d="M1005.13,217.34s-14.11-.42-26.29-.73c4.73,2.79,7.39,10.58,5.42,24.45-1.68,11.78-3.54,24.57-11,39.9-3.82,7.9-20.27,3.48-33.76,4.26-2.9,7.54-5.94,15.16-5.94,15.16s9.82-.26,10.26,0,38-3.22,38.51-3.57,2.44-6.88,2.53-7.23,3-25.79,3-25.79l1.48-14s5.65-12,5.74-12.07,5.3-10.58,5.65-11.1,5.74-6.37,5.91-6.89S1005.13,217.34,1005.13,217.34Z"/><path class="cls-6" d="M926.12,301.94h0a2.55,2.55,0,0,1,2.36-2.7c4.38-.29,13.83-1,23.56-1.89,18.64-1.77,25.38-3.22,27.8-4a2.49,2.49,0,0,0,1.68-1.78c.66-2.61,1-8,1.36-12.54,1.22-17.17,3.23-45.49,20.87-61a2.54,2.54,0,0,1,3.69.37h0a2.54,2.54,0,0,1-.33,3.45C991,236,989.19,262,988,279.41c-.71,9.93-1.14,14.81-3.31,17.08-1,1.1-3,3.13-31.35,5.86-10,1-19.95,1.67-24.47,2A2.55,2.55,0,0,1,926.12,301.94Z"/><path class="cls-7" d="M927.35,265.88s1.11-39.38,3.19-43.92,9.44-5.4,9.44-5.4,19.18-2.85,24.17,1.87c.37.35,9,11.86,7.65,66.44,0,0-16.47-9.06-44.45-13.71Z"/><g class="cls-8"><polygon class="cls-9" points="592.45 159.81 664.21 159.81 697.17 86.99 625.41 86.99 592.45 159.81"/><polygon class="cls-9" points="708.12 86.99 675.15 159.81 746.92 159.81 779.88 86.99 708.12 86.99"/><polygon class="cls-9" points="556.18 239.92 627.95 239.92 660.91 167.1 589.15 167.1 556.18 239.92"/><polygon class="cls-9" points="638.89 239.92 710.65 239.92 743.62 167.1 671.85 167.1 638.89 239.92"/></g><rect class="cls-10" x="456.44" y="115.09" width="9.3" height="37.71"/><rect class="cls-11" x="524.89" y="129.84" width="7.41" height="37.63" transform="translate(677.25 -379.94) rotate(90)"/><rect class="cls-10" x="529.9" y="122.41" width="7.41" height="37.63" transform="translate(674.83 -392.38) rotate(90)"/><rect class="cls-9" x="522.11" y="115.16" width="7.41" height="37.63" transform="translate(659.79 -391.84) rotate(90)"/><rect class="cls-9" x="466.99" y="99.9" width="9.51" height="52.35"/><rect class="cls-11" x="446.58" y="105.67" width="8.76" height="46.58"/><polygon class="cls-11" points="504.77 147.96 496.9 151.81 476.51 109.96 484.38 106.11 504.77 147.96"/><rect class="cls-12" x="439.62" y="151.98" width="150.48" height="4.26"/><rect class="cls-10" x="798.88" y="122.45" width="8.26" height="33.5"/><rect class="cls-9" x="833.11" y="135.54" width="6.58" height="33.43" transform="translate(988.66 -684.14) rotate(90)"/><rect class="cls-13" x="837.56" y="128.94" width="6.58" height="33.43" transform="translate(986.5 -695.19) rotate(90)"/><rect class="cls-10" x="833.11" y="122.51" width="6.58" height="33.43" transform="translate(975.62 -697.18) rotate(90)"/><rect class="cls-11" x="808.25" y="108.95" width="8.45" height="46.49"/><rect class="cls-9" x="790.12" y="114.08" width="7.78" height="41.37"/><rect class="cls-10" x="872.03" y="122.45" width="8.26" height="33.5"/><rect class="cls-11" x="881.4" y="108.95" width="8.45" height="46.49"/><rect class="cls-9" x="863.27" y="114.08" width="7.78" height="41.37"/><polygon class="cls-9" points="914.96 151.64 907.97 155.06 889.86 117.89 896.85 114.47 914.96 151.64"/><rect class="cls-12" x="783.94" y="155.21" width="133.66" height="3.78"/><path class="cls-9" d="M915.28,369.85l20-9.24a.59.59,0,0,0,.28-.78l-.51-1.11a.58.58,0,0,0-.78-.28l-20,9.24a.6.6,0,0,0-.29.78l.51,1.11A.59.59,0,0,0,915.28,369.85Z"/><path class="cls-7" d="M930.76,352l3.48,5.72c.43.71.34,1.57-.19,1.82l-18.53,8.58a1.45,1.45,0,0,1-1.61-.33,3,3,0,0,1-.73-2.93c.54-3.12,5.54-6.18,7.34-9.4a.66.66,0,0,1,.28-.27l8.45-3.91A1.28,1.28,0,0,1,930.76,352Z"/><path class="cls-9" d="M923.55,358.21h0a.46.46,0,0,0-.12-.54c-.75-.66-2.82-2.15-4.94-.66a.37.37,0,0,0,0,.48h0a.29.29,0,0,0,.4.15,3.39,3.39,0,0,1,4.3.57A.23.23,0,0,0,923.55,358.21Z"/><path class="cls-9" d="M922,359.88h0a.45.45,0,0,0-.12-.54c-.74-.66-2.81-2.15-4.93-.66-.13.08-.13.31,0,.48h0c.11.17.28.23.4.15a3.4,3.4,0,0,1,4.31.57C921.75,360,921.91,360,922,359.88Z"/><path class="cls-9" d="M920.53,361.44h0a.46.46,0,0,0-.12-.55c-.75-.66-2.81-2.15-4.94-.66a.38.38,0,0,0,0,.49h0c.1.18.28.24.4.16a3.38,3.38,0,0,1,4.3.56C920.3,361.56,920.45,361.56,920.53,361.44Z"/><path class="cls-14" d="M929,360.94c-.37-4.22,1.18-5.93,2.47-6.63a.65.65,0,0,1,.84.25l1.94,3.19c.43.71.34,1.57-.19,1.82l-4.15,1.92A.65.65,0,0,1,929,360.94Z"/><rect class="cls-9" x="879.22" y="365" width="23.16" height="2.4" rx="0.59" transform="translate(-65.35 250.42) rotate(-15.44)"/><path class="cls-7" d="M898.69,355.23l2.51,6.22c.31.76.07,1.6-.49,1.76L881,368.64a1.5,1.5,0,0,1-1.55-.59,3,3,0,0,1-.24-3c1-3,6.47-5.19,8.78-8.08a.58.58,0,0,1,.32-.21l9-2.48C897.83,354.13,898.41,354.54,898.69,355.23Z"/><path class="cls-9" d="M890.57,360.15h0a.47.47,0,0,0,0-.56c-.63-.77-2.43-2.58-4.76-1.46-.14.06-.18.28-.1.48h0c.08.19.24.28.37.22a3.41,3.41,0,0,1,4.16,1.26C890.32,360.23,890.47,360.25,890.57,360.15Z"/><path class="cls-9" d="M888.76,361.54h0a.47.47,0,0,0,0-.56c-.62-.77-2.42-2.58-4.76-1.46a.39.39,0,0,0-.09.48h0c.07.19.24.28.37.22a3.39,3.39,0,0,1,4.15,1.26C888.5,361.62,888.66,361.65,888.76,361.54Z"/><path class="cls-9" d="M887.07,362.83h0a.45.45,0,0,0,0-.55c-.63-.77-2.43-2.58-4.76-1.46-.14.06-.18.28-.1.47h0c.08.19.24.28.37.22a3.4,3.4,0,0,1,4.16,1.26C886.82,362.92,887,362.94,887.07,362.83Z"/><path class="cls-14" d="M895.5,363.73c.32-4.23,2.13-5.66,3.51-6.13a.63.63,0,0,1,.79.38l1.4,3.47c.31.76.07,1.6-.49,1.76l-4.4,1.21A.65.65,0,0,1,895.5,363.73Z"/><path class="cls-15" d="M931.82,250.29c.35-3.13.67-6,.67-6.37,0-.87-2.37-22-2.37-22a95.86,95.86,0,0,0-7.21,27A15.44,15.44,0,0,0,931.82,250.29Z"/><path class="cls-16" d="M930.53,258.76l.28.15s0-.22.07-.6C930.76,258.47,930.65,258.62,930.53,258.76Z"/><path class="cls-17" d="M930.81,271.16s-47.76,5.35-50.31,21.61S888,357,888,357s8-.53,11-2.39c0,0-3-53.43,1.4-56.92s28.51-11.85,29-12.78S930.81,271.16,930.81,271.16Z"/><path class="cls-18" d="M930.81,271.16S899,288.59,899,298.81s12.29,48.33,21.34,56.69A39.85,39.85,0,0,0,930.81,352l-10.9-49.26s48.46-6.5,51.47-17.89l-11.91-12.55Z"/><rect class="cls-19" x="822.99" y="271.16" width="3.59" height="98.4"/><rect class="cls-19" x="856.9" y="271.16" width="3.59" height="98.4"/><rect class="cls-19" x="959.47" y="271.16" width="3.59" height="98.4"/><rect class="cls-19" x="993.38" y="271.16" width="3.59" height="98.4"/><rect class="cls-20" x="813.37" y="266.05" width="193.72" height="6.27" rx="2.02"/><path class="cls-21" d="M950.52,208.74v9.84a1.41,1.41,0,0,1-.81,1.27c-1.5.71-4.85,1.86-8,0a1.39,1.39,0,0,1-.67-1.2v-8.89Z"/><path class="cls-22" d="M950.52,214v-5.27l-9.47,1v4.47A16.31,16.31,0,0,0,950.52,214Z"/><path class="cls-22" d="M935,198.16c.51,1.56-.08,3.16-1.33,3.57a2.72,2.72,0,0,1-3.18-2.08c-.51-1.56.08-3.16,1.33-3.57S934.49,196.6,935,198.16Z"/><path class="cls-21" d="M934.83,207.06a12.76,12.76,0,0,1-.81-2.14,23.52,23.52,0,0,1-.86-5.91c0-.39,0-.78-.09-1.17a12.68,12.68,0,1,1,25.25-.46,2.75,2.75,0,0,1,2.47,0c1.45.77,1.85,2.88.88,4.7s-2.93,2.67-4.38,1.89a2.32,2.32,0,0,1-.54-.39,11.89,11.89,0,0,1-12.53,10.07,11.37,11.37,0,0,1-7.48-3.74,5.76,5.76,0,0,1-.4-.43A11.28,11.28,0,0,1,934.83,207.06Z"/><path class="cls-18" d="M946.89,197.7a1.12,1.12,0,0,0,1,1.2,1.11,1.11,0,1,0-1-1.2Z"/><path class="cls-18" d="M937.37,197.51a1.11,1.11,0,1,0,1.2-1A1.11,1.11,0,0,0,937.37,197.51Z"/><path class="cls-18" d="M945.75,195.39a10.36,10.36,0,0,1,1.61-.38,5.38,5.38,0,0,1,1.55,0,5.32,5.32,0,0,1,1.48.43l.19.07.17.1.37.19c.24.13.47.3.74.43a4.52,4.52,0,0,0-.49-.74,4.21,4.21,0,0,0-.66-.6,3.65,3.65,0,0,0-1.69-.68,3.86,3.86,0,0,0-1.82.2A3.44,3.44,0,0,0,945.75,195.39Z"/><polygon class="cls-3" points="765.15 296.49 770.27 369.66 767.71 369.66 759.6 297.28 765.15 296.49"/><polygon class="cls-3" points="711.38 296.49 706.26 369.66 708.82 369.66 716.92 297.28 711.38 296.49"/><path class="cls-4" d="M787.49,217.34s-40.92-1.22-43.57-1-5.1,8.71-5.1,8.71-12,44.35-11.71,45.56S716,300.38,716,300.38s9.83-.26,10.26,0,38-3.22,38.52-3.57,2.43-6.88,2.52-7.23,3-25.79,3-25.79l1.48-14s5.65-12,5.73-12.07,5.31-10.58,5.66-11.1,5.73-6.37,5.91-6.89S787.49,217.34,787.49,217.34Z"/><path class="cls-5" d="M787.49,217.34s-14.11-.42-26.3-.73c4.74,2.79,7.4,10.58,5.42,24.45-1.67,11.78-3.53,24.57-11,39.9-3.82,7.9-20.28,3.48-33.76,4.26C719,292.76,716,300.38,716,300.38s9.83-.26,10.26,0,38-3.22,38.52-3.57,2.43-6.88,2.52-7.23,3-25.79,3-25.79l1.48-14s5.65-12,5.73-12.07,5.31-10.58,5.66-11.1,5.73-6.37,5.91-6.89S787.49,217.34,787.49,217.34Z"/><path class="cls-6" d="M708.48,301.94h0a2.54,2.54,0,0,1,2.36-2.7c4.37-.29,13.83-1,23.56-1.89,18.64-1.77,25.38-3.22,27.79-4a2.49,2.49,0,0,0,1.69-1.78c.65-2.61,1-8,1.36-12.54,1.22-17.17,3.22-45.49,20.87-61a2.52,2.52,0,0,1,3.68.37h0a2.53,2.53,0,0,1-.32,3.45C773.39,236,771.55,262,770.31,279.41c-.7,9.93-1.14,14.81-3.31,17.08-1,1.1-3,3.13-31.34,5.86-10.06,1-20,1.67-24.48,2A2.54,2.54,0,0,1,708.48,301.94Z"/><path class="cls-18" d="M941.29,195.24a3.55,3.55,0,0,0-1.38-1.1,3.79,3.79,0,0,0-1.79-.33,3.63,3.63,0,0,0-1.74.57,3.78,3.78,0,0,0-.7.55,5,5,0,0,0-.54.7c.28-.11.52-.26.77-.38l.37-.16.19-.08.19-.07a5.3,5.3,0,0,1,1.5-.32,5.83,5.83,0,0,1,1.55.12A11.49,11.49,0,0,1,941.29,195.24Z"/><path class="cls-22" d="M943.37,196.38a16.5,16.5,0,0,0-1.23,1.74,15.45,15.45,0,0,0-1,1.89,5.78,5.78,0,0,0-.35,1l0,.3c0,.05,0,.11,0,.16a.64.64,0,0,0,.06.18.31.31,0,0,0,0,.1l0,.05a.52.52,0,0,0,.1.11c.07.06.13.13.21.19a5.83,5.83,0,0,0,.91.58,7.59,7.59,0,0,0,1,.4,11.05,11.05,0,0,1-1.68-1.24l-.17-.18-.07-.09,0-.05v0a.74.74,0,0,1,0-.41,6,6,0,0,1,.34-.95c.27-.64.59-1.27.9-1.9S943.07,197,943.37,196.38Z"/><path class="cls-18" d="M955.2,181.22s-3.49-3.25-11.67-3-9.87,4.63-10.53,10.91v6.9s2.44-1.6,5.4-7.76c0,0,4.4,5.44,6.41,4.87s-.61-4.47-.61-4.47,8.64,8.62,14.12,8.77c0,0,3.61-9.68-.35-13.35,0,0,3.07.24,3.25-.38s-1.42-1.6-4.38-1.34c0,0,2.24-4.19,1.08-4.66S955.2,181.22,955.2,181.22Z"/><path class="cls-9" d="M939.71,205.43c.36,1.34,1.95,2.35,3.84,2.33s3.47-1,3.8-2.4Z"/><path class="cls-23" d="M115.8,98.49h213A12.52,12.52,0,0,1,341.28,111V229.66a24,24,0,0,1-24,24H115.8a24,24,0,0,1-24-24V122.49A24,24,0,0,1,115.8,98.49Z"/><rect class="cls-11" x="96.17" y="104.45" width="240.61" height="143.25" rx="4.89"/><path class="cls-24" d="M336.78,121.51v-15.4a1.55,1.55,0,0,0-1.38-1.66H97.55a1.55,1.55,0,0,0-1.38,1.66V203Z"/><polygon class="cls-21" points="96.49 171.22 96.52 173.18 96.74 178.06 87.13 176.79 86.09 175.37 86 171.66 85.69 168.19 92.07 168.19 96.49 171.22"/><path class="cls-21" d="M105.34,290.19a14,14,0,0,1,0,4.92c-.48,2.76-12.93,68.41-12.93,68.41l6.57,1s21.45-61,22.65-65.05,2.52-9.84-1.55-14.28S105.34,290.19,105.34,290.19Z"/><path class="cls-21" d="M108.8,365.42l-7.86-9.49-7.87,3.27,2,2.72,8.57,4.31s3.66.73,3.85.68A12.39,12.39,0,0,0,108.8,365.42Z"/><path class="cls-3" d="M108.8,365.42l1.71,2.14a1.26,1.26,0,0,1-1.37,2l-16.51-5.49a1.11,1.11,0,0,1-.7-1.4l1.14-3.46C102.9,366.36,107.05,366.55,108.8,365.42Z"/><path class="cls-3" d="M81.6,144.87a8.69,8.69,0,0,0-8.78,0c-4.67,2.69-4.67,11.78-2.83,13.95s-.1,5.12,3.58,8,9.55,3.88,12.9.56.89-10.71.89-10.71Z"/><path class="cls-21" d="M97.7,365.87l-9-5.65-7.85,4.71,2.72,2L93,368.28s3.71-.46,3.87-.57A13,13,0,0,0,97.7,365.87Z"/><path class="cls-21" d="M75.9,284s1.3,31.28,1.42,36.68,2.87,45.49,4.07,49l6.71-.48s4.57-77.61,3.14-85.17S75.9,284,75.9,284Z"/><path class="cls-21" d="M61.53,258.42c-2.31-.48-2.89,1-5.22.52l.55,3.62c-.32.7-1,2.57-1,2.57-2.6,7.56-2.46,6.75-2.2,6.89s2.21-2.66,2.44-2.4-1.12,4.76-.72,4.64,2.14-4.12,2.36-4-1.13,4.47-.54,4.62,1.91-4.63,2.33-4.32-1.06,5.18-.51,5.23,2.26-5.36,2.82-7.08a.3.3,0,0,1,.51-.09c2.24,2.81,2.58,2.89,2.83,2.58s-1-3.29-1.89-6.21l-1.22-3.55Z"/><path class="cls-3" d="M97.7,365.87l2.29,1.49a1.26,1.26,0,0,1-.67,2.33H81.93a1.12,1.12,0,0,1-1.11-1.12v-3.64C92.4,368.62,96.4,367.5,97.7,365.87Z"/><path class="cls-21" d="M153.38,175.08a.28.28,0,0,0,.47.14c1.22-1.21,5.07-5,5.45-4.77s-2.91,3.76-2.69,4.21,3.41-3,3.85-2.65-2.59,3.45-2.46,3.68,3.33-2.41,3.72-2.34-2.7,3.3-2.62,3.62,2.94-1.2,3.1-1,.3.36-5.17,5.63l-2.24,2-2.71.62-1.91-2.74s1.56-9.67,1.92-9.83S152.69,171.72,153.38,175.08Z"/><path class="cls-23" d="M80.34,284,85.9,304.6c12.85,0,32-1.2,41.55-7.56,0,0-12.45-58-20.71-72.51L78.35,223S58.67,250.45,73,304.22c0,0,2.46.18,6.38.29Z"/><path class="cls-22" d="M104.58,155.78c-.59,1.59,0,3.27,1.25,3.74s2.78-.44,3.37-2,0-3.28-1.25-3.75S105.17,154.18,104.58,155.78Z"/><path class="cls-22" d="M85.58,167.31s.26,2,.42,4.35a10.16,10.16,0,0,0,10.51,1.52,12.81,12.81,0,0,1,.2-3.69C97.37,167.6,85.58,167.31,85.58,167.31Z"/><path class="cls-9" d="M106,177.34l26.89,20.41,17.22-17.7s5.15,4,5.15,3.91-16.19,25.29-20.16,26.62S105.49,194,105.49,194Z"/><path class="cls-21" d="M104.44,165a12.93,12.93,0,0,0,.92-2.2,24.69,24.69,0,0,0,1.11-6.1,12.1,12.1,0,0,1,.13-1.21,13.16,13.16,0,1,0-26.17-1.38,2.85,2.85,0,0,0-2.57-.11c-1.54.75-2,2.92-1.08,4.85s2.94,2.87,4.48,2.12a2.87,2.87,0,0,0,.57-.39,12.35,12.35,0,0,0,12.64,10.9,11.8,11.8,0,0,0,7.89-3.62,5.8,5.8,0,0,0,.43-.43A11.44,11.44,0,0,0,104.44,165Z"/><path class="cls-18" d="M92.62,155.94a1.24,1.24,0,1,1-1.3-1.17A1.24,1.24,0,0,1,92.62,155.94Z"/><path class="cls-18" d="M102.76,155.94a1.24,1.24,0,1,1-1.3-1.17A1.23,1.23,0,0,1,102.76,155.94Z"/><path class="cls-22" d="M96.39,153.58q0,.6,0,1.2c0,.4,0,.79.08,1.19a7.58,7.58,0,0,0,.19,1.16,2.94,2.94,0,0,0,.44,1.06.81.81,0,0,0,.09.1.47.47,0,0,0,.1.1l.11.12a1.47,1.47,0,0,1,.1.13,1.34,1.34,0,0,1,.24.59,1.43,1.43,0,0,1-.39,1.17,2.39,2.39,0,0,1-1,.67,3.18,3.18,0,0,1-1.18.19,4,4,0,0,0,.59-.1,3.24,3.24,0,0,0,.55-.19,2.44,2.44,0,0,0,.93-.68,1.28,1.28,0,0,0,.31-1,1.05,1.05,0,0,0-.21-.5.44.44,0,0,0-.09-.11l-.09-.1-.11-.11a1.31,1.31,0,0,1-.11-.12,2.42,2.42,0,0,1-.29-.55,4,4,0,0,1-.18-.59,9.87,9.87,0,0,1-.16-1.2A13.78,13.78,0,0,1,96.39,153.58Z"/><path class="cls-9" d="M109.58,204c.09-.1,4.22-4.51,3.41-12.78-.43-4.49-2.74-8.59-4.79-11.42a9.83,9.83,0,0,0-7.79-4.07c-5.64-.11-14.65-.23-14.65-.23s-11.61-1.28-15.3,3.27S54.31,214.84,53.6,229.89s3,32.8,3,32.8a38.68,38.68,0,0,0,6,0c1.84-.28-.43-29.1,1.55-33.79S75,201.78,75.56,199.65l2.21,11.74a12.19,12.19,0,0,1-.54,6.47c-1.88,5.07-5.5,14.8-7,18.41,0,0,27.9,4.5,41.64-2.32l-.12-.53A93.88,93.88,0,0,1,109.58,204Z"/><path class="cls-3" d="M93.66,153.88a7.9,7.9,0,0,0-1.74-.67,5.83,5.83,0,0,0-1.81-.14,5.46,5.46,0,0,0-.88.17l-.43.14-.21.09-.21.09a9.45,9.45,0,0,0-1.58,1,5,5,0,0,1,1.42-1.29,3.83,3.83,0,0,1,.89-.42,3.92,3.92,0,0,1,1-.21,4.54,4.54,0,0,1,1.94.25,4.74,4.74,0,0,1,.88.42A3.62,3.62,0,0,1,93.66,153.88Z"/><path class="cls-3" d="M98.63,153.88a3.62,3.62,0,0,1,.77-.58,4.45,4.45,0,0,1,.88-.42,4.54,4.54,0,0,1,1.94-.25,3.92,3.92,0,0,1,1,.21,3.83,3.83,0,0,1,.89.42,5,5,0,0,1,1.42,1.29,9.45,9.45,0,0,0-1.58-1l-.21-.09-.21-.09-.43-.14a5.38,5.38,0,0,0-.89-.17,5.79,5.79,0,0,0-1.8.14A7.9,7.9,0,0,0,98.63,153.88Z"/><path class="cls-21" d="M83.58,175.37s8.88,11.27,10.77,15.34c0,0,5.21-6.85,5.44-15Z"/><path class="cls-25" d="M94.35,190.71q.36,5.86.47,11.74c.06,2,.07,3.91.1,5.87s0,3.92,0,5.88c0,1,0,2,0,2.94s0,2-.06,2.93c-.07,2-.12,3.92-.24,5.88-.21,3.91-.5,7.82-1.07,11.7l.1-1.46.11-1.47c.06-1,.1-1.95.15-2.93l0-.73,0-.73,0-1.47.06-1.47,0-1.46c.12-3.91.17-7.82.2-11.74s0-7.82.06-11.74Z"/><path class="cls-25" d="M76.53,195.94c-.06.31-.11.63-.17.94s-.13.63-.21.94a11.83,11.83,0,0,1-.59,1.83,14.78,14.78,0,0,0,.44-1.86c.12-.63.2-1.26.28-1.89.15-1.26.23-2.53.27-3.8l0-.95v-1c0-.63,0-1.27,0-1.91,0-.32,0-.63,0-.95l0-1c0-.63-.1-1.27-.13-1.91.11.63.19,1.27.29,1.9s.14,1.27.18,1.91l.06,1c0,.32,0,.64,0,1v1Z"/><path class="cls-3" d="M105.85,143.67C103.41,135.3,92.31,135,92.31,135c-17.17,1.19-14.46,16.29-13.9,18.78a2.86,2.86,0,0,1,2,.35,4.31,4.31,0,0,1,.86.6c2-.62,2.63-4,3.68-5.61,1.42-2.2,7.68-1.06,10.06-2.62a5.87,5.87,0,0,0,2.61-4c9.16,1.46,9,11.16,9,11.16a3.49,3.49,0,0,1,.89-.05S108,151.15,105.85,143.67Z"/><path class="cls-9" d="M99.76,162.72a4.07,4.07,0,0,1-7.29.08Z"/><ellipse class="cls-23" cx="187.83" cy="39.5" rx="39.42" ry="39.5"/><ellipse class="cls-9" cx="187.83" cy="39.5" rx="33.75" ry="33.82"/><rect class="cls-23" x="157.27" y="33.09" width="0.96" height="12.44" transform="translate(118.43 197.07) rotate(-90)"/><rect class="cls-23" x="217.51" y="33.09" width="0.96" height="12.44" transform="translate(178.67 257.3) rotate(-90)"/><rect class="cls-23" x="187.3" y="3.38" width="0.96" height="12.47"/><rect class="cls-23" x="187.3" y="63.5" width="0.96" height="12.47"/><path class="cls-23" d="M188.86,39.5a1,1,0,1,1-1-1A1,1,0,0,1,188.86,39.5Z"/><path class="cls-23" d="M187.83,40a.46.46,0,0,1-.33-.13L169,21.28a.46.46,0,0,1,0-.65.47.47,0,0,1,.66,0l18.5,18.55a.46.46,0,0,1,0,.65A.44.44,0,0,1,187.83,40Z"/><path class="cls-23" d="M193.78,58.25a.34.34,0,0,1-.17-.2l-6-18.11a.34.34,0,0,1,.21-.42.33.33,0,0,1,.42.21l6,18.11a.34.34,0,0,1-.22.43A.36.36,0,0,1,193.78,58.25Z"/><path class="cls-21" d="M950.8,230.39v0Z"/><path class="cls-21" d="M951.05,229.52l0-.05Z"/><path class="cls-21" d="M951.3,228.68v0Z"/><path class="cls-21" d="M951.74,227.14v0Z"/><path class="cls-21" d="M952.29,225.2l0-.06Z"/><path class="cls-21" d="M958.93,257c-9-.36-15.29-6.49-15.29-6.49h0a2.63,2.63,0,0,1-.8.92c-2.78,1.57-38,9.11-41.45,8.8s-6.75,3.17-7.45,5.84h59S959.12,256.64,958.93,257Z"/><path class="cls-21" d="M952.12,225.79v0Z"/><path class="cls-21" d="M951.93,226.47l0-.09Z"/><path class="cls-15" d="M954.87,220.43a10.26,10.26,0,0,0-2.58,4.54c-1.51,5.39-6.73,21.13-9.37,25.32,0,0,7,7.08,16,7.44,3.14-5.56,6.29-13.48,7-21.18C967.06,222.92,960.7,214.62,954.87,220.43Z"/><path class="cls-12" d="M571.15,127.24a10.24,10.24,0,0,0-.88-3.59,14.88,14.88,0,0,0-3-3.37,18.54,18.54,0,0,1-4.45-7.09c-.71-2-1.07-4.24-2.05-6.19-.6-1.18-1.41-2.24-2.09-3.38-1.61-2.7-2.49-5.89-4.67-8.15a9.78,9.78,0,0,0,2.21,7.74,13.5,13.5,0,0,1,1.57,1.91c.74,1.3.68,2.89.76,4.39a19.31,19.31,0,0,0,2.31,8.06c1.43,2.63,3.49,5,4.26,7.86.57,2.17.4,4.6,1.62,6.48a1.53,1.53,0,0,1,.32.65,1.41,1.41,0,0,1,0,.41l-.09.52c-.27,1.78-.56,4,1,5.36a2,2,0,0,0,3.18-.28c.76-1.23.7-3,.64-4.42C571.65,131.84,571.41,129.53,571.15,127.24Z"/><path class="cls-11" d="M573.89,125.81c-.59-2-1.51-4-2-6.1a28.46,28.46,0,0,1-.45-6.19q0-3.42,0-6.82a25,25,0,0,0-.24-4.24c-.5-3-2.06-5.77-2.32-8.81-.12-1.31,0-2.64-.13-3.94a6.13,6.13,0,0,0-.62-2.18,1,1,0,0,0-1.74,0,8.87,8.87,0,0,0-.93,5.18,20.82,20.82,0,0,0,1,3c1.52,4.53.72,9.53,1.89,14.15a21.37,21.37,0,0,1,1,4.21c.15,3.44-2.43,6.59-2.19,10,.19,2.82,2.22,5.15,3.07,7.84.48,1.51.58,3.12,1.09,4.62.4,1.16,1.32,2.58,2.75,2.22s1-1.44.89-2.5C574.71,132.79,574.91,129.31,573.89,125.81Z"/><path class="cls-12" d="M577,127.69a16.33,16.33,0,0,1-.09-3.2,18.64,18.64,0,0,1,.73-2.6,22.85,22.85,0,0,0,.71-5l.63-9.2a119.38,119.38,0,0,1,1.55-14.25,6.36,6.36,0,0,0-.06-3.91c-.13-.25-.37-.51-.64-.43s-.28.27-.35.45c-2,5.3-2.69,11-4.86,16.21a21,21,0,0,0-1.4,3.81,21.24,21.24,0,0,0-.1,4.85,23.06,23.06,0,0,1-.81,6.92,27,27,0,0,0-1,3.52,18.66,18.66,0,0,0,.1,4.54,69.25,69.25,0,0,1,.28,8.76c-.05,1.72,1.4,1.67,2.36.62a4.93,4.93,0,0,0,.89-2.47C575.74,133.28,577.19,131,577,127.69Z"/><path class="cls-11" d="M568,132.35c-1.28-2.06-3.83-3.23-4.65-5.52-.21-.58-.29-1.2-.55-1.76a5.71,5.71,0,0,0-3.11-2.53.26.26,0,0,0-.38.24h0a.92.92,0,0,0,.4.77,5.13,5.13,0,0,1,2,2.79c.39,1.33.22,2.8.71,4.11.4,1.09,1.24,2,1.64,3.09a17.59,17.59,0,0,1,.49,3.17,3.34,3.34,0,0,0,1.61,2.62C569.66,141,568.78,133.68,568,132.35Z"/><path class="cls-12" d="M582.55,131.67a8.52,8.52,0,0,1-.29,3,8.86,8.86,0,0,1-1.07,1.59c-1.29,1.82-1.76,4.41-3.74,5.44a.64.64,0,0,1-.42.1c-.21,0-.34-.23-.42-.42-.49-1.13.06-2.41.38-3.6a.94.94,0,0,0,0-.64c-.11-.21-.36-.3-.53-.46a1.54,1.54,0,0,1-.24-1.35,29.81,29.81,0,0,1,.71-3.48,6.24,6.24,0,0,1,.74-1.86,8.24,8.24,0,0,1,1.57-1.55,18.54,18.54,0,0,0,5.42-8,5.27,5.27,0,0,1,.91-1.89,1.51,1.51,0,0,1,1.9-.39c.41.29-1.27,3-1.47,3.32a10.47,10.47,0,0,0-.88,2.76C584.35,126.71,582.7,129,582.55,131.67Z"/><path class="cls-11" d="M580.6,132.82a12.52,12.52,0,0,0,.85-2.92c.14-1.13,0-2.28.15-3.39.25-1.44,1.09-2.7,1.5-4.09a27,27,0,0,0,.55-3.11c.51-3,1.91-5.85,1.51-8.83-.09-.65-.38-1.4-1-1.51a1.24,1.24,0,0,0-1.27,1,5.53,5.53,0,0,0,0,1.77,7.27,7.27,0,0,1-1.3,4.67c-.92,1.3-2.24,2.27-3.07,3.62-1,1.67-1.14,3.69-1.66,5.57-1,3.73-3.59,7-4.06,10.82-.19,1.53.17,3.39,1.58,4C578.44,142.18,579.67,135.21,580.6,132.82Z"/><path class="cls-9" d="M573.47,135.63h-9.36a1,1,0,0,0-1,1.22l3.41,14.39a1,1,0,0,0,1,.76h11.24a1,1,0,0,0,1-.76l3.41-14.39a1,1,0,0,0-1-1.22Z"/><path class="cls-18" d="M710.5,200.26c2.06-8,5.34-11.21,11-14.21a18.81,18.81,0,0,1,14.82-1.32c10.79,3.49,13.58,15.32,14.67,21.44,3.71,20.84,21.15,38.58,14.8,52.84s-36.12,12.74-36.12,12.74l-13.66-9.84s-1.22-24-1.22-25.92-5.18-1.82-5.18-11.62C709.65,216.57,708.08,209.71,710.5,200.26Z"/><path class="cls-21" d="M674.33,229.75a.31.31,0,0,1-.49.22c-1.48-1.16-6.16-4.77-6.54-4.46s3.65,3.7,3.47,4.21-4.09-2.84-4.51-2.36,3.25,3.4,3.15,3.66-3.93-2.17-4.34-2,3.35,3.22,3.31,3.58-3.35-.92-3.49-.65-.28.43,6.34,5.42l2.7,1.86,3,.32,1.71-3.22s-3-10.28-3.37-10.41S674.63,226,674.33,229.75Z"/><path class="cls-26" d="M719.43,225s-23.09,26.2-24.07,26.31-16.45-18-16.45-18-5.54,4.62-6.51,6.22c0,0,16.54,27.56,20.78,29.12s32.44-25,32.44-25Z"/><path class="cls-16" d="M716.73,258.76l.28.15s0-.22.07-.6C717,258.47,716.85,258.62,716.73,258.76Z"/><path class="cls-21" d="M738.13,225.3a9.62,9.62,0,0,0-2.44,4.27c-1.57,5.63-6.81,23.92-9,25.17-2.62,1.47-35.7,8.56-39,8.27s-6.35,3-7,5.49h55.46s11.09-13.67,12.33-28.05C749.58,227.64,743.61,219.83,738.13,225.3Z"/><path class="cls-21" d="M733.88,214.62v9.24a1.3,1.3,0,0,1-.76,1.2c-1.41.66-4.56,1.75-7.5,0A1.3,1.3,0,0,1,725,224V215.6Z"/><path class="cls-22" d="M733.88,219.57v-4.95l-8.9,1v4.2A15.41,15.41,0,0,0,733.88,219.57Z"/><path class="cls-21" d="M719.14,213a10.8,10.8,0,0,1-.76-2,22.15,22.15,0,0,1-.82-5.57c0-.36,0-.73-.08-1.09a11.95,11.95,0,0,1,11.75-13.19,11.92,11.92,0,0,1,12,12.76,2.55,2.55,0,0,1,2.33,0c1.37.72,1.74,2.7.83,4.42s-2.75,2.5-4.12,1.78a2.12,2.12,0,0,1-.51-.38A11.17,11.17,0,0,1,728,219.21a10.71,10.71,0,0,1-7-3.51,5.24,5.24,0,0,1-.37-.41A9.94,9.94,0,0,1,719.14,213Z"/><path class="cls-18" d="M729.88,205.7a1,1,0,1,0,1-.87A1,1,0,0,0,729.88,205.7Z"/><path class="cls-18" d="M721.65,205.54a1,1,0,0,0,1.91.16,1,1,0,1,0-1.91-.16Z"/><path class="cls-18" d="M728.89,203.71a10.13,10.13,0,0,1,1.4-.34,5,5,0,0,1,1.34,0,4.25,4.25,0,0,1,1.28.37l.16.06.16.09.31.16c.21.11.41.26.64.37a3.84,3.84,0,0,0-.42-.63,3.58,3.58,0,0,0-.57-.53,3.1,3.1,0,0,0-1.47-.58,3.21,3.21,0,0,0-1.57.17A3.08,3.08,0,0,0,728.89,203.71Z"/><path class="cls-18" d="M725,203.57a3.21,3.21,0,0,0-1.2-.95,3.25,3.25,0,0,0-1.55-.28,3.07,3.07,0,0,0-1.5.49,3.48,3.48,0,0,0-.61.48,4.35,4.35,0,0,0-.46.6c.24-.09.44-.22.66-.32l.33-.15.16-.07.16-.05a4.33,4.33,0,0,1,1.3-.28,5.08,5.08,0,0,1,1.34.1A9.78,9.78,0,0,1,725,203.57Z"/><path class="cls-22" d="M726.84,204.56a13.09,13.09,0,0,0-1.06,1.5,12.86,12.86,0,0,0-.87,1.64,4.32,4.32,0,0,0-.3.9,1.09,1.09,0,0,0,0,.26s0,.09,0,.14a.58.58,0,0,0,0,.16l0,.08.05,0,.08.09.18.16a4.45,4.45,0,0,0,.8.5,5.24,5.24,0,0,0,.85.35,9.88,9.88,0,0,1-1.45-1.07c-.06,0-.1-.11-.15-.16l-.06-.08,0,0v0a.73.73,0,0,1,0-.35,4.47,4.47,0,0,1,.29-.82c.24-.56.51-1.1.78-1.64S726.58,205.12,726.84,204.56Z"/><polygon class="cls-21" points="703.7 347.84 704.25 361.55 697.66 361.59 697.03 348.65 703.7 347.84"/><path class="cls-9" d="M686.91,369.42l18.92.12a.71.71,0,0,0,.74-.72v-.55a.76.76,0,0,0-.76-.74l-18.92-.13a.73.73,0,0,0-.74.73v.55A.78.78,0,0,0,686.91,369.42Z"/><path class="cls-23" d="M705.57,361.42l.73,5.6c.09.69-.3,1.31-.82,1.31l-18-.12a1.32,1.32,0,0,1-1.18-.83,2.39,2.39,0,0,1,.48-2.5c1.59-2.22,6.88-2.72,9.45-4.61l8.38.06C705.09,360.33,705.49,360.79,705.57,361.42Z"/><path class="cls-9" d="M697.54,363.53h0a.37.37,0,0,0,.1-.46,3.54,3.54,0,0,0-3.73-2.27c-.12,0-.21.19-.19.36h0c0,.17.14.28.27.26a3.06,3.06,0,0,1,3.26,2A.2.2,0,0,0,697.54,363.53Z"/><path class="cls-9" d="M695.68,364.24h0a.38.38,0,0,0,.1-.46,3.54,3.54,0,0,0-3.73-2.27c-.13,0-.21.19-.19.36h0a.26.26,0,0,0,.27.26,3,3,0,0,1,3.25,2A.21.21,0,0,0,695.68,364.24Z"/><path class="cls-9" d="M694,364.9h0a.37.37,0,0,0,.09-.46,3.53,3.53,0,0,0-3.72-2.27.3.3,0,0,0-.19.36h0c0,.16.14.28.26.26a3,3,0,0,1,3.26,2A.21.21,0,0,0,694,364.9Z"/><path class="cls-14" d="M700.68,368.3c1.38-4.52,3.82-5,5.15-4.89l.47,3.61c.09.69-.3,1.31-.82,1.31Z"/><polygon class="cls-21" points="672.72 347.84 673.27 360.95 666.68 361 666.05 348.65 672.72 347.84"/><path class="cls-9" d="M655.93,369.42l18.92.12a.72.72,0,0,0,.74-.72v-.55a.76.76,0,0,0-.76-.74l-18.92-.13a.73.73,0,0,0-.74.73v.55A.77.77,0,0,0,655.93,369.42Z"/><path class="cls-23" d="M674.59,361.42l.73,5.6c.09.69-.3,1.31-.82,1.31l-18-.12a1.35,1.35,0,0,1-1.19-.83,2.42,2.42,0,0,1,.49-2.5c1.59-2.22,6.88-2.72,9.45-4.61l8.38.06C674.11,360.33,674.51,360.79,674.59,361.42Z"/><path class="cls-9" d="M666.56,363.53h0a.37.37,0,0,0,.1-.46,3.54,3.54,0,0,0-3.73-2.27c-.13,0-.21.19-.19.36h0c0,.17.14.28.27.26a3,3,0,0,1,3.25,2C666.33,363.54,666.45,363.59,666.56,363.53Z"/><path class="cls-9" d="M664.7,364.24h0a.38.38,0,0,0,.1-.46,3.54,3.54,0,0,0-3.73-2.27c-.13,0-.21.19-.19.36h0a.26.26,0,0,0,.27.26,3,3,0,0,1,3.25,2A.21.21,0,0,0,664.7,364.24Z"/><path class="cls-9" d="M663,364.9h0a.38.38,0,0,0,.09-.46,3.53,3.53,0,0,0-3.72-2.27.3.3,0,0,0-.19.36h0c0,.16.14.28.26.26a3.05,3.05,0,0,1,3.26,2A.21.21,0,0,0,663,364.9Z"/><path class="cls-14" d="M669.7,368.3c1.38-4.52,3.82-5,5.15-4.89l.47,3.61c.09.69-.3,1.31-.82,1.31Z"/><path class="cls-23" d="M700,276.29s-32.75.12-37.81,6.7-8.89,51.05,0,70.5c0,0,11.53.41,14.16-1.21,0,0-.81-32.82-.41-41.54s6.47-9.92,7.28-10.73S700,276.29,700,276.29Z"/><path class="cls-23" d="M703.65,324c-.29-2.74-.68-6.29-1.09-10.32h0c-.74-7.9-1.68-12.64-.69-12.55,7.89.77,29.35-3.06,42-5.54a12.1,12.1,0,0,0,8.7-17,8.36,8.36,0,0,0-1.57-2.29c-5.92-5.91-18.14-4-18.13-4.84-69.14,5.77-53.91,17.64-47.42,58.63h0c0,.17.07.35.11.52h0c2.81,13.56,5.46,24.71,5.46,24.71s10.11.41,16-1C707,354.36,705.2,338.35,703.65,324Z"/><path class="cls-27" d="M746.3,223.67c-2.25-2.13-7.59-2.62-12.53-2.55l.11,0c-4.33,4.82-8.9.56-8.9.56h0l-1.4.19a22.09,22.09,0,0,0-6.81,6c0,.06-3.85,4.13-4.23,8.95-.27,3.44,4.15,8.47,4.15,10.43s-2,16.22-2,16.22l.77-.09v.09c0,.18-1.57.43-3.58.68-.09,2.54-.14,4.13-.14,4.13v5C738,277.62,753.77,285,753.77,285,755.08,233.67,746.65,224,746.3,223.67Z"/><path class="cls-28" d="M738.13,225.3a9.62,9.62,0,0,0-2.44,4.27c-1.57,5.63-6.81,23.92-9,25.17s-23.42,5.89-33.73,7.63c0,0,.76,3.07,1.44,6.13h41.77s11.09-13.67,12.33-28.05C749.58,227.64,743.61,219.83,738.13,225.3Z"/><path class="cls-3" d="M610.19,229.27H660L674.1,263.8h24A1.22,1.22,0,0,1,699.3,265h0a1.22,1.22,0,0,1-1.21,1.22H626.74Z"/><path class="cls-29" d="M634.88,249a2.4,2.4,0,1,0,1.8-3.13A2.58,2.58,0,0,0,634.88,249Z"/><path class="cls-18" d="M721.52,190.19s13.38,12.34,19.69,13.75c0,0,.85-9.57.76-9.9s-8-7.87-8.5-7.78l-14.87,2.13-4,9.74Z"/><path class="cls-18" d="M713.94,192.81l3.49,9.89s7-5,9.74-9.89-7-3.11-7-3.11Z"/><path class="cls-30" d="M729.75,212.08a3,3,0,0,0-2.48.51,2.25,2.25,0,0,0-2.36.13,2.5,2.5,0,0,0,2.77,1.64A2.23,2.23,0,0,0,729.75,212.08Z"/><path class="cls-22" d="M730.84,211.3a8.19,8.19,0,0,1-.73.59,7.45,7.45,0,0,1-.79.5,5.8,5.8,0,0,1-1.74.6,4.9,4.9,0,0,1-1.83-.08,6.44,6.44,0,0,1-1.72-.71,5.39,5.39,0,0,0,.79.52,4.83,4.83,0,0,0,.88.37,4,4,0,0,0,1.91.13,5,5,0,0,0,1.8-.67A5.53,5.53,0,0,0,730.84,211.3Z"/><rect class="cls-9" x="140.9" y="243.76" width="19.24" height="3.94"/><rect class="cls-9" x="171.67" y="243.76" width="19.24" height="3.94"/><rect class="cls-31" x="790.12" y="122.87" width="7.78" height="3.83"/><rect class="cls-13" x="808.25" y="113.72" width="8.45" height="3.83"/><rect class="cls-31" x="798.88" y="150.08" width="8.26" height="2.17"/><rect class="cls-31" x="863.27" y="117.56" width="7.78" height="2.47"/><rect class="cls-31" x="863.27" y="150.77" width="7.78" height="2.47"/><rect class="cls-31" x="872.03" y="126.7" width="8.26" height="4.24"/><rect class="cls-9" x="881.4" y="112.94" width="8.45" height="2.7"/><rect class="cls-13" x="841.8" y="236.9" width="8.28" height="33.43" transform="translate(1099.55 -592.32) rotate(90)"/><rect class="cls-10" x="843.36" y="238.79" width="8.47" height="46.4" transform="translate(1109.58 -585.6) rotate(90)"/><rect class="cls-9" x="841.14" y="224.94" width="7.8" height="41.28" transform="translate(1090.61 -599.46) rotate(90)"/><rect class="cls-31" x="857.08" y="244.35" width="7.8" height="2.46" transform="translate(1106.55 -615.4) rotate(90)"/><rect class="cls-31" x="823.93" y="244.35" width="7.8" height="2.46" transform="translate(1073.41 -582.25) rotate(90)"/><rect class="cls-9" x="861.24" y="260.64" width="8.47" height="2.7" transform="translate(1127.46 -603.48) rotate(90)"/><rect class="cls-9" x="446.58" y="109.34" width="8.76" height="3.02"/><rect class="cls-31" x="458.49" y="118.28" width="5.22" height="14.39"/><rect class="cls-31" x="466.99" y="105.67" width="9.51" height="2.27"/><rect class="cls-31" x="466.99" y="144.93" width="9.51" height="2.98"/><polygon class="cls-3" points="540.58 296.39 545.7 369.56 543.14 369.56 535.03 297.19 540.58 296.39"/><polygon class="cls-3" points="486.81 296.39 481.69 369.56 484.25 369.56 492.35 297.19 486.81 296.39"/><path class="cls-4" d="M562.92,217.24s-40.92-1.21-43.57-1-5.1,8.71-5.1,8.71-11.95,44.35-11.71,45.57-11.16,29.79-11.16,29.79,9.83-.26,10.26,0,38-3.22,38.52-3.57,2.44-6.88,2.52-7.23,3-25.79,3-25.79l1.48-14s5.65-12,5.74-12.07,5.3-10.58,5.65-11.1,5.74-6.36,5.91-6.89S562.92,217.24,562.92,217.24Z"/><path class="cls-5" d="M562.92,217.24s-14.11-.42-26.29-.73c4.73,2.79,7.39,10.58,5.42,24.45-1.68,11.78-3.54,24.57-11,39.9-3.82,7.9-20.27,3.48-33.76,4.26-2.91,7.54-5.95,15.16-5.95,15.16s9.83-.26,10.26,0,38-3.22,38.52-3.57,2.44-6.88,2.52-7.23,3-25.79,3-25.79l1.48-14s5.65-12,5.74-12.07,5.3-10.58,5.65-11.1,5.74-6.36,5.91-6.89S562.92,217.24,562.92,217.24Z"/><path class="cls-6" d="M483.91,301.85h0a2.55,2.55,0,0,1,2.36-2.7c4.37-.29,13.83-1,23.56-1.89,18.64-1.77,25.38-3.22,27.79-4a2.49,2.49,0,0,0,1.69-1.78c.65-2.61,1-8,1.36-12.54,1.22-17.17,3.22-45.48,20.87-61a2.54,2.54,0,0,1,3.69.37h0a2.54,2.54,0,0,1-.33,3.45c-16.08,14.12-17.92,40.14-19.16,57.57-.7,9.94-1.14,14.81-3.31,17.08-1,1.1-3,3.13-31.34,5.86-10.06,1-19.95,1.67-24.48,2A2.53,2.53,0,0,1,483.91,301.85Z"/><polygon class="cls-21" points="451.04 347.2 449.49 359.67 441.14 360.31 441.27 348.75 451.04 347.2"/><path class="cls-9" d="M428.46,369.44l22.8.15a.86.86,0,0,0,.89-.87v-.66a.92.92,0,0,0-.91-.89l-22.8-.15a.86.86,0,0,0-.89.87v.66A.92.92,0,0,0,428.46,369.44Z"/><path class="cls-27" d="M451,359.8l.87,6.75c.11.83-.36,1.58-1,1.58L429.16,368a1.6,1.6,0,0,1-1.42-1,2.88,2.88,0,0,1,.58-3c1.91-2.67,8.29-3.29,11.38-5.56l10.1.07A1.35,1.35,0,0,1,451,359.8Z"/><path class="cls-9" d="M441.27,362.35h0a.45.45,0,0,0,.12-.55c-.43-.93-1.78-3.19-4.49-2.74-.15,0-.26.23-.23.44h0c0,.21.17.34.32.32a3.67,3.67,0,0,1,3.92,2.37C441,362.36,441.14,362.43,441.27,362.35Z"/><path class="cls-9" d="M439,363.2h0a.46.46,0,0,0,.12-.55c-.44-.92-1.79-3.18-4.49-2.74a.37.37,0,0,0-.23.44h0c0,.2.17.33.32.31a3.67,3.67,0,0,1,3.92,2.38C438.75,363.21,438.9,363.28,439,363.2Z"/><path class="cls-9" d="M436.94,364h0a.45.45,0,0,0,.12-.55c-.43-.93-1.78-3.19-4.49-2.74-.15,0-.26.22-.23.43h0c0,.2.17.34.32.31a3.69,3.69,0,0,1,3.92,2.38A.26.26,0,0,0,436.94,364Z"/><path class="cls-14" d="M445.05,368.09c1.66-5.43,4.6-6,6.21-5.88l.56,4.34c.11.83-.36,1.58-1,1.58Z"/><polygon class="cls-2" points="489.54 244.62 488.17 258.99 493.64 260.04 496.66 254.34 496.17 246.8 491.9 243.83 489.54 244.62"/><path class="cls-16" d="M495.1,222s-5.56,14.5-5.56,22.66a11.38,11.38,0,0,0,7.12,1.39c4.2-.52.67-17.07.83-17.51S495.1,222,495.1,222Z"/><polygon class="cls-21" points="463.84 347.46 460.15 359.49 451.66 359.55 453.14 350.77 463.84 347.46"/><path class="cls-2" d="M512.94,255.08l-10.2,15.42-13.57-2.68-23-17.21,4-6s21.58,13,23.41,13.32,6.85-11.36,6.85-11.36Z"/><path class="cls-9" d="M439.47,369.66l22.79.16a.89.89,0,0,0,.9-.88v-.66a.91.91,0,0,0-.91-.89l-22.79-.15a.88.88,0,0,0-.9.88v.65A.9.9,0,0,0,439.47,369.66Z"/><path class="cls-28" d="M462,360l.88,6.75c.1.84-.37,1.59-1,1.58l-21.67-.14a1.62,1.62,0,0,1-1.43-1,2.89,2.89,0,0,1,.58-3c1.92-2.67,8.29-3.28,11.39-5.56l10.09.07A1.35,1.35,0,0,1,462,360Z"/><path class="cls-9" d="M452.27,362.57h0a.43.43,0,0,0,.12-.55c-.43-.92-1.78-3.18-4.48-2.74a.39.39,0,0,0-.24.44h0a.31.31,0,0,0,.32.31,3.67,3.67,0,0,1,3.92,2.38A.25.25,0,0,0,452.27,362.57Z"/><path class="cls-9" d="M450,363.42h0a.43.43,0,0,0,.12-.54c-.43-.93-1.78-3.19-4.49-2.75a.38.38,0,0,0-.23.44h0c0,.2.17.34.32.31a3.66,3.66,0,0,1,3.92,2.38C449.75,363.44,449.9,363.5,450,363.42Z"/><path class="cls-9" d="M447.94,364.22h0a.43.43,0,0,0,.12-.55c-.43-.93-1.78-3.18-4.48-2.74-.16,0-.26.23-.24.44h0c0,.21.16.34.32.32a3.67,3.67,0,0,1,3.92,2.38A.24.24,0,0,0,447.94,364.22Z"/><path class="cls-14" d="M456.06,368.31c1.66-5.43,4.59-6,6.2-5.88l.57,4.34c.1.84-.37,1.59-1,1.58Z"/><path class="cls-23" d="M536.36,284.87c-1.16-10.8-14-11-14-11l-6.89-.6-.16-1.46s-47.47-5.65-54,15.88S450,351.85,450,351.85s6.27,3.82,14.77,0c0,0,12-45.75,16.54-50.23s36.87-5.23,36.87-5.23S537.52,295.68,536.36,284.87Z"/><path class="cls-32" d="M491.9,265.88S493,226.5,495.1,222s9.44-5.4,9.44-5.4,19.18-2.85,24.17,1.87c.37.35,9,11.86,7.65,66.44,0,0-16.47-9.06-44.46-13.71Z"/><path class="cls-21" d="M515.5,208.74v9.84a1.41,1.41,0,0,1-.81,1.27c-1.5.71-4.86,1.86-8,0a1.39,1.39,0,0,1-.67-1.2v-8.89Z"/><path class="cls-22" d="M515.5,216.3V211l-9.47,1v4.47A16.4,16.4,0,0,0,515.5,216.3Z"/><rect class="cls-9" x="392.31" y="258.73" width="52.75" height="7.32"/><rect class="cls-11" x="385.93" y="251.41" width="52.75" height="7.32"/><path class="cls-23" d="M483.88,272.91s-35.46-1.12-43.52,6.5-2.65,65-1.31,70.28c0,0,7.35,3.51,13.17,1.71s3.58-26.91,3.58-26.91-.67-24,.23-27.36,13.2-5.83,13.2-5.83,19-13.23,17.9-13.23S483.88,272.91,483.88,272.91Z"/><path class="cls-3" d="M474.42,239.23l-5.67-15.68a1.05,1.05,0,0,0-1.46-.59l-10.73,5.29a1.19,1.19,0,0,0-.57,1.56l9.28,21.31a1.33,1.33,0,0,0,1.69.72l9.41-3.49Z"/><path class="cls-21" d="M464.82,240.35s0-.09,0-.12c.27-1,.56-1.15.75-1.15a1,1,0,0,1,0-.46c.48-1.46,1-.13,1-.13,1.36,2,5.57,3.84,5.57,3.84l1.43.31a33.33,33.33,0,0,1,.79-3.41l3,5.51c.1.25-1.48,2.48-2.15,3.21s-2,2.52-2,2.66-3.12-2-4.23-3a47.79,47.79,0,0,1-4.13-3.7,1.84,1.84,0,0,1-.47-1.78A1.67,1.67,0,0,1,464.82,240.35Z"/><path class="cls-22" d="M464.84,240.27a3.54,3.54,0,0,0,.43,1.16,5.45,5.45,0,0,0,.73,1,6.59,6.59,0,0,0,.94.81c.16.12.34.22.51.34l.55.27c-.33-.23-.67-.46-1-.72a9.94,9.94,0,0,1-.89-.82,7.66,7.66,0,0,1-.74-1A4.58,4.58,0,0,1,464.84,240.27Z"/><path class="cls-22" d="M464.43,242.17a3.44,3.44,0,0,0,.51,1.12,5.6,5.6,0,0,0,1.81,1.68l.54.29.57.23c-.35-.21-.71-.41-1-.64a9.78,9.78,0,0,1-.95-.75,7.65,7.65,0,0,1-.82-.89A5.2,5.2,0,0,1,464.43,242.17Z"/><path class="cls-22" d="M465.59,239.08a3.46,3.46,0,0,0,.43,1.16,4.75,4.75,0,0,0,.73,1,5.52,5.52,0,0,0,.93.81c.17.13.35.23.52.34l.55.28c-.34-.24-.67-.47-1-.73a7.72,7.72,0,0,1-.89-.82,6.81,6.81,0,0,1-.75-1A4.82,4.82,0,0,1,465.59,239.08Z"/><path class="cls-21" d="M520.06,255.08,509.85,270.5l-13.56-2.68-23-17.21,4-6s21.57,13,23.41,13.32,6.84-11.36,6.84-11.36Z"/><path class="cls-16" d="M528.81,228.92c-1.12,6.11-4,20.28-8.28,26.82,0,0-10.23-.74-16-7.74,0,0,7.88-19.47,9.94-23.46,1.65-3.21,9.62-12.74,13.56-3.28A13.55,13.55,0,0,1,528.81,228.92Z"/><rect class="cls-19" x="385.93" y="271.16" width="3.59" height="98.4"/><rect class="cls-19" x="419.84" y="271.16" width="3.59" height="98.4"/><rect class="cls-19" x="522.41" y="271.16" width="3.59" height="98.4"/><rect class="cls-19" x="556.32" y="271.16" width="3.59" height="98.4"/><rect class="cls-20" x="376.31" y="266.05" width="193.72" height="6.27" rx="2.02"/><path class="cls-3" d="M523.88,200.25s3.27-11.72-3.08-16.47-13.32-4.57-18.17-2.13-8.08,11.58-6.2,17l15.92-4.33Z"/><path class="cls-22" d="M499.57,200.13a2.41,2.41,0,1,1-3.26-1.9A2.71,2.71,0,0,1,499.57,200.13Z"/><path class="cls-21" d="M499.83,209a12.85,12.85,0,0,1-.91-2.08,23.47,23.47,0,0,1-1.14-5.82c0-.38-.08-.77-.14-1.15a12.49,12.49,0,0,1,.19-4.85,12.56,12.56,0,0,1,24.78,3.15,2.7,2.7,0,0,1,2.45-.14c1.48.69,2,2.76,1.1,4.61s-2.76,2.79-4.24,2.09a2.1,2.1,0,0,1-.56-.37A11.78,11.78,0,0,1,509.45,215a11.23,11.23,0,0,1-7.59-3.34c-.13-.11-.27-.25-.42-.4A10.81,10.81,0,0,1,499.83,209Z"/><path class="cls-22" d="M507.24,197.79c-.09.72-.15,1.42-.24,2.11a4.86,4.86,0,0,1-.54,1.83l-.06.07-.08.09a1.73,1.73,0,0,0-.21.25,1.42,1.42,0,0,0,.21,1.85,2.37,2.37,0,0,0,2.12.6,3,3,0,0,1-1.69-1,.89.89,0,0,1-.2-.74.76.76,0,0,1,.15-.33c0-.05.09-.1.13-.15l.09-.11.12-.13a2.88,2.88,0,0,0,.43-1.12,5.94,5.94,0,0,0,.09-1.11A7.75,7.75,0,0,0,507.24,197.79Z"/><path class="cls-18" d="M511.31,199.09a1.1,1.1,0,1,0,2.19.08,1.1,1.1,0,1,0-2.19-.08Z"/><path class="cls-18" d="M501.88,199.37a1.1,1.1,0,1,0,1.13-1.06A1.1,1.1,0,0,0,501.88,199.37Z"/><path class="cls-3" d="M510.14,196.5a12.68,12.68,0,0,1,1.63-.25,5.44,5.44,0,0,1,1.52.09,5,5,0,0,1,1.43.51,7,7,0,0,1,.7.4c.24.14.45.31.72.46a4.46,4.46,0,0,0-.43-.77,3.14,3.14,0,0,0-.61-.65,3.56,3.56,0,0,0-1.64-.8,3.81,3.81,0,0,0-1.81.09A3.45,3.45,0,0,0,510.14,196.5Z"/><path class="cls-3" d="M505.28,196.65a3.35,3.35,0,0,0-1.53-.88,3.69,3.69,0,0,0-1.81,0,3.51,3.51,0,0,0-1.62.84,3.73,3.73,0,0,0-.59.67,4.88,4.88,0,0,0-.4.79c.26-.16.47-.34.7-.49s.45-.31.69-.41a5.13,5.13,0,0,1,1.41-.56,5.86,5.86,0,0,1,1.52-.14A12.35,12.35,0,0,1,505.28,196.65Z"/><path class="cls-3" d="M522.42,198.37a1.92,1.92,0,0,1,1.3-.52l-.16-3.85-1.09-2.36s-4.38-6.41-4.54-6.57-3.62-2.33-3.84-2.44-5.22.42-5.22.42-8.68-2.17-7.4,2.48,7.57,7.33,7.9,7.15c-1-1.08-1-4-1-4C512.71,193.79,521.11,197.77,522.42,198.37Z"/><path class="cls-9" d="M504.15,206a3.27,3.27,0,0,0,6.29.41Z"/><rect class="cls-33" x="514.21" y="266.05" width="55.82" height="6.27" rx="2.02"/><rect class="cls-13" x="388.44" y="252.55" width="24.95" height="4.88"/><rect class="cls-34" x="431.22" y="258.73" width="2.7" height="7.32"/><rect class="cls-11" y="369.65" width="1027" height="5.35" rx="1.73"/><rect class="cls-19" x="604.42" y="271.16" width="3.59" height="98.4"/><rect class="cls-19" x="638.32" y="271.16" width="3.59" height="98.4"/><rect class="cls-19" x="740.89" y="271.16" width="3.59" height="98.4"/><rect class="cls-19" x="774.8" y="271.16" width="3.59" height="98.4"/><rect class="cls-20" x="594.79" y="266.05" width="193.72" height="6.27" rx="2.02"/><rect class="cls-33" x="732.46" y="266.05" width="55.82" height="6.27" rx="2.02"/><rect class="cls-33" x="951.3" y="266.05" width="55.82" height="6.27" rx="2.02"/></g></g></g></svg>