<svg width="105" height="30" viewBox="0 0 105 30" fill="none" xmlns="http://www.w3.org/2000/svg">
<path d="M41.7027 9.136V14.946H47.5827V9.136H46.4487V11.054H42.8367V9.136H41.7027ZM42.8367 11.964H46.4487V14.022H42.8367V11.964ZM50.2007 8.492V15.786H51.3487V8.492H50.2007ZM43.2287 16.472V20.854H51.3487V16.472H43.2287ZM50.2287 17.396V19.93H44.3487V17.396H50.2287ZM61.1476 15.03H58.0256V10.662H61.1476V15.03ZM56.8776 15.03H54.9596V15.968H64.2136V15.03H62.2956V10.662H64.2416V9.738H54.9316V10.662H56.8776V15.03ZM53.9236 18.474V19.426H65.3056V18.474H53.9236ZM73.0605 18.544V16.178H77.0785V15.254H69.3505V13.224H76.7845V9.402H68.1885V10.34H75.6645V12.3H68.2165V16.178H71.8985V18.544H66.7885V19.482H78.1985V18.544H73.0605ZM84.8615 11.712V12.65H86.7515V16.066H87.8435V8.758H86.7515V11.712H84.8615ZM85.8415 14.68C84.2735 14.008 83.3915 12.524 83.3915 11.138V10.438H85.5475V9.5H79.9755V10.438H82.2855V11.152C82.2855 12.65 81.3615 14.274 79.7375 14.974L80.3395 15.856C81.5575 15.31 82.4255 14.274 82.8595 13.056C83.2935 14.148 84.1195 15.058 85.2675 15.562L85.8415 14.68ZM81.8375 17.648H89.1315V21.05H90.2795V16.724H81.8375V17.648ZM89.1735 8.492V16.164H90.2795V8.492H89.1735ZM102.64 15.254H95.1784V13.266H102.234V12.356H95.1784V10.494H102.514V9.57H94.0164V16.178H102.64V15.254ZM92.5464 18.474V19.412H103.942V18.474H92.5464Z" fill="#767676"/>
<path d="M29.5314 9.375V8.4375H28.5939V6.5625C28.5939 5.01141 27.3325 3.75 25.7814 3.75H12.6564C11.1053 3.75 9.84391 5.01141 9.84391 6.5625V8.4375H8.90641V9.375H9.84391V10.8389L8.41609 10.268L4.21891 12.3666V13.9308L1.05109 13.1391L0.824219 14.0484L4.21891 14.8973V21.6656L0.824219 22.5141L1.05109 23.423L4.21891 22.6312V24.1959L8.41609 26.295L17.9027 22.5H25.8677C26.0617 23.0442 26.5773 23.4375 27.1877 23.4375H28.1252C28.9005 23.4375 29.5314 22.8066 29.5314 22.0312V14.5312C29.5314 13.9209 29.1381 13.4053 28.5939 13.2113V9.375H29.5314ZM10.7814 6.5625C10.7814 5.52844 11.6223 4.6875 12.6564 4.6875H25.7814C26.8155 4.6875 27.6564 5.52844 27.6564 6.5625V8.4375H26.7189V6.5625C26.7189 6.04547 26.2984 5.625 25.7814 5.625H12.6564C12.1394 5.625 11.7189 6.04547 11.7189 6.5625V8.4375H10.7814V6.5625ZM25.7814 9.375V14.0625H24.8439C24.8439 13.5455 24.4234 13.125 23.9064 13.125H20.1564C19.6394 13.125 19.2189 13.5455 19.2189 14.0625H17.9031L12.6564 11.9639V9.375H13.5939V8.4375H12.6564V6.5625H25.7814V8.4375H24.8439V9.375H25.7814ZM20.1564 18.75C19.6394 18.75 19.2189 19.1705 19.2189 19.6875V21.5625H18.2814V15H19.2189C19.2189 15.517 19.6394 15.9375 20.1564 15.9375H23.9064C24.4234 15.9375 24.8439 15.517 24.8439 15H25.7814V18.75H20.1564ZM25.7814 19.6875V21.5625H20.1564V19.6875H25.7814ZM23.9064 14.0625L23.9069 15H22.0314V14.0625H23.9064ZM21.0939 15H20.1564V14.0625H21.0939V15ZM7.96891 15H7.03141V14.0625H7.96891V15ZM7.96891 18.75H7.03141V17.8125H7.96891V18.75ZM7.96891 22.5H7.03141V21.5625H7.96891V22.5ZM8.90641 11.4736L10.7814 12.2236V24.3389L8.90641 25.0889V11.4736ZM11.7189 12.5986L12.6564 12.9736V23.5889L11.7189 23.9639V12.5986ZM13.5939 13.3486L14.5314 13.7236V22.8389L13.5939 23.2139V13.3486ZM10.7814 9.375H11.7189V11.5889L10.7814 11.2139V9.375ZM5.15641 12.9459L7.96891 11.5397V13.125H6.09391V15.9375H7.96891V16.875H6.09391V19.6875H7.96891V20.625H6.09391V23.4375H7.96891V25.0223L5.15641 23.6161V12.9459ZM17.3439 21.7139L15.4689 22.4639V14.0986L17.3439 14.8486V21.7139ZM28.5939 22.0312C28.5939 22.29 28.3839 22.5 28.1252 22.5H27.1877C26.9289 22.5 26.7189 22.29 26.7189 22.0312V14.5312C26.7189 14.273 26.9289 14.0625 27.1877 14.0625H28.1252C28.3839 14.0625 28.5939 14.273 28.5939 14.5312V22.0312ZM27.6564 13.125H27.1877C27.0231 13.125 26.8652 13.1536 26.7189 13.2052V9.375H27.6564V13.125Z" fill="#787878"/>
</svg>
