<svg width="45" height="54" viewBox="0 0 45 54" fill="none" xmlns="http://www.w3.org/2000/svg">
<path d="M12.544 36.928V48H11.088V39.744L7.408 48H6.384L2.688 39.728V48H1.232V36.928H2.8L6.896 46.08L10.992 36.928H12.544ZM20.0693 48.112C19.0346 48.112 18.0906 47.872 17.2373 47.392C16.3839 46.9013 15.7066 46.224 15.2053 45.36C14.7146 44.4853 14.4693 43.504 14.4693 42.416C14.4693 41.328 14.7146 40.352 15.2053 39.488C15.7066 38.6133 16.3839 37.936 17.2373 37.456C18.0906 36.9653 19.0346 36.72 20.0693 36.72C21.1146 36.72 22.0639 36.9653 22.9173 37.456C23.7706 37.936 24.4426 38.608 24.9333 39.472C25.4239 40.336 25.6693 41.3173 25.6693 42.416C25.6693 43.5147 25.4239 44.496 24.9333 45.36C24.4426 46.224 23.7706 46.9013 22.9173 47.392C22.0639 47.872 21.1146 48.112 20.0693 48.112ZM20.0693 46.848C20.8479 46.848 21.5466 46.6667 22.1653 46.304C22.7946 45.9413 23.2853 45.424 23.6373 44.752C23.9999 44.08 24.1813 43.3013 24.1813 42.416C24.1813 41.52 23.9999 40.7413 23.6373 40.08C23.2853 39.408 22.7999 38.8907 22.1813 38.528C21.5626 38.1653 20.8586 37.984 20.0693 37.984C19.2799 37.984 18.5759 38.1653 17.9573 38.528C17.3386 38.8907 16.8479 39.408 16.4853 40.08C16.1333 40.7413 15.9573 41.52 15.9573 42.416C15.9573 43.3013 16.1333 44.08 16.4853 44.752C16.8479 45.424 17.3386 45.9413 17.9573 46.304C18.5866 46.6667 19.2906 46.848 20.0693 46.848ZM33.4634 48L30.8074 43.44H29.0474V48H27.5914V36.848H31.1914C32.034 36.848 32.7434 36.992 33.3194 37.28C33.906 37.568 34.3434 37.9573 34.6314 38.448C34.9194 38.9387 35.0634 39.4987 35.0634 40.128C35.0634 40.896 34.8394 41.5733 34.3914 42.16C33.954 42.7467 33.2927 43.136 32.4074 43.328L35.2074 48H33.4634ZM29.0474 42.272H31.1914C31.9807 42.272 32.5727 42.08 32.9674 41.696C33.362 41.3013 33.5594 40.7787 33.5594 40.128C33.5594 39.4667 33.362 38.9547 32.9674 38.592C32.5834 38.2293 31.9914 38.048 31.1914 38.048H29.0474V42.272ZM38.7818 38.032V41.76H42.8458V42.96H38.7818V46.8H43.3258V48H37.3258V36.832H43.3258V38.032H38.7818Z" fill="white"/>
<path d="M30.75 16.25H23.25V23.75H20.75V16.25H13.25V13.75H20.75V6.25H23.25V13.75H30.75V16.25Z" fill="white"/>
</svg>
